<?xml version="1.0" encoding="utf-8"?>
<!-- Generator: Adobe Illustrator 15.0.0, SVG Export Plug-In . SVG Version: 6.00 Build 0)  -->
<!DOCTYPE svg PUBLIC "-//W3C//DTD SVG 1.1//EN" "http://www.w3.org/Graphics/SVG/1.1/DTD/svg11.dtd">
<svg version="1.1" id="Layer_1" xmlns="http://www.w3.org/2000/svg" xmlns:xlink="http://www.w3.org/1999/xlink" x="0px" y="0px"
	 width="119.25px" height="118.98px" viewBox="0 0 119.25 118.98" enable-background="new 0 0 119.25 118.98" xml:space="preserve">
<polygon fill="#FFD520" points="59.626,117.328 59.626,117.328 60.664,117.179 61.702,116.735 61.702,116.735 62.591,116.142 
	63.334,115.4 115.684,63.198 115.684,63.198 116.426,62.456 116.87,61.566 117.314,60.677 117.463,59.491 117.463,59.491 
	117.314,58.451 116.87,57.414 116.87,57.414 116.277,56.524 115.684,55.783 63.48,3.581 63.48,3.581 62.591,2.839 61.553,2.246 
	61.553,2.246 60.664,1.801 59.626,1.653 59.626,1.653 58.587,1.801 57.549,2.246 56.659,2.839 55.77,3.581 3.568,55.783 
	3.568,55.783 2.826,56.524 2.233,57.563 2.233,57.563 1.937,58.451 1.788,59.491 1.788,59.491 1.937,60.677 2.381,61.716 
	2.381,61.716 2.975,62.456 3.568,63.198 55.77,115.4 55.77,115.4 56.659,116.142 57.697,116.735 57.697,116.735 58.587,117.179 "/>
<path d="M114.498,62.308L114.498,62.308l0.593-0.742l0.444-0.593l0.296-0.742v-0.74l0,0v-0.594l-0.296-0.742l-0.444-0.593
	l-0.593-0.742L62.295,4.619l0,0l-0.593-0.593l-0.741-0.445l-0.595-0.146l-0.74-0.148l0,0l-0.742,0.148l-0.592,0.146L57.55,4.026
	l-0.593,0.593L4.754,56.821l0,0L4.16,57.563l-0.445,0.593l-0.296,0.742v0.594l0,0v0.74l0.296,0.742l0.445,0.593l0.594,0.742
	l52.202,52.198l0,0l0.593,0.597l0.742,0.297l0.592,0.296l0.742,0.146l0,0l0.74-0.146l0.595-0.296l0.741-0.297l0.593-0.597
	L114.498,62.308L114.498,62.308L114.498,62.308z M113.163,58.302L113.163,58.302l0.444,0.598l0.146,0.296l0.146,0.298l0,0
	l-0.146,0.444l-0.146,0.296l-0.444,0.594l-52.202,52.202l0,0l-0.742,0.594l-0.297,0.147h-0.296l0,0H59.33l-0.297-0.147l-0.741-0.594
	L6.089,60.825l0,0l-0.444-0.594l-0.149-0.296l-0.147-0.444l0,0l0.147-0.298l0.149-0.296L6.089,58.3L58.292,6.101l0,0l0.741-0.597
	L59.33,5.36h0.296l0,0h0.296l0.297,0.146l0.742,0.597L113.163,58.302L113.163,58.302L113.163,58.302z"/>
<g enable-background="new    ">
	<path fill="#999999" d="M49.48,96.937v2.729c0,0.201,0.01,0.432,0.02,0.582h-0.386l-0.02-0.393H49.08
		c-0.128,0.255-0.415,0.441-0.806,0.441c-0.579,0-1.028-0.462-1.028-1.146c-0.005-0.752,0.494-1.207,1.073-1.207
		c0.371,0,0.613,0.164,0.722,0.339h0.01v-1.349L49.48,96.937L49.48,96.937z M49.05,98.911c0-0.051-0.005-0.121-0.02-0.172
		c-0.064-0.258-0.302-0.473-0.628-0.473c-0.45,0-0.717,0.374-0.717,0.865c0,0.456,0.242,0.84,0.707,0.84
		c0.292,0,0.559-0.188,0.638-0.491c0.015-0.062,0.02-0.111,0.02-0.182V98.911z"/>
	<path fill="#999999" d="M50.208,98.604c0-0.24-0.01-0.425-0.02-0.61h0.38l0.02,0.369h0.015c0.133-0.215,0.356-0.414,0.756-0.414
		c0.321,0,0.569,0.187,0.671,0.451h0.01c0.074-0.131,0.174-0.226,0.271-0.295c0.145-0.104,0.297-0.158,0.524-0.158
		c0.321,0,0.791,0.196,0.791,0.979v1.324h-0.425v-1.271c0-0.439-0.174-0.695-0.52-0.695c-0.252,0-0.439,0.174-0.52,0.37
		c-0.02,0.06-0.034,0.131-0.034,0.206v1.396h-0.425V98.9c0-0.359-0.168-0.616-0.5-0.616c-0.267,0-0.47,0.207-0.539,0.412
		c-0.025,0.058-0.035,0.133-0.035,0.202v1.354h-0.425v-1.646h0.003v-0.005L50.208,98.604L50.208,98.604z"/>
	<path fill="#999999" d="M54.438,97.992l0.471,1.266c0.078,0.21,0.144,0.396,0.192,0.582h0.015c0.055-0.186,0.125-0.374,0.203-0.582
		l0.465-1.266h0.455l-0.939,2.26h-0.415l-0.91-2.26H54.438z"/>
	<path fill="#999999" d="M58.662,96.937v2.729c0,0.201,0.01,0.432,0.02,0.582h-0.386l-0.021-0.393H58.26
		c-0.129,0.255-0.416,0.441-0.807,0.441c-0.578,0-1.027-0.462-1.027-1.146c-0.005-0.752,0.494-1.207,1.072-1.207
		c0.371,0,0.613,0.164,0.723,0.339h0.012v-1.349L58.662,96.937L58.662,96.937z M58.23,98.911c0-0.051-0.004-0.121-0.02-0.172
		c-0.064-0.258-0.303-0.473-0.629-0.473c-0.449,0-0.717,0.374-0.717,0.865c0,0.456,0.242,0.84,0.707,0.84
		c0.293,0,0.56-0.188,0.639-0.491c0.016-0.062,0.02-0.111,0.02-0.182V98.911z"/>
	<path fill="#999999" d="M61.07,99.71c0,0.195,0.011,0.39,0.035,0.54H60.71l-0.03-0.285h-0.019
		c-0.138,0.182-0.396,0.336-0.731,0.336c-0.483,0-0.732-0.321-0.732-0.646c0-0.546,0.517-0.846,1.438-0.841v-0.047
		c0-0.186-0.058-0.525-0.542-0.521c-0.229,0-0.461,0.063-0.629,0.17l-0.099-0.272c0.196-0.116,0.487-0.195,0.792-0.195
		c0.729,0,0.906,0.472,0.906,0.921v0.848h0.004V99.71H61.07z M60.65,99.098c-0.479-0.015-1.019,0.066-1.019,0.508
		c0,0.271,0.188,0.394,0.406,0.394c0.313,0,0.521-0.188,0.588-0.378c0.021-0.048,0.021-0.095,0.021-0.131v-0.393H60.65z"/>
	<path fill="#999999" d="M61.671,100.009c0-0.169,0.124-0.295,0.296-0.295c0.174,0,0.292,0.121,0.292,0.295
		c0,0.168-0.118,0.3-0.303,0.3C61.788,100.302,61.671,100.176,61.671,100.009z"/>
	<path fill="#999999" d="M64.504,100.172c-0.113,0.058-0.365,0.137-0.688,0.137c-0.726,0-1.191-0.466-1.191-1.155
		c0-0.693,0.507-1.202,1.285-1.202c0.258,0,0.484,0.059,0.604,0.122l-0.099,0.312c-0.104-0.053-0.269-0.104-0.506-0.104
		c-0.55,0-0.847,0.388-0.847,0.853c0,0.524,0.354,0.85,0.832,0.85c0.246,0,0.405-0.059,0.528-0.104L64.504,100.172z"/>
	<path fill="#999999" d="M67.15,99.103c0,0.835-0.618,1.196-1.189,1.196c-0.645,0-1.146-0.445-1.146-1.157
		c0-0.752,0.528-1.196,1.188-1.196C66.686,97.945,67.15,98.416,67.15,99.103z M65.256,99.126c0,0.494,0.297,0.87,0.723,0.87
		c0.416,0,0.729-0.372,0.729-0.879c0-0.383-0.201-0.864-0.717-0.864C65.479,98.254,65.256,98.701,65.256,99.126z"/>
	<path fill="#999999" d="M67.7,98.604c0-0.24-0.011-0.425-0.021-0.61h0.381l0.021,0.369h0.017c0.137-0.215,0.354-0.414,0.756-0.414
		c0.322,0,0.569,0.187,0.676,0.451h0.013c0.071-0.131,0.174-0.226,0.271-0.295c0.146-0.104,0.297-0.158,0.521-0.158
		c0.32,0,0.791,0.196,0.791,0.979v1.324h-0.426v-1.271c0-0.439-0.174-0.695-0.521-0.695c-0.253,0-0.438,0.174-0.521,0.37
		c-0.021,0.06-0.032,0.131-0.032,0.206v1.396h-0.428V98.9c0-0.359-0.168-0.616-0.497-0.616c-0.271,0-0.472,0.207-0.538,0.412
		c-0.021,0.058-0.035,0.133-0.035,0.202v1.354H67.7v-1.646l0,0V98.604z"/>
</g>
<g enable-background="new    ">
	<path d="M41.571,37.433c0.625-0.113,1.534-0.198,2.373-0.198c1.321,0,2.188,0.256,2.77,0.781c0.469,0.426,0.753,1.079,0.753,1.832
		c0,1.25-0.795,2.089-1.79,2.43v0.042c0.725,0.256,1.165,0.938,1.392,1.933c0.313,1.335,0.54,2.259,0.739,2.628h-1.278
		c-0.156-0.284-0.37-1.094-0.625-2.287c-0.284-1.321-0.81-1.818-1.932-1.861h-1.165v4.148h-1.236V37.433z M42.807,41.795h1.265
		c1.321,0,2.159-0.725,2.159-1.818c0-1.235-0.895-1.775-2.202-1.775c-0.597,0-1.008,0.043-1.222,0.1V41.795z"/>
	<path d="M57.442,41.994c0,3.281-2.003,5.043-4.446,5.043c-2.543,0-4.305-1.975-4.305-4.873c0-3.04,1.875-5.028,4.433-5.028
		C55.751,37.135,57.442,39.138,57.442,41.994z M49.998,42.135c0,2.061,1.108,3.893,3.068,3.893s3.068-1.804,3.068-3.978
		c0-1.918-0.994-3.906-3.054-3.906C51.021,38.144,49.998,40.048,49.998,42.135z"/>
	<path d="M60.4,43.869l-0.994,3.012h-1.279l3.267-9.575h1.479l3.267,9.575h-1.321l-1.022-3.012H60.4z M63.555,42.903l-0.952-2.756
		c-0.214-0.625-0.354-1.193-0.497-1.747h-0.029c-0.142,0.554-0.283,1.15-0.482,1.732l-0.938,2.771H63.555z"/>
	<path d="M67.549,37.448c0.754-0.128,1.648-0.213,2.629-0.213c1.775,0,3.04,0.426,3.878,1.193c0.866,0.781,1.364,1.889,1.364,3.438
		c0,1.563-0.498,2.841-1.379,3.722c-0.908,0.896-2.387,1.378-4.247,1.378c-0.896,0-1.62-0.042-2.245-0.113V37.448z M68.785,45.915
		c0.313,0.042,0.768,0.057,1.25,0.057c2.656,0,4.077-1.478,4.077-4.063c0.015-2.259-1.265-3.694-3.878-3.694
		c-0.639,0-1.123,0.058-1.449,0.128V45.915z"/>
</g>
<g enable-background="new    ">
	<path fill="none" stroke="#000000" stroke-width="0.4" stroke-miterlimit="10" d="M41.571,37.433
		c0.625-0.113,1.534-0.198,2.373-0.198c1.321,0,2.188,0.256,2.77,0.781c0.469,0.426,0.753,1.079,0.753,1.832
		c0,1.25-0.795,2.089-1.79,2.43v0.042c0.725,0.256,1.165,0.938,1.392,1.933c0.313,1.335,0.54,2.259,0.739,2.628h-1.278
		c-0.156-0.284-0.37-1.094-0.625-2.287c-0.284-1.321-0.81-1.818-1.932-1.861h-1.165v4.148h-1.236V37.433z M42.807,41.795h1.265
		c1.321,0,2.159-0.725,2.159-1.818c0-1.235-0.895-1.775-2.202-1.775c-0.597,0-1.008,0.043-1.222,0.1V41.795z"/>
	<path fill="none" stroke="#000000" stroke-width="0.4" stroke-miterlimit="10" d="M57.442,41.994c0,3.281-2.003,5.043-4.446,5.043
		c-2.543,0-4.305-1.975-4.305-4.873c0-3.04,1.875-5.028,4.433-5.028C55.751,37.135,57.442,39.138,57.442,41.994z M49.998,42.135
		c0,2.061,1.108,3.893,3.068,3.893s3.068-1.804,3.068-3.978c0-1.918-0.994-3.906-3.054-3.906
		C51.021,38.144,49.998,40.048,49.998,42.135z"/>
	<path fill="none" stroke="#000000" stroke-width="0.4" stroke-miterlimit="10" d="M60.4,43.869l-0.994,3.012h-1.279l3.267-9.575
		h1.479l3.267,9.575h-1.321l-1.022-3.012H60.4z M63.555,42.903l-0.952-2.756c-0.214-0.625-0.354-1.193-0.497-1.747h-0.029
		c-0.142,0.554-0.283,1.15-0.482,1.732l-0.938,2.771H63.555z"/>
	<path fill="none" stroke="#000000" stroke-width="0.4" stroke-miterlimit="10" d="M67.549,37.448
		c0.754-0.128,1.648-0.213,2.629-0.213c1.775,0,3.04,0.426,3.878,1.193c0.866,0.781,1.364,1.889,1.364,3.438
		c0,1.563-0.498,2.841-1.379,3.722c-0.908,0.896-2.387,1.378-4.247,1.378c-0.896,0-1.62-0.042-2.245-0.113V37.448z M68.785,45.915
		c0.313,0.042,0.768,0.057,1.25,0.057c2.656,0,4.077-1.478,4.077-4.063c0.015-2.259-1.265-3.694-3.878-3.694
		c-0.639,0-1.123,0.058-1.449,0.128V45.915z"/>
</g>
<g enable-background="new    ">
	<path d="M17.978,63.636c-0.44,0.227-1.364,0.454-2.529,0.454c-2.699,0-4.716-1.705-4.716-4.858c0-3.012,2.032-5.029,5-5.029
		c1.179,0,1.946,0.256,2.273,0.427l-0.313,1.009c-0.455-0.228-1.122-0.398-1.917-0.398c-2.245,0-3.736,1.436-3.736,3.949
		c0,2.358,1.35,3.851,3.665,3.851c0.767,0,1.534-0.156,2.032-0.398L17.978,63.636z"/>
	<path d="M27.428,59.048c0,3.281-2.003,5.043-4.446,5.043c-2.543,0-4.305-1.975-4.305-4.873c0-3.04,1.875-5.028,4.433-5.028
		C25.737,54.189,27.428,56.192,27.428,59.048z M19.984,59.189c0,2.061,1.108,3.893,3.068,3.893s3.068-1.804,3.068-3.978
		c0-1.918-0.994-3.906-3.054-3.906C21.007,55.198,19.984,57.101,19.984,59.189z"/>
	<path d="M29.037,63.934v-9.575H30.4l3.054,4.845c0.696,1.122,1.265,2.131,1.705,3.111l0.042-0.015
		c-0.114-1.278-0.142-2.443-0.142-3.935v-4.007h1.165v9.575h-1.25l-3.04-4.858c-0.667-1.065-1.307-2.159-1.775-3.196l-0.043,0.014
		c0.071,1.208,0.085,2.358,0.085,3.949v4.092H29.037z"/>
	<path d="M38.231,62.428c0.554,0.355,1.35,0.625,2.202,0.625c1.264,0,2.003-0.668,2.003-1.634c0-0.881-0.512-1.406-1.804-1.89
		c-1.563-0.567-2.529-1.392-2.529-2.728c0-1.491,1.236-2.6,3.097-2.6c0.966,0,1.69,0.228,2.103,0.469l-0.341,1.009
		c-0.298-0.185-0.938-0.454-1.804-0.454c-1.307,0-1.804,0.781-1.804,1.435c0,0.895,0.582,1.335,1.903,1.847
		c1.62,0.625,2.429,1.406,2.429,2.813c0,1.478-1.08,2.771-3.338,2.771c-0.923,0-1.932-0.284-2.443-0.625L38.231,62.428z"/>
	<path d="M47.212,55.411H44.3v-1.052h7.089v1.052h-2.927v8.523h-1.25V55.411z"/>
	<path d="M52.457,54.487c0.625-0.113,1.534-0.198,2.373-0.198c1.321,0,2.188,0.256,2.77,0.781c0.469,0.426,0.753,1.079,0.753,1.832
		c0,1.25-0.795,2.089-1.79,2.43v0.042c0.725,0.256,1.165,0.938,1.392,1.933c0.313,1.335,0.54,2.259,0.739,2.628h-1.278
		c-0.156-0.284-0.37-1.094-0.625-2.287c-0.284-1.321-0.81-1.818-1.932-1.861h-1.165v4.148h-1.236V54.487z M53.693,58.848h1.265
		c1.321,0,2.159-0.725,2.159-1.818c0-1.235-0.895-1.775-2.202-1.775c-0.597,0-1.008,0.043-1.222,0.1V58.848z"/>
	<path d="M61.338,54.359v5.683c0,2.131,0.953,3.04,2.23,3.04c1.406,0,2.33-0.938,2.33-3.04v-5.683h1.25v5.598
		c0,2.94-1.549,4.134-3.622,4.134c-1.96,0-3.438-1.108-3.438-4.091v-5.641H61.338z"/>
	<path d="M75.975,63.636c-0.441,0.227-1.364,0.454-2.529,0.454c-2.699,0-4.717-1.705-4.717-4.858c0-3.012,2.032-5.029,5.001-5.029
		c1.179,0,1.946,0.256,2.272,0.427l-0.313,1.009c-0.454-0.228-1.121-0.398-1.917-0.398c-2.245,0-3.736,1.436-3.736,3.949
		c0,2.358,1.35,3.851,3.665,3.851c0.768,0,1.534-0.156,2.031-0.398L75.975,63.636z"/>
	<path d="M79.756,55.411h-2.912v-1.052h7.09v1.052h-2.928v8.523h-1.25V55.411z"/>
	<path d="M86.236,54.359v9.575h-1.25v-9.575H86.236z"/>
	<path d="M96.58,59.048c0,3.281-2.003,5.043-4.446,5.043c-2.543,0-4.305-1.975-4.305-4.873c0-3.04,1.876-5.028,4.433-5.028
		C94.89,54.189,96.58,56.192,96.58,59.048z M89.137,59.189c0,2.061,1.107,3.893,3.068,3.893c1.96,0,3.068-1.804,3.068-3.978
		c0-1.918-0.994-3.906-3.055-3.906C90.159,55.198,89.137,57.101,89.137,59.189z"/>
	<path d="M98.189,63.934v-9.575h1.363l3.055,4.845c0.696,1.122,1.265,2.131,1.705,3.111l0.043-0.015
		c-0.114-1.278-0.143-2.443-0.143-3.935v-4.007h1.165v9.575h-1.251l-3.039-4.858c-0.668-1.065-1.307-2.159-1.775-3.196l-0.043,0.014
		c0.07,1.208,0.085,2.358,0.085,3.949v4.092H98.189z"/>
</g>
<g enable-background="new    ">
	<path fill="none" stroke="#000000" stroke-width="0.4" stroke-miterlimit="10" d="M17.978,63.636
		c-0.44,0.227-1.364,0.454-2.529,0.454c-2.699,0-4.716-1.705-4.716-4.858c0-3.012,2.032-5.029,5-5.029
		c1.179,0,1.946,0.256,2.273,0.427l-0.313,1.009c-0.455-0.228-1.122-0.398-1.917-0.398c-2.245,0-3.736,1.436-3.736,3.949
		c0,2.358,1.35,3.851,3.665,3.851c0.767,0,1.534-0.156,2.032-0.398L17.978,63.636z"/>
	<path fill="none" stroke="#000000" stroke-width="0.4" stroke-miterlimit="10" d="M27.428,59.048c0,3.281-2.003,5.043-4.446,5.043
		c-2.543,0-4.305-1.975-4.305-4.873c0-3.04,1.875-5.028,4.433-5.028C25.737,54.189,27.428,56.192,27.428,59.048z M19.984,59.189
		c0,2.061,1.108,3.893,3.068,3.893s3.068-1.804,3.068-3.978c0-1.918-0.994-3.906-3.054-3.906
		C21.007,55.198,19.984,57.101,19.984,59.189z"/>
	<path fill="none" stroke="#000000" stroke-width="0.4" stroke-miterlimit="10" d="M29.037,63.934v-9.575H30.4l3.054,4.845
		c0.696,1.122,1.265,2.131,1.705,3.111l0.042-0.015c-0.114-1.278-0.142-2.443-0.142-3.935v-4.007h1.165v9.575h-1.25l-3.04-4.858
		c-0.667-1.065-1.307-2.159-1.775-3.196l-0.043,0.014c0.071,1.208,0.085,2.358,0.085,3.949v4.092H29.037z"/>
	<path fill="none" stroke="#000000" stroke-width="0.4" stroke-miterlimit="10" d="M38.231,62.428
		c0.554,0.355,1.35,0.625,2.202,0.625c1.264,0,2.003-0.668,2.003-1.634c0-0.881-0.512-1.406-1.804-1.89
		c-1.563-0.567-2.529-1.392-2.529-2.728c0-1.491,1.236-2.6,3.097-2.6c0.966,0,1.69,0.228,2.103,0.469l-0.341,1.009
		c-0.298-0.185-0.938-0.454-1.804-0.454c-1.307,0-1.804,0.781-1.804,1.435c0,0.895,0.582,1.335,1.903,1.847
		c1.62,0.625,2.429,1.406,2.429,2.813c0,1.478-1.08,2.771-3.338,2.771c-0.923,0-1.932-0.284-2.443-0.625L38.231,62.428z"/>
	<path fill="none" stroke="#000000" stroke-width="0.4" stroke-miterlimit="10" d="M47.212,55.411H44.3v-1.052h7.089v1.052h-2.927
		v8.523h-1.25V55.411z"/>
	<path fill="none" stroke="#000000" stroke-width="0.4" stroke-miterlimit="10" d="M52.457,54.487
		c0.625-0.113,1.534-0.198,2.373-0.198c1.321,0,2.188,0.256,2.77,0.781c0.469,0.426,0.753,1.079,0.753,1.832
		c0,1.25-0.795,2.089-1.79,2.43v0.042c0.725,0.256,1.165,0.938,1.392,1.933c0.313,1.335,0.54,2.259,0.739,2.628h-1.278
		c-0.156-0.284-0.37-1.094-0.625-2.287c-0.284-1.321-0.81-1.818-1.932-1.861h-1.165v4.148h-1.236V54.487z M53.693,58.848h1.265
		c1.321,0,2.159-0.725,2.159-1.818c0-1.235-0.895-1.775-2.202-1.775c-0.597,0-1.008,0.043-1.222,0.1V58.848z"/>
	<path fill="none" stroke="#000000" stroke-width="0.4" stroke-miterlimit="10" d="M61.338,54.359v5.683
		c0,2.131,0.953,3.04,2.23,3.04c1.406,0,2.33-0.938,2.33-3.04v-5.683h1.25v5.598c0,2.94-1.549,4.134-3.622,4.134
		c-1.96,0-3.438-1.108-3.438-4.091v-5.641H61.338z"/>
	<path fill="none" stroke="#000000" stroke-width="0.4" stroke-miterlimit="10" d="M75.975,63.636
		c-0.441,0.227-1.364,0.454-2.529,0.454c-2.699,0-4.717-1.705-4.717-4.858c0-3.012,2.032-5.029,5.001-5.029
		c1.179,0,1.946,0.256,2.272,0.427l-0.313,1.009c-0.454-0.228-1.121-0.398-1.917-0.398c-2.245,0-3.736,1.436-3.736,3.949
		c0,2.358,1.35,3.851,3.665,3.851c0.768,0,1.534-0.156,2.031-0.398L75.975,63.636z"/>
	<path fill="none" stroke="#000000" stroke-width="0.4" stroke-miterlimit="10" d="M79.756,55.411h-2.912v-1.052h7.09v1.052h-2.928
		v8.523h-1.25V55.411z"/>
	<path fill="none" stroke="#000000" stroke-width="0.4" stroke-miterlimit="10" d="M86.236,54.359v9.575h-1.25v-9.575H86.236z"/>
	<path fill="none" stroke="#000000" stroke-width="0.4" stroke-miterlimit="10" d="M96.58,59.048c0,3.281-2.003,5.043-4.446,5.043
		c-2.543,0-4.305-1.975-4.305-4.873c0-3.04,1.876-5.028,4.433-5.028C94.89,54.189,96.58,56.192,96.58,59.048z M89.137,59.189
		c0,2.061,1.107,3.893,3.068,3.893c1.96,0,3.068-1.804,3.068-3.978c0-1.918-0.994-3.906-3.055-3.906
		C90.159,55.198,89.137,57.101,89.137,59.189z"/>
	<path fill="none" stroke="#000000" stroke-width="0.4" stroke-miterlimit="10" d="M98.189,63.934v-9.575h1.363l3.055,4.845
		c0.696,1.122,1.265,2.131,1.705,3.111l0.043-0.015c-0.114-1.278-0.143-2.443-0.143-3.935v-4.007h1.165v9.575h-1.251l-3.039-4.858
		c-0.668-1.065-1.307-2.159-1.775-3.196l-0.043,0.014c0.07,1.208,0.085,2.358,0.085,3.949v4.092H98.189z"/>
</g>
<g enable-background="new    ">
	<path d="M39.36,77.975l-0.994,3.012h-1.279l3.268-9.575h1.478l3.267,9.575h-1.321l-1.022-3.012H39.36z M42.514,77.01l-0.952-2.756
		c-0.213-0.625-0.355-1.193-0.497-1.747h-0.029c-0.142,0.554-0.284,1.15-0.483,1.732l-0.938,2.771H42.514z"/>
	<path d="M47.745,71.412v4.007h4.631v-4.007h1.25v9.575h-1.25v-4.489h-4.631v4.489h-1.25v-9.575H47.745z"/>
	<path d="M60.719,76.498h-3.708v3.452h4.149v1.037h-5.399v-9.575h5.185v1.037h-3.935v3.026h3.708V76.498z"/>
	<path d="M64.315,77.975l-0.994,3.012h-1.278l3.268-9.575h1.477l3.268,9.575h-1.321l-1.022-3.012H64.315z M67.469,77.01
		l-0.951-2.756c-0.213-0.625-0.355-1.193-0.497-1.747h-0.028c-0.143,0.554-0.284,1.15-0.483,1.732l-0.938,2.771H67.469z"/>
	<path d="M71.465,71.554c0.753-0.128,1.648-0.213,2.628-0.213c1.776,0,3.04,0.426,3.878,1.193c0.867,0.781,1.364,1.889,1.364,3.438
		c0,1.563-0.497,2.841-1.378,3.722c-0.909,0.896-2.387,1.378-4.248,1.378c-0.895,0-1.619-0.042-2.244-0.113V71.554z M72.701,80.021
		c0.313,0.042,0.767,0.057,1.25,0.057c2.656,0,4.076-1.478,4.076-4.063c0.016-2.259-1.264-3.694-3.877-3.694
		c-0.64,0-1.123,0.058-1.449,0.128V80.021z"/>
</g>
<g enable-background="new    ">
	<path fill="none" stroke="#000000" stroke-width="0.4" stroke-miterlimit="10" d="M39.36,77.975l-0.994,3.012h-1.279l3.268-9.575
		h1.478l3.267,9.575h-1.321l-1.022-3.012H39.36z M42.514,77.01l-0.952-2.756c-0.213-0.625-0.355-1.193-0.497-1.747h-0.029
		c-0.142,0.554-0.284,1.15-0.483,1.732l-0.938,2.771H42.514z"/>
	<path fill="none" stroke="#000000" stroke-width="0.4" stroke-miterlimit="10" d="M47.745,71.412v4.007h4.631v-4.007h1.25v9.575
		h-1.25v-4.489h-4.631v4.489h-1.25v-9.575H47.745z"/>
	<path fill="none" stroke="#000000" stroke-width="0.4" stroke-miterlimit="10" d="M60.719,76.498h-3.708v3.452h4.149v1.037h-5.399
		v-9.575h5.185v1.037h-3.935v3.026h3.708V76.498z"/>
	<path fill="none" stroke="#000000" stroke-width="0.4" stroke-miterlimit="10" d="M64.315,77.975l-0.994,3.012h-1.278l3.268-9.575
		h1.477l3.268,9.575h-1.321l-1.022-3.012H64.315z M67.469,77.01l-0.951-2.756c-0.213-0.625-0.355-1.193-0.497-1.747h-0.028
		c-0.143,0.554-0.284,1.15-0.483,1.732l-0.938,2.771H67.469z"/>
	<path fill="none" stroke="#000000" stroke-width="0.4" stroke-miterlimit="10" d="M71.465,71.554
		c0.753-0.128,1.648-0.213,2.628-0.213c1.776,0,3.04,0.426,3.878,1.193c0.867,0.781,1.364,1.889,1.364,3.438
		c0,1.563-0.497,2.841-1.378,3.722c-0.909,0.896-2.387,1.378-4.248,1.378c-0.895,0-1.619-0.042-2.244-0.113V71.554z M72.701,80.021
		c0.313,0.042,0.767,0.057,1.25,0.057c2.656,0,4.076-1.478,4.076-4.063c0.016-2.259-1.264-3.694-3.877-3.694
		c-0.64,0-1.123,0.058-1.449,0.128V80.021z"/>
</g>
</svg>
