<?xml version="1.0" encoding="utf-8"?>
<!-- Generator: Adobe Illustrator 15.0.0, SVG Export Plug-In . SVG Version: 6.00 Build 0)  -->
<!DOCTYPE svg PUBLIC "-//W3C//DTD SVG 1.1//EN" "http://www.w3.org/Graphics/SVG/1.1/DTD/svg11.dtd">
<svg version="1.1" id="Layer_1" xmlns="http://www.w3.org/2000/svg" xmlns:xlink="http://www.w3.org/1999/xlink" x="0px" y="0px"
	 width="132.414px" height="66.5px" viewBox="0 0 132.414 66.5" enable-background="new 0 0 132.414 66.5" xml:space="preserve">
<g>
	<path fill="#FFFFFF" d="M-0.352,41.604c0,7.647,2.42,10.197,9.682,10.197h113.05c7.26,0,9.682-2.55,9.682-10.197V9.999
		c0-7.65-2.422-10.198-9.682-10.198H9.33c-7.261,0-9.682,2.55-9.682,10.198V41.604L-0.352,41.604z"/>
	<path d="M1.699,40.328c0,7.031,2.344,9.376,9.376,9.376h109.483c7.031,0,9.377-2.345,9.377-9.376V11.275
		c0-7.033-2.346-9.376-9.377-9.376H11.076c-7.033,0-9.376,2.344-9.376,9.376L1.699,40.328L1.699,40.328z"/>
	<path fill="#F58220" d="M92.451,5.878c-1.617-1.132-3.07-1.132-4.527-0.162c-0.646,0.647-1.617,1.941-0.971,3.882l1.779,5.337
		H9.998v21.672H88.73l-1.779,5.34c-0.646,2.104,0.324,3.232,0.973,3.881c1.455,0.971,2.91,0.971,4.525-0.161l28.793-19.896
		L92.451,5.878z M78.16,17.551h5.252h0.338c2.758,0,4.771,1.918,4.771,4.533c0,1.751-0.672,2.877-2.4,3.98l2.711,7.459h-2.639
		l-2.588-7.004l-2.998,0.023v6.979H78.16V17.551L78.16,17.551z M83.964,24.002H84.3c0.959,0,1.727-0.888,1.727-2.015
		c0-1.056-0.816-1.966-1.775-1.966h-0.215h-3.43v4.004L83.964,24.002z M52.871,32.061c-0.624-0.84-1.08-1.896-1.295-3.047
		c-0.216-1.08-0.312-2.229-0.312-3.43c0-5.42,1.918-8.395,5.42-8.395c1.583,0,3.214,0.768,4.101,1.918
		c0.983,1.318,1.535,3.55,1.535,6.188c0,2.613-0.479,4.846-1.367,6.309c-0.768,1.295-2.542,2.183-4.221,2.183
		C55.293,33.787,53.663,33.066,52.871,32.061z M59.898,25.561c0-3.934-1.031-5.924-3.021-5.924c-1.007,0-1.991,0.576-2.399,1.415
		c-0.479,0.936-0.767,2.662-0.767,4.413c0,1.367,0.215,2.975,0.528,4.006c0.36,1.198,1.271,1.869,2.494,1.869
		C58.843,31.34,59.898,29.421,59.898,25.561z M15.078,17.551h4.581h0.264c3.381,0,5.851,3.358,5.851,7.963
		c0,4.867-2.518,8.01-6.451,8.01h-0.311h-3.934V17.551z M17.573,31.005l1.919-0.024h0.264c2.183,0,3.549-2.135,3.549-5.467
		c0-3.285-1.391-5.492-3.501-5.492h-0.287h-1.943L17.573,31.005L17.573,31.005z M27.95,17.551h9.209v2.494h-6.715v3.98h4.605v2.519
		h-4.605v4.438h7.267v2.541H27.95V17.551z M43.051,19.805h-3.597v-2.254h9.736v2.254h-3.597v13.719h-2.542V19.805L43.051,19.805z
		 M67.347,17.551V27.96v0.215c0,1.966,1.127,3.189,2.854,3.189c1.75,0,2.9-1.271,2.9-3.189V27.91V17.55h2.494v10.408v0.168
		c0,3.356-2.252,5.756-5.371,5.756c-1.871,0-3.765-1.079-4.652-2.638c-0.456-0.814-0.695-1.823-0.695-2.95v-0.239V17.55
		L67.347,17.551L67.347,17.551z"/>
</g>
<g>
	<path fill="#999999" d="M53.364,43.802v2.218c0,0.164,0.01,0.352,0.02,0.477h-0.387l-0.02-0.314H52.96
		c-0.128,0.205-0.415,0.356-0.806,0.356c-0.58,0-1.028-0.375-1.028-0.935c-0.005-0.607,0.493-0.979,1.073-0.979
		c0.371,0,0.612,0.134,0.722,0.274h0.01v-1.098L53.364,43.802L53.364,43.802z M52.932,45.406c0-0.042-0.007-0.1-0.021-0.141
		c-0.063-0.209-0.304-0.387-0.629-0.387c-0.449,0-0.718,0.307-0.718,0.705c0,0.369,0.241,0.68,0.707,0.68
		c0.293,0,0.56-0.148,0.64-0.396c0.015-0.047,0.021-0.093,0.021-0.146V45.406z"/>
	<path fill="#999999" d="M54.09,45.156c0-0.19-0.011-0.346-0.021-0.493h0.381l0.021,0.3h0.017c0.133-0.175,0.354-0.337,0.756-0.337
		c0.32,0,0.568,0.147,0.672,0.364h0.01c0.074-0.104,0.175-0.184,0.271-0.236c0.145-0.083,0.297-0.13,0.522-0.13
		c0.319,0,0.791,0.157,0.791,0.796v1.074h-0.426v-1.032c0-0.354-0.173-0.563-0.52-0.563c-0.252,0-0.44,0.143-0.521,0.3
		c-0.02,0.051-0.035,0.104-0.035,0.167V46.5h-0.425v-1.102c0-0.291-0.168-0.5-0.5-0.5c-0.267,0-0.47,0.166-0.539,0.334
		c-0.023,0.047-0.034,0.104-0.034,0.162v1.104h-0.426v-1.342L54.09,45.156L54.09,45.156z"/>
	<path fill="#999999" d="M58.321,44.659l0.469,1.024c0.08,0.172,0.146,0.319,0.193,0.476h0.016c0.056-0.149,0.123-0.306,0.203-0.476
		l0.463-1.024h0.455l-0.938,1.833h-0.415l-0.91-1.833H58.321z"/>
	<path fill="#999999" d="M62.544,43.802v2.218c0,0.164,0.013,0.352,0.021,0.477h-0.39l-0.021-0.314h-0.017
		c-0.129,0.205-0.416,0.356-0.808,0.356c-0.578,0-1.027-0.375-1.027-0.935c-0.006-0.607,0.494-0.979,1.072-0.979
		c0.371,0,0.613,0.134,0.724,0.274h0.013v-1.098L62.544,43.802L62.544,43.802z M62.111,45.406c0-0.042-0.005-0.1-0.021-0.141
		c-0.063-0.209-0.305-0.387-0.63-0.387c-0.449,0-0.717,0.307-0.717,0.705c0,0.369,0.24,0.68,0.707,0.68
		c0.292,0,0.56-0.148,0.64-0.396c0.016-0.047,0.021-0.093,0.021-0.146V45.406z"/>
	<path fill="#999999" d="M64.951,46.052c0,0.158,0.014,0.313,0.034,0.438h-0.394l-0.033-0.229H64.54
		c-0.133,0.146-0.395,0.271-0.729,0.271c-0.481,0-0.729-0.263-0.729-0.524c0-0.439,0.519-0.688,1.438-0.686v-0.036
		c0-0.146-0.059-0.425-0.543-0.421c-0.229,0-0.461,0.052-0.629,0.139l-0.102-0.226c0.193-0.097,0.484-0.157,0.79-0.157
		c0.729,0,0.91,0.383,0.91,0.744L64.951,46.052L64.951,46.052z M64.531,45.557c-0.478-0.012-1.015,0.059-1.015,0.41
		c0,0.223,0.188,0.317,0.402,0.317c0.313,0,0.521-0.15,0.59-0.31c0.019-0.037,0.021-0.076,0.021-0.104L64.531,45.557L64.531,45.557z
		"/>
	<path fill="#999999" d="M65.551,46.296c0-0.14,0.125-0.237,0.299-0.237s0.293,0.1,0.293,0.237s-0.119,0.235-0.305,0.235
		C65.67,46.534,65.551,46.432,65.551,46.296z"/>
	<path fill="#999999" d="M68.386,46.427c-0.112,0.042-0.364,0.104-0.689,0.104c-0.724,0-1.189-0.375-1.189-0.938
		c0-0.563,0.504-0.979,1.285-0.979c0.258,0,0.482,0.051,0.604,0.103l-0.104,0.254c-0.104-0.043-0.268-0.087-0.504-0.087
		c-0.551,0-0.849,0.313-0.849,0.688c0,0.429,0.354,0.688,0.832,0.688c0.246,0,0.408-0.045,0.531-0.087L68.386,46.427z"/>
	<path fill="#999999" d="M71.031,45.561c0,0.68-0.617,0.976-1.189,0.976c-0.645,0-1.146-0.361-1.146-0.94
		c0-0.606,0.527-0.972,1.188-0.972C70.568,44.621,71.031,45.003,71.031,45.561z M69.138,45.58c0,0.398,0.299,0.704,0.725,0.704
		c0.416,0,0.729-0.302,0.729-0.714c0-0.313-0.201-0.699-0.719-0.699C69.361,44.872,69.138,45.234,69.138,45.58z"/>
	<path fill="#999999" d="M71.582,45.156c0-0.19-0.012-0.346-0.021-0.493h0.381l0.021,0.3h0.018c0.137-0.175,0.354-0.337,0.758-0.337
		c0.318,0,0.566,0.147,0.674,0.364h0.012c0.072-0.104,0.172-0.184,0.27-0.236c0.146-0.083,0.297-0.13,0.521-0.13
		c0.32,0,0.791,0.157,0.791,0.796v1.074H74.58v-1.032c0-0.354-0.174-0.563-0.52-0.563c-0.256,0-0.439,0.143-0.521,0.3
		c-0.021,0.051-0.035,0.104-0.035,0.167V46.5H73.08v-1.102c0-0.291-0.168-0.5-0.498-0.5c-0.27,0-0.475,0.166-0.539,0.334
		c-0.023,0.047-0.033,0.104-0.033,0.162v1.104h-0.428V45.156L71.582,45.156z"/>
</g>
</svg>
