<?xml version="1.0" encoding="utf-8"?>
<!-- Generator: Adobe Illustrator 15.0.0, SVG Export Plug-In . SVG Version: 6.00 Build 0)  -->
<!DOCTYPE svg PUBLIC "-//W3C//DTD SVG 1.1//EN" "http://www.w3.org/Graphics/SVG/1.1/DTD/svg11.dtd">
<svg version="1.1" id="Layer_1" xmlns="http://www.w3.org/2000/svg" xmlns:xlink="http://www.w3.org/1999/xlink" x="0px" y="0px"
	 width="119.25px" height="118.98px" viewBox="0 0 119.25 118.98" enable-background="new 0 0 119.25 118.98" xml:space="preserve">
<polygon fill="#FFD520" points="59.626,117.328 59.626,117.328 60.664,117.179 61.702,116.735 61.702,116.735 62.591,116.142 
	63.334,115.4 115.684,63.198 115.684,63.198 116.426,62.456 116.87,61.566 117.314,60.677 117.463,59.491 117.463,59.491 
	117.314,58.451 116.87,57.414 116.87,57.414 116.277,56.524 115.684,55.783 63.48,3.581 63.48,3.581 62.591,2.839 61.553,2.246 
	61.553,2.246 60.664,1.801 59.626,1.653 59.626,1.653 58.587,1.801 57.549,2.246 56.659,2.839 55.77,3.581 3.568,55.783 
	3.568,55.783 2.826,56.524 2.233,57.563 2.233,57.563 1.937,58.451 1.788,59.491 1.788,59.491 1.937,60.677 2.381,61.716 
	2.381,61.716 2.975,62.456 3.568,63.198 55.77,115.4 55.77,115.4 56.659,116.142 57.697,116.735 57.697,116.735 58.587,117.179 "/>
<path d="M114.498,62.308L114.498,62.308l0.593-0.742l0.444-0.593l0.296-0.742v-0.74l0,0v-0.594l-0.296-0.742l-0.444-0.593
	l-0.593-0.742L62.295,4.619l0,0l-0.593-0.593l-0.741-0.445l-0.595-0.146l-0.74-0.148l0,0l-0.742,0.148l-0.592,0.146L57.55,4.026
	l-0.593,0.593L4.754,56.821l0,0L4.16,57.563l-0.445,0.593l-0.296,0.742v0.594l0,0v0.74l0.296,0.742l0.445,0.593l0.594,0.742
	l52.202,52.197l0,0l0.593,0.598l0.742,0.297l0.592,0.296l0.742,0.146l0,0l0.74-0.146l0.595-0.296l0.741-0.297l0.593-0.598
	L114.498,62.308L114.498,62.308L114.498,62.308z M113.163,58.302L113.163,58.302l0.444,0.599l0.146,0.296l0.146,0.298l0,0
	l-0.146,0.444l-0.146,0.296l-0.444,0.594L60.961,113.03l0,0l-0.742,0.594l-0.297,0.147h-0.296l0,0H59.33l-0.297-0.147l-0.741-0.594
	L6.089,60.825l0,0l-0.444-0.594l-0.149-0.296l-0.147-0.444l0,0l0.147-0.298l0.149-0.296L6.089,58.3L58.292,6.101l0,0l0.741-0.598
	L59.33,5.36h0.296l0,0h0.296l0.297,0.146l0.742,0.598L113.163,58.302L113.163,58.302L113.163,58.302z"/>
<g enable-background="new    ">
	<path fill="#999999" d="M49.48,96.937v2.729c0,0.201,0.01,0.433,0.02,0.582h-0.386l-0.02-0.393H49.08
		c-0.128,0.255-0.415,0.44-0.806,0.44c-0.579,0-1.028-0.462-1.028-1.146c-0.005-0.752,0.494-1.207,1.073-1.207
		c0.371,0,0.613,0.164,0.722,0.339h0.01v-1.349L49.48,96.937L49.48,96.937z M49.05,98.911c0-0.051-0.005-0.121-0.02-0.172
		c-0.064-0.258-0.302-0.473-0.628-0.473c-0.45,0-0.717,0.374-0.717,0.864c0,0.456,0.242,0.841,0.707,0.841
		c0.292,0,0.559-0.188,0.638-0.491c0.015-0.063,0.02-0.111,0.02-0.183V98.911z"/>
	<path fill="#999999" d="M50.208,98.604c0-0.24-0.01-0.425-0.02-0.61h0.38l0.02,0.369h0.015c0.133-0.215,0.356-0.414,0.756-0.414
		c0.321,0,0.569,0.187,0.671,0.451h0.01c0.074-0.131,0.174-0.227,0.271-0.295c0.145-0.104,0.297-0.158,0.524-0.158
		c0.321,0,0.791,0.196,0.791,0.979v1.324h-0.425v-1.271c0-0.439-0.174-0.695-0.52-0.695c-0.252,0-0.439,0.174-0.52,0.37
		c-0.02,0.06-0.034,0.131-0.034,0.206v1.396h-0.425V98.9c0-0.359-0.168-0.616-0.5-0.616c-0.267,0-0.47,0.207-0.539,0.412
		c-0.025,0.058-0.035,0.133-0.035,0.202v1.354h-0.425v-1.646h0.003v-0.005L50.208,98.604L50.208,98.604z"/>
	<path fill="#999999" d="M54.438,97.992l0.471,1.266c0.078,0.21,0.144,0.396,0.192,0.582h0.015c0.055-0.186,0.125-0.374,0.203-0.582
		l0.465-1.266h0.455l-0.939,2.26h-0.415l-0.91-2.26H54.438z"/>
	<path fill="#999999" d="M58.662,96.937v2.729c0,0.201,0.01,0.433,0.02,0.582h-0.386l-0.021-0.393H58.26
		c-0.129,0.255-0.416,0.44-0.807,0.44c-0.578,0-1.027-0.462-1.027-1.146c-0.005-0.752,0.494-1.207,1.072-1.207
		c0.371,0,0.613,0.164,0.723,0.339h0.012v-1.349L58.662,96.937L58.662,96.937z M58.23,98.911c0-0.051-0.004-0.121-0.02-0.172
		c-0.064-0.258-0.303-0.473-0.629-0.473c-0.449,0-0.717,0.374-0.717,0.864c0,0.456,0.242,0.841,0.707,0.841
		c0.293,0,0.56-0.188,0.639-0.491c0.016-0.063,0.02-0.111,0.02-0.183V98.911z"/>
	<path fill="#999999" d="M61.07,99.71c0,0.195,0.011,0.391,0.035,0.54H60.71l-0.03-0.285h-0.019
		c-0.138,0.183-0.396,0.336-0.731,0.336c-0.483,0-0.732-0.32-0.732-0.646c0-0.546,0.517-0.846,1.438-0.841v-0.047
		c0-0.187-0.059-0.525-0.542-0.521c-0.229,0-0.461,0.063-0.629,0.17l-0.099-0.271c0.196-0.116,0.487-0.195,0.792-0.195
		c0.729,0,0.906,0.472,0.906,0.921v0.848h0.004V99.71H61.07z M60.65,99.098c-0.479-0.016-1.02,0.065-1.02,0.508
		c0,0.271,0.188,0.394,0.406,0.394c0.313,0,0.521-0.188,0.588-0.378c0.021-0.048,0.021-0.095,0.021-0.131v-0.393H60.65z"/>
	<path fill="#999999" d="M61.671,100.009c0-0.169,0.124-0.295,0.296-0.295c0.174,0,0.292,0.121,0.292,0.295
		c0,0.168-0.118,0.301-0.303,0.301C61.788,100.302,61.671,100.176,61.671,100.009z"/>
	<path fill="#999999" d="M64.504,100.172c-0.113,0.059-0.365,0.138-0.688,0.138c-0.727,0-1.191-0.467-1.191-1.155
		c0-0.693,0.507-1.202,1.285-1.202c0.258,0,0.484,0.059,0.604,0.122l-0.099,0.312c-0.104-0.053-0.269-0.104-0.506-0.104
		c-0.55,0-0.847,0.388-0.847,0.853c0,0.524,0.354,0.851,0.832,0.851c0.246,0,0.404-0.06,0.527-0.104L64.504,100.172z"/>
	<path fill="#999999" d="M67.15,99.103c0,0.835-0.618,1.195-1.189,1.195c-0.645,0-1.146-0.444-1.146-1.156
		c0-0.752,0.528-1.196,1.188-1.196C66.686,97.945,67.15,98.416,67.15,99.103z M65.256,99.126c0,0.494,0.297,0.87,0.723,0.87
		c0.416,0,0.729-0.372,0.729-0.879c0-0.383-0.201-0.864-0.717-0.864C65.479,98.254,65.256,98.701,65.256,99.126z"/>
	<path fill="#999999" d="M67.7,98.604c0-0.24-0.011-0.425-0.021-0.61h0.381l0.021,0.369h0.017c0.137-0.215,0.354-0.414,0.756-0.414
		c0.322,0,0.569,0.187,0.676,0.451h0.014c0.07-0.131,0.174-0.227,0.271-0.295c0.146-0.104,0.297-0.158,0.521-0.158
		c0.319,0,0.791,0.196,0.791,0.979v1.324H70.7v-1.271c0-0.439-0.175-0.695-0.521-0.695c-0.254,0-0.438,0.174-0.521,0.37
		c-0.021,0.06-0.032,0.131-0.032,0.206v1.396h-0.429V98.9c0-0.359-0.168-0.616-0.496-0.616c-0.271,0-0.473,0.207-0.538,0.412
		c-0.021,0.058-0.035,0.133-0.035,0.202v1.354H67.7v-1.646l0,0V98.604z"/>
</g>
<g>
	<path stroke="#000000" stroke-width="0.4" stroke-miterlimit="10" d="M25.176,43.633c1.086-0.167,2.377-0.28,3.793-0.28
		c2.562,0,4.385,0.56,5.595,1.566c1.251,1.024,1.969,2.477,1.969,4.508c0,2.05-0.717,3.727-1.989,4.882
		c-1.312,1.174-3.444,1.808-6.128,1.808c-1.292,0-2.337-0.056-3.238-0.149L25.176,43.633L25.176,43.633z M26.959,54.737
		c0.451,0.057,1.107,0.075,1.804,0.075c3.833,0,5.883-1.938,5.883-5.33c0.021-2.961-1.825-4.843-5.596-4.843
		c-0.921,0-1.619,0.075-2.089,0.167v9.932H26.959z"/>
	<path stroke="#000000" stroke-width="0.4" stroke-miterlimit="10" d="M40.604,43.446v12.557h-1.804V43.446H40.604z"/>
	<path stroke="#000000" stroke-width="0.4" stroke-miterlimit="10" d="M46.751,56.003l-4.53-12.557h1.947l2.152,6.186
		c0.573,1.695,1.086,3.223,1.476,4.694h0.041c0.39-1.453,0.942-3.035,1.579-4.675l2.337-6.205h1.906l-4.942,12.557H46.751z"/>
	<path stroke="#000000" stroke-width="0.4" stroke-miterlimit="10" d="M56.934,43.446v12.557H55.13V43.446H56.934z"/>
	<path stroke="#000000" stroke-width="0.4" stroke-miterlimit="10" d="M60.047,43.633c1.086-0.167,2.376-0.28,3.792-0.28
		c2.563,0,4.387,0.56,5.596,1.566c1.25,1.024,1.966,2.477,1.966,4.508c0,2.05-0.716,3.727-1.986,4.882
		c-1.312,1.174-3.443,1.808-6.131,1.808c-1.291,0-2.334-0.056-3.236-0.149V43.633z M61.829,54.737
		c0.452,0.057,1.105,0.075,1.805,0.075c3.833,0,5.884-1.938,5.884-5.33c0.021-2.961-1.825-4.843-5.597-4.843
		c-0.921,0-1.618,0.075-2.092,0.167V54.737L61.829,54.737z"/>
	<path stroke="#000000" stroke-width="0.4" stroke-miterlimit="10" d="M80.826,50.116h-5.351v4.528h5.983v1.359h-7.788V43.446h7.482
		v1.359h-5.678v3.969h5.351V50.116z"/>
	<path stroke="#000000" stroke-width="0.4" stroke-miterlimit="10" d="M83.773,43.633c1.087-0.167,2.377-0.28,3.793-0.28
		c2.561,0,4.387,0.56,5.596,1.566c1.25,1.024,1.966,2.477,1.966,4.508c0,2.05-0.716,3.727-1.986,4.882
		c-1.313,1.174-3.444,1.808-6.131,1.808c-1.292,0-2.336-0.056-3.237-0.149V43.633z M85.557,54.737
		c0.451,0.057,1.105,0.075,1.804,0.075c3.833,0,5.884-1.938,5.884-5.33c0.021-2.961-1.824-4.843-5.596-4.843
		c-0.921,0-1.618,0.075-2.092,0.167V54.737L85.557,54.737z"/>
	<path stroke="#000000" stroke-width="0.4" stroke-miterlimit="10" d="M35.747,65.983c0.902-0.149,2.214-0.263,3.423-0.263
		c1.906,0,3.156,0.335,3.997,1.025c0.676,0.559,1.086,1.416,1.086,2.402c0,1.642-1.147,2.739-2.583,3.188v0.055
		c1.045,0.335,1.681,1.23,2.009,2.535c0.451,1.752,0.779,2.963,1.066,3.444h-1.845c-0.227-0.371-0.533-1.435-0.902-2.997
		c-0.41-1.733-1.168-2.385-2.788-2.44H37.53v5.438h-1.783V65.983z M37.53,71.702h1.825c1.906,0,3.115-0.95,3.115-2.385
		c0-1.62-1.292-2.328-3.176-2.328c-0.862,0-1.456,0.056-1.763,0.13v4.583H37.53z"/>
	<path stroke="#000000" stroke-width="0.4" stroke-miterlimit="10" d="M58.639,71.963c0,4.304-2.892,6.614-6.417,6.614
		c-3.669,0-6.211-2.59-6.211-6.391c0-3.988,2.706-6.596,6.395-6.596C56.199,65.591,58.639,68.217,58.639,71.963z M47.896,72.148
		c0,2.702,1.599,5.107,4.428,5.107c2.828,0,4.428-2.369,4.428-5.219c0-2.516-1.435-5.125-4.406-5.125
		C49.375,66.912,47.896,69.411,47.896,72.148z"/>
	<path stroke="#000000" stroke-width="0.4" stroke-miterlimit="10" d="M62.895,74.423L61.46,78.37h-1.845l4.715-12.556h2.132
		l4.712,12.556h-1.907l-1.476-3.947H62.895z M67.446,73.154l-1.374-3.613c-0.307-0.82-0.513-1.564-0.717-2.292h-0.042
		c-0.204,0.728-0.409,1.51-0.694,2.272l-1.353,3.633H67.446z"/>
	<path stroke="#000000" stroke-width="0.4" stroke-miterlimit="10" d="M73.201,66c1.086-0.168,2.378-0.281,3.793-0.281
		c2.562,0,4.385,0.561,5.595,1.564c1.249,1.025,1.966,2.478,1.966,4.509c0,2.051-0.717,3.729-1.986,4.884
		c-1.312,1.172-3.443,1.808-6.131,1.808c-1.291,0-2.335-0.056-3.236-0.149V66z M74.984,77.106c0.45,0.055,1.104,0.074,1.804,0.074
		c3.832,0,5.883-1.938,5.883-5.329c0.021-2.963-1.824-4.845-5.595-4.845c-0.923,0-1.62,0.076-2.091,0.17L74.984,77.106
		L74.984,77.106z"/>
</g>
</svg>
