<?xml version="1.0" encoding="utf-8"?>
<!-- Generator: Adobe Illustrator 15.0.0, SVG Export Plug-In . SVG Version: 6.00 Build 0)  -->
<!DOCTYPE svg PUBLIC "-//W3C//DTD SVG 1.1//EN" "http://www.w3.org/Graphics/SVG/1.1/DTD/svg11.dtd">
<svg version="1.1" id="Layer_1" xmlns="http://www.w3.org/2000/svg" xmlns:xlink="http://www.w3.org/1999/xlink" x="0px" y="0px"
	 width="79.125px" height="78.324px" viewBox="0 0 79.125 78.324" enable-background="new 0 0 79.125 78.324" xml:space="preserve">
<g>
	<path fill="#FFD520" d="M2.309,36.684L36.994,1.999c1.366-1.362,3.592-1.362,4.957,0l34.687,34.686c1.364,1.366,1.364,3.59,0,4.957
		L41.95,76.327c-1.364,1.362-3.591,1.362-4.957,0L2.309,41.641C0.959,40.293,0.959,38.034,2.309,36.684"/>
	<path fill="none" d="M2.309,36.684L36.994,1.999c1.366-1.362,3.592-1.362,4.957,0l34.687,34.686c1.364,1.366,1.364,3.59,0,4.957
		L41.95,76.327c-1.364,1.362-3.591,1.362-4.957,0L2.309,41.641C0.959,40.293,0.959,38.034,2.309,36.684"/>
	<path fill-rule="evenodd" clip-rule="evenodd" fill="#231F20" d="M3.005,37.364L37.673,2.696c0.982-0.979,2.615-0.985,3.596,0
		l34.668,34.668c0.983,0.981,0.983,2.615,0,3.598L41.269,75.629c-0.984,0.984-2.613,0.979-3.596,0L3.005,40.962
		C2.022,39.978,2.022,38.348,3.005,37.364"/>
	<path fill-rule="evenodd" clip-rule="evenodd" fill="#FFD520" d="M3.98,38.315L38.624,3.673c0.459-0.476,1.237-0.476,1.694,0
		l34.646,34.642c0.474,0.457,0.471,1.237,0,1.693L40.317,74.655c-0.457,0.472-1.236,0.472-1.694,0L3.98,40.009
		C3.509,39.555,3.507,38.771,3.98,38.315"/>
	<path fill-rule="evenodd" clip-rule="evenodd" fill="#231F20" d="M57.57,33.488v5.223c0,2.558-0.595,5.083-1.674,7.4
		c-0.359,0.773-0.772,1.521-1.254,2.228c-0.883,1.303-1.854,2.557-2.513,3.995c-0.662,1.447-1.04,3.025-1.04,4.623v4.022H44.61
		v-4.022c0-1.759,0.253-3.515,0.742-5.2c0.442-1.527,1.078-3.029,1.981-4.345c0.444-0.648,0.957-1.253,1.455-1.861
		c0.446-0.539,0.864-1.089,1.167-1.717c0.784-1.613,1.055-3.408,1.07-5.186l0.034-5.16l-3.76,1.234
		c-0.119,0.052-0.226,0.085-0.355,0.096c-0.47,0.035-0.938-0.203-1.192-0.597c-0.218-0.341-0.265-0.787-0.138-1.168
		c0.065-0.201,0.175-0.304,0.289-0.471l8.364-12.058l8.488,12.092c0.214,0.303,0.34,0.408,0.355,0.769
		c0.025,0.512-0.143,0.939-0.581,1.229c-0.276,0.189-0.604,0.239-0.932,0.189c-0.093-0.014-0.147-0.049-0.233-0.08L57.57,33.488"/>
	<path fill-rule="evenodd" clip-rule="evenodd" fill="#231F20" d="M34.89,51.769l3.792-1.227c0.166-0.058,0.251-0.098,0.424-0.098
		c0.481,0,0.853,0.156,1.135,0.562c0.249,0.358,0.291,0.837,0.133,1.241c-0.069,0.179-0.159,0.254-0.265,0.401l-8.524,12.089
		l-8.333-12.056c-0.08-0.119-0.267-0.346-0.321-0.519c-0.039-0.126-0.064-0.26-0.066-0.395c-0.004-0.542,0.349-1.002,0.829-1.218
		c0.208-0.096,0.413-0.126,0.633-0.086c0.101,0.02,0.2,0.025,0.291,0.077l3.791,1.227l-0.029-5.151
		c-0.005-1.208-0.14-2.415-0.476-3.576c-0.264-0.911-0.644-1.812-1.223-2.57c-0.511-0.675-1.066-1.318-1.588-1.987
		c-0.438-0.568-0.825-1.181-1.154-1.819c-1.319-2.561-1.98-5.454-1.98-8.33v-4.048h6.484v4.048c0,2.224,0.726,4.44,1.965,6.28
		c0.484,0.72,0.996,1.424,1.48,2.142c0.52,0.77,0.976,1.583,1.359,2.425c1.071,2.322,1.646,4.848,1.646,7.404V51.769"/>
	<path fill-rule="evenodd" clip-rule="evenodd" fill="#231F20" d="M45.792,15.775c-0.028,1.24-0.06,2.479-0.142,3.715
		c-0.175,2.629-0.589,5.234-1.236,7.788c-0.53,2.069-1.079,4.171-1.989,6.112c-0.087,0.19-0.194,0.375-0.313,0.549
		c-0.495,0.73-1.161,1.184-2.027,1.366c-0.845,0.175-1.733-0.055-2.433-0.552c-0.493-0.35-0.846-0.873-1.074-1.428
		c-0.714-1.73-1.244-3.539-1.698-5.352c-0.71-2.807-1.27-5.649-1.488-8.536c-0.09-1.22-0.119-2.441-0.15-3.662H45.792"/>
</g>
<g enable-background="new    ">
	<path fill="#999999" d="M30.557,64.642v2.264c0,0.168,0.01,0.357,0.021,0.486h-0.395l-0.021-0.324h-0.015
		c-0.131,0.209-0.424,0.365-0.824,0.365c-0.593,0-1.05-0.383-1.05-0.953c-0.005-0.619,0.504-1,1.096-1
		c0.378,0,0.626,0.137,0.737,0.281h0.011v-1.119H30.557L30.557,64.642z M30.115,66.279c0-0.043-0.006-0.104-0.021-0.146
		c-0.065-0.215-0.31-0.395-0.643-0.395c-0.459,0-0.732,0.313-0.732,0.723c0,0.377,0.248,0.689,0.722,0.689
		c0.299,0,0.571-0.148,0.653-0.403c0.015-0.046,0.021-0.093,0.021-0.146V66.279z"/>
	<path fill="#999999" d="M31.299,66.024c0-0.197-0.011-0.354-0.021-0.506h0.389l0.021,0.305h0.017
		c0.136-0.178,0.363-0.344,0.772-0.344c0.327,0,0.581,0.154,0.687,0.375h0.01c0.076-0.107,0.177-0.188,0.277-0.244
		c0.147-0.084,0.303-0.133,0.534-0.133c0.327,0,0.808,0.164,0.808,0.813v1.103h-0.434v-1.06c0-0.359-0.176-0.574-0.53-0.574
		c-0.257,0-0.45,0.146-0.531,0.308c-0.021,0.051-0.036,0.104-0.036,0.172v1.156h-0.436v-1.123c0-0.3-0.172-0.513-0.511-0.513
		c-0.272,0-0.48,0.17-0.55,0.343c-0.025,0.049-0.036,0.105-0.036,0.163v1.13h-0.434v-1.367L31.299,66.024L31.299,66.024z"/>
	<path fill="#999999" d="M35.62,65.519l0.479,1.045c0.082,0.178,0.148,0.33,0.197,0.484h0.017c0.054-0.152,0.125-0.311,0.207-0.484
		l0.473-1.045h0.465L36.5,67.39h-0.423l-0.93-1.871H35.62z"/>
	<path fill="#999999" d="M39.934,64.642v2.264c0,0.168,0.01,0.357,0.021,0.486H39.56l-0.021-0.324h-0.015
		c-0.132,0.209-0.425,0.365-0.823,0.365c-0.592,0-1.05-0.383-1.05-0.953c-0.005-0.619,0.504-1,1.095-1
		c0.379,0,0.626,0.137,0.738,0.281h0.011v-1.119H39.934L39.934,64.642z M39.492,66.279c0-0.043-0.004-0.104-0.02-0.146
		c-0.065-0.215-0.31-0.395-0.642-0.395c-0.459,0-0.732,0.313-0.732,0.723c0,0.377,0.247,0.689,0.722,0.689
		c0.298,0,0.571-0.148,0.651-0.403c0.016-0.046,0.02-0.093,0.02-0.146L39.492,66.279L39.492,66.279z"/>
	<path fill="#999999" d="M42.395,66.938c0,0.162,0.012,0.32,0.033,0.447h-0.398l-0.035-0.232h-0.016
		c-0.137,0.146-0.402,0.275-0.746,0.275c-0.494,0-0.748-0.27-0.748-0.537c0-0.449,0.525-0.699,1.471-0.697v-0.037
		c0-0.148-0.059-0.436-0.557-0.43c-0.234,0-0.471,0.051-0.643,0.139l-0.104-0.229c0.201-0.102,0.499-0.162,0.811-0.162
		c0.744,0,0.93,0.391,0.93,0.764v0.699H42.395z M41.965,66.433c-0.482-0.01-1.037,0.063-1.037,0.422
		c0,0.229,0.191,0.324,0.414,0.324c0.32,0,0.531-0.152,0.604-0.313c0.021-0.039,0.021-0.078,0.021-0.106v-0.326H41.965z"/>
	<path fill="#999999" d="M43.006,67.188c0-0.141,0.127-0.244,0.303-0.244c0.182,0,0.303,0.104,0.303,0.244
		c0,0.14-0.121,0.242-0.313,0.242C43.127,67.431,43.006,67.326,43.006,67.188z"/>
	<path fill="#999999" d="M45.9,67.322c-0.117,0.043-0.373,0.106-0.703,0.106c-0.738,0-1.215-0.383-1.215-0.957
		c0-0.573,0.514-0.998,1.311-0.998c0.266,0,0.494,0.052,0.617,0.104l-0.102,0.26c-0.105-0.045-0.273-0.09-0.516-0.09
		c-0.563,0-0.865,0.318-0.865,0.705c0,0.438,0.363,0.701,0.852,0.701c0.25,0,0.418-0.045,0.543-0.088L45.9,67.322z"/>
	<path fill="#999999" d="M48.604,66.437c0,0.695-0.633,0.996-1.219,0.996c-0.652,0-1.168-0.371-1.168-0.963
		c0-0.621,0.539-0.99,1.209-0.99C48.129,65.478,48.604,65.867,48.604,66.437z M46.668,66.456c0,0.409,0.303,0.721,0.738,0.721
		c0.426,0,0.742-0.308,0.742-0.729c0-0.316-0.207-0.717-0.732-0.717C46.896,65.733,46.668,66.104,46.668,66.456z"/>
	<path fill="#999999" d="M49.164,66.024c0-0.197-0.01-0.354-0.02-0.506h0.389l0.02,0.305h0.02c0.141-0.178,0.361-0.344,0.771-0.344
		c0.328,0,0.58,0.154,0.689,0.375h0.012c0.074-0.107,0.176-0.188,0.275-0.244c0.145-0.084,0.305-0.133,0.533-0.133
		c0.324,0,0.809,0.164,0.809,0.813v1.103h-0.438v-1.06c0-0.359-0.178-0.574-0.529-0.574c-0.258,0-0.449,0.146-0.531,0.308
		c-0.021,0.051-0.035,0.104-0.035,0.172v1.156h-0.436v-1.123c0-0.3-0.17-0.513-0.508-0.513c-0.275,0-0.482,0.17-0.553,0.343
		c-0.023,0.049-0.033,0.105-0.033,0.163v1.13h-0.438v-1.367h0.002V66.024L49.164,66.024z"/>
</g>
</svg>
