<?xml version="1.0" encoding="utf-8"?>
<!-- Generator: Adobe Illustrator 19.2.1, SVG Export Plug-In . SVG Version: 6.00 Build 0)  -->
<svg version="1.1" xmlns="http://www.w3.org/2000/svg" xmlns:xlink="http://www.w3.org/1999/xlink" x="0px" y="0px"
	 viewBox="0 0 82.78 102.19" style="enable-background:new 0 0 82.78 102.19;" xml:space="preserve">
<style type="text/css">
	.st0{fill:#FFFFFF;}
	.st1{fill:#999999;}
	.st2{enable-background:new    ;}
	.st3{display:none;}
	.st4{display:inline;}
	.st5{font-family:'Arial-BoldMT';}
	.st6{font-size:27.2373px;}
</style>
<g id="Layer_1">
	<polygon class="st0" points="77.45,102.19 77.45,102.19 78.65,102.19 79.72,101.79 80.66,101.39 81.47,100.73 82,100.07 
		82.54,99.14 82.8,98.09 82.8,96.89 82.8,5.05 82.8,5.05 82.8,3.86 82.54,2.8 82,1.87 81.47,1.21 80.66,0.55 79.72,0.15 
		78.65,-0.25 77.45,-0.25 5.49,-0.25 5.49,-0.25 4.15,-0.25 3.08,0.15 2.14,0.55 1.34,1.21 0.8,1.87 0.27,2.8 0,3.86 0,5.05 
		0,96.89 0,96.89 0,98.09 0.27,99.14 0.8,100.07 1.34,100.73 2.14,101.39 3.08,101.79 4.15,102.19 5.49,102.19 	"/>
	<path d="M77.45,99.94L77.45,99.94h0.67l0.54-0.27l0.53-0.13l0.54-0.4l0.27-0.4l0.27-0.53l0.27-0.66V96.9V5.05l0,0V4.38l-0.27-0.66
		l-0.27-0.53l-0.27-0.4l-0.54-0.4l-0.53-0.13L78.11,2h-0.67H5.49l0,0h-0.8L4.15,2.27L3.62,2.4L3.08,2.8l-0.27,0.4L2.54,3.72
		L2.27,4.38v0.66V96.9l0,0v0.66l0.27,0.66l0.27,0.53l0.27,0.4l0.54,0.4l0.54,0.13l0.54,0.27h0.8L77.45,99.94L77.45,99.94z
		 M78.38,5.05V96.9l0,0v0.4l-0.27,0.27l-0.27,0.27h-0.4H5.49l0,0H4.96l-0.27-0.27l-0.27-0.26v-0.4V5.05l0,0v-0.4l0.27-0.27
		l0.27-0.26h0.54h71.95l0,0h0.4l0.27,0.26l0.27,0.27L78.38,5.05L78.38,5.05L78.38,5.05z"/>
	<g>
		<path class="st1" d="M32.66,94.05v1.71c0,0.13,0.01,0.27,0.02,0.37h-0.39l-0.02-0.24h-0.02c-0.13,0.16-0.42,0.27-0.81,0.27
			c-0.58,0-1.03-0.29-1.03-0.72c0-0.47,0.49-0.75,1.07-0.75c0.37,0,0.61,0.1,0.72,0.21h0.01v-0.85L32.66,94.05L32.66,94.05z
			 M32.23,95.29c0-0.03-0.01-0.08-0.02-0.11c-0.06-0.16-0.3-0.3-0.63-0.3c-0.45,0-0.72,0.24-0.72,0.54c0,0.29,0.24,0.52,0.71,0.52
			c0.29,0,0.56-0.11,0.64-0.31c0.02-0.04,0.02-0.07,0.02-0.11V95.29z"/>
		<path class="st1" d="M33.38,95.1c0-0.15-0.01-0.27-0.02-0.38h0.38l0.02,0.23h0.02c0.13-0.13,0.35-0.26,0.76-0.26
			c0.32,0,0.57,0.11,0.67,0.28h0.01c0.07-0.08,0.18-0.14,0.27-0.18c0.15-0.06,0.3-0.1,0.52-0.1c0.32,0,0.79,0.12,0.79,0.61v0.83
			h-0.43v-0.79c0-0.27-0.17-0.43-0.52-0.43c-0.25,0-0.44,0.11-0.52,0.23c-0.02,0.04-0.03,0.08-0.03,0.13v0.87h-0.43v-0.85
			c0-0.23-0.17-0.39-0.5-0.39c-0.27,0-0.47,0.13-0.54,0.26c-0.02,0.04-0.03,0.08-0.03,0.13v0.85h-0.43L33.38,95.1L33.38,95.1
			L33.38,95.1z"/>
		<path class="st1" d="M37.62,94.72l0.47,0.79c0.08,0.13,0.15,0.25,0.19,0.37h0.02c0.06-0.11,0.12-0.24,0.2-0.37l0.46-0.79h0.46
			l-0.94,1.41h-0.42l-0.91-1.41H37.62z"/>
		<path class="st1" d="M41.84,94.05v1.71c0,0.13,0.01,0.27,0.02,0.37h-0.39l-0.02-0.24h-0.01c-0.13,0.16-0.42,0.27-0.81,0.27
			c-0.58,0-1.03-0.29-1.03-0.72c-0.01-0.47,0.49-0.75,1.07-0.75c0.37,0,0.61,0.1,0.73,0.21h0.01v-0.85L41.84,94.05L41.84,94.05z
			 M41.4,95.29c0-0.03,0-0.08-0.02-0.11c-0.06-0.16-0.3-0.3-0.63-0.3c-0.45,0-0.72,0.24-0.72,0.54c0,0.29,0.24,0.52,0.71,0.52
			c0.29,0,0.56-0.11,0.64-0.31c0.02-0.04,0.02-0.07,0.02-0.11V95.29z"/>
		<path class="st1" d="M44.25,95.79c0,0.12,0.01,0.24,0.03,0.34h-0.4l-0.03-0.18h-0.02c-0.13,0.11-0.39,0.21-0.73,0.21
			c-0.48,0-0.73-0.2-0.73-0.4c0-0.34,0.52-0.53,1.44-0.53V95.2c0-0.11-0.06-0.33-0.54-0.32c-0.23,0-0.46,0.04-0.63,0.11l-0.1-0.17
			c0.19-0.07,0.48-0.12,0.79-0.12c0.73,0,0.91,0.29,0.91,0.57L44.25,95.79L44.25,95.79z M43.83,95.41
			c-0.48-0.01-1.01,0.05-1.01,0.32c0,0.17,0.19,0.24,0.4,0.24c0.31,0,0.52-0.11,0.59-0.24c0.02-0.03,0.02-0.06,0.02-0.08
			L43.83,95.41L43.83,95.41z"/>
		<path class="st1" d="M44.85,95.97c0-0.11,0.13-0.18,0.3-0.18c0.17,0,0.29,0.08,0.29,0.18c0,0.11-0.12,0.18-0.31,0.18
			C44.97,96.16,44.85,96.08,44.85,95.97z"/>
		<path class="st1" d="M47.68,96.08c-0.11,0.03-0.36,0.08-0.69,0.08c-0.72,0-1.19-0.29-1.19-0.72c0-0.44,0.51-0.75,1.28-0.75
			c0.26,0,0.48,0.04,0.6,0.08l-0.1,0.19c-0.1-0.03-0.27-0.07-0.5-0.07c-0.55,0-0.85,0.24-0.85,0.53c0,0.33,0.35,0.53,0.83,0.53
			c0.25,0,0.41-0.04,0.53-0.07L47.68,96.08z"/>
		<path class="st1" d="M50.32,95.41c0,0.52-0.62,0.75-1.19,0.75c-0.65,0-1.15-0.28-1.15-0.72c0-0.47,0.52-0.75,1.19-0.75
			C49.86,94.69,50.32,94.98,50.32,95.41z M48.43,95.42c0,0.31,0.3,0.54,0.73,0.54c0.42,0,0.73-0.23,0.73-0.55
			c0-0.24-0.2-0.54-0.72-0.54C48.65,94.88,48.43,95.16,48.43,95.42z"/>
		<path class="st1" d="M50.88,95.1c0-0.15-0.01-0.27-0.02-0.38h0.38l0.02,0.23h0.02c0.13-0.13,0.35-0.26,0.76-0.26
			c0.32,0,0.56,0.11,0.67,0.28h0.01c0.07-0.08,0.17-0.14,0.27-0.18c0.15-0.06,0.3-0.1,0.52-0.1c0.32,0,0.79,0.12,0.79,0.61v0.83
			h-0.43v-0.79c0-0.27-0.17-0.43-0.52-0.43c-0.26,0-0.44,0.11-0.52,0.23c-0.02,0.04-0.03,0.08-0.03,0.13v0.87h-0.42v-0.85
			c0-0.23-0.17-0.39-0.5-0.39c-0.27,0-0.47,0.13-0.54,0.26c-0.02,0.04-0.03,0.08-0.03,0.13v0.85h-0.43L50.88,95.1L50.88,95.1
			L50.88,95.1z"/>
	</g>
	<g class="st2">
		<path d="M26.18,13.72h5.94c1.34,0,2.36,0.12,3.07,0.37c0.95,0.34,1.75,0.94,2.43,1.8c0.67,0.86,1.19,1.91,1.54,3.16
			s0.53,2.78,0.53,4.61c0,1.6-0.17,2.99-0.5,4.15c-0.4,1.42-0.98,2.57-1.72,3.44c-0.56,0.67-1.33,1.18-2.29,1.56
			c-0.72,0.27-1.68,0.41-2.88,0.41h-6.12V13.72z M29.43,17.02v12.91h2.43c0.91,0,1.56-0.06,1.97-0.19c0.53-0.16,0.96-0.43,1.31-0.81
			c0.35-0.38,0.63-1.01,0.85-1.88c0.22-0.87,0.33-2.06,0.33-3.57c0-1.51-0.11-2.66-0.33-3.47c-0.22-0.81-0.53-1.44-0.92-1.89
			s-0.9-0.76-1.5-0.92c-0.45-0.12-1.34-0.19-2.67-0.19H29.43z"/>
		<path d="M41.78,23.59c0-1.99,0.25-3.65,0.74-5c0.37-0.99,0.87-1.88,1.5-2.67c0.63-0.79,1.33-1.37,2.08-1.76
			c1-0.51,2.16-0.77,3.47-0.77c2.37,0,4.27,0.89,5.7,2.67s2.14,4.26,2.14,7.43c0,3.15-0.71,5.61-2.12,7.39
			c-1.41,1.78-3.3,2.67-5.67,2.67c-2.39,0-4.3-0.88-5.71-2.65C42.49,29.13,41.78,26.69,41.78,23.59z M45.13,23.46
			c0,2.21,0.42,3.88,1.26,5.02c0.84,1.14,1.91,1.71,3.21,1.71s2.36-0.57,3.19-1.7c0.83-1.13,1.25-2.83,1.25-5.09
			c0-2.23-0.4-3.9-1.21-5c-0.81-1.1-1.88-1.65-3.22-1.65s-2.42,0.56-3.24,1.67C45.54,19.54,45.13,21.21,45.13,23.46z"/>
	</g>
	<g class="st2">
		<path d="M20.31,61.82v-19.5h3.16l6.59,13.02V42.32h3.02v19.5h-3.26l-6.49-12.71v12.71H20.31z"/>
		<path d="M35.87,52.19c0-1.99,0.25-3.65,0.74-5c0.37-0.99,0.87-1.88,1.5-2.67c0.63-0.79,1.33-1.37,2.08-1.76
			c1-0.51,2.16-0.77,3.47-0.77c2.37,0,4.27,0.89,5.7,2.67s2.14,4.26,2.14,7.43c0,3.15-0.71,5.61-2.12,7.39
			c-1.41,1.78-3.3,2.67-5.67,2.67c-2.39,0-4.3-0.88-5.71-2.65C36.57,57.73,35.87,55.3,35.87,52.19z M39.22,52.06
			c0,2.21,0.42,3.88,1.26,5.02c0.84,1.14,1.91,1.71,3.21,1.71s2.36-0.57,3.19-1.7c0.83-1.13,1.25-2.83,1.25-5.09
			c0-2.23-0.4-3.9-1.21-5c-0.81-1.1-1.88-1.65-3.22-1.65s-2.42,0.56-3.24,1.67C39.63,48.14,39.22,49.82,39.22,52.06z"/>
		<path d="M57.65,61.82v-16.2h-4.78v-3.3h12.8v3.3h-4.77v16.2H57.65z"/>
	</g>
	<g class="st2">
		<path d="M12.89,88.84v-19.5h5.22c1.98,0,3.27,0.1,3.87,0.29c0.92,0.29,1.7,0.93,2.32,1.91c0.62,0.98,0.93,2.25,0.93,3.8
			c0,1.2-0.18,2.2-0.54,3.02c-0.36,0.82-0.82,1.46-1.37,1.92c-0.55,0.47-1.12,0.77-1.69,0.92c-0.78,0.19-1.9,0.28-3.37,0.28h-2.12
			v7.35H12.89z M16.14,72.64v5.53h1.78c1.28,0,2.14-0.1,2.57-0.31s0.77-0.52,1.02-0.96c0.25-0.43,0.37-0.94,0.37-1.52
			c0-0.71-0.17-1.29-0.52-1.76c-0.34-0.46-0.78-0.75-1.31-0.86c-0.39-0.09-1.17-0.13-2.34-0.13H16.14z"/>
		<path d="M40.75,88.84h-3.54l-1.41-4.43h-6.44l-1.33,4.43h-3.45l6.27-19.5h3.44L40.75,88.84z M34.76,81.12l-2.22-7.23l-2.18,7.23
			H34.76z"/>
		<path d="M41.65,82.49l3.16-0.37c0.19,1.29,0.58,2.23,1.16,2.83c0.58,0.6,1.37,0.9,2.36,0.9c1.05,0,1.84-0.27,2.37-0.8
			c0.53-0.54,0.8-1.16,0.8-1.88c0-0.46-0.11-0.85-0.33-1.18c-0.22-0.32-0.61-0.6-1.17-0.84c-0.38-0.16-1.25-0.44-2.6-0.85
			c-1.74-0.52-2.97-1.17-3.67-1.93c-0.99-1.07-1.48-2.38-1.48-3.92c0-0.99,0.23-1.92,0.7-2.79c0.47-0.86,1.14-1.52,2.01-1.97
			s1.93-0.68,3.17-0.68c2.02,0,3.54,0.54,4.57,1.61c1.02,1.07,1.56,2.5,1.61,4.3l-3.25,0.17c-0.14-1-0.44-1.72-0.9-2.16
			c-0.46-0.44-1.14-0.66-2.06-0.66c-0.94,0-1.68,0.24-2.22,0.71c-0.34,0.3-0.52,0.71-0.52,1.21c0,0.46,0.16,0.86,0.48,1.18
			c0.41,0.42,1.41,0.85,2.99,1.3s2.75,0.92,3.51,1.4s1.35,1.14,1.78,1.98c0.43,0.84,0.64,1.87,0.64,3.11c0,1.12-0.26,2.16-0.77,3.14
			s-1.24,1.7-2.17,2.17c-0.94,0.47-2.11,0.71-3.51,0.71c-2.04,0-3.6-0.57-4.69-1.71C42.52,86.33,41.87,84.67,41.65,82.49z"/>
		<path d="M56.66,82.49l3.16-0.37c0.19,1.29,0.58,2.23,1.16,2.83c0.58,0.6,1.37,0.9,2.36,0.9c1.05,0,1.84-0.27,2.37-0.8
			c0.53-0.54,0.8-1.16,0.8-1.88c0-0.46-0.11-0.85-0.33-1.18c-0.22-0.32-0.61-0.6-1.17-0.84c-0.38-0.16-1.25-0.44-2.6-0.85
			c-1.74-0.52-2.97-1.17-3.67-1.93c-0.99-1.07-1.48-2.38-1.48-3.92c0-0.99,0.23-1.92,0.7-2.79c0.47-0.86,1.14-1.52,2.01-1.97
			s1.93-0.68,3.17-0.68c2.02,0,3.54,0.54,4.57,1.61c1.02,1.07,1.56,2.5,1.61,4.3l-3.25,0.17c-0.14-1-0.44-1.72-0.9-2.16
			c-0.46-0.44-1.14-0.66-2.06-0.66c-0.94,0-1.68,0.24-2.22,0.71c-0.34,0.3-0.52,0.71-0.52,1.21c0,0.46,0.16,0.86,0.48,1.18
			c0.41,0.42,1.41,0.85,2.99,1.3s2.75,0.92,3.51,1.4s1.35,1.14,1.78,1.98c0.43,0.84,0.64,1.87,0.64,3.11c0,1.12-0.26,2.16-0.77,3.14
			s-1.24,1.7-2.17,2.17c-0.94,0.47-2.11,0.71-3.51,0.71c-2.04,0-3.6-0.57-4.69-1.71C57.53,86.33,56.87,84.67,56.66,82.49z"/>
	</g>
</g>
<g id="Слой_2" class="st3">
	<text transform="matrix(0.8261 0 0 1 24.7891 32.7626)" class="st4 st5 st6">DO</text>
	<text transform="matrix(0.8261 0 0 1 18.876 61.3661)" class="st4 st5 st6">NOT</text>
	<text transform="matrix(0.8261 0 0 1 11.4883 88.3807)" class="st4 st5 st6">PASS</text>
</g>
</svg>
