<?xml version="1.0" encoding="utf-8"?>
<!-- Generator: Adobe Illustrator 15.0.0, SVG Export Plug-In . SVG Version: 6.00 Build 0)  -->
<!DOCTYPE svg PUBLIC "-//W3C//DTD SVG 1.1//EN" "http://www.w3.org/Graphics/SVG/1.1/DTD/svg11.dtd">
<svg version="1.1" id="Layer_1" xmlns="http://www.w3.org/2000/svg" xmlns:xlink="http://www.w3.org/1999/xlink" x="0px" y="0px"
	 width="74.379px" height="75.167px" viewBox="0 0 74.379 75.167" enable-background="new 0 0 74.379 75.167" xml:space="preserve">
<g>
	<path fill="#ED1C24" d="M37.188,1.697L37.188,1.697h-1.8l-1.905,0.211l-1.799,0.213L29.99,2.437l-1.801,0.424l-1.692,0.424
		L24.803,3.92l-1.588,0.636l-1.587,0.636L20.04,6.037l-1.481,0.848l-1.481,0.953l-1.376,0.953L14.326,9.85l-1.271,1.165l-1.27,1.165
		l-1.165,1.27l-1.165,1.27l-1.059,1.376l-0.953,1.376L6.49,18.955l-0.848,1.48l-0.847,1.588L4.16,23.611l-0.636,1.588l-0.635,1.693
		l-0.425,1.693l-0.423,1.8l-0.316,1.692l-0.213,1.801l-0.211,1.904v1.801l0,0v1.799l0.211,1.906l0.213,1.799l0.316,1.692
		l0.423,1.802l0.425,1.692l0.635,1.692l0.636,1.589l0.635,1.587l0.847,1.589l0.848,1.481l0.953,1.48l0.953,1.377l1.059,1.375
		l1.165,1.271l1.165,1.271l1.27,1.164l1.271,1.166l1.376,1.058l1.376,0.955l1.481,0.95l1.481,0.849l1.588,0.848l1.587,0.635
		l1.588,0.635l1.694,0.635l1.692,0.427l1.801,0.424l1.693,0.315l1.799,0.211l1.905,0.214h1.8l0,0h1.801l1.904-0.214l1.801-0.211
		l1.691-0.315l1.801-0.424l1.692-0.427l1.692-0.635l1.59-0.635l1.588-0.635l1.588-0.848l1.48-0.849l1.483-0.95l1.376-0.955
		l1.376-1.057l1.271-1.166l1.271-1.164l1.165-1.271l1.164-1.271l1.06-1.375l0.953-1.377l0.951-1.481l0.848-1.48l0.849-1.589
		l0.635-1.587l0.638-1.588l0.635-1.693l0.423-1.693l0.424-1.801l0.317-1.691l0.213-1.801l0.211-1.904v-1.8l0,0v-1.801l-0.211-1.904
		l-0.213-1.801l-0.317-1.692l-0.424-1.8l-0.423-1.693L70.855,25.2l-0.638-1.588l-0.635-1.588l-0.849-1.588l-0.848-1.48l-0.951-1.482
		l-0.953-1.376l-1.06-1.376l-1.164-1.271l-1.165-1.27l-1.271-1.165l-1.271-1.165l-1.376-1.059L57.3,7.837l-1.481-0.953l-1.48-0.848
		L52.75,5.19l-1.588-0.636l-1.589-0.636L47.88,3.283l-1.692-0.424l-1.801-0.424l-1.691-0.316l-1.801-0.213L38.99,1.695h-1.802V1.697
		L37.188,1.697z M54.762,16.412H60.9v1.481h-2.327v8.681h-1.591v-8.681h-2.221V16.412L54.762,16.412z M50.104,16.201L50.104,16.201
		l0.739,0.104l0.742,0.212l0.636,0.424l0.528,0.422l0,0l0.423,0.742l0.316,0.952l0.105,1.06l0.104,1.164l0,0v1.271l-0.212,1.058
		l-0.316,0.955l-0.316,0.74l0,0l-0.528,0.529l-0.636,0.529l-0.74,0.211l-0.741,0.106l0,0l-0.741-0.106l-0.635-0.211l-0.635-0.317
		l-0.426-0.423l0,0l-0.527-0.953l-0.318-0.952l0,0l-0.211-1.06v-1.164l0,0l0.105-1.166l0.104-1.057l0.318-0.953l0.316-0.742
		l0.528-0.635l0.529-0.424l0.741-0.212L50.104,16.201L50.104,16.201L50.104,16.201z M37.822,16.412h1.588l3.705,6.457v-6.457h1.48
		v10.162h-1.271l-3.917-6.986v6.986H37.82V16.412H37.822z M23.743,16.201L23.743,16.201l0.741,0.104l0.74,0.212l0.635,0.424
		l0.529,0.422l0,0l0.424,0.742l0.317,0.952l0.106,1.06l0.105,1.164l0,0l-0.105,1.271l-0.106,1.058l-0.317,0.955l-0.316,0.74l0,0
		l-0.53,0.529l-0.635,0.529l-0.741,0.211l-0.74,0.106l0,0l-0.742-0.106l-0.635-0.211l-0.635-0.317l-0.529-0.423l0,0l-0.423-0.953
		l-0.317-0.952l0,0l-0.211-1.06v-1.164l0,0v-1.166l0.211-1.057l0.317-0.953l0.317-0.742l0.529-0.635l0.528-0.424l0.741-0.212
		L23.743,16.201L23.743,16.201L23.743,16.201z M11.886,16.412h2.964h0.106l0,0l0.847,0.105l0.635,0.317l0.635,0.423l0.531,0.636
		l0.528,0.741l0.317,0.848l0.211,0.952v1.06l0,0v1.059l-0.211,0.953l-0.424,0.953l-0.422,0.74l-0.637,0.529l-0.635,0.424
		l-0.848,0.316l-0.847,0.105h-0.212h-2.541L11.886,16.412L11.886,16.412z M24.061,58.544h-6.246V48.488h5.823v1.588h-4.235v2.541
		h2.965v1.586h-2.965v2.752h4.658V58.544L24.061,58.544z M32.423,58.544h-1.375l-3.812-6.881v6.881h-1.588V48.488h1.588l3.6,6.459
		v-6.459h1.587V58.544L32.423,58.544z M39.939,49.865h-2.329v8.682h-1.588v-8.682h-2.328v-1.377h6.247v1.377H39.939z M47.773,58.544
		h-6.142V48.488h5.822v1.588h-4.233v2.541h2.858v1.586h-2.858v2.752h4.553V58.544L47.773,58.544z M54.762,58.544l-1.695-4.446
		l-1.903,0.106v4.34H49.68V48.488h3.281h0.212l0,0h0.636l0.637,0.211l0.424,0.213l0.527,0.424l0.317,0.422l0.317,0.424l0.105,0.529
		l0.104,0.635l0,0l-0.104,0.742l-0.318,0.635l-0.422,0.636l-0.742,0.528l1.801,4.658H54.762L54.762,58.544z M7.546,43.935
		L7.546,43.935l-0.317-1.48l-0.211-1.588l-0.106-1.588l-0.106-1.693l0,0l0.106-1.694l0.106-1.588l0.211-1.588l0.317-1.481h59.283
		l0,0l0.317,1.481l0.211,1.588l0.104,1.588l0.104,1.694l0,0l-0.104,1.693l-0.104,1.588l-0.211,1.588l-0.317,1.48H7.546L7.546,43.935
		z"/>
	<polygon fill="#FFFFFF" points="56.982,26.574 58.57,26.574 58.57,17.894 60.9,17.894 60.9,16.412 54.762,16.412 54.762,17.894 
		56.982,17.894 	"/>
	<polygon fill="#FFFFFF" points="47.773,25.621 47.773,25.621 48.197,26.045 48.832,26.363 49.467,26.574 50.208,26.68 
		50.208,26.68 50.949,26.574 51.691,26.363 52.324,25.833 52.855,25.304 52.855,25.304 53.172,24.564 53.488,23.611 53.701,22.551 
		53.701,21.281 53.701,21.281 53.596,20.117 53.488,19.058 53.172,18.107 52.749,17.365 52.749,17.365 52.221,16.941 51.585,16.517 
		50.843,16.305 50.104,16.201 50.104,16.201 49.361,16.305 48.62,16.517 48.091,16.941 47.563,17.576 47.244,18.318 46.926,19.271 
		46.82,20.328 46.715,21.494 46.715,21.494 46.715,22.658 46.926,23.717 46.926,23.717 47.244,24.669 	"/>
	<polygon fill="#FFFFFF" points="39.41,19.587 43.327,26.574 44.598,26.574 44.598,16.412 43.115,16.412 43.115,22.869 
		39.41,16.412 37.822,16.412 37.822,26.574 39.41,26.574 	"/>
	<polygon fill="#FFFFFF" points="21.309,25.621 21.309,25.621 21.837,26.045 22.472,26.363 23.107,26.574 23.85,26.68 23.85,26.68 
		24.59,26.574 25.331,26.363 25.965,25.833 26.496,25.304 26.496,25.304 26.813,24.564 27.13,23.611 27.236,22.551 27.342,21.281 
		27.342,21.281 27.236,20.117 27.13,19.058 26.813,18.107 26.389,17.365 26.389,17.365 25.859,16.941 25.225,16.517 24.484,16.305 
		23.743,16.201 23.743,16.201 23.002,16.305 22.261,16.517 21.732,16.941 21.202,17.576 20.885,18.318 20.566,19.271 20.355,20.328 
		20.355,21.494 20.355,21.494 20.355,22.658 20.566,23.717 20.566,23.717 20.885,24.669 	"/>
	<polygon fill="#FFFFFF" points="14.639,26.574 14.639,26.574 15.484,26.468 16.332,26.152 16.967,25.728 17.604,25.199 
		18.025,24.457 18.449,23.504 18.661,22.551 18.661,21.494 18.661,21.494 18.661,20.434 18.449,19.482 18.132,18.634 17.604,17.894 
		17.072,17.258 16.438,16.835 15.803,16.517 14.957,16.412 14.852,16.412 11.886,16.412 11.886,26.574 14.427,26.574 	"/>
	<polygon fill="#FFFFFF" points="19.402,54.205 22.365,54.205 22.365,52.617 19.402,52.617 19.402,50.076 23.637,50.076 
		23.637,48.488 17.814,48.488 17.814,58.544 24.061,58.544 24.061,56.957 19.402,56.957 	"/>
	<polygon fill="#FFFFFF" points="30.836,54.947 27.236,48.488 25.648,48.488 25.648,58.544 27.236,58.544 27.236,51.664 
		31.047,58.544 32.423,58.544 32.423,48.488 30.836,48.488 	"/>
	<polygon fill="#FFFFFF" points="33.693,49.865 36.023,49.865 36.023,58.544 37.609,58.544 37.609,49.865 39.939,49.865 
		39.939,48.488 33.693,48.488 	"/>
	<polygon fill="#FFFFFF" points="43.223,54.205 46.08,54.205 46.08,52.617 43.223,52.617 43.223,50.076 47.455,50.076 
		47.455,48.488 41.633,48.488 41.633,58.544 47.773,58.544 47.773,56.957 43.223,56.957 	"/>
	<polygon fill="#FFFFFF" points="56.242,51.345 56.242,51.345 56.137,50.71 56.029,50.181 55.713,49.757 55.396,49.335 
		54.865,48.912 54.443,48.699 53.807,48.488 53.172,48.488 52.96,48.488 49.68,48.488 49.68,58.544 51.161,58.544 51.161,54.205 
		53.066,54.098 54.762,58.544 56.454,58.544 54.654,53.886 54.654,53.886 55.396,53.357 55.818,52.722 56.137,52.087 	"/>
	<polygon fill="#FFFFFF" points="66.829,31.232 7.546,31.232 7.546,31.232 7.229,32.714 7.018,34.302 6.911,35.89 6.805,37.584 
		6.805,37.584 6.911,39.279 7.018,40.865 7.229,42.455 7.546,43.935 66.829,43.935 66.829,43.935 67.146,42.455 67.357,40.865 
		67.464,39.279 67.568,37.584 67.568,37.584 67.464,35.89 67.357,34.302 67.146,32.714 	"/>
	<polygon fill="#ED1C24" points="23.85,25.199 23.85,25.199 24.271,25.092 24.695,24.881 25.013,24.669 25.331,24.246 
		25.542,23.717 25.648,23.08 25.754,22.34 25.754,21.494 25.754,21.494 25.754,20.646 25.648,19.906 25.542,19.271 25.331,18.74 
		25.013,18.318 24.695,18 24.378,17.789 23.85,17.789 23.85,17.789 23.425,17.789 23.002,18 22.578,18.318 22.365,18.634 
		22.365,18.634 22.154,19.164 22.049,19.799 21.943,20.646 21.837,21.387 21.837,21.387 21.943,22.763 22.261,23.928 22.261,23.928 
		22.472,24.457 22.79,24.881 23.213,25.092 	"/>
	<polygon fill="#ED1C24" points="14.852,24.881 14.852,24.881 15.38,24.881 15.803,24.669 16.227,24.351 16.544,24.035 
		16.755,23.504 16.967,22.869 17.072,22.234 17.18,21.494 17.18,21.494 17.072,20.752 16.967,20.01 16.755,19.482 16.544,18.953 
		16.227,18.529 15.803,18.211 15.38,18.107 14.957,18 14.744,18 13.475,18 13.475,24.988 14.744,24.881 	"/>
	<path fill="#FFFFFF" d="M21.309,25.621L21.309,25.621l0.528,0.424l0.635,0.316l0.636,0.213l0.74,0.105l0,0l0.741-0.105l0.741-0.213
		l0.635-0.529l0.53-0.528l0,0l0.317-0.741l0.316-0.953l0.105-1.059l0.106-1.27l0,0l-0.106-1.166l-0.105-1.059l-0.316-0.951
		l-0.425-0.742l0,0l-0.528-0.424l-0.635-0.423l-0.742-0.212l-0.74-0.105l0,0L23,16.304l-0.741,0.212l-0.528,0.423l-0.529,0.637
		l-0.317,0.74l-0.317,0.953l-0.211,1.059v1.164l0,0v1.166l0.211,1.059l0,0l0.317,0.952L21.309,25.621L21.309,25.621L21.309,25.621z
		 M22.365,18.634L22.365,18.634l0.213-0.316L23.001,18l0.424-0.212h0.423l0,0h0.529L24.693,18l0.318,0.317l0.317,0.422l0.211,0.529
		l0.106,0.635l0.105,0.742v0.846l0,0v0.848l-0.105,0.74l-0.106,0.637l-0.211,0.529l-0.317,0.423l-0.318,0.212l-0.422,0.211
		l-0.424,0.105l0,0l-0.636-0.105l-0.423-0.211l-0.317-0.424l-0.211-0.528l0,0l-0.317-1.165l-0.105-1.375l0,0l0.105-0.742
		l0.105-0.847l0.105-0.636L22.365,18.634L22.365,18.634L22.365,18.634z"/>
	<path fill="#FFFFFF" d="M14.639,26.574L14.639,26.574l0.848-0.105l0.847-0.316l0.635-0.424l0.636-0.529l0.424-0.74l0.422-0.953
		l0.212-0.953v-1.059l0,0v-1.059l-0.212-0.953l-0.316-0.848l-0.529-0.74l-0.529-0.637l-0.635-0.423l-0.636-0.317l-0.847-0.105
		h-0.105h-2.965v10.162h2.541L14.639,26.574L14.639,26.574z M13.475,18h1.27h0.212l0,0l0.423,0.106l0.423,0.104l0.423,0.317
		l0.317,0.424l0.211,0.529l0.212,0.528l0.105,0.742l0.106,0.741l0,0l-0.106,0.74l-0.105,0.635l-0.212,0.636l-0.211,0.53
		l-0.317,0.316l-0.423,0.317l-0.423,0.212h-0.53h-0.105l-1.27,0.105V18L13.475,18z"/>
	<polygon fill="#FFFFFF" points="39.41,19.587 43.327,26.574 44.598,26.574 44.598,16.412 43.115,16.412 43.115,22.869 
		39.41,16.412 37.822,16.412 37.822,26.574 39.41,26.574 	"/>
	<polygon fill="#FFFFFF" points="56.982,26.574 58.57,26.574 58.57,17.894 60.9,17.894 60.9,16.412 54.762,16.412 54.762,17.894 
		56.982,17.894 	"/>
	<polygon fill="#ED1C24" points="50.208,25.199 50.208,25.199 50.631,25.092 51.055,24.881 51.373,24.669 51.691,24.246 
		51.902,23.717 52.008,23.08 52.113,22.34 52.221,21.494 52.221,21.494 52.113,20.646 52.008,19.906 51.902,19.271 51.691,18.74 
		51.373,18.318 51.055,18 50.736,17.789 50.314,17.789 50.314,17.789 49.784,17.789 49.361,18 49.044,18.318 48.727,18.634 
		48.727,18.634 48.516,19.164 48.409,19.799 48.303,20.646 48.303,21.387 48.303,21.387 48.303,22.763 48.62,23.928 48.62,23.928 
		48.832,24.457 49.148,24.881 49.68,25.092 	"/>
	<path fill="#FFFFFF" d="M47.773,25.621L47.773,25.621l0.424,0.424l0.636,0.316l0.635,0.213l0.741,0.105l0,0l0.74-0.105l0.742-0.213
		l0.635-0.529l0.529-0.528l0,0l0.315-0.741l0.315-0.953l0.214-1.059v-1.27l0,0l-0.104-1.166l-0.105-1.059l-0.317-0.951l-0.423-0.742
		l0,0l-0.529-0.424l-0.635-0.423l-0.742-0.212l-0.74-0.105l0,0l-0.74,0.105l-0.74,0.212l-0.529,0.423l-0.527,0.637l-0.317,0.74
		l-0.317,0.953l-0.104,1.059l-0.104,1.164l0,0v1.166l0.211,1.059l0,0l0.317,0.952L47.773,25.621L47.773,25.621L47.773,25.621z
		 M48.727,18.634L48.727,18.634l0.317-0.316L49.361,18l0.422-0.212h0.529l0,0h0.424L51.055,18l0.317,0.317l0.317,0.422l0.211,0.529
		l0.104,0.635l0.104,0.742l0.105,0.846l0,0l-0.105,0.848l-0.104,0.74L51.9,23.716l-0.211,0.529l-0.317,0.423l-0.317,0.212
		l-0.425,0.211l-0.423,0.105l0,0l-0.529-0.105l-0.529-0.211l-0.315-0.424l-0.212-0.528l0,0l-0.316-1.165v-1.375l0,0v-0.742
		l0.104-0.847l0.104-0.636L48.727,18.634L48.727,18.634L48.727,18.634z"/>
	<polygon fill="#ED1C24" points="53.488,50.076 53.384,50.076 51.161,50.076 51.161,52.617 53.277,52.509 53.488,52.509 
		53.488,52.509 54.02,52.406 54.337,52.193 54.549,51.771 54.654,51.24 54.654,51.24 54.549,50.816 54.337,50.393 53.913,50.181 	
		"/>
	<path fill="#FFFFFF" d="M56.242,51.345L56.242,51.345l-0.105-0.635l-0.104-0.529l-0.317-0.424l-0.316-0.422l-0.528-0.424
		l-0.423-0.211l-0.637-0.211h-0.637h-0.212H49.68v10.057h1.482v-4.342l1.904-0.105l1.693,4.447h1.693l-1.801-4.658l0,0l0.74-0.529
		l0.424-0.635l0.317-0.635L56.242,51.345L56.242,51.345L56.242,51.345z M53.488,52.509h-0.211l-2.116,0.107v-2.541h2.223h0.104l0,0
		l0.425,0.104l0.424,0.211l0.212,0.424l0.105,0.422l0,0l-0.105,0.53l-0.212,0.423l-0.317,0.211L53.488,52.509L53.488,52.509
		L53.488,52.509z"/>
	<path fill="#FFFFFF" d="M66.829,31.232L66.829,31.232L66.829,31.232L66.829,31.232L66.829,31.232L66.829,31.232L66.829,31.232
		L66.829,31.232L66.829,31.232L66.829,31.232L66.829,31.232L66.829,31.232L66.829,31.232L66.829,31.232L66.829,31.232L66.829,31.232
		L66.829,31.232L66.829,31.232L66.829,31.232L66.829,31.232z M66.829,31.232L66.829,31.232L66.829,31.232L66.829,31.232
		L66.829,31.232L66.829,31.232L66.829,31.232L66.829,31.232L66.829,31.232L66.829,31.232L66.829,31.232L66.829,31.232z
		 M66.829,31.232L66.829,31.232L66.829,31.232L66.829,31.232L66.829,31.232L66.829,31.232L66.829,31.232z M66.829,31.232
		L66.829,31.232L66.829,31.232L66.829,31.232L66.829,31.232L66.829,31.232z M66.829,31.232L66.829,31.232L66.829,31.232
		L66.829,31.232L66.829,31.232L66.829,31.232z"/>
</g>
<g>
	<path fill="#999999" d="M28.038,67.67v2.218c0,0.164,0.01,0.352,0.02,0.477h-0.387l-0.02-0.314h-0.017
		c-0.128,0.205-0.415,0.356-0.806,0.356c-0.58,0-1.028-0.375-1.028-0.935c-0.005-0.607,0.493-0.979,1.073-0.979
		c0.371,0,0.612,0.134,0.722,0.274h0.01v-1.098L28.038,67.67L28.038,67.67z M27.606,69.275c0-0.042-0.007-0.1-0.021-0.141
		c-0.063-0.209-0.304-0.387-0.629-0.387c-0.449,0-0.718,0.307-0.718,0.705c0,0.369,0.241,0.68,0.707,0.68
		c0.293,0,0.56-0.148,0.64-0.396c0.015-0.047,0.021-0.093,0.021-0.146V69.275z"/>
	<path fill="#999999" d="M28.764,69.025c0-0.19-0.011-0.346-0.021-0.493h0.381l0.021,0.3h0.017c0.133-0.175,0.354-0.337,0.756-0.337
		c0.32,0,0.568,0.147,0.672,0.364h0.01c0.074-0.104,0.175-0.184,0.271-0.236c0.145-0.083,0.297-0.13,0.522-0.13
		c0.319,0,0.791,0.157,0.791,0.796v1.074h-0.426v-1.032c0-0.354-0.173-0.563-0.52-0.563c-0.252,0-0.44,0.143-0.521,0.3
		c-0.02,0.051-0.035,0.104-0.035,0.167v1.135h-0.425v-1.102c0-0.291-0.168-0.5-0.5-0.5c-0.267,0-0.47,0.166-0.539,0.334
		c-0.023,0.047-0.034,0.104-0.034,0.162v1.104h-0.426v-1.342L28.764,69.025L28.764,69.025z"/>
	<path fill="#999999" d="M32.995,68.528l0.469,1.024c0.08,0.172,0.146,0.319,0.193,0.476h0.016c0.056-0.149,0.123-0.306,0.203-0.476
		l0.463-1.024h0.455l-0.938,1.833h-0.415l-0.91-1.833H32.995z"/>
	<path fill="#999999" d="M37.218,67.67v2.218c0,0.164,0.014,0.352,0.021,0.477h-0.391l-0.021-0.314h-0.017
		c-0.129,0.205-0.416,0.356-0.809,0.356c-0.578,0-1.027-0.375-1.027-0.935c-0.006-0.607,0.494-0.979,1.072-0.979
		c0.371,0,0.613,0.134,0.725,0.274h0.013v-1.098L37.218,67.67L37.218,67.67z M36.785,69.275c0-0.042-0.005-0.1-0.021-0.141
		c-0.063-0.209-0.306-0.387-0.631-0.387c-0.449,0-0.717,0.307-0.717,0.705c0,0.369,0.24,0.68,0.707,0.68
		c0.292,0,0.561-0.148,0.641-0.396c0.016-0.047,0.021-0.093,0.021-0.146V69.275z"/>
	<path fill="#999999" d="M39.625,69.92c0,0.158,0.015,0.313,0.034,0.438h-0.395l-0.033-0.229h-0.018
		c-0.133,0.146-0.395,0.271-0.729,0.271c-0.481,0-0.729-0.263-0.729-0.524c0-0.439,0.519-0.688,1.438-0.686v-0.036
		c0-0.146-0.06-0.425-0.543-0.421c-0.229,0-0.461,0.052-0.629,0.139l-0.103-0.226c0.192-0.097,0.483-0.157,0.79-0.157
		c0.729,0,0.91,0.383,0.91,0.744L39.625,69.92L39.625,69.92z M39.205,69.425c-0.478-0.012-1.015,0.059-1.015,0.41
		c0,0.223,0.188,0.317,0.401,0.317c0.313,0,0.521-0.15,0.591-0.31c0.019-0.037,0.021-0.076,0.021-0.104L39.205,69.425L39.205,69.425
		z"/>
	<path fill="#999999" d="M40.226,70.165c0-0.14,0.125-0.237,0.299-0.237s0.293,0.1,0.293,0.237S40.698,70.4,40.513,70.4
		C40.345,70.403,40.226,70.3,40.226,70.165z"/>
	<path fill="#999999" d="M43.06,70.295c-0.111,0.042-0.363,0.104-0.688,0.104c-0.724,0-1.19-0.375-1.19-0.938
		c0-0.563,0.504-0.979,1.285-0.979c0.258,0,0.483,0.051,0.604,0.103l-0.104,0.254c-0.104-0.043-0.267-0.087-0.504-0.087
		c-0.55,0-0.848,0.313-0.848,0.688c0,0.429,0.354,0.688,0.832,0.688c0.246,0,0.408-0.045,0.531-0.087L43.06,70.295z"/>
	<path fill="#999999" d="M45.705,69.429c0,0.68-0.618,0.976-1.19,0.976c-0.644,0-1.146-0.361-1.146-0.94
		c0-0.606,0.526-0.972,1.187-0.972C45.241,68.49,45.705,68.872,45.705,69.429z M43.812,69.449c0,0.398,0.299,0.704,0.725,0.704
		c0.416,0,0.729-0.302,0.729-0.714c0-0.313-0.201-0.699-0.718-0.699C44.034,68.741,43.812,69.103,43.812,69.449z"/>
	<path fill="#999999" d="M46.255,69.025c0-0.19-0.012-0.346-0.021-0.493h0.381l0.021,0.3h0.018c0.137-0.175,0.354-0.337,0.758-0.337
		c0.318,0,0.566,0.147,0.674,0.364h0.012c0.072-0.104,0.172-0.184,0.271-0.236c0.146-0.083,0.297-0.13,0.521-0.13
		c0.32,0,0.791,0.157,0.791,0.796v1.074h-0.426v-1.032c0-0.354-0.174-0.563-0.52-0.563c-0.256,0-0.439,0.143-0.521,0.3
		c-0.021,0.051-0.035,0.104-0.035,0.167v1.135h-0.423v-1.102c0-0.291-0.168-0.5-0.498-0.5c-0.271,0-0.476,0.166-0.539,0.334
		c-0.024,0.047-0.034,0.104-0.034,0.162v1.104h-0.427L46.255,69.025L46.255,69.025z"/>
</g>
</svg>
