<?xml version="1.0" encoding="utf-8"?>
<!-- Generator: Adobe Illustrator 15.0.0, SVG Export Plug-In . SVG Version: 6.00 Build 0)  -->
<!DOCTYPE svg PUBLIC "-//W3C//DTD SVG 1.1//EN" "http://www.w3.org/Graphics/SVG/1.1/DTD/svg11.dtd">
<svg version="1.1" id="Layer_1" xmlns="http://www.w3.org/2000/svg" xmlns:xlink="http://www.w3.org/1999/xlink" x="0px" y="0px"
	 width="131.01px" height="102.189px" viewBox="0 0 131.01 102.189" enable-background="new 0 0 131.01 102.189"
	 xml:space="preserve">
<g>
	<polygon fill="#FFFFFF" points="123.922,94.594 7.085,94.594 7.085,94.594 5.53,94.432 4.147,94.272 2.937,93.79 1.9,93.308 
		1.036,92.507 0.518,91.702 0.173,90.738 0,89.613 0,5.433 0,5.433 0.173,4.309 0.518,3.344 1.036,2.541 1.9,1.737 2.937,1.257 
		4.147,0.774 5.53,0.614 7.085,0.453 123.922,0.453 123.922,0.453 125.651,0.614 127.034,0.774 128.244,1.257 129.108,1.737 
		129.972,2.541 130.49,3.344 130.835,4.309 131.01,5.433 131.01,89.613 131.01,89.613 130.835,90.738 130.49,91.702 129.972,92.507 
		129.108,93.308 128.244,93.79 127.034,94.272 125.651,94.432 123.922,94.594 	"/>
	<path d="M123.922,92.507H7.085l0,0l-0.863-0.162H5.358l-0.691-0.322l-0.52-0.321L3.628,91.38l-0.344-0.48l-0.173-0.642v-0.645
		V5.433l0,0V4.791l0.173-0.642l0.345-0.483l0.519-0.32l0.52-0.323l0.691-0.321h0.863l0.863-0.161h116.837l0,0l1.038,0.161h0.691
		l0.69,0.321l0.519,0.323l0.518,0.32l0.348,0.483l0.172,0.642l0.174,0.643v84.18l0,0l-0.174,0.645l-0.172,0.642l-0.348,0.481
		l-0.518,0.321l-0.519,0.321l-0.69,0.322h-0.691L123.922,92.507L123.922,92.507L123.922,92.507z M125.304,5.433L125.304,5.433V4.951
		l-0.344-0.16l-0.348-0.16l-0.69-0.161H7.085l0,0L6.567,4.631L6.05,4.791l-0.174,0.16L5.703,5.433v84.18l0,0l0.173,0.483
		l0.174,0.162l0.518,0.159l0.518,0.162h116.837l0,0l0.691-0.162l0.347-0.159l0.345-0.162v-0.483V5.433H125.304z"/>
	<polygon fill="#010101" stroke="#010101" stroke-width="0.75" stroke-linecap="square" stroke-miterlimit="10" points="
		20.221,25.193 14.517,25.193 14.517,30.012 20.739,30.012 20.739,31.458 12.79,31.458 12.79,18.124 20.565,18.124 20.565,19.57 
		14.517,19.57 14.517,23.748 20.221,23.748 	"/>
	<polygon fill="#010101" stroke="#010101" stroke-width="0.75" stroke-linecap="square" stroke-miterlimit="10" points="
		35.258,25.675 35.258,25.675 35.085,19.89 35.085,19.89 35.085,19.89 33.183,24.871 30.763,31.458 29.208,31.458 26.962,25.032 
		26.962,25.032 25.924,22.301 25.233,19.89 25.233,19.89 25.233,19.89 25.06,25.836 24.542,31.458 22.814,31.458 23.85,18.124 
		26.27,18.124 28.69,24.55 28.69,24.55 30.073,29.049 30.073,29.049 30.073,29.049 30.763,26.961 31.629,24.55 34.221,18.124 
		36.639,18.124 37.505,31.458 35.604,31.458 	"/>
	<polygon fill="#010101" stroke="#010101" stroke-width="0.75" stroke-linecap="square" stroke-miterlimit="10" points="
		47.702,25.193 42.171,25.193 42.171,30.012 48.394,30.012 48.394,31.458 40.271,31.458 40.271,18.124 48.047,18.124 48.047,19.57 
		42.171,19.57 42.171,23.748 47.702,23.748 	"/>
	<path fill="#010101" stroke="#010101" stroke-width="0.75" stroke-linecap="square" stroke-miterlimit="10" d="M50.812,18.286
		L50.812,18.286l1.729-0.162l1.902-0.161l0,0l1.209,0.161l1.211,0.162l0.863,0.32l0.864,0.482l0,0l0.346,0.483l0.346,0.642
		l0.346,0.643v0.804l0,0v0.642l-0.173,0.644l-0.519,0.964l-0.865,0.642l-1.035,0.482v0.161l0,0l0.69,0.322l0.519,0.643l0.519,0.642
		l0.347,0.964l0,0l0.518,2.409l0.518,1.286h-1.9l0,0l-0.346-1.125l-0.52-2.088l0,0l-0.517-1.125l-0.52-0.804l-0.346-0.321
		l-0.52-0.16l-1.035-0.162h-1.729v5.784h-1.901L50.812,18.286L50.812,18.286z M52.714,24.389h1.901l0,0h0.691l0.52-0.161l0.691-0.16
		l0.346-0.321l0.346-0.482l0.345-0.321l0.173-0.482V21.82l0,0v-0.483l-0.173-0.642l-0.345-0.322l-0.346-0.321l-0.52-0.322
		l-0.518-0.161l-1.383-0.161l0,0h-1.038l-0.691,0.161L52.714,24.389L52.714,24.389z"/>
	<polygon fill="#010101" stroke="#010101" stroke-width="0.75" stroke-linecap="square" stroke-miterlimit="10" points="
		73.28,30.816 73.28,30.816 71.552,31.298 70.171,31.619 68.787,31.619 68.787,31.619 67.233,31.458 65.85,31.137 64.64,30.656 
		63.429,29.851 63.429,29.851 62.566,28.888 62.048,27.763 61.528,26.318 61.528,24.871 61.528,24.871 61.528,23.427 62.048,22.141 
		62.738,21.016 63.603,19.89 64.64,19.088 66.022,18.446 67.578,18.124 69.306,17.964 69.306,17.964 70.345,18.124 71.381,18.124 
		72.763,18.606 72.418,20.052 72.418,20.052 71.035,19.57 69.135,19.409 69.135,19.409 67.925,19.57 66.886,19.89 65.85,20.213 
		64.986,20.856 64.295,21.659 63.776,22.623 63.603,23.586 63.429,24.871 63.429,24.871 63.603,25.997 63.776,27.121 64.295,27.924 
		64.986,28.727 65.677,29.37 66.714,29.851 67.751,30.172 68.961,30.172 68.961,30.172 70.517,30.012 71.381,29.851 71.381,25.836 
		68.615,25.836 68.615,24.55 73.28,24.55 	"/>
	<polygon fill="#010101" stroke="#010101" stroke-width="0.75" stroke-linecap="square" stroke-miterlimit="10" points="
		83.479,25.193 77.949,25.193 77.949,30.012 84.17,30.012 84.17,31.458 76.047,31.458 76.047,18.124 83.825,18.124 83.825,19.57 
		77.949,19.57 77.949,23.748 83.479,23.748 	"/>
	<polygon fill="#010101" stroke="#010101" stroke-width="0.75" stroke-linecap="square" stroke-miterlimit="10" points="
		86.592,31.458 86.592,18.124 88.665,18.124 93.158,24.871 93.158,24.871 94.541,27.121 95.75,29.209 95.75,29.209 95.75,29.209 
		95.577,26.638 95.577,23.748 95.577,18.124 97.306,18.124 97.306,31.458 95.405,31.458 90.911,24.711 90.911,24.711 89.528,22.462 
		88.317,20.213 88.146,20.213 88.146,20.213 88.317,25.836 88.317,31.458 	"/>
	<polygon fill="#010101" stroke="#010101" stroke-width="0.75" stroke-linecap="square" stroke-miterlimit="10" points="
		110.612,31.137 110.612,31.137 109.923,31.298 109.058,31.458 108.022,31.619 106.812,31.619 106.812,31.619 105.256,31.619 
		104.046,31.298 102.837,30.656 101.799,30.012 100.935,29.049 100.244,27.763 99.899,26.478 99.726,24.871 99.726,24.871 
		99.899,23.427 100.244,22.141 100.935,20.856 101.799,19.89 102.837,19.088 104.22,18.446 105.601,18.124 107.157,17.964 
		107.157,17.964 108.367,17.964 109.405,18.124 110.612,18.446 110.097,19.89 110.097,19.89 108.885,19.57 107.332,19.409 
		107.332,19.409 106.121,19.409 104.911,19.731 104.046,20.213 103.181,20.856 102.491,21.659 102.146,22.462 101.799,23.586 
		101.627,24.871 101.627,24.871 101.799,25.997 101.972,27.121 102.491,28.086 103.181,28.727 103.873,29.37 104.911,29.851 
		105.946,30.172 107.157,30.172 107.157,30.172 108.885,30.012 110.269,29.69 	"/>
	<polygon fill="#010101" stroke="#010101" stroke-width="0.75" stroke-linecap="square" stroke-miterlimit="10" points="
		116.146,31.458 116.146,25.836 111.651,18.124 113.724,18.124 115.8,21.82 115.8,21.82 117.181,24.55 117.181,24.55 117.181,24.55 
		118.735,21.82 120.812,18.124 122.886,18.124 118.046,25.836 118.046,31.458 	"/>
	<path fill="#010101" stroke="#010101" stroke-width="0.75" stroke-linecap="square" stroke-miterlimit="10" d="M23.677,44.309
		L23.677,44.309l1.728-0.16h2.248l0,0h1.555l1.211,0.322l1.036,0.321l0.691,0.481l0,0l0.693,0.482l0.344,0.642l0.347,0.804
		l0.172,0.803l0,0l-0.172,0.804l-0.174,0.801l-0.345,0.645l-0.691,0.643l0,0l-0.865,0.641l-1.208,0.482l-1.384,0.161l-1.382,0.16
		l0,0h-0.866l-0.863-0.16v5.303h-2.074V44.309H23.677z M25.752,50.737L25.752,50.737l1.729,0.163l0,0h0.863l0.863-0.163l0.691-0.16
		l0.52-0.322l0.519-0.482l0.345-0.484l0.173-0.48l0.174-0.644l0,0l-0.174-0.643l-0.173-0.642l-0.345-0.321l-0.519-0.484l-0.52-0.16
		l-0.691-0.321l-1.555-0.161l0,0l-1.901,0.161L25.752,50.737L25.752,50.737z"/>
	<path fill="#010101" stroke="#010101" stroke-width="0.75" stroke-linecap="square" stroke-miterlimit="10" d="M36.986,53.307
		l-1.556,4.178h-2.247l5.53-13.336h2.593l5.531,13.336H44.59l-1.729-4.178H36.986L36.986,53.307z M42.344,52.021l-1.556-3.855l0,0
		l-0.865-2.411l0,0l0,0l-0.863,2.411l-1.556,3.855H42.344L42.344,52.021z"/>
	<path fill="#010101" stroke="#010101" stroke-width="0.75" stroke-linecap="square" stroke-miterlimit="10" d="M49.086,44.471
		L49.086,44.471l1.901-0.322h2.245l0,0h1.383l1.383,0.16l1.038,0.483l0.863,0.481l0,0l0.52,0.482l0.345,0.482l0.173,0.803
		l0.174,0.643l0,0v0.642l-0.174,0.642l-0.346,0.483l-0.346,0.482l-1.036,0.803l-1.211,0.484l0,0l0,0l0.865,0.32l0.69,0.643
		l0.518,0.804l0.348,0.962l0,0l0.691,2.249l0.518,1.288h-2.074l0,0l-0.518-0.966l-0.519-2.088l0,0l-0.52-1.285l-0.346-0.322
		l-0.346-0.482l-0.346-0.16l-0.518-0.161l-1.211-0.161h-2.073v5.625h-2.073V44.471H49.086z M51.159,50.415h2.246l0,0h0.691
		l0.864-0.16l0.518-0.161l0.52-0.321l0.52-0.322l0.172-0.483l0.347-0.482v-0.482l0,0v-0.642L56.69,46.88l-0.346-0.484l-0.346-0.321
		l-0.52-0.321l-0.691-0.16l-1.555-0.162l0,0h-1.21l-0.863,0.162V50.415L51.159,50.415z"/>
	<polygon fill="#010101" stroke="#010101" stroke-width="0.75" stroke-linecap="square" stroke-miterlimit="10" points="
		62.048,44.15 64.121,44.15 64.121,50.577 64.295,50.577 64.295,50.577 65.503,49.289 70.517,44.15 73.108,44.15 67.233,49.932 
		73.454,57.485 71.035,57.485 65.677,51.058 64.121,52.504 64.121,57.485 62.048,57.485 	"/>
	<polygon fill="#010101" stroke="#010101" stroke-width="0.75" stroke-linecap="square" stroke-miterlimit="10" points="
		77.258,44.15 77.258,57.485 75.01,57.485 75.01,44.15 	"/>
	<polygon fill="#010101" stroke="#010101" stroke-width="0.75" stroke-linecap="square" stroke-miterlimit="10" points="
		80.886,57.485 80.886,44.15 83.134,44.15 88.317,50.898 88.317,50.898 89.874,53.146 91.257,55.234 91.257,55.234 91.257,55.234 
		91.083,52.665 91.083,49.773 91.083,44.15 92.983,44.15 92.983,57.485 90.911,57.485 85.726,50.737 85.726,50.737 84.17,48.487 
		82.788,46.399 82.615,46.399 82.615,46.399 82.788,48.968 82.788,51.86 82.788,57.485 	"/>
	<polygon fill="#010101" stroke="#010101" stroke-width="0.75" stroke-linecap="square" stroke-miterlimit="10" points="
		109.058,57.002 109.058,57.002 106.985,57.485 105.601,57.644 104.046,57.644 104.046,57.644 102.146,57.644 100.59,57.322 
		99.208,56.68 97.997,55.878 97.997,55.878 96.961,54.913 96.269,53.789 95.75,52.504 95.75,50.898 95.75,50.898 95.75,49.451 
		96.269,48.166 96.961,47.041 97.997,46.077 99.208,45.275 100.763,44.633 102.491,44.15 104.392,44.15 104.392,44.15 
		105.774,44.15 106.985,44.309 108.539,44.633 108.022,46.077 108.022,46.077 106.466,45.756 104.392,45.596 104.392,45.596 
		103.009,45.596 101.627,45.917 100.59,46.399 99.726,46.882 98.862,47.684 98.343,48.647 97.997,49.773 97.823,50.898 
		97.823,50.898 97.997,52.021 98.343,53.146 98.862,54.11 99.554,54.913 100.416,55.395 101.627,55.878 102.837,56.198 
		104.046,56.198 104.046,56.198 105.774,56.198 106.985,55.878 106.985,51.86 103.7,51.86 103.7,50.577 109.058,50.577 	"/>
	<path fill="#010101" stroke="#010101" stroke-width="0.75" stroke-linecap="square" stroke-miterlimit="10" d="M54.443,74.512
		L54.443,74.512l-0.173,1.606l-0.519,1.447l-0.691,1.125l-0.865,1.124l-1.036,0.643l-1.383,0.641l-1.382,0.322l-1.557,0.162l0,0
		l-1.556-0.162L43.9,81.098l-1.211-0.641l-1.036-0.804l-0.864-0.963l-0.691-1.125l-0.346-1.447l-0.173-1.443l0,0l0.173-1.448
		l0.346-1.446l0.691-1.124l1.036-0.964l1.037-0.804l1.209-0.641l1.558-0.322l1.555-0.16l0,0l1.555,0.16l1.383,0.322l1.211,0.641
		l1.037,0.804l0.863,0.964l0.692,1.124l0.346,1.286L54.443,74.512L54.443,74.512L54.443,74.512z M41.825,74.674L41.825,74.674v1.124
		l0.346,0.963l0.346,0.965l0.692,0.804l0.691,0.642l0.862,0.481l1.039,0.321l1.209,0.162l0,0l1.21-0.162l1.037-0.321l0.863-0.481
		l0.691-0.642l0.692-0.804l0.346-0.965l0.345-1.123v-1.125l0,0v-0.964l-0.345-0.963l-0.346-0.964l-0.518-0.803l-0.866-0.643
		l-0.863-0.482l-1.037-0.483h-1.21l0,0H45.8l-1.039,0.322L43.9,70.176l-0.691,0.643l-0.692,0.804l-0.346,0.963l-0.346,1.125V74.674
		L41.825,74.674L41.825,74.674z"/>
	<polygon fill="#010101" stroke="#010101" stroke-width="0.75" stroke-linecap="square" stroke-miterlimit="10" points="
		57.209,81.26 57.209,67.927 59.455,67.927 64.64,74.674 64.64,74.674 66.194,76.922 67.405,79.01 67.578,79.01 67.578,79.01 
		67.405,76.44 67.233,73.549 67.233,67.927 69.306,67.927 69.306,81.26 67.233,81.26 62.048,74.512 62.048,74.512 60.318,72.263 
		59.11,70.014 58.936,70.176 58.936,70.176 59.11,72.585 59.11,75.637 59.11,81.26 	"/>
	<polygon fill="#010101" stroke="#010101" stroke-width="0.75" stroke-linecap="square" stroke-miterlimit="10" points="
		72.935,67.927 75.01,67.927 75.01,79.814 81.924,79.814 81.924,81.26 72.935,81.26 	"/>
	<polygon fill="#010101" stroke="#010101" stroke-width="0.75" stroke-linecap="square" stroke-miterlimit="10" points="
		85.897,81.26 85.897,75.637 80.714,67.927 83.134,67.927 85.381,71.622 85.381,71.622 86.935,74.352 87.108,74.352 87.108,74.352 
		87.8,73.067 88.665,71.622 91.083,67.927 93.331,67.927 87.974,75.637 87.974,81.26 	"/>
</g>
<g>
	<path fill="#999999" d="M58.674,83.841v2.218c0,0.163,0.01,0.351,0.02,0.476h-0.387l-0.02-0.315H58.27
		c-0.128,0.205-0.415,0.357-0.806,0.357c-0.58,0-1.028-0.375-1.028-0.935c-0.005-0.607,0.493-0.979,1.073-0.979
		c0.371,0,0.612,0.134,0.722,0.274h0.01V83.84L58.674,83.841L58.674,83.841z M58.243,85.444c0-0.042-0.007-0.1-0.021-0.141
		c-0.063-0.209-0.304-0.386-0.629-0.386c-0.449,0-0.718,0.306-0.718,0.705c0,0.369,0.241,0.68,0.707,0.68
		c0.293,0,0.56-0.149,0.64-0.396c0.015-0.047,0.021-0.092,0.021-0.146V85.444z"/>
	<path fill="#999999" d="M59.4,85.194c0-0.19-0.011-0.346-0.021-0.493h0.381l0.021,0.3h0.017c0.133-0.175,0.354-0.337,0.756-0.337
		c0.32,0,0.568,0.148,0.672,0.364h0.01c0.074-0.104,0.175-0.183,0.271-0.236c0.145-0.083,0.297-0.13,0.522-0.13
		c0.319,0,0.791,0.157,0.791,0.796v1.074h-0.426V85.5c0-0.354-0.173-0.563-0.52-0.563c-0.252,0-0.44,0.142-0.521,0.299
		c-0.02,0.051-0.035,0.104-0.035,0.167v1.135h-0.425v-1.101c0-0.292-0.168-0.5-0.5-0.5c-0.267,0-0.47,0.166-0.539,0.333
		c-0.023,0.047-0.034,0.104-0.034,0.163v1.104h-0.426v-1.341L59.4,85.194L59.4,85.194z"/>
	<path fill="#999999" d="M63.631,84.697l0.469,1.024c0.08,0.172,0.146,0.32,0.193,0.476h0.016c0.055-0.149,0.123-0.305,0.203-0.476
		l0.463-1.024h0.455l-0.938,1.833h-0.415l-0.91-1.833H63.631z"/>
	<path fill="#999999" d="M67.854,83.841v2.218c0,0.163,0.013,0.351,0.021,0.476h-0.39l-0.021-0.315h-0.017
		c-0.129,0.205-0.416,0.357-0.808,0.357c-0.578,0-1.027-0.375-1.027-0.935c-0.006-0.607,0.494-0.979,1.072-0.979
		c0.371,0,0.613,0.134,0.724,0.274h0.013V83.84L67.854,83.841L67.854,83.841z M67.421,85.444c0-0.042-0.005-0.1-0.021-0.141
		c-0.063-0.209-0.305-0.386-0.63-0.386c-0.449,0-0.717,0.306-0.717,0.705c0,0.369,0.24,0.68,0.707,0.68
		c0.292,0,0.56-0.149,0.64-0.396c0.016-0.047,0.021-0.092,0.021-0.146V85.444z"/>
	<path fill="#999999" d="M70.262,86.091c0,0.158,0.014,0.313,0.034,0.438h-0.394L69.869,86.3h-0.018
		c-0.133,0.146-0.395,0.271-0.729,0.271c-0.481,0-0.729-0.263-0.729-0.524c0-0.439,0.519-0.688,1.438-0.686v-0.036
		c0-0.146-0.059-0.425-0.543-0.421c-0.229,0-0.461,0.052-0.629,0.139l-0.102-0.226c0.193-0.097,0.484-0.157,0.79-0.157
		c0.729,0,0.91,0.383,0.91,0.744L70.262,86.091L70.262,86.091z M69.841,85.594c-0.478-0.011-1.015,0.059-1.015,0.411
		c0,0.223,0.188,0.317,0.402,0.317c0.313,0,0.521-0.15,0.59-0.309c0.019-0.038,0.021-0.076,0.021-0.104L69.841,85.594L69.841,85.594
		z"/>
	<path fill="#999999" d="M70.861,86.334c0-0.14,0.125-0.237,0.299-0.237s0.293,0.099,0.293,0.237c0,0.138-0.119,0.235-0.305,0.235
		C70.98,86.572,70.861,86.469,70.861,86.334z"/>
	<path fill="#999999" d="M73.695,86.466c-0.111,0.042-0.363,0.104-0.688,0.104c-0.724,0-1.19-0.375-1.19-0.938
		c0-0.563,0.504-0.979,1.285-0.979c0.258,0,0.483,0.051,0.604,0.103l-0.104,0.253c-0.104-0.042-0.267-0.086-0.504-0.086
		c-0.55,0-0.848,0.313-0.848,0.688c0,0.429,0.354,0.688,0.832,0.688c0.246,0,0.408-0.045,0.531-0.087L73.695,86.466z"/>
	<path fill="#999999" d="M76.341,85.598c0,0.68-0.618,0.976-1.19,0.976c-0.644,0-1.146-0.361-1.146-0.94
		c0-0.607,0.526-0.972,1.187-0.972C75.877,84.659,76.341,85.041,76.341,85.598z M74.447,85.618c0,0.399,0.299,0.704,0.725,0.704
		c0.416,0,0.729-0.301,0.729-0.714c0-0.313-0.201-0.699-0.718-0.699C74.67,84.91,74.447,85.273,74.447,85.618z"/>
	<path fill="#999999" d="M76.892,85.194c0-0.19-0.012-0.346-0.021-0.493h0.381l0.021,0.3h0.018c0.136-0.175,0.354-0.337,0.757-0.337
		c0.319,0,0.567,0.148,0.674,0.364h0.011c0.073-0.104,0.172-0.183,0.271-0.236c0.146-0.083,0.297-0.13,0.521-0.13
		c0.32,0,0.791,0.157,0.791,0.796v1.074h-0.426V85.5c0-0.354-0.174-0.563-0.52-0.563c-0.256,0-0.439,0.142-0.521,0.299
		c-0.021,0.051-0.035,0.104-0.035,0.167v1.135H78.39v-1.101c0-0.292-0.168-0.5-0.498-0.5c-0.271,0-0.476,0.166-0.539,0.333
		c-0.024,0.047-0.034,0.104-0.034,0.163v1.104h-0.427V85.194L76.892,85.194z"/>
</g>
</svg>
