<?xml version="1.0" encoding="utf-8"?>
<!-- Generator: Adobe Illustrator 15.0.0, SVG Export Plug-In . SVG Version: 6.00 Build 0)  -->
<!DOCTYPE svg PUBLIC "-//W3C//DTD SVG 1.1//EN" "http://www.w3.org/Graphics/SVG/1.1/DTD/svg11.dtd">
<svg version="1.1" id="Layer_1" xmlns="http://www.w3.org/2000/svg" xmlns:xlink="http://www.w3.org/1999/xlink" x="0px" y="0px"
	 width="102.359px" height="88.667px" viewBox="0 0 102.359 88.667" enable-background="new 0 0 102.359 88.667"
	 xml:space="preserve">
<polygon fill="#FFFFFF" points="-0.319,60.982 -0.319,60.982 -0.179,61.958 0.094,62.83 0.509,63.591 1.199,64.137 2.029,64.681 
	2.854,65.007 3.958,65.226 5.061,65.333 96.66,65.333 96.66,65.333 97.763,65.226 98.868,65.007 99.696,64.681 100.523,64.137 
	101.213,63.591 101.627,62.83 101.904,61.958 102.041,60.982 102.041,4.356 102.041,4.356 101.904,3.376 101.627,2.505 
	101.213,1.743 100.523,1.198 99.696,0.654 98.868,0.326 97.763,0.109 96.66,0 5.061,0 5.061,0 3.958,0.109 2.854,0.326 2.029,0.654 
	1.199,1.198 0.509,1.743 0.094,2.505 -0.179,3.376 -0.319,4.356 "/>
<path d="M2.029,60.982V4.356l0,0V3.81L2.3,3.268L2.44,2.833l0.414-0.327l0.412-0.327l0.556-0.111l0.552-0.215h0.688h91.601l0,0
	h0.688l0.553,0.216l0.555,0.111l0.414,0.327l0.413,0.327l0.138,0.435l0.275,0.542v0.546v56.625l0,0v0.543l-0.276,0.543l-0.138,0.436
	L98.87,62.83l-0.414,0.326l-0.555,0.11l-0.553,0.216H96.66H5.06l0,0H4.373l-0.552-0.216l-0.556-0.11L2.853,62.83l-0.414-0.326
	L2.3,62.068l-0.271-0.543V60.982L2.029,60.982L2.029,60.982z M96.66,61.85L96.66,61.85l0.414-0.108l0.272-0.109l0.142-0.325
	l0.138-0.322V4.356l0,0l-0.138-0.327l-0.14-0.327l-0.274-0.108L96.66,3.483H5.059l0,0L4.646,3.595L4.373,3.702l-0.14,0.327
	L4.093,4.356v56.625l0,0l0.143,0.321l0.14,0.326l0.273,0.111l0.413,0.105L96.66,61.85L96.66,61.85z"/>
<g>
	<path fill="#999999" d="M40.207,56.143v2.218c0,0.164,0.01,0.354,0.021,0.479H39.84l-0.02-0.313H39.8
		c-0.128,0.205-0.412,0.356-0.806,0.356c-0.58,0-1.028-0.375-1.028-0.938c-0.005-0.605,0.493-0.979,1.073-0.979
		c0.371,0,0.612,0.133,0.725,0.271h0.013V56.14L40.207,56.143L40.207,56.143z M39.776,57.746c0-0.043-0.01-0.101-0.021-0.142
		c-0.063-0.209-0.304-0.386-0.629-0.386c-0.449,0-0.718,0.307-0.718,0.705c0,0.369,0.238,0.68,0.707,0.68
		c0.293,0,0.56-0.146,0.64-0.396c0.018-0.049,0.021-0.094,0.021-0.146V57.746z"/>
	<path fill="#999999" d="M40.933,57.496c0-0.188-0.014-0.346-0.021-0.492h0.381l0.021,0.303h0.02c0.133-0.178,0.354-0.34,0.756-0.34
		c0.32,0,0.568,0.146,0.675,0.365h0.01c0.074-0.104,0.178-0.186,0.271-0.234c0.146-0.083,0.297-0.131,0.521-0.131
		c0.316,0,0.791,0.156,0.791,0.795v1.074H43.93v-1.033c0-0.354-0.176-0.563-0.521-0.563c-0.252,0-0.438,0.145-0.521,0.299
		c-0.021,0.053-0.035,0.104-0.035,0.166v1.139h-0.425V57.74c0-0.293-0.171-0.5-0.5-0.5c-0.27,0-0.473,0.166-0.539,0.332
		c-0.021,0.047-0.034,0.104-0.034,0.164v1.104h-0.426v-1.342L40.933,57.496L40.933,57.496z"/>
	<path fill="#999999" d="M45.164,57l0.469,1.022c0.08,0.173,0.146,0.319,0.193,0.478h0.016c0.058-0.146,0.123-0.307,0.203-0.478
		L46.508,57h0.455l-0.938,1.834H45.61L44.7,57H45.164z"/>
	<path fill="#999999" d="M49.387,56.143v2.218c0,0.164,0.015,0.354,0.021,0.479h-0.392l-0.021-0.313h-0.014
		c-0.133,0.205-0.416,0.356-0.813,0.356c-0.578,0-1.024-0.375-1.024-0.938c-0.006-0.605,0.494-0.979,1.069-0.979
		c0.371,0,0.613,0.133,0.729,0.271h0.012V56.14L49.387,56.143L49.387,56.143z M48.954,57.746c0-0.043-0.004-0.101-0.021-0.142
		c-0.063-0.209-0.307-0.386-0.629-0.386c-0.449,0-0.72,0.307-0.72,0.705c0,0.369,0.24,0.68,0.707,0.68
		c0.292,0,0.562-0.146,0.642-0.396c0.02-0.049,0.021-0.094,0.021-0.146V57.746z"/>
	<path fill="#999999" d="M51.795,58.393c0,0.157,0.017,0.313,0.034,0.438h-0.396l-0.029-0.229h-0.021
		c-0.133,0.146-0.394,0.271-0.729,0.271c-0.481,0-0.729-0.264-0.729-0.521c0-0.438,0.521-0.688,1.438-0.688v-0.037
		c0-0.145-0.063-0.426-0.543-0.42c-0.229,0-0.461,0.051-0.629,0.141l-0.104-0.229c0.193-0.098,0.484-0.154,0.79-0.154
		c0.729,0,0.91,0.384,0.91,0.744L51.795,58.393L51.795,58.393z M51.374,57.897c-0.479-0.011-1.014,0.062-1.014,0.411
		c0,0.223,0.188,0.318,0.396,0.318c0.313,0,0.521-0.151,0.592-0.313c0.021-0.039,0.021-0.073,0.021-0.104L51.374,57.897
		L51.374,57.897z"/>
	<path fill="#999999" d="M52.394,58.636c0-0.139,0.125-0.236,0.302-0.236c0.174,0,0.293,0.1,0.293,0.236
		c0,0.136-0.119,0.236-0.308,0.236C52.514,58.875,52.394,58.772,52.394,58.636z"/>
	<path fill="#999999" d="M55.228,58.768c-0.108,0.042-0.36,0.104-0.688,0.104c-0.723,0-1.188-0.375-1.188-0.938
		s0.504-0.979,1.282-0.979c0.261,0,0.483,0.053,0.604,0.104l-0.104,0.253c-0.104-0.042-0.267-0.086-0.504-0.086
		c-0.55,0-0.847,0.313-0.847,0.688c0,0.43,0.354,0.688,0.832,0.688c0.246,0,0.408-0.045,0.527-0.087L55.228,58.768z"/>
	<path fill="#999999" d="M57.874,57.902c0,0.682-0.618,0.977-1.188,0.977c-0.646,0-1.146-0.358-1.146-0.938
		c0-0.604,0.523-0.973,1.188-0.973C57.41,56.96,57.874,57.343,57.874,57.902z M55.98,57.919c0,0.396,0.302,0.705,0.728,0.705
		c0.416,0,0.729-0.306,0.729-0.717c0-0.314-0.197-0.697-0.717-0.697C56.203,57.212,55.98,57.576,55.98,57.919z"/>
	<path fill="#999999" d="M58.425,57.496c0-0.188-0.012-0.346-0.021-0.492h0.381l0.021,0.303h0.021
		c0.135-0.178,0.354-0.34,0.756-0.34c0.319,0,0.564,0.146,0.674,0.365h0.013c0.071-0.104,0.172-0.186,0.271-0.234
		c0.146-0.083,0.297-0.131,0.521-0.131c0.317,0,0.791,0.156,0.791,0.795v1.074h-0.43v-1.033c0-0.354-0.174-0.563-0.52-0.563
		c-0.258,0-0.439,0.145-0.521,0.299c-0.021,0.053-0.032,0.104-0.032,0.166v1.139h-0.426V57.74c0-0.293-0.168-0.5-0.498-0.5
		c-0.271,0-0.475,0.166-0.536,0.332c-0.021,0.047-0.035,0.104-0.035,0.164v1.104h-0.429L58.425,57.496L58.425,57.496z"/>
</g>
<g>
	<path stroke="#000000" stroke-width="0.75" stroke-miterlimit="10" d="M32.068,24.827V10.329h10.483v1.71h-8.564v4.441h8.021v1.701
		h-8.021v4.935h8.901v1.711H32.068z"/>
	<path stroke="#000000" stroke-width="0.75" stroke-miterlimit="10" d="M45.518,24.827V10.329h1.968l7.615,11.383V10.329h1.84
		v14.498h-1.969l-7.615-11.393v11.393H45.518z"/>
	<path stroke="#000000" stroke-width="0.75" stroke-miterlimit="10" d="M60.165,24.827V10.329h4.994
		c1.128,0,1.988,0.069,2.581,0.208c0.831,0.191,1.54,0.538,2.127,1.039c0.765,0.646,1.336,1.472,1.716,2.477
		c0.379,1.005,0.568,2.154,0.568,3.447c0,1.101-0.129,2.077-0.386,2.927s-0.587,1.554-0.989,2.111
		c-0.401,0.557-0.842,0.996-1.32,1.315c-0.478,0.32-1.055,0.562-1.73,0.727c-0.676,0.165-1.452,0.247-2.329,0.247H60.165z
		 M62.084,23.116h3.095c0.956,0,1.706-0.089,2.25-0.267c0.544-0.178,0.978-0.428,1.301-0.751c0.455-0.455,0.81-1.066,1.063-1.834
		s0.381-1.699,0.381-2.794c0-1.517-0.249-2.682-0.747-3.496c-0.498-0.814-1.103-1.36-1.814-1.637
		c-0.515-0.198-1.342-0.297-2.482-0.297h-3.046V23.116z"/>
</g>
<g>
	<path stroke="#000000" stroke-width="0.75" stroke-miterlimit="10" d="M8.427,49.115V34.73h8.82v1.698h-7.09v4.455h6.136v1.697
		h-6.136v6.535H8.427z"/>
	<path stroke="#000000" stroke-width="0.75" stroke-miterlimit="10" d="M19.521,49.115V34.73h5.797c1.165,0,2.051,0.129,2.657,0.388
		s1.091,0.715,1.454,1.369c0.363,0.654,0.544,1.377,0.544,2.168c0,1.021-0.3,1.881-0.9,2.581c-0.601,0.7-1.528,1.145-2.782,1.334
		c0.458,0.242,0.805,0.481,1.043,0.716c0.505,0.51,0.984,1.148,1.436,1.914l2.274,3.915h-2.176l-1.73-2.993
		c-0.505-0.863-0.922-1.523-1.249-1.981c-0.327-0.458-0.62-0.779-0.878-0.962c-0.259-0.183-0.522-0.311-0.79-0.382
		c-0.196-0.046-0.517-0.069-0.963-0.069h-2.006v6.388H19.521z M21.251,41.079h3.719c0.791,0,1.409-0.09,1.854-0.27
		c0.446-0.18,0.785-0.467,1.017-0.863c0.232-0.396,0.348-0.826,0.348-1.291c0-0.68-0.225-1.239-0.673-1.678
		c-0.449-0.438-1.158-0.657-2.127-0.657h-4.138V41.079z"/>
	<path stroke="#000000" stroke-width="0.75" stroke-miterlimit="10" d="M32.719,49.115V34.73h9.453v1.698h-7.723v4.405h7.232v1.688
		h-7.232v4.896h8.026v1.697H32.719z"/>
	<path stroke="#000000" stroke-width="0.75" stroke-miterlimit="10" d="M44.901,49.115V34.73h9.453v1.698h-7.723v4.405h7.232v1.688
		h-7.232v4.896h8.026v1.697H44.901z"/>
	<path stroke="#000000" stroke-width="0.75" stroke-miterlimit="10" d="M59.331,49.115l-3.47-14.385h1.775l1.988,9.43
		c0.214,0.987,0.398,1.969,0.553,2.943c0.333-1.537,0.529-2.423,0.589-2.659l2.488-9.714h2.086l1.873,7.281
		c0.47,1.805,0.809,3.502,1.017,5.092c0.167-0.909,0.384-1.952,0.651-3.13l2.051-9.243h1.739l-3.585,14.385h-1.668l-2.756-10.96
		c-0.231-0.916-0.368-1.478-0.41-1.688c-0.137,0.661-0.265,1.223-0.383,1.688l-2.773,10.96H59.331z"/>
	<path stroke="#000000" stroke-width="0.75" stroke-miterlimit="10" d="M72.172,49.115l5.021-14.385h1.863l5.351,14.385h-1.971
		l-1.524-4.356h-5.467l-1.436,4.356H72.172z M75.943,43.208h4.433l-1.364-3.984c-0.416-1.21-0.726-2.205-0.928-2.983
		c-0.167,0.922-0.401,1.838-0.704,2.748L75.943,43.208z"/>
	<path stroke="#000000" stroke-width="0.75" stroke-miterlimit="10" d="M88.116,49.115v-6.093l-5.038-8.292h2.104l2.577,4.337
		c0.476,0.812,0.919,1.623,1.329,2.434c0.392-0.752,0.867-1.6,1.427-2.542l2.532-4.229h2.016l-5.217,8.292v6.093H88.116z"/>
</g>
</svg>
