<?xml version="1.0" encoding="utf-8"?>
<!-- Generator: Adobe Illustrator 15.0.0, SVG Export Plug-In . SVG Version: 6.00 Build 0)  -->
<!DOCTYPE svg PUBLIC "-//W3C//DTD SVG 1.1//EN" "http://www.w3.org/Graphics/SVG/1.1/DTD/svg11.dtd">
<svg version="1.1" id="Layer_1" xmlns="http://www.w3.org/2000/svg" xmlns:xlink="http://www.w3.org/1999/xlink" x="0px" y="0px"
	 width="119.25px" height="118.98px" viewBox="0 0 119.25 118.98" enable-background="new 0 0 119.25 118.98" xml:space="preserve">
<polygon fill="#FFD520" points="59.626,117.328 59.626,117.328 60.664,117.179 61.702,116.735 61.702,116.735 62.591,116.142 
	63.334,115.4 115.684,63.198 115.684,63.198 116.426,62.456 116.87,61.566 117.314,60.677 117.463,59.491 117.463,59.491 
	117.314,58.451 116.87,57.414 116.87,57.414 116.277,56.524 115.684,55.783 63.48,3.581 63.48,3.581 62.591,2.839 61.553,2.246 
	61.553,2.246 60.664,1.801 59.626,1.653 59.626,1.653 58.587,1.801 57.549,2.246 56.659,2.839 55.77,3.581 3.568,55.783 
	3.568,55.783 2.826,56.524 2.233,57.563 2.233,57.563 1.937,58.451 1.788,59.491 1.788,59.491 1.937,60.677 2.381,61.716 
	2.381,61.716 2.975,62.456 3.568,63.198 55.77,115.4 55.77,115.4 56.659,116.142 57.697,116.735 57.697,116.735 58.587,117.179 "/>
<path d="M114.498,62.308L114.498,62.308l0.593-0.742l0.444-0.593l0.296-0.742v-0.74l0,0v-0.594l-0.296-0.742l-0.444-0.593
	l-0.593-0.742L62.295,4.619l0,0l-0.593-0.593l-0.741-0.445l-0.595-0.146l-0.74-0.148l0,0l-0.742,0.148l-0.592,0.146L57.55,4.026
	l-0.593,0.593L4.754,56.821l0,0L4.16,57.563l-0.445,0.593l-0.296,0.742v0.594l0,0v0.74l0.296,0.742l0.445,0.593l0.594,0.742
	l52.202,52.197l0,0l0.593,0.598l0.742,0.297l0.592,0.296l0.742,0.146l0,0l0.74-0.146l0.595-0.296l0.741-0.297l0.593-0.598
	L114.498,62.308L114.498,62.308L114.498,62.308z M113.163,58.302L113.163,58.302l0.444,0.599l0.146,0.296l0.146,0.298l0,0
	l-0.146,0.444l-0.146,0.296l-0.444,0.594L60.961,113.03l0,0l-0.742,0.594l-0.297,0.147h-0.296l0,0H59.33l-0.297-0.147l-0.741-0.594
	L6.089,60.825l0,0l-0.444-0.594l-0.149-0.296l-0.147-0.444l0,0l0.147-0.298l0.149-0.296L6.089,58.3L58.292,6.101l0,0l0.741-0.598
	L59.33,5.36h0.296l0,0h0.296l0.297,0.146l0.742,0.598L113.163,58.302L113.163,58.302L113.163,58.302z"/>
<g enable-background="new    ">
	<path fill="#999999" d="M49.48,96.937v2.729c0,0.201,0.01,0.433,0.02,0.582h-0.386l-0.02-0.393H49.08
		c-0.128,0.255-0.415,0.44-0.806,0.44c-0.579,0-1.028-0.462-1.028-1.146c-0.005-0.752,0.494-1.207,1.073-1.207
		c0.371,0,0.613,0.164,0.722,0.339h0.01v-1.349L49.48,96.937L49.48,96.937z M49.05,98.911c0-0.051-0.005-0.121-0.02-0.172
		c-0.064-0.258-0.302-0.473-0.628-0.473c-0.45,0-0.717,0.374-0.717,0.864c0,0.456,0.242,0.841,0.707,0.841
		c0.292,0,0.559-0.188,0.638-0.491c0.015-0.063,0.02-0.111,0.02-0.183V98.911z"/>
	<path fill="#999999" d="M50.208,98.604c0-0.24-0.01-0.425-0.02-0.61h0.38l0.02,0.369h0.015c0.133-0.215,0.356-0.414,0.756-0.414
		c0.321,0,0.569,0.187,0.671,0.451h0.01c0.074-0.131,0.174-0.227,0.271-0.295c0.145-0.104,0.297-0.158,0.524-0.158
		c0.321,0,0.791,0.196,0.791,0.979v1.324h-0.425v-1.271c0-0.439-0.174-0.695-0.52-0.695c-0.252,0-0.439,0.174-0.52,0.37
		c-0.02,0.06-0.034,0.131-0.034,0.206v1.396h-0.425V98.9c0-0.359-0.168-0.616-0.5-0.616c-0.267,0-0.47,0.207-0.539,0.412
		c-0.025,0.058-0.035,0.133-0.035,0.202v1.354h-0.425v-1.646h0.003v-0.005L50.208,98.604L50.208,98.604z"/>
	<path fill="#999999" d="M54.438,97.992l0.471,1.266c0.078,0.21,0.144,0.396,0.192,0.582h0.015c0.055-0.186,0.125-0.374,0.203-0.582
		l0.465-1.266h0.455l-0.939,2.26h-0.415l-0.91-2.26H54.438z"/>
	<path fill="#999999" d="M58.662,96.937v2.729c0,0.201,0.01,0.433,0.02,0.582h-0.386l-0.021-0.393H58.26
		c-0.129,0.255-0.416,0.44-0.807,0.44c-0.578,0-1.027-0.462-1.027-1.146c-0.005-0.752,0.494-1.207,1.072-1.207
		c0.371,0,0.613,0.164,0.723,0.339h0.012v-1.349L58.662,96.937L58.662,96.937z M58.23,98.911c0-0.051-0.004-0.121-0.02-0.172
		c-0.064-0.258-0.303-0.473-0.629-0.473c-0.449,0-0.717,0.374-0.717,0.864c0,0.456,0.242,0.841,0.707,0.841
		c0.293,0,0.56-0.188,0.639-0.491c0.016-0.063,0.02-0.111,0.02-0.183V98.911z"/>
	<path fill="#999999" d="M61.07,99.71c0,0.195,0.011,0.391,0.035,0.54H60.71l-0.03-0.285h-0.019
		c-0.138,0.183-0.396,0.336-0.731,0.336c-0.483,0-0.732-0.32-0.732-0.646c0-0.546,0.517-0.846,1.438-0.841v-0.047
		c0-0.187-0.059-0.525-0.542-0.521c-0.229,0-0.461,0.063-0.629,0.17l-0.099-0.271c0.196-0.116,0.487-0.195,0.792-0.195
		c0.729,0,0.906,0.472,0.906,0.921v0.848h0.004V99.71H61.07z M60.65,99.098c-0.479-0.016-1.02,0.065-1.02,0.508
		c0,0.271,0.188,0.394,0.406,0.394c0.313,0,0.521-0.188,0.588-0.378c0.021-0.048,0.021-0.095,0.021-0.131v-0.393H60.65z"/>
	<path fill="#999999" d="M61.671,100.009c0-0.169,0.124-0.295,0.296-0.295c0.174,0,0.292,0.121,0.292,0.295
		c0,0.168-0.118,0.301-0.303,0.301C61.788,100.302,61.671,100.176,61.671,100.009z"/>
	<path fill="#999999" d="M64.504,100.172c-0.113,0.059-0.365,0.138-0.688,0.138c-0.727,0-1.191-0.467-1.191-1.155
		c0-0.693,0.507-1.202,1.285-1.202c0.258,0,0.484,0.059,0.604,0.122l-0.099,0.312c-0.104-0.053-0.269-0.104-0.506-0.104
		c-0.55,0-0.847,0.388-0.847,0.853c0,0.524,0.354,0.851,0.832,0.851c0.246,0,0.404-0.06,0.527-0.104L64.504,100.172z"/>
	<path fill="#999999" d="M67.15,99.103c0,0.835-0.618,1.195-1.189,1.195c-0.645,0-1.146-0.444-1.146-1.156
		c0-0.752,0.528-1.196,1.188-1.196C66.686,97.945,67.15,98.416,67.15,99.103z M65.256,99.126c0,0.494,0.297,0.87,0.723,0.87
		c0.416,0,0.729-0.372,0.729-0.879c0-0.383-0.201-0.864-0.717-0.864C65.479,98.254,65.256,98.701,65.256,99.126z"/>
	<path fill="#999999" d="M67.7,98.604c0-0.24-0.011-0.425-0.021-0.61h0.381l0.021,0.369h0.017c0.137-0.215,0.354-0.414,0.756-0.414
		c0.322,0,0.569,0.187,0.676,0.451h0.014c0.07-0.131,0.174-0.227,0.271-0.295c0.146-0.104,0.297-0.158,0.521-0.158
		c0.319,0,0.791,0.196,0.791,0.979v1.324H70.7v-1.271c0-0.439-0.175-0.695-0.521-0.695c-0.254,0-0.438,0.174-0.521,0.37
		c-0.021,0.06-0.032,0.131-0.032,0.206v1.396h-0.429V98.9c0-0.359-0.168-0.616-0.496-0.616c-0.271,0-0.473,0.207-0.538,0.412
		c-0.021,0.058-0.035,0.133-0.035,0.202v1.354H67.7v-1.646l0,0V98.604z"/>
</g>
<g>
	<path stroke="#000000" stroke-width="0.25" stroke-miterlimit="10" d="M21.542,45.055h6.812v1.304h-5.161v4.003h4.767v1.287h-4.767
		v5.45h-1.651V45.055z"/>
	<path stroke="#000000" stroke-width="0.25" stroke-miterlimit="10" d="M30.68,45.055h1.651v10.74h5.404v1.304H30.68V45.055z"/>
	<path stroke="#000000" stroke-width="0.25" stroke-miterlimit="10" d="M41.603,53.312l-1.315,3.787H38.6l4.315-12.044h1.952
		l4.317,12.044h-1.746l-1.351-3.787H41.603z M45.768,52.096l-1.256-3.468c-0.282-0.786-0.469-1.501-0.658-2.199h-0.038
		c-0.188,0.698-0.375,1.447-0.638,2.18l-1.238,3.486H45.768z"/>
	<path stroke="#000000" stroke-width="0.25" stroke-miterlimit="10" d="M60.404,56.563c-0.732,0.269-2.195,0.662-3.903,0.662
		c-1.914,0-3.49-0.465-4.729-1.591c-1.089-1.001-1.764-2.61-1.764-4.486c0-3.591,2.608-6.219,6.849-6.219
		c1.464,0,2.627,0.303,3.172,0.554l-0.413,1.269c-0.675-0.303-1.52-0.517-2.796-0.517c-3.078,0-5.086,1.822-5.086,4.843
		c0,3.057,1.915,4.86,4.879,4.86c1.071,0,1.802-0.142,2.178-0.321v-3.592h-2.553v-1.251h4.166V56.563z"/>
	<path stroke="#000000" stroke-width="0.25" stroke-miterlimit="10" d="M73.543,51.809c-0.095-1.679-0.21-3.716-0.21-5.2h-0.035
		c-0.452,1.394-0.957,2.912-1.596,4.574l-2.231,5.844h-1.239l-2.064-5.737c-0.601-1.715-1.09-3.252-1.445-4.683h-0.037
		c-0.039,1.501-0.132,3.502-0.245,5.325l-0.336,5.167h-1.558l0.883-12.044h2.08l2.16,5.825c0.524,1.482,0.938,2.805,1.274,4.056
		h0.039c0.337-1.216,0.789-2.538,1.351-4.056l2.252-5.825h2.081l0.789,12.044h-1.613L73.543,51.809z"/>
	<path stroke="#000000" stroke-width="0.25" stroke-miterlimit="10" d="M79.827,53.312l-1.312,3.787h-1.688l4.316-12.044h1.95
		l4.317,12.044h-1.744l-1.352-3.787H79.827z M83.993,52.096l-1.257-3.468c-0.281-0.786-0.468-1.501-0.658-2.199h-0.036
		c-0.188,0.698-0.374,1.447-0.64,2.18l-1.238,3.486H83.993z"/>
	<path stroke="#000000" stroke-width="0.25" stroke-miterlimit="10" d="M89.266,57.099V45.055h1.802l4.034,6.093
		c0.919,1.412,1.671,2.682,2.252,3.915l0.058-0.018c-0.15-1.609-0.188-3.074-0.188-4.951v-5.039h1.538v12.044h-1.65l-4.017-6.111
		c-0.882-1.34-1.727-2.716-2.345-4.021l-0.058,0.017c0.095,1.52,0.113,2.966,0.113,4.969v5.146H89.266z"/>
	<path stroke="#000000" stroke-width="0.25" stroke-miterlimit="10" d="M35.166,74.765l-1.314,3.787h-1.688l4.315-12.043h1.953
		l4.317,12.043h-1.747l-1.351-3.787H35.166z M39.332,73.551l-1.257-3.467c-0.281-0.788-0.469-1.502-0.658-2.198h-0.038
		c-0.188,0.696-0.375,1.446-0.638,2.18l-1.238,3.485H39.332z"/>
	<path stroke="#000000" stroke-width="0.25" stroke-miterlimit="10" d="M46.237,66.51v5.039h6.118V66.51h1.652v12.044h-1.65v-5.646
		h-6.118v5.646h-1.65V66.51H46.237z"/>
	<path stroke="#000000" stroke-width="0.25" stroke-miterlimit="10" d="M63.37,72.907h-4.897v4.344h5.479v1.302h-7.131V66.51h6.85
		v1.305h-5.199v3.805h4.898V72.907L63.37,72.907z"/>
	<path stroke="#000000" stroke-width="0.25" stroke-miterlimit="10" d="M68.117,74.765l-1.314,3.787h-1.687l4.315-12.043h1.951
		L75.7,78.552h-1.744l-1.351-3.787H68.117z M72.284,73.551l-1.258-3.467c-0.28-0.788-0.468-1.502-0.658-2.198h-0.036
		c-0.188,0.696-0.374,1.446-0.638,2.18l-1.24,3.485H72.284z"/>
	<path stroke="#000000" stroke-width="0.25" stroke-miterlimit="10" d="M77.558,66.688c0.993-0.162,2.177-0.27,3.471-0.27
		c2.347,0,4.017,0.535,5.123,1.499c1.145,0.985,1.8,2.376,1.8,4.324c0,1.969-0.656,3.575-1.819,4.684
		c-1.2,1.127-3.151,1.734-5.61,1.734c-1.182,0-2.139-0.053-2.964-0.142V66.688z M79.191,77.34c0.412,0.054,1.012,0.071,1.649,0.071
		c3.509,0,5.387-1.858,5.387-5.11c0.02-2.842-1.672-4.648-5.122-4.648c-0.846,0-1.484,0.073-1.914,0.163V77.34z"/>
</g>
</svg>
