<?xml version="1.0" encoding="utf-8"?>
<!-- Generator: Adobe Illustrator 15.0.0, SVG Export Plug-In . SVG Version: 6.00 Build 0)  -->
<!DOCTYPE svg PUBLIC "-//W3C//DTD SVG 1.1//EN" "http://www.w3.org/Graphics/SVG/1.1/DTD/svg11.dtd">
<svg version="1.1" id="Layer_1" xmlns="http://www.w3.org/2000/svg" xmlns:xlink="http://www.w3.org/1999/xlink" x="0px" y="0px"
	 width="82.779px" height="102.189px" viewBox="0 0 82.779 102.189" enable-background="new 0 0 82.779 102.189"
	 xml:space="preserve">
<g>
	<polygon fill="#FFFFFF" points="77.263,102.274 77.263,102.274 78.504,102.135 79.605,101.861 80.572,101.447 81.262,100.757 
		81.951,99.927 82.366,99.101 82.642,97.998 82.779,96.894 82.779,5.296 82.779,5.296 82.642,4.192 82.366,3.088 81.951,2.26 
		81.262,1.432 80.572,0.743 79.605,0.329 78.504,0.052 77.263,-0.085 5.528,-0.085 5.528,-0.085 4.286,0.052 3.182,0.329 
		2.217,0.743 1.527,1.432 0.838,2.26 0.423,3.088 0.147,4.192 0.01,5.296 0.01,96.894 0.01,96.894 0.147,97.998 0.423,99.101 
		0.838,99.927 1.527,100.757 2.217,101.447 3.182,101.861 4.286,102.135 5.528,102.274 	"/>
	<path d="M77.263,99.927H5.528l0,0H4.836l-0.688-0.272l-0.551-0.139l-0.414-0.414l-0.414-0.413l-0.14-0.554l-0.273-0.552v-0.688
		V5.295l0,0V4.606L2.63,4.054l0.14-0.554l0.414-0.414l0.414-0.413l0.551-0.138L4.836,2.26h0.691h71.735l0,0h0.688l0.689,0.276
		l0.551,0.138l0.413,0.413l0.415,0.414l0.139,0.554l0.274,0.552v0.688v91.6l0,0v0.688l-0.274,0.552l-0.139,0.554l-0.415,0.413
		l-0.413,0.414l-0.551,0.139l-0.689,0.272L77.263,99.927L77.263,99.927L77.263,99.927z M78.365,5.296L78.365,5.296l-0.139-0.414
		l-0.14-0.274l-0.413-0.14L77.262,4.33H5.528l0,0L5.114,4.468L4.7,4.606L4.563,4.882L4.423,5.296v91.6l0,0l0.141,0.414L4.7,97.584
		l0.414,0.139l0.414,0.139h71.735l0,0l0.411-0.139l0.413-0.139l0.14-0.274l0.139-0.414L78.365,5.296L78.365,5.296z M12.287,69.028
		h5.52h0.274l0,0l1.104,0.139l0.966,0.275l0.827,0.414l0.688,0.552l0.689,0.688l0.416,0.826l0.273,0.969l0.14,0.965l0,0l-0.14,1.242
		l-0.273,0.551l-0.14,0.553l-0.415,0.414l-0.411,0.551l-1.242,0.828l2.896,7.863H20.7l-2.758-7.449l-3.035,0.138v7.313h-2.621
		L12.287,69.028L12.287,69.028z M18.357,75.788h0.414l0,0h0.273l0.414-0.139l0.551-0.413l0.415-0.689l0.139-0.827l0,0l-0.139-0.826
		l-0.415-0.555l-0.688-0.551l-0.276-0.138h-0.414h-0.138h-3.586v4.274L18.357,75.788L18.357,75.788z M57.672,14.262h6.348h0.415l0,0
		h0.965l0.828,0.274l0.688,0.414l0.69,0.689l0.553,0.688l0.413,0.69l0.277,0.965l0.138,0.965l0,0l-0.138,0.966l-0.277,0.828
		l-0.413,0.828l-0.553,0.688l-0.69,0.553l-0.688,0.414L65.399,23.5l-0.965,0.14h-0.275h-3.725v7.312h-2.763V14.262L57.672,14.262z
		 M64.295,20.884L64.295,20.884l0.828-0.138l0.413-0.138l0.276-0.14l0.272-0.411l0.141-0.277l0.138-0.965l0,0l-0.138-0.828
		l-0.413-0.552l-0.556-0.413l-0.824-0.276h-0.275h-3.725v4.276L64.295,20.884L64.295,20.884z M17.115,14.262h2.483v6.62l5.381-6.62
		h3.31l-5.104,6.482l5.38,10.208H25.53l-4.139-8.001l-1.793,2.208v5.793h-2.483V14.262L17.115,14.262z M31.6,14.262h9.654v2.62
		h-7.033v4.14h4.827v2.621h-4.827v4.689h7.587v2.621H31.6V14.262L31.6,14.262z M44.844,14.262H54.5v2.62h-7.036v4.14h4.829v2.621
		h-4.829v4.689h7.588v2.621H44.844V14.262L44.844,14.262z M26.91,69.028h2.483v16.83H26.91V69.028L26.91,69.028z M44.152,77.581
		v2.897v0.274l0,0l-0.137,1.104l-0.276,1.104l-0.413,0.827l-0.691,0.828l-0.825,0.69l-0.827,0.411l-1.104,0.275l-1.104,0.139l0,0
		h-0.69l-0.688-0.139l-0.553-0.275l-0.551-0.273l-0.552-0.277l-0.553-0.414l-0.413-0.551L34.36,83.65l0,0l-0.552-1.241l-0.413-1.38
		l-0.276-1.52l-0.138-1.932l0,0l0.138-2.206l0.414-1.933l0.414-1.654l0.413-0.552l0.414-0.552l0,0l0.688-0.828l1.104-0.554
		l1.104-0.414l1.24-0.137l0,0l0.828,0.137l0.828,0.14l0.688,0.274l0.69,0.554l0.688,0.552l0.555,0.552l0.413,0.69l0.275,0.827
		l-2.345,0.826l0,0l-0.415-0.826l-0.688-0.689L39.6,71.373l-0.827-0.138l0,0l-0.69,0.138l-0.688,0.276l-0.553,0.552l-0.412,0.689
		l-0.414,0.826l-0.275,0.967l-0.139,1.241v1.381l0,0v1.38l0.138,1.379l0.275,1.104l0.275,0.828l0.551,0.688l0.553,0.552l0.552,0.274
		l0.689,0.14l0,0h0.689l0.551-0.275l0.414-0.139l0.414-0.414l0.276-0.413l0.273-0.413l0.141-0.554v-0.688v-0.553h-2.622V77.58
		L44.152,77.581L44.152,77.581z M48.843,69.028h2.484v6.76h6.069v-6.76h2.621v16.83h-2.621v-7.313h-5.933v7.313h-2.623
		L48.843,69.028L48.843,69.028z M66.641,71.51h-3.727v-2.48h10.208v2.48h-3.726v14.35H66.64L66.641,71.51L66.641,71.51z
		 M51.466,56.061H15.875v-9.934h35.591l-1.654-5.104l0,0l-0.276-0.828l0.139-0.689l0.414-0.688l0.554-0.414l0,0l0.412-0.275h0.688
		l0.69,0.139l0.688,0.274l17.936,12.555L53.12,63.51l0,0l-0.688,0.413l-0.69,0.141h-0.69l-0.411-0.275l0,0l-0.554-0.553
		l-0.414-0.551l-0.139-0.69l0.276-0.827L51.466,56.061L51.466,56.061z"/>
</g>
<g>
	<path fill="#999999" d="M31.693,92.492v2.218c0,0.163,0.01,0.352,0.02,0.477h-0.387l-0.02-0.316H31.29
		c-0.128,0.205-0.415,0.358-0.806,0.358c-0.58,0-1.028-0.375-1.028-0.936c-0.005-0.606,0.493-0.979,1.073-0.979
		c0.371,0,0.612,0.133,0.722,0.273h0.011V92.49L31.693,92.492L31.693,92.492z M31.262,94.094c0-0.042-0.008-0.1-0.021-0.141
		c-0.063-0.209-0.304-0.386-0.629-0.386c-0.449,0-0.718,0.306-0.718,0.705c0,0.37,0.24,0.68,0.707,0.68
		c0.293,0,0.56-0.148,0.64-0.396c0.015-0.048,0.021-0.093,0.021-0.146V94.094z"/>
	<path fill="#999999" d="M32.42,93.844c0-0.19-0.011-0.346-0.021-0.492h0.381l0.021,0.299h0.018
		c0.133-0.174,0.354-0.337,0.756-0.337c0.32,0,0.568,0.148,0.672,0.365h0.01c0.074-0.104,0.176-0.184,0.271-0.237
		c0.145-0.083,0.297-0.129,0.521-0.129c0.319,0,0.791,0.157,0.791,0.795v1.075h-0.426V94.15c0-0.354-0.173-0.563-0.52-0.563
		c-0.252,0-0.44,0.143-0.521,0.299c-0.02,0.052-0.035,0.104-0.035,0.167v1.136h-0.425v-1.102c0-0.292-0.168-0.5-0.5-0.5
		c-0.267,0-0.47,0.166-0.539,0.333c-0.022,0.047-0.034,0.104-0.034,0.163v1.104h-0.426v-1.341L32.42,93.844L32.42,93.844z"/>
	<path fill="#999999" d="M36.65,93.348l0.469,1.023c0.08,0.172,0.146,0.32,0.193,0.477h0.016c0.055-0.15,0.123-0.306,0.203-0.477
		l0.463-1.023h0.455l-0.938,1.833h-0.415l-0.91-1.833H36.65z"/>
	<path fill="#999999" d="M40.874,92.492v2.218c0,0.163,0.013,0.352,0.021,0.477h-0.39l-0.021-0.316H40.47
		c-0.131,0.205-0.416,0.358-0.809,0.358c-0.578,0-1.027-0.375-1.027-0.936c-0.006-0.606,0.494-0.979,1.072-0.979
		c0.371,0,0.613,0.133,0.725,0.273h0.012V92.49L40.874,92.492L40.874,92.492z M40.44,94.094c0-0.042-0.004-0.1-0.021-0.141
		c-0.063-0.209-0.304-0.386-0.629-0.386c-0.449,0-0.717,0.306-0.717,0.705c0,0.37,0.24,0.68,0.707,0.68
		c0.292,0,0.559-0.148,0.639-0.396c0.018-0.048,0.021-0.093,0.021-0.146V94.094z"/>
	<path fill="#999999" d="M43.281,94.742c0,0.158,0.014,0.313,0.034,0.438h-0.395l-0.031-0.229h-0.019
		c-0.133,0.146-0.394,0.271-0.729,0.271c-0.481,0-0.729-0.264-0.729-0.525c0-0.439,0.519-0.688,1.438-0.685v-0.036
		c0-0.146-0.06-0.426-0.543-0.421c-0.229,0-0.461,0.051-0.629,0.138l-0.102-0.226c0.193-0.097,0.484-0.156,0.79-0.156
		c0.729,0,0.91,0.382,0.91,0.744L43.281,94.742L43.281,94.742z M42.86,94.246c-0.479-0.011-1.014,0.06-1.014,0.411
		c0,0.223,0.188,0.318,0.401,0.318c0.313,0,0.521-0.151,0.589-0.31c0.02-0.038,0.021-0.076,0.021-0.104L42.86,94.246L42.86,94.246z"
		/>
	<path fill="#999999" d="M43.881,94.985c0-0.139,0.125-0.237,0.3-0.237c0.174,0,0.293,0.1,0.293,0.237s-0.119,0.236-0.306,0.236
		C44.001,95.223,43.881,95.121,43.881,94.985z"/>
	<path fill="#999999" d="M46.715,95.117c-0.11,0.042-0.362,0.104-0.688,0.104c-0.723,0-1.19-0.375-1.19-0.938
		s0.504-0.979,1.285-0.979c0.258,0,0.483,0.051,0.604,0.102l-0.104,0.253c-0.104-0.042-0.267-0.086-0.504-0.086
		c-0.55,0-0.847,0.313-0.847,0.688c0,0.429,0.354,0.688,0.832,0.688c0.246,0,0.408-0.045,0.529-0.087L46.715,95.117z"/>
	<path fill="#999999" d="M49.36,94.25c0,0.681-0.618,0.977-1.19,0.977c-0.644,0-1.146-0.362-1.146-0.941
		c0-0.607,0.525-0.971,1.187-0.971C48.896,93.31,49.36,93.692,49.36,94.25z M47.467,94.269c0,0.398,0.3,0.704,0.726,0.704
		c0.416,0,0.728-0.302,0.728-0.715c0-0.313-0.199-0.698-0.717-0.698C47.689,93.561,47.467,93.925,47.467,94.269z"/>
	<path fill="#999999" d="M49.911,93.844c0-0.19-0.012-0.346-0.021-0.492h0.381l0.021,0.299h0.02
		c0.135-0.174,0.354-0.337,0.756-0.337c0.319,0,0.566,0.148,0.674,0.365h0.01c0.074-0.104,0.172-0.184,0.271-0.237
		c0.145-0.083,0.297-0.129,0.521-0.129c0.32,0,0.791,0.157,0.791,0.795v1.075h-0.426V94.15c0-0.354-0.174-0.563-0.52-0.563
		c-0.256,0-0.439,0.143-0.521,0.299c-0.021,0.052-0.035,0.104-0.035,0.167v1.136H51.41v-1.102c0-0.292-0.168-0.5-0.498-0.5
		c-0.271,0-0.475,0.166-0.539,0.333c-0.023,0.047-0.035,0.104-0.035,0.163v1.104h-0.426L49.911,93.844L49.911,93.844z"/>
</g>
</svg>
