<?xml version="1.0" encoding="utf-8"?>
<!-- Generator: Adobe Illustrator 15.0.0, SVG Export Plug-In . SVG Version: 6.00 Build 0)  -->
<!DOCTYPE svg PUBLIC "-//W3C//DTD SVG 1.1//EN" "http://www.w3.org/Graphics/SVG/1.1/DTD/svg11.dtd">
<svg version="1.1" id="Layer_1" xmlns="http://www.w3.org/2000/svg" xmlns:xlink="http://www.w3.org/1999/xlink" x="0px" y="0px"
	 width="60.228px" height="75.187px" viewBox="0 0 60.228 75.187" enable-background="new 0 0 60.228 75.187" xml:space="preserve">
<g>
	<path fill="#FFFFFF" d="M3.945,0.208h52.335c2.058,0,3.739,1.68,3.739,3.738V71.24c0,2.059-1.681,3.738-3.739,3.738H3.945
		c-2.058,0-3.737-1.68-3.737-3.738V3.946C0.208,1.913,1.912,0.208,3.945,0.208"/>
	<g>
		<path fill="none" d="M3.945,0v0.416h52.335c1.947,0,3.531,1.583,3.531,3.531V71.24c0,1.947-1.584,3.531-3.531,3.531H3.945
			c-1.946,0-3.53-1.584-3.53-3.531V3.946c0-1.914,1.616-3.531,3.53-3.531V0C1.807,0,0,1.807,0,3.946V71.24
			c0,2.177,1.77,3.947,3.945,3.947h52.335c2.176,0,3.947-1.77,3.947-3.947V3.946C60.228,1.771,58.457,0,56.281,0H3.945z"/>
	</g>
	<path fill-rule="evenodd" clip-rule="evenodd" d="M3.958,1.143h52.311c1.541,0.002,2.81,1.277,2.816,2.815v67.271
		c-0.006,1.541-1.275,2.81-2.816,2.815H3.958c-1.538-0.005-2.813-1.274-2.814-2.815V3.958C1.144,2.42,2.42,1.144,3.958,1.143"/>
	<path fill-rule="evenodd" clip-rule="evenodd" fill="#FFFFFF" d="M3.977,2.7h52.272c0.702-0.009,1.29,0.575,1.278,1.277v67.232
		c0.012,0.701-0.576,1.289-1.278,1.278H3.977c-0.703,0.011-1.289-0.577-1.278-1.278V3.977C2.689,3.275,3.273,2.691,3.977,2.7"/>
	<path fill-rule="evenodd" clip-rule="evenodd" d="M51.272,15.157V7.685h-1.076v4.483L48.15,7.685h-1.076v7.472h1.076V10.15
		l2.309,5.007H51.272 M44.792,9.678c0,0.604-0.341,0.945-0.97,0.945h-1.102v-1.89h1.102C44.4,8.733,44.792,9.101,44.792,9.678z
		 M45.843,15.157l-1.077-3.669c0.708-0.262,1.077-0.918,1.077-1.81c0-1.206-0.787-1.993-1.969-1.993h-2.228v7.472h1.074v-3.513
		h1.024l0.997,3.513H45.843z M40.046,12.929V7.685H38.97v5.375c0,0.708-0.419,1.179-0.996,1.179c-0.629,0-1.048-0.471-1.048-1.179
		V7.685H35.85v5.244c0,0.603,0.078,0.917,0.289,1.311c0.367,0.63,1.103,1.054,1.835,1.054c0.708,0,1.417-0.451,1.783-1.054
		C39.967,13.846,40.046,13.532,40.046,12.929z M34.829,8.682V7.685h-3.804v0.998h1.363v6.475h1.075V8.682H34.829z M26.855,8.682
		V7.685h-3.803v0.998h1.363v6.475h1.074V8.682H26.855z M22.606,8.733V7.685h-3.803v7.472h1.075v-3.513h1.496v-1.021h-1.496v-1.89
		H22.606z M17.545,15.157v-1.048h-2.728v-2.465h1.546v-1.021h-1.546v-1.89h2.438V7.685h-3.515v7.472H17.545z M12.72,15.157V14.16
		H9.99V7.685H8.916v7.472H12.72z"/>
	<path fill-rule="evenodd" clip-rule="evenodd" d="M50.366,42.573v-7.472H49.29v4.482l-2.045-4.482h-1.076v7.472h1.076v-5.007
		l2.309,5.007H50.366 M44.913,42.573v-1.049h-2.728V39.06h1.546v-1.023h-1.546v-1.886h2.437v-1.05h-3.513v7.472H44.913z
		 M39.851,42.573v-1.049h-2.729V39.06h1.547v-1.023h-1.547v-1.886h2.439v-1.05h-3.515v7.472H39.851z M33.766,37.093
		c0,0.603-0.341,0.943-0.971,0.943h-1.102v-1.886h1.102C33.372,36.151,33.766,36.517,33.766,37.093z M34.814,42.573l-1.075-3.67
		c0.707-0.263,1.075-0.918,1.075-1.81c0-1.206-0.787-1.992-1.967-1.992h-2.229v7.472h1.076V39.06h1.022l0.998,3.514H34.814z
		 M29.149,40.503v-1.548h-1.914v1.05h0.839v0.498c0,0.786-0.263,1.152-0.813,1.152c-0.576,0-0.944-0.393-1.101-1.127
		c-0.106-0.577-0.158-1.232-0.158-1.862c0-0.89,0.131-1.73,0.342-2.098c0.183-0.367,0.471-0.55,0.838-0.55
		c0.525,0,0.866,0.341,0.892,0.84h1.075c-0.052-1.101-0.865-1.888-1.941-1.888c-0.864,0-1.625,0.577-1.887,1.363
		c-0.262,0.707-0.342,1.469-0.342,2.518c0,0.969,0.157,2.02,0.396,2.568c0.366,0.84,1.021,1.291,1.914,1.291
		c0.76,0,1.364-0.397,1.652-1.054C29.097,41.341,29.149,41.027,29.149,40.503z M19.788,42.573v-7.472h-1.077v4.482l-2.046-4.482
		H15.59v7.472h1.075v-5.007l2.309,5.007H19.788z M13.073,38.823c0,0.867-0.052,1.312-0.237,1.915
		c-0.183,0.63-0.472,0.917-0.918,0.917c-0.471,0-0.759-0.287-0.943-0.917c-0.157-0.604-0.237-1.074-0.237-1.888
		c0-0.84,0.053-1.337,0.237-1.914c0.184-0.629,0.473-0.918,0.943-0.918c0.446,0,0.735,0.289,0.918,0.945
		C12.993,37.513,13.073,37.985,13.073,38.823z M14.095,38.823c0-1.127-0.104-1.835-0.419-2.568
		c-0.368-0.918-0.892-1.285-1.758-1.285c-0.865,0-1.389,0.367-1.783,1.257c-0.314,0.709-0.419,1.469-0.419,2.596
		c0,1.155,0.105,1.862,0.419,2.596c0.368,0.893,0.892,1.291,1.783,1.291c0.841,0,1.39-0.397,1.758-1.291
		C13.99,40.712,14.095,39.978,14.095,38.823z"/>
	<path fill-rule="evenodd" clip-rule="evenodd" d="M43.783,25.18c0,0.771-0.069,1.469-0.14,2.099
		c-0.139,0.769-0.595,1.433-1.435,1.433H41.02v-7.167h1.188c0.629,0,1.05,0.315,1.295,1.016
		C43.678,22.978,43.783,24.063,43.783,25.18 M45.18,25.11c0-0.769-0.104-1.643-0.245-2.377c-0.173-1.014-0.594-1.783-1.188-2.202
		c-0.35-0.279-0.769-0.385-1.609-0.385h-2.552v9.964h2.763c0.559,0,1.049-0.14,1.398-0.455C44.726,28.885,45.18,27.418,45.18,25.11z
		 M38.223,30.11v-1.33h-3.636v-8.634h-1.435v9.964H38.223z M31.473,30.11v-1.399h-3.636v-3.286H29.9v-1.362h-2.063v-2.519h3.252
		v-1.397h-4.686v9.964H31.473z M22.837,30.11h1.398v-9.964h-1.398V30.11z M21.473,20.146h-1.539l-1.644,3.601l-1.677-3.601h-1.505
		l2.447,5.453v4.511h1.435V25.6L21.473,20.146z"/>
	<path fill-rule="evenodd" clip-rule="evenodd" fill="#64BC46" d="M30.221,47.563c5.49,0,9.968,4.478,9.968,9.97
		c0,5.49-4.479,9.969-9.968,9.969c-5.492,0-9.969-4.479-9.969-9.969C20.252,52.041,24.729,47.563,30.221,47.563"/>
</g>
<g>
	<path fill="#989898" d="M20.518,68.496v2.218c0,0.164,0.012,0.354,0.021,0.479h-0.387l-0.021-0.315h-0.018
		c-0.127,0.205-0.414,0.356-0.807,0.356c-0.58,0-1.027-0.375-1.027-0.937c-0.006-0.606,0.492-0.979,1.072-0.979
		c0.371,0,0.613,0.135,0.723,0.275h0.01v-1.1L20.518,68.496L20.518,68.496z M20.086,70.101c0-0.041-0.008-0.101-0.021-0.142
		c-0.063-0.209-0.305-0.388-0.629-0.388c-0.447,0-0.719,0.308-0.719,0.705c0,0.369,0.242,0.681,0.707,0.681
		c0.293,0,0.563-0.147,0.641-0.396c0.018-0.047,0.021-0.094,0.021-0.146V70.101z"/>
	<path fill="#989898" d="M21.244,69.851c0-0.189-0.012-0.347-0.021-0.492h0.381l0.021,0.3h0.018
		c0.135-0.175,0.355-0.337,0.756-0.337c0.318,0,0.566,0.146,0.674,0.363h0.01c0.074-0.104,0.176-0.185,0.271-0.235
		c0.146-0.083,0.299-0.13,0.521-0.13c0.318,0,0.791,0.156,0.791,0.796v1.073H24.24v-1.031c0-0.354-0.174-0.563-0.521-0.563
		c-0.252,0-0.438,0.143-0.521,0.299c-0.021,0.051-0.033,0.104-0.033,0.168v1.135h-0.426v-1.102c0-0.291-0.168-0.5-0.5-0.5
		c-0.27,0-0.473,0.166-0.539,0.334c-0.023,0.047-0.033,0.104-0.033,0.16v1.105H21.24v-1.342L21.244,69.851L21.244,69.851z"/>
	<path fill="#989898" d="M25.475,69.354l0.471,1.022c0.08,0.173,0.146,0.319,0.191,0.478h0.018c0.057-0.149,0.123-0.308,0.203-0.478
		l0.463-1.022h0.455l-0.938,1.832h-0.416l-0.91-1.832H25.475z"/>
	<path fill="#989898" d="M29.699,68.496v2.218c0,0.164,0.014,0.354,0.02,0.479h-0.391l-0.021-0.314h-0.016
		c-0.129,0.205-0.416,0.355-0.811,0.355c-0.576,0-1.025-0.375-1.025-0.936c-0.006-0.605,0.494-0.979,1.072-0.979
		c0.369,0,0.611,0.134,0.725,0.273h0.012v-1.099L29.699,68.496L29.699,68.496z M29.266,70.101c0-0.041-0.006-0.101-0.02-0.142
		c-0.064-0.209-0.309-0.388-0.631-0.388c-0.449,0-0.719,0.308-0.719,0.705c0,0.369,0.24,0.681,0.707,0.681
		c0.291,0,0.563-0.147,0.643-0.396c0.016-0.047,0.02-0.094,0.02-0.146V70.101z"/>
	<path fill="#989898" d="M32.105,70.746c0,0.157,0.016,0.313,0.033,0.438h-0.395l-0.033-0.229h-0.018
		c-0.133,0.146-0.395,0.271-0.729,0.271c-0.482,0-0.729-0.264-0.729-0.523c0-0.438,0.518-0.688,1.438-0.686v-0.037
		c0-0.146-0.061-0.424-0.543-0.42c-0.229,0-0.461,0.051-0.631,0.139l-0.104-0.227c0.191-0.098,0.482-0.156,0.789-0.156
		c0.73,0,0.91,0.383,0.91,0.744L32.105,70.746L32.105,70.746z M31.686,70.251c-0.479-0.012-1.016,0.061-1.016,0.41
		c0,0.225,0.188,0.316,0.402,0.316c0.313,0,0.52-0.149,0.59-0.311c0.02-0.037,0.021-0.074,0.021-0.104L31.686,70.251L31.686,70.251z
		"/>
	<path fill="#989898" d="M32.705,70.99c0-0.14,0.125-0.237,0.299-0.237s0.293,0.102,0.293,0.237s-0.119,0.235-0.305,0.235
		C32.826,71.229,32.705,71.126,32.705,70.99z"/>
	<path fill="#989898" d="M35.539,71.121c-0.111,0.042-0.363,0.104-0.688,0.104c-0.725,0-1.189-0.375-1.189-0.938
		s0.504-0.979,1.285-0.979c0.258,0,0.482,0.051,0.604,0.104l-0.104,0.254c-0.105-0.043-0.268-0.087-0.504-0.087
		c-0.551,0-0.85,0.313-0.85,0.688c0,0.428,0.354,0.688,0.832,0.688c0.246,0,0.408-0.045,0.531-0.087L35.539,71.121z"/>
	<path fill="#989898" d="M38.186,70.255c0,0.682-0.617,0.977-1.189,0.977c-0.645,0-1.146-0.36-1.146-0.939
		c0-0.605,0.525-0.973,1.188-0.973C37.721,69.315,38.186,69.696,38.186,70.255z M36.291,70.274c0,0.397,0.299,0.705,0.725,0.705
		c0.416,0,0.73-0.303,0.73-0.715c0-0.313-0.201-0.699-0.719-0.699C36.514,69.567,36.291,69.929,36.291,70.274z"/>
	<path fill="#989898" d="M38.736,69.851c0-0.189-0.014-0.347-0.021-0.492h0.381l0.021,0.3h0.018
		c0.137-0.175,0.355-0.337,0.758-0.337c0.318,0,0.566,0.146,0.676,0.363h0.012c0.072-0.104,0.172-0.185,0.27-0.235
		c0.146-0.083,0.297-0.13,0.521-0.13c0.32,0,0.791,0.156,0.791,0.796v1.073h-0.426v-1.031c0-0.354-0.176-0.563-0.521-0.563
		c-0.256,0-0.438,0.143-0.52,0.299c-0.021,0.051-0.035,0.104-0.035,0.168v1.135h-0.424v-1.102c0-0.291-0.168-0.5-0.498-0.5
		c-0.271,0-0.477,0.166-0.539,0.334c-0.023,0.047-0.033,0.104-0.033,0.16v1.105h-0.428L38.736,69.851L38.736,69.851z"/>
</g>
</svg>
