<?xml version="1.0" encoding="utf-8"?>
<!-- Generator: Adobe Illustrator 15.0.0, SVG Export Plug-In . SVG Version: 6.00 Build 0)  -->
<!DOCTYPE svg PUBLIC "-//W3C//DTD SVG 1.1//EN" "http://www.w3.org/Graphics/SVG/1.1/DTD/svg11.dtd">
<svg version="1.1" id="Layer_1" xmlns="http://www.w3.org/2000/svg" xmlns:xlink="http://www.w3.org/1999/xlink" x="0px" y="0px"
	 width="119.25px" height="118.98px" viewBox="0 0 119.25 118.98" enable-background="new 0 0 119.25 118.98" xml:space="preserve">
<g>
	<g>
		<polygon fill="#FFD520" points="60.148,118.275 60.148,118.275 61.202,118.125 62.256,117.674 62.256,117.674 63.156,117.072 
			63.907,116.321 116.979,63.398 116.979,63.398 117.731,62.647 118.183,61.745 118.636,60.842 118.785,59.64 118.785,59.64 
			118.636,58.587 118.183,57.536 118.183,57.536 117.58,56.632 116.979,55.881 64.06,2.959 64.06,2.959 63.156,2.206 62.105,1.606 
			62.105,1.606 61.202,1.154 60.148,1.005 60.148,1.005 59.097,1.154 58.044,1.606 57.143,2.206 56.239,2.959 3.318,55.881 
			3.318,55.881 2.567,56.632 1.965,57.684 1.965,57.684 1.664,58.587 1.514,59.64 1.514,59.64 1.664,60.842 2.116,61.894 
			2.116,61.894 2.717,62.647 3.318,63.398 56.239,116.321 56.239,116.321 57.143,117.072 58.194,117.674 58.194,117.674 
			59.097,118.125 		"/>
		<path d="M115.779,62.496L115.779,62.496l0.601-0.751l0.45-0.601l0.301-0.749v-0.754l0,0V59.04l-0.301-0.752l-0.45-0.602
			l-0.601-0.752L62.855,4.012l0,0l-0.602-0.6l-0.751-0.453L60.902,2.81l-0.754-0.15l0,0l-0.75,0.15l-0.602,0.149l-0.751,0.452
			l-0.602,0.601L4.521,56.933l0,0L3.92,57.685L3.47,58.287l-0.301,0.752v0.601l0,0v0.754l0.301,0.749l0.451,0.601l0.601,0.751
			l52.922,52.921l0,0l0.602,0.602l0.751,0.302l0.602,0.301l0.75,0.149l0,0l0.754-0.149l0.601-0.301l0.751-0.302l0.602-0.602
			L115.779,62.496L115.779,62.496z M114.426,58.438L114.426,58.438l0.448,0.601l0.153,0.3l0.148,0.3l0,0l-0.148,0.452l-0.153,0.302
			l-0.448,0.6l-52.923,52.923l0,0l-0.752,0.604l-0.3,0.148H60.15l0,0H59.85l-0.3-0.148l-0.751-0.604L5.874,60.993l0,0l-0.45-0.599
			l-0.15-0.303L5.122,59.64l0,0l0.151-0.3l0.15-0.3l0.45-0.601L58.796,5.515l0,0l0.752-0.6l0.3-0.149h0.301l0,0h0.301l0.3,0.149
			l0.751,0.6L114.426,58.438L114.426,58.438z"/>
		<polygon points="47.971,63.097 47.971,63.097 48.422,63.398 48.872,63.551 49.474,63.699 49.926,63.699 50.527,63.551 
			50.979,63.398 51.429,63.097 51.88,62.647 51.88,62.647 52.332,62.044 52.482,61.294 52.482,60.543 52.332,59.789 50.377,54.077 
			67.967,54.077 67.967,54.077 68.719,54.077 69.321,54.228 69.92,54.529 70.222,54.979 70.524,55.43 70.675,56.032 70.824,57.536 
			70.824,87.604 84.055,87.604 84.055,50.468 84.055,50.468 84.055,49.416 83.905,48.364 83.752,47.462 83.453,46.41 83,45.658 
			82.551,44.756 82.099,44.004 81.497,43.403 80.746,42.8 79.995,42.199 79.241,41.749 78.342,41.446 77.44,41.148 76.385,40.997 
			75.485,40.846 74.281,40.846 50.377,40.846 52.332,34.983 52.332,34.983 52.482,34.232 52.482,33.479 52.332,32.728 51.88,32.126 
			51.88,32.126 51.429,31.675 50.979,31.375 50.527,31.224 49.926,31.075 49.474,31.224 48.872,31.224 48.422,31.525 47.971,31.675 
			24.066,47.462 		"/>
	</g>
	<g enable-background="new    ">
		<path fill="#999999" d="M50.24,98.422v2.263c0,0.167,0.01,0.358,0.021,0.486h-0.395l-0.021-0.324H49.83
			c-0.131,0.209-0.424,0.366-0.824,0.366c-0.593,0-1.05-0.383-1.05-0.953c-0.005-0.621,0.504-1,1.096-1
			c0.378,0,0.626,0.136,0.737,0.282H49.8v-1.12H50.24L50.24,98.422z M49.799,100.059c0-0.043-0.006-0.103-0.021-0.145
			c-0.065-0.214-0.31-0.393-0.643-0.393c-0.459,0-0.732,0.311-0.732,0.721c0,0.378,0.248,0.692,0.722,0.692
			c0.299,0,0.571-0.151,0.653-0.404c0.015-0.046,0.021-0.093,0.021-0.147V100.059z"/>
		<path fill="#999999" d="M50.983,99.804c0-0.197-0.011-0.354-0.021-0.506h0.389l0.021,0.305h0.017
			c0.136-0.177,0.363-0.344,0.772-0.344c0.327,0,0.581,0.155,0.687,0.375h0.01c0.076-0.108,0.177-0.188,0.277-0.244
			c0.147-0.085,0.303-0.132,0.534-0.132c0.327,0,0.808,0.163,0.808,0.812v1.1h-0.434v-1.057c0-0.36-0.176-0.574-0.53-0.574
			c-0.257,0-0.45,0.143-0.531,0.305c-0.021,0.051-0.036,0.107-0.036,0.171v1.157H52.51v-1.123c0-0.297-0.172-0.51-0.511-0.51
			c-0.272,0-0.48,0.169-0.55,0.341c-0.025,0.048-0.036,0.107-0.036,0.164v1.128h-0.434v-1.367H50.983z"/>
		<path fill="#999999" d="M55.303,99.298l0.479,1.046c0.082,0.177,0.148,0.329,0.197,0.485h0.017
			c0.054-0.154,0.125-0.31,0.207-0.485l0.473-1.046h0.465l-0.958,1.872h-0.423l-0.93-1.872H55.303z"/>
		<path fill="#999999" d="M59.617,98.422v2.263c0,0.167,0.01,0.358,0.021,0.486h-0.395l-0.021-0.324h-0.015
			c-0.132,0.209-0.425,0.366-0.823,0.366c-0.592,0-1.05-0.383-1.05-0.953c-0.005-0.621,0.504-1,1.095-1
			c0.379,0,0.626,0.136,0.738,0.282h0.011v-1.12H59.617L59.617,98.422z M59.176,100.059c0-0.043-0.004-0.103-0.02-0.145
			c-0.065-0.214-0.31-0.393-0.642-0.393c-0.459,0-0.732,0.311-0.732,0.721c0,0.378,0.247,0.692,0.722,0.692
			c0.298,0,0.571-0.151,0.651-0.404c0.016-0.046,0.02-0.093,0.02-0.147V100.059z"/>
		<path fill="#999999" d="M62.076,100.719c0,0.162,0.013,0.321,0.036,0.448h-0.4l-0.034-0.235h-0.016
			c-0.136,0.147-0.402,0.277-0.746,0.277c-0.494,0-0.748-0.268-0.748-0.538c0-0.45,0.526-0.7,1.47-0.698v-0.036
			c0-0.149-0.058-0.434-0.556-0.43c-0.234,0-0.471,0.05-0.643,0.139l-0.101-0.227c0.201-0.101,0.498-0.163,0.808-0.163
			c0.745,0,0.93,0.39,0.93,0.762V100.719L62.076,100.719z M61.648,100.213c-0.486-0.009-1.037,0.062-1.037,0.422
			c0,0.228,0.192,0.325,0.414,0.325c0.32,0,0.531-0.154,0.601-0.313c0.018-0.039,0.021-0.079,0.021-0.109v-0.325H61.648z"/>
		<path fill="#999999" d="M62.689,100.969c0-0.141,0.127-0.245,0.302-0.245c0.179,0,0.3,0.102,0.3,0.245
			c0,0.139-0.121,0.242-0.31,0.242C62.811,101.211,62.689,101.107,62.689,100.969z"/>
		<path fill="#999999" d="M65.583,101.103c-0.116,0.042-0.373,0.107-0.703,0.107c-0.737,0-1.215-0.383-1.215-0.956
			c0-0.575,0.515-0.999,1.312-0.999c0.264,0,0.493,0.05,0.617,0.103l-0.103,0.258c-0.105-0.044-0.272-0.088-0.515-0.088
			c-0.562,0-0.864,0.319-0.864,0.706c0,0.435,0.363,0.701,0.85,0.701c0.251,0,0.418-0.046,0.543-0.089L65.583,101.103z"/>
		<path fill="#999999" d="M68.286,100.216c0,0.696-0.632,0.996-1.217,0.996c-0.655,0-1.169-0.37-1.169-0.961
			c0-0.622,0.539-0.992,1.21-0.992C67.812,99.258,68.286,99.647,68.286,100.216z M66.352,100.237c0,0.41,0.303,0.72,0.737,0.72
			c0.426,0,0.742-0.306,0.742-0.729c0-0.318-0.206-0.716-0.732-0.716C66.578,99.513,66.352,99.885,66.352,100.237z"/>
		<path fill="#999999" d="M68.847,99.804c0-0.197-0.01-0.354-0.02-0.506h0.389l0.021,0.305h0.015
			c0.139-0.177,0.363-0.344,0.773-0.344c0.328,0,0.581,0.155,0.688,0.375h0.012c0.074-0.108,0.175-0.188,0.276-0.244
			c0.148-0.085,0.303-0.132,0.533-0.132c0.328,0,0.808,0.163,0.808,0.812v1.1h-0.435v-1.057c0-0.36-0.176-0.574-0.53-0.574
			c-0.258,0-0.449,0.143-0.532,0.305c-0.021,0.051-0.035,0.107-0.035,0.171v1.157h-0.434v-1.123c0-0.297-0.17-0.51-0.508-0.51
			c-0.276,0-0.483,0.169-0.551,0.341c-0.025,0.048-0.035,0.107-0.035,0.164v1.128h-0.436V99.804L68.847,99.804z"/>
	</g>
</g>
</svg>
