<?xml version="1.0" encoding="utf-8"?>
<!-- Generator: Adobe Illustrator 15.0.0, SVG Export Plug-In . SVG Version: 6.00 Build 0)  -->
<!DOCTYPE svg PUBLIC "-//W3C//DTD SVG 1.1//EN" "http://www.w3.org/Graphics/SVG/1.1/DTD/svg11.dtd">
<svg version="1.1" id="Layer_1" xmlns="http://www.w3.org/2000/svg" xmlns:xlink="http://www.w3.org/1999/xlink" x="0px" y="0px"
	 width="119.25px" height="118.98px" viewBox="0 0 119.25 118.98" enable-background="new 0 0 119.25 118.98" xml:space="preserve">
<polygon fill="#FFD520" points="59.626,117.328 59.626,117.328 60.664,117.179 61.702,116.735 61.702,116.735 62.591,116.142 
	63.334,115.4 115.684,63.198 115.684,63.198 116.426,62.456 116.87,61.566 117.314,60.677 117.463,59.491 117.463,59.491 
	117.314,58.451 116.87,57.414 116.87,57.414 116.277,56.524 115.684,55.783 63.48,3.581 63.48,3.581 62.591,2.839 61.553,2.246 
	61.553,2.246 60.664,1.801 59.626,1.653 59.626,1.653 58.587,1.801 57.549,2.246 56.659,2.839 55.77,3.581 3.568,55.783 
	3.568,55.783 2.826,56.524 2.233,57.563 2.233,57.563 1.937,58.451 1.788,59.491 1.788,59.491 1.937,60.677 2.381,61.716 
	2.381,61.716 2.975,62.456 3.568,63.198 55.77,115.4 55.77,115.4 56.659,116.142 57.697,116.735 57.697,116.735 58.587,117.179 
	59.626,117.328 "/>
<path d="M114.498,62.308L114.498,62.308l0.593-0.742l0.444-0.593l0.296-0.742v-0.74l0,0v-0.594l-0.296-0.742l-0.444-0.593
	l-0.593-0.742L62.295,4.619l0,0l-0.593-0.593l-0.741-0.445l-0.595-0.146l-0.74-0.148l0,0l-0.742,0.148l-0.592,0.146L57.55,4.026
	l-0.593,0.593L4.754,56.821l0,0L4.16,57.563l-0.445,0.593l-0.296,0.742v0.594l0,0v0.74l0.296,0.742l0.445,0.593l0.594,0.742
	l52.202,52.2l0,0l0.593,0.595l0.742,0.297l0.592,0.296l0.742,0.146l0,0l0.74-0.146l0.595-0.296l0.741-0.297l0.593-0.595
	L114.498,62.308L114.498,62.308L114.498,62.308z M113.163,58.302L113.163,58.302l0.444,0.596l0.146,0.296l0.146,0.298l0,0
	l-0.146,0.444l-0.146,0.296l-0.444,0.594l-52.202,52.202l0,0l-0.742,0.594l-0.297,0.147h-0.296l0,0H59.33l-0.297-0.147l-0.741-0.594
	L6.089,60.825l0,0l-0.444-0.594l-0.149-0.296l-0.147-0.444l0,0l0.147-0.298l0.149-0.296l0.444-0.596l52.203-52.2l0,0l0.741-0.595
	L59.33,5.36h0.296l0,0h0.296l0.297,0.146l0.742,0.595L113.163,58.302L113.163,58.302L113.163,58.302z"/>
<g enable-background="new    ">
	<path fill="#999999" d="M49.48,96.937v2.73c0,0.201,0.01,0.43,0.02,0.582h-0.386l-0.02-0.393H49.08
		c-0.128,0.255-0.415,0.443-0.806,0.443c-0.579,0-1.028-0.462-1.028-1.148c-0.005-0.752,0.494-1.207,1.073-1.207
		c0.371,0,0.613,0.164,0.722,0.339h0.01v-1.349L49.48,96.937L49.48,96.937z M49.05,98.911c0-0.051-0.005-0.121-0.02-0.172
		c-0.064-0.258-0.302-0.473-0.628-0.473c-0.45,0-0.717,0.374-0.717,0.867c0,0.456,0.242,0.838,0.707,0.838
		c0.292,0,0.559-0.187,0.638-0.491c0.015-0.06,0.02-0.111,0.02-0.18V98.911z"/>
	<path fill="#999999" d="M50.208,98.604c0-0.24-0.01-0.425-0.02-0.61h0.38l0.02,0.369h0.015c0.133-0.215,0.356-0.414,0.756-0.414
		c0.321,0,0.569,0.187,0.671,0.451h0.01c0.074-0.131,0.174-0.224,0.271-0.295c0.145-0.104,0.297-0.158,0.524-0.158
		c0.321,0,0.791,0.196,0.791,0.979v1.324h-0.425v-1.272c0-0.439-0.174-0.695-0.52-0.695c-0.252,0-0.439,0.174-0.52,0.37
		c-0.02,0.06-0.034,0.131-0.034,0.206v1.396h-0.425V98.9c0-0.359-0.168-0.616-0.5-0.616c-0.267,0-0.47,0.207-0.539,0.412
		c-0.025,0.058-0.035,0.133-0.035,0.202v1.355h-0.425v-1.646h0.003v-0.005L50.208,98.604L50.208,98.604z"/>
	<path fill="#999999" d="M54.438,97.992l0.471,1.266c0.078,0.21,0.144,0.396,0.192,0.582h0.015c0.055-0.186,0.125-0.374,0.203-0.582
		l0.465-1.266h0.455l-0.939,2.26h-0.415l-0.91-2.26H54.438z"/>
	<path fill="#999999" d="M58.662,96.937v2.73c0,0.201,0.01,0.43,0.02,0.582h-0.386l-0.021-0.393H58.26
		c-0.129,0.255-0.416,0.443-0.807,0.443c-0.578,0-1.027-0.462-1.027-1.148c-0.005-0.752,0.494-1.207,1.072-1.207
		c0.371,0,0.613,0.164,0.723,0.339h0.012v-1.349L58.662,96.937L58.662,96.937z M58.23,98.911c0-0.051-0.004-0.121-0.02-0.172
		c-0.064-0.258-0.303-0.473-0.629-0.473c-0.449,0-0.717,0.374-0.717,0.867c0,0.456,0.242,0.838,0.707,0.838
		c0.293,0,0.56-0.187,0.639-0.491c0.016-0.06,0.02-0.111,0.02-0.18V98.911z"/>
	<path fill="#999999" d="M61.07,99.71c0,0.195,0.011,0.388,0.035,0.54h-0.394l-0.032-0.285h-0.017
		c-0.136,0.18-0.396,0.336-0.731,0.336c-0.483,0-0.732-0.323-0.732-0.648c0-0.546,0.517-0.846,1.438-0.841v-0.047
		c0-0.184-0.057-0.525-0.543-0.521c-0.229,0-0.461,0.061-0.629,0.17l-0.099-0.274c0.196-0.116,0.487-0.195,0.792-0.195
		c0.729,0,0.907,0.472,0.907,0.921v0.848h0.004V99.71z M60.65,99.098c-0.478-0.013-1.017,0.068-1.017,0.508
		c0,0.271,0.188,0.394,0.406,0.394c0.313,0,0.521-0.188,0.588-0.378c0.019-0.048,0.021-0.095,0.021-0.131v-0.393H60.65z"/>
	<path fill="#999999" d="M61.671,100.009c0-0.169,0.124-0.295,0.296-0.295c0.174,0,0.292,0.121,0.292,0.295
		c0,0.168-0.118,0.298-0.303,0.298C61.788,100.302,61.671,100.176,61.671,100.009z"/>
	<path fill="#999999" d="M64.504,100.172c-0.113,0.056-0.365,0.135-0.688,0.135c-0.724,0-1.191-0.464-1.191-1.155
		c0-0.693,0.507-1.202,1.285-1.202c0.258,0,0.484,0.059,0.604,0.122l-0.099,0.312c-0.104-0.053-0.269-0.104-0.506-0.104
		c-0.55,0-0.847,0.388-0.847,0.853c0,0.524,0.354,0.848,0.832,0.848c0.246,0,0.407-0.057,0.53-0.104L64.504,100.172z"/>
	<path fill="#999999" d="M67.15,99.103c0,0.835-0.618,1.198-1.189,1.198c-0.645,0-1.146-0.447-1.146-1.159
		c0-0.752,0.528-1.196,1.188-1.196C66.686,97.945,67.15,98.416,67.15,99.103z M65.256,99.126c0,0.494,0.297,0.87,0.723,0.87
		c0.416,0,0.729-0.372,0.729-0.879c0-0.383-0.201-0.864-0.717-0.864C65.479,98.254,65.256,98.701,65.256,99.126z"/>
	<path fill="#999999" d="M67.7,98.604c0-0.24-0.011-0.425-0.021-0.61h0.381l0.021,0.369h0.017c0.137-0.215,0.354-0.414,0.756-0.414
		c0.322,0,0.569,0.187,0.676,0.451h0.011c0.073-0.131,0.174-0.224,0.271-0.295c0.145-0.104,0.297-0.158,0.521-0.158
		c0.322,0,0.791,0.196,0.791,0.979v1.324h-0.426v-1.272c0-0.439-0.172-0.695-0.521-0.695c-0.253,0-0.438,0.174-0.521,0.37
		c-0.02,0.06-0.032,0.131-0.032,0.206v1.396h-0.427V98.9c0-0.359-0.168-0.616-0.498-0.616c-0.27,0-0.471,0.207-0.538,0.412
		c-0.023,0.058-0.035,0.133-0.035,0.202v1.355h-0.427v-1.646H67.7V98.604z"/>
</g>
<g>
	<path stroke="#000000" stroke-width="0.75" stroke-miterlimit="10" d="M30.698,50.77V38.495h1.625v10.826h6.045v1.449H30.698z"/>
	<path stroke="#000000" stroke-width="0.75" stroke-miterlimit="10" d="M39.808,44.792c0-2.037,0.547-3.632,1.641-4.785
		c1.094-1.152,2.506-1.729,4.236-1.729c1.133,0,2.155,0.271,3.065,0.813c0.91,0.542,1.603,1.296,2.081,2.265
		c0.477,0.969,0.716,2.067,0.716,3.295c0,1.245-0.251,2.358-0.753,3.341s-1.214,1.726-2.135,2.231s-1.915,0.758-2.981,0.758
		c-1.155,0-2.188-0.279-3.098-0.837c-0.91-0.558-1.6-1.32-2.068-2.286C40.042,46.891,39.808,45.869,39.808,44.792z M41.482,44.817
		c0,1.479,0.398,2.645,1.193,3.496c0.795,0.852,1.793,1.277,2.993,1.277c1.223,0,2.229-0.43,3.019-1.29
		c0.79-0.859,1.185-2.079,1.185-3.659c0-0.999-0.169-1.872-0.506-2.617c-0.338-0.745-0.832-1.323-1.482-1.733
		c-0.65-0.41-1.38-0.615-2.189-0.615c-1.15,0-2.14,0.395-2.968,1.185C41.896,41.651,41.482,42.969,41.482,44.817z"/>
	<path stroke="#000000" stroke-width="0.75" stroke-miterlimit="10" d="M53.146,44.792c0-2.037,0.547-3.632,1.641-4.785
		c1.094-1.152,2.506-1.729,4.236-1.729c1.134,0,2.155,0.271,3.064,0.813c0.91,0.542,1.604,1.296,2.081,2.265
		c0.478,0.969,0.716,2.067,0.716,3.295c0,1.245-0.251,2.358-0.754,3.341c-0.502,0.982-1.214,1.726-2.135,2.231
		s-1.915,0.758-2.981,0.758c-1.155,0-2.188-0.279-3.098-0.837c-0.91-0.558-1.6-1.32-2.068-2.286
		C53.38,46.891,53.146,45.869,53.146,44.792z M54.82,44.817c0,1.479,0.398,2.645,1.193,3.496c0.795,0.852,1.793,1.277,2.993,1.277
		c1.223,0,2.229-0.43,3.019-1.29c0.79-0.859,1.185-2.079,1.185-3.659c0-0.999-0.169-1.872-0.507-2.617
		c-0.337-0.745-0.831-1.323-1.481-1.733c-0.65-0.41-1.38-0.615-2.189-0.615c-1.15,0-2.14,0.395-2.968,1.185
		C55.235,41.651,54.82,42.969,54.82,44.817z"/>
	<path stroke="#000000" stroke-width="0.75" stroke-miterlimit="10" d="M66.426,46.826l1.532-0.134
		c0.072,0.614,0.241,1.118,0.507,1.511c0.265,0.394,0.677,0.712,1.234,0.955c0.559,0.243,1.187,0.364,1.884,0.364
		c0.62,0,1.167-0.092,1.642-0.276s0.827-0.437,1.059-0.758c0.232-0.321,0.348-0.671,0.348-1.051c0-0.385-0.111-0.721-0.335-1.009
		c-0.223-0.288-0.592-0.529-1.104-0.724c-0.33-0.128-1.059-0.328-2.186-0.599c-1.128-0.271-1.918-0.526-2.37-0.766
		c-0.586-0.307-1.022-0.688-1.311-1.143c-0.287-0.455-0.431-0.964-0.431-1.528c0-0.62,0.176-1.199,0.527-1.737
		s0.865-0.947,1.541-1.227c0.675-0.279,1.426-0.418,2.252-0.418c0.91,0,1.712,0.146,2.407,0.439s1.229,0.724,1.604,1.293
		s0.575,1.214,0.603,1.934l-1.557,0.117c-0.084-0.775-0.367-1.362-0.851-1.758c-0.482-0.396-1.195-0.594-2.139-0.594
		c-0.982,0-1.698,0.18-2.148,0.54c-0.449,0.36-0.674,0.794-0.674,1.302c0,0.441,0.159,0.804,0.478,1.089
		c0.313,0.285,1.129,0.576,2.449,0.875c1.32,0.298,2.226,0.56,2.717,0.783c0.715,0.33,1.242,0.747,1.583,1.251
		c0.34,0.505,0.511,1.087,0.511,1.746c0,0.653-0.188,1.269-0.562,1.846s-0.911,1.027-1.611,1.348
		c-0.701,0.321-1.489,0.481-2.365,0.481c-1.111,0-2.042-0.162-2.793-0.486s-1.34-0.811-1.767-1.461S66.448,47.647,66.426,46.826z"/>
	<path stroke="#000000" stroke-width="0.75" stroke-miterlimit="10" d="M78.449,50.77V38.495h8.875v1.449h-7.251v3.759h6.791v1.44
		h-6.791v4.178h7.536v1.449H78.449z"/>
</g>
<g>
	<path stroke="#000000" stroke-width="0.75" stroke-miterlimit="10" d="M29.474,69.87v-1.505l5.675-0.009v4.76
		c-0.871,0.664-1.77,1.164-2.696,1.5c-0.926,0.335-1.876,0.503-2.851,0.503c-1.315,0-2.511-0.27-3.586-0.81
		c-1.075-0.539-1.887-1.319-2.435-2.34s-0.822-2.161-0.822-3.421c0-1.248,0.272-2.413,0.818-3.495
		c0.545-1.081,1.33-1.885,2.353-2.41c1.023-0.524,2.202-0.787,3.536-0.787c0.968,0,1.844,0.15,2.627,0.451
		c0.783,0.3,1.396,0.719,1.841,1.255c0.444,0.537,0.783,1.236,1.014,2.1l-1.599,0.42c-0.201-0.653-0.451-1.166-0.749-1.54
		c-0.299-0.373-0.725-0.672-1.279-0.896c-0.555-0.225-1.17-0.337-1.846-0.337c-0.81,0-1.511,0.118-2.102,0.354
		s-1.067,0.547-1.43,0.932c-0.363,0.385-0.645,0.808-0.845,1.269c-0.341,0.793-0.512,1.653-0.512,2.581
		c0,1.143,0.206,2.1,0.617,2.869s1.01,1.342,1.795,1.715s1.621,0.56,2.504,0.56c0.768,0,1.517-0.141,2.248-0.424
		s1.285-0.585,1.663-0.905V69.87H29.474z"/>
	<path stroke="#000000" stroke-width="0.75" stroke-miterlimit="10" d="M37.789,74.9V62.075h5.939c1.194,0,2.102,0.115,2.723,0.346
		c0.621,0.23,1.118,0.638,1.489,1.221s0.558,1.228,0.558,1.933c0,0.91-0.308,1.677-0.923,2.301c-0.615,0.625-1.565,1.021-2.851,1.19
		c0.469,0.216,0.825,0.429,1.069,0.639c0.518,0.455,1.008,1.023,1.471,1.706l2.33,3.49h-2.229l-1.772-2.668
		c-0.518-0.771-0.944-1.359-1.279-1.768c-0.335-0.408-0.635-0.694-0.9-0.857c-0.265-0.163-0.534-0.276-0.809-0.341
		c-0.201-0.041-0.53-0.062-0.987-0.062h-2.056V74.9H37.789z M39.562,67.735h3.811c0.81,0,1.444-0.08,1.901-0.24
		c0.457-0.16,0.804-0.417,1.042-0.771c0.238-0.353,0.356-0.735,0.356-1.15c0-0.606-0.23-1.104-0.69-1.495s-1.187-0.587-2.179-0.587
		h-4.24V67.735z"/>
	<path stroke="#000000" stroke-width="0.75" stroke-miterlimit="10" d="M49.805,74.9l5.145-12.825h1.91L62.342,74.9h-2.02
		l-1.563-3.884h-5.601L51.688,74.9H49.805z M53.67,69.634h4.542l-1.398-3.552c-0.426-1.079-0.743-1.966-0.95-2.659
		c-0.17,0.822-0.411,1.639-0.722,2.449L53.67,69.634z"/>
	<path stroke="#000000" stroke-width="0.75" stroke-miterlimit="10" d="M66.197,74.9l-5.189-12.825h1.918l3.482,9.317
		c0.279,0.746,0.514,1.446,0.703,2.1c0.207-0.7,0.447-1.4,0.723-2.1l3.617-9.317h1.811L68.016,74.9H66.197z"/>
	<path stroke="#000000" stroke-width="0.75" stroke-miterlimit="10" d="M74.889,74.9V62.075h9.686v1.514H76.66v3.928h7.412v1.505
		H76.66v4.365h8.225V74.9H74.889z"/>
	<path stroke="#000000" stroke-width="0.75" stroke-miterlimit="10" d="M87.26,74.9V62.075h1.773v11.312h6.596V74.9H87.26z"/>
</g>
</svg>
