<?xml version="1.0" encoding="utf-8"?>
<!-- Generator: Adobe Illustrator 15.0.0, SVG Export Plug-In . SVG Version: 6.00 Build 0)  -->
<!DOCTYPE svg PUBLIC "-//W3C//DTD SVG 1.1//EN" "http://www.w3.org/Graphics/SVG/1.1/DTD/svg11.dtd">
<svg version="1.1" id="Layer_1" xmlns="http://www.w3.org/2000/svg" xmlns:xlink="http://www.w3.org/1999/xlink" x="0px" y="0px"
	 width="119.25px" height="118.98px" viewBox="0 0 119.25 118.98" enable-background="new 0 0 119.25 118.98" xml:space="preserve">
<polygon fill="#F58220" points="59.626,117.328 59.626,117.328 60.664,117.179 61.702,116.735 61.702,116.735 62.591,116.142 
	63.334,115.4 115.684,63.198 115.684,63.198 116.426,62.456 116.87,61.566 117.314,60.677 117.463,59.491 117.463,59.491 
	117.314,58.451 116.87,57.414 116.87,57.414 116.277,56.524 115.684,55.783 63.48,3.581 63.48,3.581 62.591,2.839 61.553,2.246 
	61.553,2.246 60.664,1.801 59.626,1.653 59.626,1.653 58.587,1.801 57.549,2.246 56.659,2.839 55.77,3.581 3.568,55.783 
	3.568,55.783 2.826,56.524 2.233,57.563 2.233,57.563 1.937,58.451 1.788,59.491 1.788,59.491 1.937,60.677 2.381,61.716 
	2.381,61.716 2.975,62.456 3.568,63.198 55.77,115.4 55.77,115.4 56.659,116.142 57.697,116.735 57.697,116.735 58.587,117.179 "/>
<path d="M114.498,62.308L114.498,62.308l0.593-0.742l0.444-0.593l0.296-0.742v-0.74l0,0v-0.594l-0.296-0.742l-0.444-0.593
	l-0.593-0.742L62.295,4.619l0,0l-0.593-0.593l-0.741-0.445l-0.595-0.146l-0.74-0.148l0,0l-0.742,0.148l-0.592,0.146L57.55,4.026
	l-0.593,0.593L4.754,56.821l0,0L4.16,57.563l-0.445,0.593l-0.296,0.742v0.594l0,0v0.74l0.296,0.742l0.445,0.593l0.594,0.742
	l52.202,52.197l0,0l0.593,0.598l0.742,0.297l0.592,0.296l0.742,0.146l0,0l0.74-0.146l0.595-0.296l0.741-0.297l0.593-0.598
	L114.498,62.308L114.498,62.308L114.498,62.308z M113.163,58.302L113.163,58.302l0.444,0.599l0.146,0.296l0.146,0.298l0,0
	l-0.146,0.444l-0.146,0.296l-0.444,0.594L60.961,113.03l0,0l-0.742,0.594l-0.297,0.147h-0.296l0,0H59.33l-0.297-0.147l-0.741-0.594
	L6.089,60.825l0,0l-0.444-0.594l-0.149-0.296l-0.147-0.444l0,0l0.147-0.298l0.149-0.296L6.089,58.3L58.292,6.101l0,0l0.741-0.598
	L59.33,5.36h0.296l0,0h0.296l0.297,0.146l0.742,0.598L113.163,58.302L113.163,58.302L113.163,58.302z"/>
<g enable-background="new    ">
	<path fill="#999999" d="M49.48,96.937v2.729c0,0.201,0.01,0.433,0.02,0.582h-0.386l-0.02-0.393H49.08
		c-0.128,0.255-0.415,0.44-0.806,0.44c-0.579,0-1.028-0.462-1.028-1.146c-0.005-0.752,0.494-1.207,1.073-1.207
		c0.371,0,0.613,0.164,0.722,0.339h0.01v-1.349L49.48,96.937L49.48,96.937z M49.05,98.911c0-0.051-0.005-0.121-0.02-0.172
		c-0.064-0.258-0.302-0.473-0.628-0.473c-0.45,0-0.717,0.374-0.717,0.864c0,0.456,0.242,0.841,0.707,0.841
		c0.292,0,0.559-0.188,0.638-0.491c0.015-0.063,0.02-0.111,0.02-0.183V98.911z"/>
	<path fill="#999999" d="M50.208,98.604c0-0.24-0.01-0.425-0.02-0.61h0.38l0.02,0.369h0.015c0.133-0.215,0.356-0.414,0.756-0.414
		c0.321,0,0.569,0.187,0.671,0.451h0.01c0.074-0.131,0.174-0.227,0.271-0.295c0.145-0.104,0.297-0.158,0.524-0.158
		c0.321,0,0.791,0.196,0.791,0.979v1.324h-0.425v-1.271c0-0.439-0.174-0.695-0.52-0.695c-0.252,0-0.439,0.174-0.52,0.37
		c-0.02,0.06-0.034,0.131-0.034,0.206v1.396h-0.425V98.9c0-0.359-0.168-0.616-0.5-0.616c-0.267,0-0.47,0.207-0.539,0.412
		c-0.025,0.058-0.035,0.133-0.035,0.202v1.354h-0.425v-1.646h0.003v-0.005L50.208,98.604L50.208,98.604z"/>
	<path fill="#999999" d="M54.438,97.992l0.471,1.266c0.078,0.21,0.144,0.396,0.192,0.582h0.015c0.055-0.186,0.125-0.374,0.203-0.582
		l0.465-1.266h0.455l-0.939,2.26h-0.415l-0.91-2.26H54.438z"/>
	<path fill="#999999" d="M58.662,96.937v2.729c0,0.201,0.01,0.433,0.02,0.582h-0.386l-0.021-0.393H58.26
		c-0.129,0.255-0.416,0.44-0.807,0.44c-0.578,0-1.027-0.462-1.027-1.146c-0.005-0.752,0.494-1.207,1.072-1.207
		c0.371,0,0.613,0.164,0.723,0.339h0.012v-1.349L58.662,96.937L58.662,96.937z M58.23,98.911c0-0.051-0.004-0.121-0.02-0.172
		c-0.064-0.258-0.303-0.473-0.629-0.473c-0.449,0-0.717,0.374-0.717,0.864c0,0.456,0.242,0.841,0.707,0.841
		c0.293,0,0.56-0.188,0.639-0.491c0.016-0.063,0.02-0.111,0.02-0.183V98.911z"/>
	<path fill="#999999" d="M61.07,99.71c0,0.195,0.011,0.391,0.035,0.54H60.71l-0.03-0.285h-0.019
		c-0.138,0.183-0.396,0.336-0.731,0.336c-0.483,0-0.732-0.32-0.732-0.646c0-0.546,0.517-0.846,1.438-0.841v-0.047
		c0-0.187-0.059-0.525-0.542-0.521c-0.229,0-0.461,0.063-0.629,0.17l-0.099-0.271c0.196-0.116,0.487-0.195,0.792-0.195
		c0.729,0,0.906,0.472,0.906,0.921v0.848h0.004V99.71H61.07z M60.65,99.098c-0.479-0.016-1.02,0.065-1.02,0.508
		c0,0.271,0.188,0.394,0.406,0.394c0.313,0,0.521-0.188,0.588-0.378c0.021-0.048,0.021-0.095,0.021-0.131v-0.393H60.65z"/>
	<path fill="#999999" d="M61.671,100.009c0-0.169,0.124-0.295,0.296-0.295c0.174,0,0.292,0.121,0.292,0.295
		c0,0.168-0.118,0.301-0.303,0.301C61.788,100.302,61.671,100.176,61.671,100.009z"/>
	<path fill="#999999" d="M64.504,100.172c-0.113,0.059-0.365,0.138-0.688,0.138c-0.727,0-1.191-0.467-1.191-1.155
		c0-0.693,0.507-1.202,1.285-1.202c0.258,0,0.484,0.059,0.604,0.122l-0.099,0.312c-0.104-0.053-0.269-0.104-0.506-0.104
		c-0.55,0-0.847,0.388-0.847,0.853c0,0.524,0.354,0.851,0.832,0.851c0.246,0,0.404-0.06,0.527-0.104L64.504,100.172z"/>
	<path fill="#999999" d="M67.15,99.103c0,0.835-0.618,1.195-1.189,1.195c-0.645,0-1.146-0.444-1.146-1.156
		c0-0.752,0.528-1.196,1.188-1.196C66.686,97.945,67.15,98.416,67.15,99.103z M65.256,99.126c0,0.494,0.297,0.87,0.723,0.87
		c0.416,0,0.729-0.372,0.729-0.879c0-0.383-0.201-0.864-0.717-0.864C65.479,98.254,65.256,98.701,65.256,99.126z"/>
	<path fill="#999999" d="M67.7,98.604c0-0.24-0.011-0.425-0.021-0.61h0.381l0.021,0.369h0.017c0.137-0.215,0.354-0.414,0.756-0.414
		c0.322,0,0.569,0.187,0.676,0.451h0.014c0.07-0.131,0.174-0.227,0.271-0.295c0.146-0.104,0.297-0.158,0.521-0.158
		c0.319,0,0.791,0.196,0.791,0.979v1.324H70.7v-1.271c0-0.439-0.175-0.695-0.521-0.695c-0.254,0-0.438,0.174-0.521,0.37
		c-0.021,0.06-0.032,0.131-0.032,0.206v1.396h-0.429V98.9c0-0.359-0.168-0.616-0.496-0.616c-0.271,0-0.473,0.207-0.538,0.412
		c-0.021,0.058-0.035,0.133-0.035,0.202v1.354H67.7v-1.646l0,0V98.604z"/>
</g>
<g enable-background="new    ">
	<path d="M41.206,50.77V38.496h2.445l2.905,8.69c0.268,0.81,0.463,1.415,0.586,1.815c0.14-0.444,0.357-1.103,0.653-1.968l2.939-8.54
		h2.185V50.77h-1.565V40.497L47.787,50.77h-1.465l-3.55-10.449V50.77H41.206z"/>
	<path d="M55.574,50.77V38.496h8.875v1.448h-7.251v3.76h6.79v1.439h-6.79v4.179h7.536v1.448H55.574z"/>
	<path d="M66.961,50.77V38.496h1.666l6.447,9.637v-9.637h1.558V50.77h-1.667l-6.445-9.646v9.646H66.961z"/>
</g>
<g enable-background="new    ">
	<path fill="none" stroke="#000000" stroke-width="0.5" stroke-miterlimit="10" d="M41.206,50.77V38.496h2.445l2.905,8.69
		c0.268,0.81,0.463,1.415,0.586,1.815c0.14-0.444,0.357-1.103,0.653-1.968l2.939-8.54h2.185V50.77h-1.565V40.497L47.787,50.77
		h-1.465l-3.55-10.449V50.77H41.206z"/>
	<path fill="none" stroke="#000000" stroke-width="0.5" stroke-miterlimit="10" d="M55.574,50.77V38.496h8.875v1.448h-7.251v3.76
		h6.79v1.439h-6.79v4.179h7.536v1.448H55.574z"/>
	<path fill="none" stroke="#000000" stroke-width="0.5" stroke-miterlimit="10" d="M66.961,50.77V38.496h1.666l6.447,9.637v-9.637
		h1.558V50.77h-1.667l-6.445-9.646v9.646H66.961z"/>
</g>
<g enable-background="new    ">
	<path d="M20.538,71.347l-3.257-12.274h1.666l1.867,8.046c0.201,0.843,0.374,1.681,0.519,2.512c0.313-1.312,0.497-2.065,0.553-2.269
		l2.336-8.289h1.959l1.758,6.212c0.441,1.541,0.759,2.989,0.955,4.346c0.156-0.773,0.36-1.666,0.611-2.671l1.926-7.887h1.632
		l-3.366,12.274h-1.566l-2.587-9.354c-0.218-0.781-0.346-1.262-0.385-1.438c-0.128,0.563-0.249,1.044-0.36,1.438l-2.604,9.354
		H20.538z"/>
	<path d="M34.085,65.369c0-2.037,0.547-3.632,1.641-4.785c1.094-1.15,2.506-1.729,4.236-1.729c1.133,0,2.155,0.271,3.065,0.812
		c0.91,0.542,1.603,1.297,2.081,2.268c0.477,0.968,0.716,2.064,0.716,3.294c0,1.245-0.251,2.356-0.753,3.341
		c-0.502,0.981-1.214,1.727-2.135,2.229c-0.921,0.508-1.915,0.76-2.981,0.76c-1.155,0-2.188-0.278-3.098-0.837
		c-0.91-0.561-1.6-1.32-2.068-2.286C34.321,67.468,34.085,66.446,34.085,65.369z M35.76,65.394c0,1.479,0.398,2.645,1.193,3.496
		c0.795,0.851,1.793,1.274,2.993,1.274c1.223,0,2.229-0.43,3.019-1.289c0.79-0.857,1.185-2.079,1.185-3.659
		c0-0.999-0.168-1.869-0.506-2.614c-0.338-0.746-0.832-1.323-1.482-1.733s-1.38-0.615-2.189-0.615c-1.15,0-2.14,0.396-2.968,1.187
		C36.174,62.228,35.76,63.547,35.76,65.394z"/>
	<path d="M47.942,71.347V59.073h5.442c1.094,0,1.926,0.11,2.495,0.33c0.569,0.221,1.024,0.61,1.365,1.168
		c0.34,0.559,0.511,1.176,0.511,1.851c0,0.871-0.282,1.605-0.846,2.202c-0.564,0.6-1.435,0.979-2.612,1.141
		c0.43,0.207,0.756,0.408,0.979,0.609c0.475,0.438,0.924,0.979,1.348,1.633l2.135,3.343h-2.043l-1.625-2.556
		c-0.475-0.735-0.865-1.301-1.172-1.689c-0.307-0.393-0.582-0.664-0.825-0.82c-0.243-0.156-0.49-0.266-0.741-0.327
		c-0.184-0.039-0.486-0.059-0.904-0.059h-1.884v5.451L47.942,71.347L47.942,71.347z M49.567,64.49h3.491
		c0.742,0,1.323-0.077,1.742-0.23c0.419-0.151,0.737-0.396,0.955-0.734c0.218-0.338,0.327-0.705,0.327-1.104
		c0-0.58-0.211-1.058-0.632-1.432c-0.421-0.374-1.087-0.561-1.997-0.561h-3.885L49.567,64.49L49.567,64.49z"/>
	<path d="M60.234,71.347V59.073h1.623v6.087l6.097-6.087h2.202l-5.15,4.974l5.376,7.303h-2.144l-4.371-6.215l-2.01,1.959v4.256
		L60.234,71.347L60.234,71.347z"/>
	<path d="M72.016,71.347V59.073h1.623v12.274H72.016z"/>
	<path d="M76.486,71.347V59.073h1.666L84.6,68.71v-9.637h1.559v12.274H84.49l-6.447-9.646v9.646H76.486z"/>
	<path d="M94.631,66.533v-1.44l5.199-0.008v4.557c-0.799,0.637-1.621,1.113-2.471,1.436c-0.848,0.321-1.719,0.481-2.611,0.481
		c-1.206,0-2.303-0.26-3.287-0.774s-1.729-1.263-2.23-2.239c-0.5-0.976-0.754-2.066-0.754-3.272c0-1.194,0.25-2.312,0.75-3.347
		c0.498-1.033,1.217-1.805,2.154-2.307c0.938-0.503,2.02-0.754,3.241-0.754c0.888,0,1.69,0.144,2.407,0.432
		c0.717,0.287,1.279,0.688,1.688,1.201c0.406,0.514,0.717,1.186,0.93,2.01l-1.465,0.401c-0.186-0.625-0.414-1.116-0.688-1.474
		c-0.273-0.356-0.664-0.645-1.172-0.857c-0.51-0.215-1.072-0.322-1.691-0.322c-0.742,0-1.385,0.112-1.926,0.339
		c-0.542,0.228-0.979,0.523-1.311,0.894s-0.593,0.771-0.775,1.214c-0.313,0.76-0.469,1.583-0.469,2.47
		c0,1.097,0.188,2.012,0.563,2.747c0.377,0.736,0.927,1.283,1.646,1.643c0.721,0.355,1.484,0.535,2.293,0.535
		c0.705,0,1.392-0.137,2.062-0.405c0.67-0.271,1.179-0.562,1.522-0.866v-2.286H94.63L94.631,66.533L94.631,66.533z"/>
</g>
<g enable-background="new    ">
	<path fill="none" stroke="#000000" stroke-width="0.5" stroke-miterlimit="10" d="M20.538,71.347l-3.257-12.274h1.666l1.867,8.046
		c0.201,0.843,0.374,1.681,0.519,2.512c0.313-1.312,0.497-2.065,0.553-2.269l2.336-8.289h1.959l1.758,6.212
		c0.441,1.541,0.759,2.989,0.955,4.346c0.156-0.773,0.36-1.666,0.611-2.671l1.926-7.887h1.632l-3.366,12.274h-1.566l-2.587-9.354
		c-0.218-0.781-0.346-1.262-0.385-1.438c-0.128,0.563-0.249,1.044-0.36,1.438l-2.604,9.354H20.538z"/>
	<path fill="none" stroke="#000000" stroke-width="0.5" stroke-miterlimit="10" d="M34.085,65.369c0-2.037,0.547-3.632,1.641-4.785
		c1.094-1.15,2.506-1.729,4.236-1.729c1.133,0,2.155,0.271,3.065,0.812c0.91,0.542,1.603,1.297,2.081,2.268
		c0.477,0.968,0.716,2.064,0.716,3.294c0,1.245-0.251,2.356-0.753,3.341c-0.502,0.981-1.214,1.727-2.135,2.229
		c-0.921,0.508-1.915,0.76-2.981,0.76c-1.155,0-2.188-0.278-3.098-0.837c-0.91-0.561-1.6-1.32-2.068-2.286
		C34.321,67.468,34.085,66.446,34.085,65.369z M35.76,65.394c0,1.479,0.398,2.645,1.193,3.496c0.795,0.851,1.793,1.274,2.993,1.274
		c1.223,0,2.229-0.43,3.019-1.289c0.79-0.857,1.185-2.079,1.185-3.659c0-0.999-0.168-1.869-0.506-2.614
		c-0.338-0.746-0.832-1.323-1.482-1.733s-1.38-0.615-2.189-0.615c-1.15,0-2.14,0.396-2.968,1.187
		C36.174,62.228,35.76,63.547,35.76,65.394z"/>
	<path fill="none" stroke="#000000" stroke-width="0.5" stroke-miterlimit="10" d="M47.942,71.347V59.073h5.442
		c1.094,0,1.926,0.11,2.495,0.33c0.569,0.221,1.024,0.61,1.365,1.168c0.34,0.559,0.511,1.176,0.511,1.851
		c0,0.871-0.282,1.605-0.846,2.202c-0.564,0.6-1.435,0.979-2.612,1.141c0.43,0.207,0.756,0.408,0.979,0.609
		c0.475,0.438,0.924,0.979,1.348,1.633l2.135,3.343h-2.043l-1.625-2.556c-0.475-0.735-0.865-1.301-1.172-1.689
		c-0.307-0.393-0.582-0.664-0.825-0.82c-0.243-0.156-0.49-0.266-0.741-0.327c-0.184-0.039-0.486-0.059-0.904-0.059h-1.884v5.451
		L47.942,71.347L47.942,71.347z M49.567,64.49h3.491c0.742,0,1.323-0.077,1.742-0.23c0.419-0.151,0.737-0.396,0.955-0.734
		c0.218-0.338,0.327-0.705,0.327-1.104c0-0.58-0.211-1.058-0.632-1.432c-0.421-0.374-1.087-0.561-1.997-0.561h-3.885L49.567,64.49
		L49.567,64.49z"/>
	<path fill="none" stroke="#000000" stroke-width="0.5" stroke-miterlimit="10" d="M60.234,71.347V59.073h1.623v6.087l6.097-6.087
		h2.202l-5.15,4.974l5.376,7.303h-2.144l-4.371-6.215l-2.01,1.959v4.256L60.234,71.347L60.234,71.347z"/>
	<path fill="none" stroke="#000000" stroke-width="0.5" stroke-miterlimit="10" d="M72.016,71.347V59.073h1.623v12.274H72.016z"/>
	<path fill="none" stroke="#000000" stroke-width="0.5" stroke-miterlimit="10" d="M76.486,71.347V59.073h1.666L84.6,68.71v-9.637
		h1.559v12.274H84.49l-6.447-9.646v9.646H76.486z"/>
	<path fill="none" stroke="#000000" stroke-width="0.5" stroke-miterlimit="10" d="M94.631,66.533v-1.44l5.199-0.008v4.557
		c-0.799,0.637-1.621,1.113-2.471,1.436c-0.848,0.321-1.719,0.481-2.611,0.481c-1.206,0-2.303-0.26-3.287-0.774
		s-1.729-1.263-2.23-2.239c-0.5-0.976-0.754-2.066-0.754-3.272c0-1.194,0.25-2.312,0.75-3.347c0.498-1.033,1.217-1.805,2.154-2.307
		c0.938-0.503,2.02-0.754,3.241-0.754c0.888,0,1.69,0.144,2.407,0.432c0.717,0.287,1.279,0.688,1.688,1.201
		c0.406,0.514,0.717,1.186,0.93,2.01l-1.465,0.401c-0.186-0.625-0.414-1.116-0.688-1.474c-0.273-0.356-0.664-0.645-1.172-0.857
		c-0.51-0.215-1.072-0.322-1.691-0.322c-0.742,0-1.385,0.112-1.926,0.339c-0.542,0.228-0.979,0.523-1.311,0.894
		s-0.593,0.771-0.775,1.214c-0.313,0.76-0.469,1.583-0.469,2.47c0,1.097,0.188,2.012,0.563,2.747
		c0.377,0.736,0.927,1.283,1.646,1.643c0.721,0.355,1.484,0.535,2.293,0.535c0.705,0,1.392-0.137,2.062-0.405
		c0.67-0.271,1.179-0.562,1.522-0.866v-2.286H94.63L94.631,66.533L94.631,66.533z"/>
</g>
<path fill="#F58220" d="M249.363,51.453c-1.617-1.132-3.07-1.132-4.527-0.162c-0.646,0.647-1.617,1.941-0.971,3.882l1.779,5.337
	H166.91v21.672h78.732l-1.779,5.34c-0.646,2.104,0.324,3.232,0.973,3.881c1.455,0.971,2.91,0.971,4.525-0.161l28.793-19.896
	L249.363,51.453z M235.072,63.126h5.252h0.338c2.758,0,4.771,1.918,4.771,4.533c0,1.751-0.672,2.877-2.4,3.98l2.711,7.459h-2.639
	l-2.588-7.004l-2.998,0.023v6.979h-2.447V63.126L235.072,63.126z M240.877,69.577h0.336c0.959,0,1.727-0.888,1.727-2.015
	c0-1.056-0.816-1.966-1.775-1.966h-0.215h-3.43V69.6L240.877,69.577z M209.783,77.635c-0.623-0.84-1.08-1.896-1.295-3.047
	c-0.215-1.08-0.312-2.229-0.312-3.43c0-5.42,1.918-8.395,5.42-8.395c1.583,0,3.214,0.768,4.101,1.918
	c0.983,1.318,1.535,3.55,1.535,6.188c0,2.613-0.479,4.846-1.367,6.309c-0.768,1.295-2.541,2.183-4.221,2.183
	C212.205,79.362,210.576,78.641,209.783,77.635z M216.811,71.135c0-3.934-1.031-5.924-3.021-5.924c-1.006,0-1.99,0.576-2.398,1.415
	c-0.479,0.936-0.768,2.662-0.768,4.413c0,1.367,0.216,2.975,0.529,4.006c0.359,1.198,1.271,1.869,2.494,1.869
	C215.756,76.915,216.811,74.996,216.811,71.135z M171.99,63.126h4.582h0.264c3.381,0,5.851,3.358,5.851,7.963
	c0,4.867-2.518,8.01-6.45,8.01h-0.312h-3.935V63.126z M174.486,76.58l1.918-0.024h0.265c2.183,0,3.549-2.135,3.549-5.467
	c0-3.285-1.392-5.492-3.501-5.492h-0.287h-1.943V76.58L174.486,76.58z M184.863,63.126h9.209v2.494h-6.715v3.98h4.604v2.519h-4.604
	v4.438h7.266v2.541h-9.76V63.126z M199.964,65.38h-3.597v-2.254h9.735v2.254h-3.597v13.719h-2.542V65.38L199.964,65.38z
	 M224.26,63.126v10.409v0.215c0,1.966,1.127,3.189,2.854,3.189c1.75,0,2.9-1.271,2.9-3.189v-0.265v-10.36h2.494v10.408v0.168
	c0,3.356-2.252,5.756-5.371,5.756c-1.871,0-3.766-1.079-4.652-2.638c-0.455-0.814-0.695-1.823-0.695-2.95V73.63V63.125
	L224.26,63.126L224.26,63.126z"/>
</svg>
