<?xml version="1.0" encoding="utf-8"?>
<!-- Generator: Adobe Illustrator 15.0.0, SVG Export Plug-In . SVG Version: 6.00 Build 0)  -->
<!DOCTYPE svg PUBLIC "-//W3C//DTD SVG 1.1//EN" "http://www.w3.org/Graphics/SVG/1.1/DTD/svg11.dtd">
<svg version="1.1" id="Layer_1" xmlns="http://www.w3.org/2000/svg" xmlns:xlink="http://www.w3.org/1999/xlink" x="0px" y="0px"
	 width="119.25px" height="118.98px" viewBox="0 0 119.25 118.98" enable-background="new 0 0 119.25 118.98" xml:space="preserve">
<polygon fill="#FFD520" points="59.647,118.089 59.647,118.089 60.698,117.938 61.75,117.487 61.75,117.487 62.652,116.885 
	63.402,116.135 116.441,63.247 116.441,63.247 117.193,62.495 117.645,61.594 118.096,60.692 118.246,59.49 118.246,59.49 
	118.096,58.438 117.645,57.385 117.645,57.385 117.044,56.486 116.441,55.733 63.555,2.844 63.555,2.844 62.652,2.094 61.6,1.492 
	61.6,1.492 60.698,1.041 59.647,0.891 59.647,0.891 58.595,1.041 57.543,1.492 56.642,2.094 55.741,2.844 2.851,55.733 
	2.851,55.733 2.1,56.486 1.499,57.537 1.499,57.537 1.199,58.438 1.049,59.49 1.049,59.49 1.199,60.692 1.649,61.743 1.649,61.743 
	2.251,62.495 2.851,63.247 55.741,116.135 55.741,116.135 56.642,116.885 57.693,117.487 57.693,117.487 58.595,117.938 
	59.647,118.089 "/>
<path d="M115.241,62.344L115.241,62.344l0.601-0.751l0.45-0.602l0.302-0.751v-0.75l0,0v-0.601l-0.302-0.751l-0.45-0.603
	l-0.601-0.751l-52.89-52.89l0,0L61.75,3.295L61,2.844l-0.604-0.148l-0.75-0.15l0,0l-0.752,0.15l-0.6,0.148l-0.752,0.451l-0.6,0.603
	L4.053,56.785l0,0l-0.601,0.751l-0.451,0.603l-0.3,0.751v0.601l0,0v0.751l0.3,0.751l0.451,0.602l0.601,0.751l52.89,52.892l0,0
	l0.6,0.601l0.752,0.302l0.6,0.302l0.752,0.148l0,0l0.75-0.148L61,116.135l0.75-0.301l0.602-0.601L115.241,62.344L115.241,62.344
	L115.241,62.344z M113.889,58.288L113.889,58.288l0.451,0.603l0.148,0.301l0.15,0.3l0,0l-0.15,0.451l-0.148,0.3l-0.451,0.602
	L61,113.731l0,0l-0.752,0.601l-0.301,0.151h-0.3l0,0h-0.301l-0.301-0.151l-0.75-0.601L5.406,60.843l0,0l-0.45-0.602l-0.151-0.3
	l-0.15-0.451l0,0l0.15-0.3l0.151-0.301l0.45-0.603l52.89-52.889l0,0l0.75-0.603l0.301-0.148h0.301l0,0h0.3l0.301,0.148L61,5.399
	L113.889,58.288L113.889,58.288L113.889,58.288z"/>
<g enable-background="new    ">
	<path fill="#999999" d="M49.944,97.924v2.895c0,0.213,0.01,0.453,0.02,0.617h-0.386l-0.02-0.416h-0.015
		c-0.128,0.27-0.415,0.471-0.806,0.471c-0.579,0-1.028-0.488-1.028-1.217c-0.005-0.797,0.494-1.279,1.073-1.279
		c0.371,0,0.613,0.174,0.722,0.359h0.01v-1.43H49.944L49.944,97.924z M49.514,100.013c0-0.057-0.005-0.131-0.02-0.184
		c-0.064-0.271-0.302-0.5-0.628-0.5c-0.45,0-0.717,0.396-0.717,0.92c0,0.482,0.242,0.885,0.707,0.885
		c0.292,0,0.559-0.195,0.638-0.52c0.015-0.061,0.02-0.119,0.02-0.189V100.013z"/>
	<path fill="#999999" d="M50.672,99.689c0-0.254-0.01-0.451-0.02-0.646h0.38l0.02,0.393h0.015c0.133-0.229,0.356-0.439,0.756-0.439
		c0.321,0,0.569,0.197,0.672,0.479h0.01c0.074-0.141,0.173-0.236,0.271-0.313c0.144-0.106,0.297-0.168,0.524-0.168
		c0.321,0,0.791,0.207,0.791,1.037v1.404h-0.425v-1.352c0-0.465-0.173-0.734-0.519-0.734c-0.252,0-0.44,0.184-0.519,0.391
		c-0.02,0.063-0.035,0.139-0.035,0.219v1.479h-0.425v-1.436c0-0.381-0.168-0.65-0.5-0.65c-0.267,0-0.47,0.217-0.539,0.436
		c-0.025,0.063-0.035,0.139-0.035,0.213v1.438h-0.425v-1.744h0.003V99.689z"/>
	<path fill="#999999" d="M54.901,99.041l0.47,1.34c0.079,0.225,0.144,0.42,0.193,0.617h0.015c0.054-0.197,0.124-0.396,0.203-0.617
		l0.464-1.34h0.455l-0.939,2.395h-0.415l-0.91-2.395H54.901z"/>
	<path fill="#999999" d="M59.125,97.924v2.895c0,0.213,0.01,0.453,0.02,0.617H58.76l-0.021-0.416h-0.015
		c-0.129,0.27-0.416,0.471-0.806,0.471c-0.579,0-1.028-0.488-1.028-1.217c-0.005-0.797,0.494-1.279,1.073-1.279
		c0.371,0,0.613,0.174,0.722,0.359h0.011v-1.43H59.125L59.125,97.924z M58.694,100.013c0-0.057-0.004-0.131-0.02-0.184
		c-0.064-0.271-0.303-0.5-0.628-0.5c-0.45,0-0.717,0.396-0.717,0.92c0,0.482,0.242,0.885,0.707,0.885
		c0.292,0,0.559-0.195,0.638-0.52c0.016-0.061,0.02-0.119,0.02-0.189V100.013z"/>
	<path fill="#999999" d="M61.535,100.859c0,0.207,0.01,0.41,0.033,0.572h-0.393l-0.033-0.303h-0.016
		c-0.135,0.188-0.395,0.355-0.73,0.355c-0.482,0-0.731-0.344-0.731-0.689c0-0.578,0.517-0.895,1.438-0.891v-0.049
		c0-0.191-0.057-0.557-0.543-0.551c-0.229,0-0.461,0.063-0.629,0.18l-0.098-0.291c0.196-0.125,0.487-0.209,0.792-0.209
		c0.729,0,0.908,0.5,0.908,0.975v0.898L61.535,100.859L61.535,100.859z M61.115,100.213c-0.477-0.012-1.016,0.074-1.016,0.537
		c0,0.287,0.188,0.416,0.406,0.416c0.313,0,0.521-0.197,0.588-0.398c0.017-0.051,0.021-0.102,0.021-0.141v-0.414H61.115z"/>
	<path fill="#999999" d="M62.135,101.176c0-0.178,0.124-0.313,0.297-0.313c0.174,0,0.291,0.129,0.291,0.313
		c0,0.18-0.117,0.313-0.303,0.313C62.252,101.488,62.135,101.353,62.135,101.176z"/>
	<path fill="#999999" d="M64.968,101.349c-0.112,0.055-0.364,0.139-0.688,0.139c-0.721,0-1.189-0.488-1.189-1.223
		c0-0.735,0.508-1.273,1.285-1.273c0.258,0,0.482,0.063,0.604,0.129l-0.1,0.33c-0.104-0.055-0.268-0.111-0.506-0.111
		c-0.549,0-0.846,0.41-0.846,0.902c0,0.555,0.354,0.896,0.832,0.896c0.246,0,0.408-0.061,0.531-0.113L64.968,101.349z"/>
	<path fill="#999999" d="M67.615,100.217c0,0.887-0.619,1.271-1.191,1.271c-0.643,0-1.146-0.475-1.146-1.23
		c0-0.795,0.529-1.266,1.188-1.266C67.148,98.99,67.615,99.49,67.615,100.217z M65.721,100.242c0,0.523,0.297,0.92,0.723,0.92
		c0.416,0,0.729-0.393,0.729-0.93c0-0.406-0.201-0.916-0.717-0.916C65.941,99.318,65.721,99.791,65.721,100.242z"/>
	<path fill="#999999" d="M68.164,99.689c0-0.254-0.012-0.451-0.021-0.646h0.381l0.021,0.393h0.016
		c0.135-0.229,0.355-0.439,0.756-0.439c0.322,0,0.57,0.197,0.676,0.479H70c0.074-0.141,0.174-0.236,0.271-0.313
		c0.143-0.106,0.297-0.168,0.521-0.168c0.322,0,0.791,0.207,0.791,1.037v1.404H71.16v-1.352c0-0.465-0.172-0.734-0.52-0.734
		c-0.254,0-0.439,0.184-0.521,0.391c-0.02,0.063-0.033,0.139-0.033,0.219v1.479H69.66v-1.436c0-0.381-0.168-0.65-0.498-0.65
		c-0.27,0-0.471,0.217-0.539,0.436c-0.023,0.063-0.035,0.139-0.035,0.213v1.438h-0.426v-1.746h0.002V99.689z"/>
</g>
<g enable-background="new    ">
	<path d="M40.07,26.977h1.656v9.481h5.418v1.152H40.07V26.977z"/>
	<path d="M51.016,34.266l-1.317,3.345h-1.693l4.327-10.634h1.957l4.327,10.634h-1.75l-1.354-3.345H51.016z M55.193,33.193
		l-1.26-3.062c-0.282-0.693-0.471-1.324-0.659-1.94h-0.038c-0.188,0.616-0.376,1.277-0.64,1.925l-1.242,3.076L55.193,33.193
		L55.193,33.193z"/>
	<path d="M60.477,37.611V26.977h1.806l4.046,5.38c0.922,1.247,1.674,2.367,2.257,3.455l0.058-0.017
		c-0.15-1.42-0.188-2.714-0.188-4.37v-4.449h1.542V37.61H68.34l-4.025-5.396c-0.885-1.183-1.73-2.397-2.353-3.55l-0.058,0.017
		c0.095,1.341,0.113,2.618,0.113,4.386v4.544L60.477,37.611L60.477,37.611z"/>
	<path d="M79.396,32.625h-4.91v3.834h5.494v1.152h-7.148V26.977h6.867v1.151h-5.213v3.361h4.91V32.625z"/>
</g>
<g enable-background="new    ">
	<path fill="none" stroke="#020200" stroke-width="0.5" stroke-miterlimit="10" d="M40.07,26.977h1.656v9.481h5.418v1.152H40.07
		V26.977z"/>
	<path fill="none" stroke="#020200" stroke-width="0.5" stroke-miterlimit="10" d="M51.016,34.266l-1.317,3.345h-1.693l4.327-10.634
		h1.957l4.327,10.634h-1.75l-1.354-3.345H51.016z M55.193,33.193l-1.26-3.062c-0.282-0.693-0.471-1.324-0.659-1.94h-0.038
		c-0.188,0.616-0.376,1.277-0.64,1.925l-1.242,3.076L55.193,33.193L55.193,33.193z"/>
	<path fill="none" stroke="#020200" stroke-width="0.5" stroke-miterlimit="10" d="M60.477,37.611V26.977h1.806l4.046,5.38
		c0.922,1.247,1.674,2.367,2.257,3.455l0.058-0.017c-0.15-1.42-0.188-2.714-0.188-4.37v-4.449h1.542V37.61H68.34l-4.025-5.396
		c-0.885-1.183-1.73-2.397-2.353-3.55l-0.058,0.017c0.095,1.341,0.113,2.618,0.113,4.386v4.544L60.477,37.611L60.477,37.611z"/>
	<path fill="none" stroke="#020200" stroke-width="0.5" stroke-miterlimit="10" d="M79.396,32.625h-4.91v3.834h5.494v1.152h-7.148
		V26.977h6.867v1.151h-5.213v3.361h4.91V32.625z"/>
</g>
<g enable-background="new    ">
	<path d="M45.93,51.563h-4.91v3.834h5.494v1.151h-7.149V45.914h6.867v1.152H41.02v3.36h4.91V51.563z"/>
	<path d="M48.636,56.549V45.914h1.806l4.045,5.38c0.922,1.247,1.674,2.367,2.257,3.455l0.057-0.016
		c-0.15-1.42-0.188-2.714-0.188-4.37v-4.45h1.542v10.634H56.5l-4.026-5.396c-0.884-1.184-1.731-2.398-2.352-3.55l-0.056,0.016
		c0.094,1.341,0.113,2.619,0.113,4.386v4.544h-1.543V56.549z"/>
	<path d="M61.01,46.072c0.998-0.142,2.184-0.236,3.481-0.236c2.352,0,4.024,0.474,5.136,1.325c1.146,0.868,1.807,2.099,1.807,3.818
		c0,1.734-0.658,3.154-1.824,4.134c-1.205,0.994-3.161,1.53-5.627,1.53c-1.185,0-2.145-0.047-2.973-0.126V46.072z M62.646,55.476
		c0.414,0.047,1.017,0.063,1.655,0.063c3.519,0,5.399-1.641,5.399-4.512c0.02-2.509-1.674-4.104-5.137-4.104
		c-0.847,0-1.485,0.063-1.918,0.143V55.476L62.646,55.476z"/>
	<path d="M73.329,54.876c0.733,0.396,1.787,0.694,2.916,0.694c1.674,0,2.651-0.742,2.651-1.814c0-0.979-0.676-1.562-2.39-2.099
		c-2.069-0.631-3.349-1.546-3.349-3.029c0-1.656,1.637-2.887,4.102-2.887c1.279,0,2.239,0.252,2.784,0.521l-0.451,1.119
		c-0.396-0.205-1.241-0.505-2.39-0.505c-1.73,0-2.389,0.868-2.389,1.595c0,0.993,0.771,1.482,2.521,2.051
		c2.146,0.693,3.218,1.562,3.218,3.124c0,1.641-1.431,3.077-4.422,3.077c-1.223,0-2.559-0.315-3.236-0.694L73.329,54.876z"/>
</g>
<g enable-background="new    ">
	<path fill="none" stroke="#020200" stroke-width="0.5" stroke-miterlimit="10" d="M45.93,51.563h-4.91v3.834h5.494v1.151h-7.149
		V45.914h6.867v1.152H41.02v3.36h4.91V51.563z"/>
	<path fill="none" stroke="#020200" stroke-width="0.5" stroke-miterlimit="10" d="M48.636,56.549V45.914h1.806l4.045,5.38
		c0.922,1.247,1.674,2.367,2.257,3.455l0.057-0.016c-0.15-1.42-0.188-2.714-0.188-4.37v-4.45h1.542v10.634H56.5l-4.026-5.396
		c-0.884-1.184-1.731-2.398-2.352-3.55l-0.056,0.016c0.094,1.341,0.113,2.619,0.113,4.386v4.544h-1.543V56.549z"/>
	<path fill="none" stroke="#020200" stroke-width="0.5" stroke-miterlimit="10" d="M61.01,46.072
		c0.998-0.142,2.184-0.236,3.481-0.236c2.352,0,4.024,0.474,5.136,1.325c1.146,0.868,1.807,2.099,1.807,3.818
		c0,1.734-0.658,3.154-1.824,4.134c-1.205,0.994-3.161,1.53-5.627,1.53c-1.185,0-2.145-0.047-2.973-0.126V46.072z M62.646,55.476
		c0.414,0.047,1.017,0.063,1.655,0.063c3.519,0,5.399-1.641,5.399-4.512c0.02-2.509-1.674-4.104-5.137-4.104
		c-0.847,0-1.485,0.063-1.918,0.143V55.476L62.646,55.476z"/>
	<path fill="none" stroke="#020200" stroke-width="0.5" stroke-miterlimit="10" d="M73.329,54.876
		c0.733,0.396,1.787,0.694,2.916,0.694c1.674,0,2.651-0.742,2.651-1.814c0-0.979-0.676-1.562-2.39-2.099
		c-2.069-0.631-3.349-1.546-3.349-3.029c0-1.656,1.637-2.887,4.102-2.887c1.279,0,2.239,0.252,2.784,0.521l-0.451,1.119
		c-0.396-0.205-1.241-0.505-2.39-0.505c-1.73,0-2.389,0.868-2.389,1.595c0,0.993,0.771,1.482,2.521,2.051
		c2.146,0.693,3.218,1.562,3.218,3.124c0,1.641-1.431,3.077-4.422,3.077c-1.223,0-2.559-0.315-3.236-0.694L73.329,54.876z"/>
</g>
<g enable-background="new    ">
	<path d="M43.835,70.817c-0.094-1.483-0.207-3.282-0.207-4.591H43.59c-0.452,1.229-0.959,2.57-1.599,4.039l-2.239,5.157H38.51
		l-2.07-5.063c-0.602-1.516-1.091-2.871-1.449-4.133h-0.038c-0.038,1.323-0.131,3.092-0.245,4.7l-0.338,4.561h-1.56l0.884-10.634
		h2.088l2.164,5.143c0.527,1.312,0.94,2.479,1.279,3.582h0.038c0.339-1.072,0.79-2.24,1.354-3.582l2.258-5.143h2.088l0.79,10.634
		h-1.618L43.835,70.817z"/>
	<path d="M54.816,70.502h-4.91v3.834H55.4v1.151h-7.15V64.853h6.867v1.15h-5.211v3.36h4.91V70.502z"/>
	<path d="M57.521,64.995c0.828-0.126,2.032-0.221,3.143-0.221c1.749,0,2.896,0.284,3.669,0.868c0.62,0.473,0.997,1.198,0.997,2.034
		c0,1.39-1.055,2.318-2.371,2.697v0.048c0.96,0.284,1.543,1.041,1.844,2.146c0.414,1.482,0.715,2.509,0.979,2.919h-1.693
		c-0.207-0.315-0.489-1.215-0.827-2.54c-0.377-1.467-1.072-2.021-2.56-2.066H59.16v4.606h-1.637V64.995H57.521z M59.159,69.839
		h1.674c1.75,0,2.86-0.805,2.86-2.02c0-1.372-1.187-1.972-2.918-1.972c-0.79,0-1.334,0.047-1.617,0.108L59.159,69.839L59.159,69.839
		z"/>
	<path d="M77.366,75.013c-0.733,0.235-2.201,0.584-3.913,0.584c-1.919,0-3.499-0.41-4.741-1.404
		c-1.091-0.883-1.769-2.303-1.769-3.96c0-3.171,2.615-5.491,6.867-5.491c1.467,0,2.633,0.269,3.18,0.49l-0.414,1.119
		c-0.678-0.269-1.523-0.457-2.803-0.457c-3.086,0-5.1,1.608-5.1,4.274c0,2.698,1.919,4.292,4.893,4.292
		c1.072,0,1.806-0.126,2.183-0.284v-3.172h-2.56v-1.104h4.177V75.013z"/>
	<path d="M86.393,70.502h-4.91v3.834h5.494v1.151h-7.148V64.853h6.867v1.15h-5.213v3.36h4.91V70.502z"/>
</g>
<g enable-background="new    ">
	<path fill="none" stroke="#020200" stroke-width="0.5" stroke-miterlimit="10" d="M43.835,70.817
		c-0.094-1.483-0.207-3.282-0.207-4.591H43.59c-0.452,1.229-0.959,2.57-1.599,4.039l-2.239,5.157H38.51l-2.07-5.063
		c-0.602-1.516-1.091-2.871-1.449-4.133h-0.038c-0.038,1.323-0.131,3.092-0.245,4.7l-0.338,4.561h-1.56l0.884-10.634h2.088
		l2.164,5.143c0.527,1.312,0.94,2.479,1.279,3.582h0.038c0.339-1.072,0.79-2.24,1.354-3.582l2.258-5.143h2.088l0.79,10.634h-1.618
		L43.835,70.817z"/>
	<path fill="none" stroke="#020200" stroke-width="0.5" stroke-miterlimit="10" d="M54.816,70.502h-4.91v3.834H55.4v1.151h-7.15
		V64.853h6.867v1.15h-5.211v3.36h4.91V70.502z"/>
	<path fill="none" stroke="#020200" stroke-width="0.5" stroke-miterlimit="10" d="M57.521,64.995
		c0.828-0.126,2.032-0.221,3.143-0.221c1.749,0,2.896,0.284,3.669,0.868c0.62,0.473,0.997,1.198,0.997,2.034
		c0,1.39-1.055,2.318-2.371,2.697v0.048c0.96,0.284,1.543,1.041,1.844,2.146c0.414,1.482,0.715,2.509,0.979,2.919h-1.693
		c-0.207-0.315-0.489-1.215-0.827-2.54c-0.377-1.467-1.072-2.021-2.56-2.066H59.16v4.606h-1.637V64.995H57.521z M59.159,69.839
		h1.674c1.75,0,2.86-0.805,2.86-2.02c0-1.372-1.187-1.972-2.918-1.972c-0.79,0-1.334,0.047-1.617,0.108L59.159,69.839L59.159,69.839
		z"/>
	<path fill="none" stroke="#020200" stroke-width="0.5" stroke-miterlimit="10" d="M77.366,75.013
		c-0.733,0.235-2.201,0.584-3.913,0.584c-1.919,0-3.499-0.41-4.741-1.404c-1.091-0.883-1.769-2.303-1.769-3.96
		c0-3.171,2.615-5.491,6.867-5.491c1.467,0,2.633,0.269,3.18,0.49l-0.414,1.119c-0.678-0.269-1.523-0.457-2.803-0.457
		c-3.086,0-5.1,1.608-5.1,4.274c0,2.698,1.919,4.292,4.893,4.292c1.072,0,1.806-0.126,2.183-0.284v-3.172h-2.56v-1.104h4.177V75.013
		z"/>
	<path fill="none" stroke="#020200" stroke-width="0.5" stroke-miterlimit="10" d="M86.393,70.502h-4.91v3.834h5.494v1.151h-7.148
		V64.853h6.867v1.15h-5.213v3.36h4.91V70.502z"/>
</g>
<g enable-background="new    ">
	<path d="M42.76,83.789h1.656v9.482h5.418v1.151H42.76V83.789z"/>
	<path d="M58.202,89.437h-4.91v3.834h5.494v1.151h-7.149V83.789h6.867v1.152h-5.211v3.36h4.91L58.202,89.437L58.202,89.437z"/>
	<path d="M60.889,83.789h6.83v1.152h-5.174v3.534h4.779v1.136h-4.779v4.813h-1.656V83.789z"/>
	<path d="M72.475,84.957h-3.856v-1.168h9.389v1.168h-3.875v9.467h-1.655v-9.467H72.475z"/>
</g>
<g enable-background="new    ">
	<path fill="none" stroke="#020200" stroke-width="0.5" stroke-miterlimit="10" d="M42.76,83.789h1.656v9.482h5.418v1.151H42.76
		V83.789z"/>
	<path fill="none" stroke="#020200" stroke-width="0.5" stroke-miterlimit="10" d="M58.202,89.437h-4.91v3.834h5.494v1.151h-7.149
		V83.789h6.867v1.152h-5.211v3.36h4.91L58.202,89.437L58.202,89.437z"/>
	<path fill="none" stroke="#020200" stroke-width="0.5" stroke-miterlimit="10" d="M60.889,83.789h6.83v1.152h-5.174v3.534h4.779
		v1.136h-4.779v4.813h-1.656V83.789z"/>
	<path fill="none" stroke="#020200" stroke-width="0.5" stroke-miterlimit="10" d="M72.475,84.957h-3.856v-1.168h9.389v1.168h-3.875
		v9.467h-1.655v-9.467H72.475z"/>
</g>
</svg>
