<?xml version="1.0" encoding="utf-8"?>
<!-- Generator: Adobe Illustrator 15.0.0, SVG Export Plug-In . SVG Version: 6.00 Build 0)  -->
<!DOCTYPE svg PUBLIC "-//W3C//DTD SVG 1.1//EN" "http://www.w3.org/Graphics/SVG/1.1/DTD/svg11.dtd">
<svg version="1.1" id="Layer_1" xmlns="http://www.w3.org/2000/svg" xmlns:xlink="http://www.w3.org/1999/xlink" x="0px" y="0px"
	 width="119.25px" height="118.98px" viewBox="0 0 119.25 118.98" enable-background="new 0 0 119.25 118.98" xml:space="preserve">
<g>
	<polygon fill="#FFFFFF" points="5.445,108.422 5.445,108.422 5.6,109.819 5.911,110.906 6.377,111.839 6.998,112.615 7.93,113.391 
		8.862,113.858 9.95,114.169 11.347,114.169 108.898,114.169 108.898,114.169 110.296,114.169 111.383,113.858 112.316,113.391 
		113.249,112.615 113.869,111.839 114.334,110.906 114.646,109.819 114.801,108.422 114.801,10.558 114.801,10.558 114.646,9.163 
		114.334,8.073 113.869,7.142 113.249,6.365 112.316,5.588 111.383,5.123 110.296,4.812 108.898,4.812 11.347,4.812 11.347,4.812 
		9.95,4.812 8.862,5.123 7.93,5.588 6.998,6.365 6.377,7.142 5.911,8.073 5.6,9.163 5.445,10.558 	"/>
	<path fill="none" stroke="#020200" stroke-miterlimit="10" d="M7.93,108.422V10.558l0,0l0.155-0.776L8.24,9.163l0.311-0.621
		l0.311-0.467l0.466-0.312L9.95,7.453l0.622-0.155h0.775h97.551l0,0h0.776l0.622,0.155l0.623,0.311l0.465,0.312l0.313,0.467
		l0.31,0.621l0.156,0.621l0.154,0.775v97.862l0,0l-0.154,0.776l-0.156,0.621l-0.31,0.623l-0.313,0.468l-0.465,0.311l-0.623,0.311
		l-0.622,0.154h-0.776H11.347l0,0h-0.775l-0.622-0.154l-0.621-0.311l-0.466-0.311l-0.311-0.468l-0.311-0.623l-0.155-0.621
		L7.93,108.422L7.93,108.422L7.93,108.422z"/>
	<path fill="#E03127" d="M59.968,105.315L59.968,105.315h-2.33l-2.331-0.155l-2.33-0.312l-2.331-0.467l-2.175-0.467l-2.174-0.621
		l-2.174-0.777l-2.02-0.778l-2.02-0.933l-2.019-0.931l-1.864-1.09l-1.864-1.242l-1.864-1.245L30.764,94.9l-1.709-1.397l-1.553-1.551
		l-1.553-1.554l-1.397-1.707l-1.398-1.709l-1.243-1.862l-1.244-1.862l-1.087-1.864l-0.931-2.02l-0.932-2.02l-0.776-2.019
		l-0.778-2.175l-0.621-2.176l-0.466-2.173l-0.467-2.333l-0.311-2.33l-0.155-2.33v-2.33l0,0V57.16l0.155-2.33l0.311-2.329l0.466-2.33
		l0.466-2.175l0.622-2.176l0.778-2.174l0.776-2.018l0.932-2.021l0.932-2.02l1.087-1.863l1.244-1.863l1.243-1.863l1.398-1.707
		l1.397-1.709l1.553-1.554l1.553-1.552l1.709-1.397l1.708-1.397l1.863-1.244L36.2,20.35l1.864-1.243l2.019-0.933l2.02-0.932
		l2.02-0.776l2.174-0.779l2.174-0.621l2.175-0.466l2.331-0.466l2.33-0.312l2.331-0.156h2.33l0,0h2.33l2.33,0.156l2.33,0.312
		l2.328,0.466l2.175,0.466l2.176,0.621l2.174,0.779l2.019,0.776l2.021,0.932l2.021,0.933l1.862,1.243l1.861,1.087l1.863,1.244
		l1.707,1.397l1.709,1.397l1.555,1.552l1.553,1.554l1.396,1.709l1.398,1.707l1.244,1.863l1.086,1.863l1.244,1.863l0.935,2.02
		l0.931,2.021l0.78,2.018l0.774,2.174l0.621,2.176l0.467,2.175l0.468,2.33l0.31,2.328l0.155,2.33v2.329l0,0v2.33l-0.155,2.33
		l-0.31,2.33l-0.468,2.328l-0.467,2.175l-0.621,2.177l-0.774,2.174l-0.78,2.018l-0.931,2.021l-0.935,2.02l-1.244,1.864l-1.086,1.861
		l-1.244,1.864l-1.398,1.709l-1.396,1.707l-1.553,1.553L90.873,93.5l-1.709,1.397l-1.707,1.396l-1.863,1.245l-1.861,1.241
		l-1.862,1.091l-2.021,0.932l-2.021,0.933l-2.019,0.777l-2.176,0.777l-2.175,0.621l-2.175,0.467l-2.328,0.466l-2.33,0.312
		l-2.33,0.156h-2.329V105.315L59.968,105.315z M59.968,20.656L59.968,20.656h-2.02l-2.019,0.155l-1.864,0.313l-1.864,0.311
		L50.337,21.9l-1.863,0.468l-1.864,0.62l-1.708,0.621l-3.417,1.708l-3.263,1.862l-2.951,2.33l-2.641,2.486l-2.641,2.795
		l-2.174,2.951l-2.02,3.262l-1.553,3.263l-0.776,1.862L23,47.84l-0.621,1.865l-0.466,1.861l-0.311,1.864l-0.158,2.021l-0.155,2.018
		l-0.155,1.865l0,0l0.155,3.727l0.467,3.419l0.777,3.264l0.932,3.105l1.243,2.952l1.553,2.795l1.709,2.641l1.864,2.485
		l54.367-54.521l0,0l-2.485-1.864L78.92,25.63l-2.796-1.553l-3.106-1.242L69.912,21.9l-3.264-0.621l-3.264-0.467L59.968,20.656
		L59.968,20.656L59.968,20.656z M90.258,35.259L90.258,35.259L63.075,62.441l-27.184,27.34l0,0l2.485,1.864l2.795,1.707l2.796,1.398
		l2.951,1.242l3.106,0.933l3.262,0.622l3.263,0.466l3.417,0.155l0,0h2.021l1.863-0.155l2.019-0.311l1.862-0.312l1.863-0.467
		l1.863-0.465l1.863-0.623l1.709-0.776l3.418-1.555l3.105-2.019l3.106-2.174l2.641-2.485l2.486-2.797l2.33-2.949l1.864-3.264
		l1.709-3.42l0.621-1.707l0.621-1.861l0.623-1.707l0.311-1.863l0.466-2.021l0.155-1.861l0.156-2.021l0.153-2.019l0,0l-0.153-3.573
		l-0.468-3.417l-0.776-3.263l-0.935-2.952l-1.243-2.952l-1.396-2.795l-1.708-2.642L90.258,35.259L90.258,35.259L90.258,35.259z"/>
	<path d="M40.239,85.431L40.239,85.431l12.272-12.427V89.78H40.239V85.431L40.239,85.431z M77.986,35.414L60.279,53.122h-5.127l0,0
		l-0.466,0.154L54.22,53.43l-0.933,0.622l-0.466,0.776l-0.156,0.468l-0.155,0.466v5.282L40.239,73.47V49.859l0,0v-0.776l0.156-0.934
		l0.466-1.709l0.932-1.552l1.087-1.398l1.398-1.088l1.553-0.775l1.708-0.623l0.776-0.155h0.933h20.969l-2.175-6.523l0,0
		l-0.153-0.932l0.153-0.934l0.312-0.776l0.776-0.621l0,0l0.622-0.311l0.779-0.155l0.931,0.311l0.935,0.467L77.986,35.414
		L77.986,35.414z M69.132,56.385L69.132,56.385l16-16l9.632,6.681L72.396,62.597l0,0l-0.935,0.621l-0.931,0.157l-0.778-0.157
		l-0.623-0.312l0,0l-0.776-0.466l-0.311-0.775l-0.154-0.934l0.154-1.089L69.132,56.385L69.132,56.385z"/>
</g>
<g enable-background="new    ">
	<path fill="#999999" d="M50.884,106.781v2.729c0,0.2,0.01,0.432,0.02,0.581h-0.386l-0.02-0.394h-0.013
		c-0.128,0.256-0.415,0.441-0.806,0.441c-0.579,0-1.028-0.462-1.028-1.146c-0.005-0.752,0.494-1.207,1.073-1.207
		c0.371,0,0.613,0.164,0.722,0.339h0.01v-1.35L50.884,106.781L50.884,106.781z M50.454,108.755c0-0.051-0.005-0.12-0.02-0.172
		c-0.064-0.258-0.302-0.474-0.628-0.474c-0.45,0-0.717,0.374-0.717,0.866c0,0.455,0.242,0.839,0.707,0.839
		c0.292,0,0.559-0.188,0.638-0.491c0.015-0.062,0.02-0.11,0.02-0.181V108.755z"/>
	<path fill="#999999" d="M51.611,108.447c0-0.239-0.01-0.425-0.02-0.609h0.38l0.02,0.369h0.015c0.133-0.215,0.356-0.414,0.756-0.414
		c0.321,0,0.569,0.188,0.671,0.451h0.01c0.074-0.132,0.174-0.226,0.271-0.296c0.145-0.104,0.297-0.157,0.524-0.157
		c0.321,0,0.791,0.195,0.791,0.979v1.323h-0.425v-1.271c0-0.438-0.174-0.694-0.52-0.694c-0.252,0-0.439,0.175-0.52,0.37
		c-0.02,0.061-0.034,0.131-0.034,0.206v1.396h-0.425v-1.354c0-0.358-0.168-0.616-0.5-0.616c-0.267,0-0.47,0.207-0.539,0.412
		c-0.025,0.059-0.035,0.133-0.035,0.202v1.354h-0.425v-1.646h0.003v-0.006L51.611,108.447L51.611,108.447z"/>
	<path fill="#999999" d="M55.842,107.836l0.471,1.268c0.078,0.21,0.144,0.396,0.192,0.582h0.015
		c0.055-0.188,0.125-0.374,0.203-0.582l0.465-1.268h0.455l-0.939,2.261h-0.415l-0.91-2.261H55.842z"/>
	<path fill="#999999" d="M60.066,106.781v2.729c0,0.2,0.01,0.432,0.02,0.581H59.7l-0.021-0.394h-0.015
		c-0.129,0.256-0.416,0.441-0.807,0.441c-0.578,0-1.027-0.462-1.027-1.146c-0.005-0.752,0.494-1.207,1.072-1.207
		c0.371,0,0.613,0.164,0.723,0.339h0.012v-1.35L60.066,106.781L60.066,106.781z M59.634,108.755c0-0.051-0.004-0.12-0.02-0.172
		c-0.064-0.258-0.303-0.474-0.629-0.474c-0.449,0-0.717,0.374-0.717,0.866c0,0.455,0.242,0.839,0.707,0.839
		c0.293,0,0.56-0.188,0.639-0.491c0.016-0.062,0.02-0.11,0.02-0.181V108.755z"/>
	<path fill="#999999" d="M62.475,109.553c0,0.194,0.012,0.39,0.034,0.54h-0.396l-0.03-0.284h-0.019
		c-0.139,0.181-0.396,0.336-0.729,0.336c-0.481,0-0.731-0.322-0.731-0.646c0-0.546,0.52-0.847,1.438-0.842v-0.047
		c0-0.187-0.06-0.524-0.543-0.521c-0.229,0-0.462,0.063-0.63,0.171l-0.098-0.272c0.192-0.115,0.484-0.194,0.789-0.194
		c0.729,0,0.906,0.473,0.906,0.921v0.85h0.004v-0.005h0.002v-0.006H62.475z M62.055,108.942c-0.479-0.015-1.018,0.065-1.018,0.509
		c0,0.271,0.188,0.395,0.404,0.395c0.313,0,0.521-0.188,0.588-0.379c0.021-0.048,0.021-0.095,0.021-0.131v-0.394H62.055z"/>
	<path fill="#999999" d="M63.073,109.852c0-0.17,0.125-0.296,0.297-0.296c0.174,0,0.293,0.121,0.293,0.296
		c0,0.168-0.119,0.299-0.306,0.299C63.191,110.145,63.073,110.019,63.073,109.852z"/>
	<path fill="#999999" d="M65.907,110.015c-0.113,0.058-0.365,0.137-0.688,0.137c-0.727,0-1.189-0.465-1.189-1.154
		c0-0.692,0.507-1.202,1.283-1.202c0.26,0,0.484,0.061,0.605,0.122l-0.102,0.313c-0.104-0.054-0.269-0.104-0.506-0.104
		c-0.549,0-0.847,0.389-0.847,0.854c0,0.522,0.354,0.85,0.832,0.85c0.246,0,0.404-0.059,0.527-0.104L65.907,110.015z"/>
	<path fill="#999999" d="M68.555,108.947c0,0.835-0.617,1.197-1.188,1.197c-0.646,0-1.146-0.446-1.146-1.158
		c0-0.752,0.526-1.195,1.188-1.195C68.089,107.789,68.555,108.26,68.555,108.947z M66.659,108.969c0,0.493,0.297,0.869,0.723,0.869
		c0.416,0,0.729-0.371,0.729-0.879c0-0.383-0.199-0.863-0.717-0.863C66.882,108.097,66.659,108.545,66.659,108.969z"/>
	<path fill="#999999" d="M69.104,108.447c0-0.239-0.012-0.425-0.021-0.609h0.381l0.021,0.369h0.019
		c0.138-0.215,0.354-0.414,0.756-0.414c0.322,0,0.568,0.188,0.677,0.451h0.014c0.07-0.132,0.174-0.226,0.27-0.296
		c0.146-0.104,0.297-0.157,0.521-0.157c0.322,0,0.791,0.195,0.791,0.979v1.323h-0.426v-1.271c0-0.438-0.174-0.694-0.521-0.694
		c-0.252,0-0.438,0.175-0.521,0.37c-0.02,0.061-0.03,0.131-0.03,0.206v1.396h-0.429v-1.354c0-0.358-0.168-0.616-0.498-0.616
		c-0.27,0-0.471,0.207-0.539,0.412c-0.02,0.059-0.032,0.133-0.032,0.202v1.354h-0.429v-1.646l0,0v-0.004H69.104z"/>
</g>
</svg>
