<?xml version="1.0" encoding="utf-8"?>
<!-- Generator: Adobe Illustrator 15.0.0, SVG Export Plug-In . SVG Version: 6.00 Build 0)  -->
<!DOCTYPE svg PUBLIC "-//W3C//DTD SVG 1.1//EN" "http://www.w3.org/Graphics/SVG/1.1/DTD/svg11.dtd">
<svg version="1.1" id="Layer_1" xmlns="http://www.w3.org/2000/svg" xmlns:xlink="http://www.w3.org/1999/xlink" x="0px" y="0px"
	 width="82.779px" height="102.189px" viewBox="0 0 82.779 102.189" enable-background="new 0 0 82.779 102.189"
	 xml:space="preserve">
<polygon fill="#FFFFFF" points="77.446,102.189 77.446,102.189 78.651,102.189 79.722,101.793 80.662,101.395 81.466,100.734 
	81.999,100.071 82.537,99.145 82.804,98.087 82.804,96.895 82.804,5.048 82.804,5.048 82.804,3.857 82.537,2.799 81.999,1.871 
	81.466,1.21 80.662,0.548 79.722,0.152 78.651,-0.246 77.446,-0.246 5.493,-0.246 5.493,-0.246 4.153,-0.246 3.08,0.152 
	2.142,0.548 1.341,1.21 0.803,1.871 0.268,2.799 -0.001,3.857 -0.001,5.048 -0.001,96.895 -0.001,96.895 -0.001,98.087 
	0.268,99.145 0.803,100.071 1.341,100.734 2.142,101.395 3.08,101.793 4.153,102.189 5.493,102.189 "/>
<path d="M77.446,99.939L77.446,99.939h0.669l0.536-0.267l0.533-0.13l0.536-0.397l0.27-0.396l0.269-0.529l0.268-0.662v-0.662V5.048
	l0,0V4.385l-0.268-0.661L79.99,3.195l-0.27-0.396l-0.536-0.398l-0.533-0.132l-0.536-0.265h-0.669H5.493l0,0H4.69L4.153,2.268
	L3.616,2.401L3.08,2.799L2.814,3.195L2.545,3.724L2.276,4.385v0.662v91.849l0,0v0.661l0.269,0.663l0.269,0.529l0.267,0.396
	l0.536,0.396l0.537,0.131L4.69,99.94h0.804L77.446,99.939L77.446,99.939z M78.382,5.048v91.849l0,0v0.396l-0.267,0.265l-0.27,0.266
	h-0.401H5.493l0,0H4.957L4.69,97.557l-0.27-0.265v-0.396V5.048l0,0V4.651l0.27-0.265l0.268-0.263h0.536h71.953l0,0h0.401
	l0.268,0.263l0.269,0.265v0.397H78.382L78.382,5.048z"/>
<polygon points="25.725,12.063 25.725,28.606 28.54,28.606 28.54,17.092 36.442,28.606 38.989,28.606 38.989,12.063 36.177,12.063 
	36.177,23.178 28.54,12.063 "/>
<path d="M44.885,20.399L44.885,20.399l0.134,1.72l0.401,1.721l0.538,1.456l0.804,1.19l1.071,0.927l1.205,0.795l0.67,0.263
	l0.671,0.265h0.67l0.806,0.133l0,0l0.669-0.133l0.804-0.131l0.67-0.133l0.672-0.264l1.071-0.795l1.073-0.927l0.803-1.323
	l0.672-1.455l0.266-1.588l0.137-1.853l0,0v-1.853l-0.402-1.588l-0.672-1.456l-0.803-1.192l-0.938-1.058l-1.207-0.662l-0.67-0.266
	l-0.672-0.131l-0.669-0.134l-0.804-0.132l0,0l-0.806,0.132l-0.67,0.134l-0.804,0.131l-0.537,0.266l-0.668,0.397l-0.535,0.396
	l-1.071,0.926L45.96,15.37l-0.538,1.589l-0.401,1.587L44.885,20.399L44.885,20.399L44.885,20.399z M55.874,20.268L55.874,20.268
	l-0.134,1.323l-0.269,1.059l-0.268,0.926l-0.535,0.794l-0.536,0.662l-0.67,0.529l-0.805,0.265l-0.938,0.132l0,0l-0.806-0.132
	l-0.804-0.265l-0.668-0.529l-0.537-0.662l-0.536-0.794l-0.268-0.926l-0.268-1.059v-1.323l0,0v-1.191l0.268-1.058l0.401-0.927
	l0.402-0.794l0.669-0.661l0.67-0.53l0.804-0.265l0.806-0.132l0,0l0.804,0.132l0.805,0.265l0.67,0.53l0.67,0.661l0.403,0.794
	l0.268,0.927l0.267,1.058L55.874,20.268L55.874,20.268L55.874,20.268z"/>
<polygon points="22.107,38.266 22.107,49.515 24.251,49.515 24.251,38.266 27.333,38.266 27.333,36.414 19.159,36.414 
	19.159,38.266 "/>
<polygon points="31.487,36.414 29.476,36.414 29.476,45.017 29.476,45.28 29.476,45.28 29.611,46.603 29.878,47.134 30.014,47.664 
	30.014,47.664 30.415,48.192 30.817,48.589 31.753,49.251 32.827,49.648 33.363,49.781 33.898,49.913 33.898,49.913 34.837,49.781 
	35.774,49.515 36.578,49.119 37.113,48.589 37.649,47.796 38.052,47.001 38.319,46.074 38.452,45.149 38.452,45.017 38.452,36.414 
	36.31,36.414 36.31,44.884 36.31,45.149 36.31,45.149 36.31,45.678 36.177,46.207 36.043,46.737 35.641,47.134 35.373,47.399 
	34.97,47.664 34.434,47.796 33.898,47.796 33.898,47.796 33.363,47.796 32.96,47.664 32.559,47.399 32.156,47.134 31.887,46.737 
	31.753,46.207 31.62,45.678 31.487,45.149 31.487,45.017 "/>
<path d="M42.071,36.414v13.101h2.144v-5.69h2.411l2.146,5.69h2.276l-2.276-6.088l0,0l0.936-0.661l0.535-0.795l0.404-0.793
	l0.134-1.06l0,0l-0.134-0.794l-0.135-0.661l-0.403-0.662l-0.536-0.529l-0.535-0.397l-0.668-0.397l-0.803-0.264h-0.804h-0.272H42.071
	L42.071,36.414z M46.895,41.707h-2.681V38.4h2.814h0.132l0,0l0.672,0.132l0.401,0.397l0.268,0.529l0.135,0.663l0,0l-0.135,0.528
	l-0.268,0.53l-0.401,0.396l-0.538,0.132H46.895L46.895,41.707z"/>
<polygon points="53.463,36.414 53.463,49.515 55.471,49.515 55.471,40.516 60.564,49.515 62.305,49.515 62.305,36.414 
	60.295,36.414 60.295,44.752 55.471,36.414 "/>
<path d="M30.951,68.573L30.951,68.573l0.669,0.662l0.804,0.398l0.805,0.265l0.938,0.132l0,0l1.072-0.132l1.072-0.397l0.804-0.53
	l0.67-0.793l0,0l0.403-0.926l0.401-1.191l0.269-1.456v-1.589l0,0l-0.134-1.588l-0.133-1.323l-0.403-1.19l-0.535-0.926l0,0
	l-0.672-0.662l-0.936-0.53l-0.939-0.264l-0.938-0.133l0,0l-1.072,0.133l-0.937,0.264l-0.67,0.53l-0.67,0.794l-0.537,1.059
	l-0.401,1.191l-0.135,1.323l-0.132,1.589l0,0l0.132,1.455l0.135,1.323l0,0l0.401,1.457L30.951,68.573L30.951,68.573L30.951,68.573z
	 M36.845,63.28L36.845,63.28v1.059l-0.132,1.058l-0.271,0.796l-0.266,0.661l-0.402,0.528l-0.401,0.397l-0.536,0.133l-0.67,0.132l0,0
	l-0.67-0.132l-0.67-0.265l-0.403-0.529l-0.267-0.662l0,0l-0.403-1.457l-0.133-1.852l0,0l0.133-1.06l0.134-0.926l0.136-0.927
	l0.266-0.661l0,0l0.403-0.53l0.401-0.396l0.669-0.131l0.537-0.133l0,0h0.67l0.403,0.266l0.536,0.396l0.268,0.529l0.267,0.662
	l0.271,0.926l0.132,0.925V63.28L36.845,63.28L36.845,63.28z"/>
<polygon points="43.813,56.663 43.813,69.764 45.824,69.764 45.824,60.764 50.915,69.764 52.658,69.764 52.658,56.663 
	50.649,56.663 50.649,65 45.824,56.663 "/>
<path d="M25.994,77.839V90.94h2.143v-5.69h2.412l2.278,5.69h2.143l-2.277-6.089l0,0l0.938-0.793l0.669-0.662l0.269-0.927
	l0.135-0.927l0,0l-0.135-0.793l-0.134-0.662l-0.4-0.662l-0.403-0.529l-0.671-0.528l-0.67-0.266l-0.67-0.264h-0.937h-0.268H25.994
	L25.994,77.839z M30.951,83.132h-2.814v-3.309h2.814h0.132l0,0l0.67,0.134l0.403,0.396l0.403,0.527v0.53l0,0v0.662l-0.403,0.53
	L31.753,83l-0.534,0.131L30.951,83.132L30.951,83.132z"/>
<polygon points="38.185,77.839 38.185,90.94 46.359,90.94 46.359,88.822 40.329,88.822 40.329,85.25 44.215,85.25 44.215,83.132 
	40.329,83.132 40.329,79.822 45.96,79.822 45.96,77.839 "/>
<path d="M48.638,77.839V90.94h3.348h0.27l0,0l1.207-0.132l1.071-0.265l0.804-0.663l0.804-0.662l0.67-1.061l0.401-1.058l0.27-1.324
	l0.134-1.456l0,0l-0.134-1.321l-0.27-1.324l-0.401-1.058l-0.536-0.927l-0.804-0.795l-0.803-0.662l-0.938-0.264l-0.938-0.133h-0.271
	h-3.885V77.839z M50.783,88.822v-9h1.606h0.269l0,0l0.669,0.133l0.536,0.266l0.533,0.264l0.404,0.53l0.268,0.662l0.27,0.793
	l0.134,0.927l0.132,0.925l0,0l-0.132,1.061l-0.134,0.793l-0.27,0.795l-0.268,0.662l-0.404,0.527l-0.533,0.399l-0.67,0.264h-0.535
	h-0.269H50.783L50.783,88.822z"/>
<g>
	<path fill="#999999" d="M32.658,94.055v1.708c0,0.126,0.01,0.271,0.02,0.367h-0.387l-0.02-0.243h-0.018
		c-0.128,0.158-0.415,0.275-0.806,0.275c-0.58,0-1.028-0.289-1.028-0.721c-0.005-0.467,0.493-0.754,1.073-0.754
		c0.371,0,0.612,0.103,0.722,0.211h0.012v-0.846L32.658,94.055L32.658,94.055z M32.227,95.29c0-0.032-0.009-0.077-0.021-0.108
		c-0.063-0.161-0.304-0.298-0.629-0.298c-0.449,0-0.718,0.236-0.718,0.543c0,0.285,0.24,0.524,0.707,0.524
		c0.293,0,0.56-0.114,0.64-0.306c0.015-0.037,0.021-0.071,0.021-0.112V95.29z"/>
	<path fill="#999999" d="M33.385,95.097c0-0.146-0.011-0.267-0.021-0.379h0.381l0.021,0.229h0.018
		c0.133-0.134,0.354-0.259,0.756-0.259c0.32,0,0.568,0.114,0.672,0.281h0.01c0.074-0.08,0.177-0.142,0.271-0.183
		c0.145-0.064,0.297-0.1,0.521-0.1c0.319,0,0.791,0.121,0.791,0.612v0.828h-0.426v-0.796c0-0.272-0.173-0.434-0.52-0.434
		c-0.252,0-0.44,0.11-0.521,0.23c-0.02,0.04-0.035,0.08-0.035,0.129v0.874h-0.425v-0.848c0-0.226-0.168-0.386-0.5-0.386
		c-0.267,0-0.47,0.128-0.539,0.257c-0.021,0.036-0.034,0.08-0.034,0.126v0.85h-0.426v-1.033L33.385,95.097L33.385,95.097z"/>
	<path fill="#999999" d="M37.615,94.716l0.469,0.788c0.08,0.132,0.146,0.245,0.193,0.366h0.016c0.055-0.114,0.123-0.235,0.203-0.366
		l0.463-0.788h0.455l-0.938,1.411h-0.415l-0.91-1.411H37.615z"/>
	<path fill="#999999" d="M41.839,94.055v1.708c0,0.126,0.014,0.271,0.021,0.367h-0.391l-0.021-0.243h-0.015
		c-0.132,0.158-0.416,0.275-0.81,0.275c-0.578,0-1.027-0.289-1.027-0.721c-0.006-0.467,0.494-0.754,1.072-0.754
		c0.371,0,0.613,0.103,0.726,0.211h0.012v-0.846L41.839,94.055L41.839,94.055z M41.405,95.29c0-0.032-0.004-0.077-0.021-0.108
		c-0.063-0.161-0.304-0.298-0.629-0.298c-0.449,0-0.717,0.236-0.717,0.543c0,0.285,0.24,0.524,0.707,0.524
		c0.292,0,0.559-0.114,0.639-0.306c0.019-0.037,0.021-0.071,0.021-0.112V95.29z"/>
	<path fill="#999999" d="M44.246,95.789c0,0.12,0.014,0.24,0.034,0.337h-0.395l-0.03-0.177h-0.02
		c-0.133,0.112-0.394,0.209-0.729,0.209c-0.481,0-0.729-0.203-0.729-0.404c0-0.338,0.52-0.53,1.438-0.527v-0.028
		c0-0.112-0.061-0.328-0.543-0.324c-0.229,0-0.461,0.039-0.629,0.106l-0.103-0.174c0.193-0.074,0.484-0.12,0.79-0.12
		c0.729,0,0.91,0.294,0.91,0.572L44.246,95.789L44.246,95.789z M43.825,95.406c-0.479-0.009-1.014,0.046-1.014,0.317
		c0,0.171,0.188,0.244,0.4,0.244c0.313,0,0.521-0.116,0.589-0.238c0.021-0.029,0.021-0.059,0.021-0.081L43.825,95.406L43.825,95.406
		z"/>
	<path fill="#999999" d="M44.845,95.975c0-0.107,0.125-0.183,0.301-0.183c0.174,0,0.293,0.077,0.293,0.183s-0.119,0.182-0.307,0.182
		C44.966,96.159,44.845,96.08,44.845,95.975z"/>
	<path fill="#999999" d="M47.679,96.077c-0.109,0.032-0.361,0.08-0.688,0.08c-0.723,0-1.19-0.289-1.19-0.722
		c0-0.435,0.504-0.755,1.285-0.755c0.258,0,0.483,0.039,0.604,0.079l-0.104,0.195c-0.104-0.033-0.267-0.066-0.504-0.066
		c-0.55,0-0.847,0.24-0.847,0.529c0,0.33,0.354,0.53,0.832,0.53c0.246,0,0.408-0.035,0.528-0.067L47.679,96.077z"/>
	<path fill="#999999" d="M50.324,95.409c0,0.524-0.617,0.752-1.189,0.752c-0.645,0-1.146-0.277-1.146-0.724
		c0-0.468,0.523-0.748,1.187-0.748C49.861,94.686,50.324,94.98,50.324,95.409z M48.43,95.425c0,0.307,0.3,0.542,0.726,0.542
		c0.416,0,0.729-0.232,0.729-0.551c0-0.24-0.198-0.537-0.717-0.537C48.654,94.88,48.43,95.159,48.43,95.425z"/>
	<path fill="#999999" d="M50.875,95.097c0-0.146-0.012-0.267-0.02-0.379h0.381l0.02,0.229h0.021
		c0.135-0.134,0.354-0.259,0.756-0.259c0.32,0,0.565,0.114,0.674,0.281h0.01c0.074-0.08,0.172-0.142,0.271-0.183
		c0.145-0.064,0.297-0.1,0.521-0.1c0.32,0,0.791,0.121,0.791,0.612v0.828h-0.426v-0.796c0-0.272-0.174-0.434-0.52-0.434
		c-0.257,0-0.439,0.11-0.521,0.23c-0.021,0.04-0.035,0.08-0.035,0.129v0.874h-0.422v-0.848c0-0.226-0.168-0.386-0.498-0.386
		c-0.271,0-0.475,0.128-0.539,0.257c-0.022,0.036-0.035,0.08-0.035,0.126v0.85h-0.426v-1.034H50.875z"/>
</g>
</svg>
