<?xml version="1.0" encoding="utf-8"?>
<!-- Generator: Adobe Illustrator 15.0.0, SVG Export Plug-In . SVG Version: 6.00 Build 0)  -->
<!DOCTYPE svg PUBLIC "-//W3C//DTD SVG 1.1//EN" "http://www.w3.org/Graphics/SVG/1.1/DTD/svg11.dtd">
<svg version="1.1" id="Layer_1" xmlns="http://www.w3.org/2000/svg" xmlns:xlink="http://www.w3.org/1999/xlink" x="0px" y="0px"
	 width="88.097px" height="102.189px" viewBox="0 0 88.097 102.189" enable-background="new 0 0 88.097 102.189"
	 xml:space="preserve">
<g>
	<polygon fill="#FFFFFF" points="82.076,102.189 82.076,102.189 83.188,102.044 84.049,101.754 84.916,101.314 85.53,100.732 
		86.026,99.858 86.393,98.985 86.64,97.965 86.764,96.8 86.764,5.323 86.764,5.323 86.64,4.157 86.393,3.137 86.026,2.265 
		85.53,1.39 84.916,0.807 84.049,0.37 83.188,0.079 82.076,-0.067 5.104,-0.067 5.104,-0.067 3.994,0.079 3.13,0.37 2.268,0.807 
		1.65,1.39 1.156,2.265 0.787,3.137 0.54,4.157 0.417,5.323 0.417,96.8 0.417,96.8 0.54,97.965 0.787,98.985 1.156,99.858 
		1.65,100.732 2.268,101.314 3.13,101.754 3.994,102.044 5.104,102.189 	"/>
	<path d="M26.568,18.433v26.801h3.455V27.027l8.757,18.208h2.96V18.433h-3.454v17.042l-8.141-17.042H26.568L26.568,18.433
		L26.568,18.433z M48.773,42.76L48.773,42.76l0.491,0.581l0.617,0.583L50.5,44.36l0.739,0.437l0.739,0.438l0.742,0.145l0.737,0.292
		h0.864l0,0l0.865-0.145l0.861-0.146l0.864-0.292l0.866-0.437l0.738-0.583l0.618-0.581l0.615-0.728l0.493-0.729l0,0l0.493-1.021
		l0.37-1.02l0.368-1.311l0.248-1.167l0.369-2.913l0.125-3.204l0,0l-0.125-1.604v-1.456l-0.246-1.458l-0.249-1.456l-0.245-1.312
		l-0.372-1.021l-0.489-1.165l-0.494-0.874l0,0l-0.493-0.583l-0.617-0.728l-0.618-0.438l-0.74-0.583l-0.863-0.29l-0.741-0.292
		l-0.863-0.146l-0.862-0.146l0,0l-0.864,0.146l-0.863,0.146l-0.864,0.292l-0.739,0.437l-0.619,0.436l-0.617,0.583l-0.615,0.729
		l-0.492,0.876l-0.493,1.02l-0.37,1.021l-0.368,1.165l-0.248,1.165l-0.247,1.456l-0.124,1.457l-0.124,3.205l0,0l0.124,2.913
		l0.247,2.767l0,0l0.37,1.458l0.368,1.311l0.493,1.164L48.773,42.76L48.773,42.76L48.773,42.76L48.773,42.76z M58.763,31.834
		L58.763,31.834l-0.122,2.331l-0.124,1.895l-0.369,1.748l-0.494,1.313l-0.617,1.021l-0.863,0.873L55.31,41.45l-0.988,0.146l0,0
		l-0.739-0.146l-0.493-0.145l-0.618-0.146l-0.369-0.438l-0.494-0.437l-0.368-0.583l-0.247-0.582l-0.248-0.729l0,0l-0.368-1.457
		l-0.124-1.604l-0.246-1.893V31.69l0,0v-2.186l0.246-2.04l0.371-1.749l0.492-1.311l0,0l0.247-0.583l0.245-0.438l0.864-0.728
		l0.986-0.438l0.989-0.29l0,0l0.984,0.145l0.865,0.583l0.739,0.728l0.617,1.021l0.494,1.457l0.369,1.747l0.124,2.042L58.763,31.834
		L58.763,31.834L58.763,31.834L58.763,31.834z M12.26,65.337V83.98h2.959V65.337h4.071v-3.06H8.188v3.06H12.26L12.26,65.337
		L12.26,65.337z M24.84,62.277h-2.836v14.273v0.294l0,0l0.124,1.164l0.122,1.021l0.248,1.021l0.37,0.873l0,0l0.37,0.729l0.617,0.729
		l0.617,0.583l0.617,0.583l0.74,0.437l0.74,0.293l0.864,0.146l0.741,0.146l0,0l1.356-0.146l1.11-0.438l1.108-0.728l0.865-0.875
		l0.74-1.166l0.617-1.309l0.246-1.604l0.123-1.604v-0.291v-14.13h-2.835v14.13v0.291l0,0v1.02l-0.248,0.874l-0.247,0.729
		l-0.37,0.584l-0.494,0.436l-0.618,0.438l-0.617,0.291h-0.74l0,0h-0.741l-0.617-0.291l-0.617-0.294l-0.37-0.58l-0.494-0.584
		l-0.247-0.729l-0.124-0.874l-0.124-1.02v-0.291v-14.13L24.84,62.277L24.84,62.277z M37.546,62.277V83.98h2.836v-9.467h3.454
		l2.962,9.467h3.083l-3.083-10.049l0,0l0.616-0.584l0.617-0.582l0.494-0.583l0.37-0.728l0.246-0.585l0.246-0.729l0.124-0.872v-0.876
		l0,0l-0.124-1.164l-0.246-1.165l-0.494-1.167l-0.617-0.874l-0.862-0.729l-0.988-0.583l-0.988-0.292l-1.109-0.146h-0.371
		L37.546,62.277L37.546,62.277L37.546,62.277z M44.33,71.017l-3.947,0.146v-5.536h3.947h0.248l0,0l0.493,0.146l0.369,0.146
		l0.37,0.146l0.247,0.436l0.248,0.292l0.247,0.583l0.123,0.438v0.582l0,0v0.438l-0.123,0.583l-0.247,0.438l-0.248,0.437
		l-0.247,0.293l-0.37,0.289l-0.369,0.146H44.7L44.33,71.017L44.33,71.017L44.33,71.017z M51.978,62.277V83.98h2.714V69.125
		l7.155,14.855h2.465V62.277h-2.837v13.838l-6.661-13.838H51.978L51.978,62.277L51.978,62.277z M68.878,77.573l-2.714,1.018
		l0.124,0.292l0,0l0.738,1.604l0.742,1.311l0,0l0.489,0.583l0.495,0.438l0.616,0.437l0.619,0.438l1.479,0.583l0.741,0.146h0.739l0,0
		l1.111-0.146l0.986-0.439l0.985-0.58l0.864-0.729l0.617-1.021l0.494-1.166l0.369-1.165l0.123-1.313l0,0l-0.123-1.312l-0.247-1.166
		l-0.492-1.019l-0.618-1.021l-0.741-0.728l-0.862-0.729l-0.987-0.583l-1.235-0.291l-1.233-0.29l0,0l-0.985-0.438l-0.618-0.436
		l-0.122-0.292l-0.124-0.291l-0.124-0.876l0,0v-0.729l0.124-0.436l0.246-0.584l0.371-0.437l0.37-0.438l0.492-0.146l0.493-0.291
		h0.493l0,0l0.863,0.146l0.74,0.436l0.494,0.582l0.617,1.166l2.715-1.02l0,0l-0.37-1.021l-0.493-1.018l-0.492-0.73l-0.741-0.729
		l-0.74-0.582l-0.739-0.291l-0.863-0.291l-0.989-0.143l0,0l-0.987,0.146l-1.11,0.436l-0.986,0.582l-0.74,0.875l-0.74,0.874
		l-0.618,1.165l-0.246,1.167l-0.124,1.311l0,0v0.876l0.248,1.019l0.369,0.874l0.369,0.729l0.616,0.729l0.617,0.582l0.617,0.436
		l0.741,0.147l1.848,0.438l0,0l0.74,0.144l0.617,0.291l0.494,0.438l0.493,0.437l0.37,0.438l0.247,0.581l0.123,0.729l0.123,0.582l0,0
		l-0.123,0.729l-0.123,0.584l-0.247,0.438l-0.37,0.583l-0.368,0.29l-0.494,0.293l-0.494,0.291h-0.613l0,0h-0.618l-0.615-0.146
		l-0.493-0.294l-0.616-0.435L70.11,79.76l-0.491-0.582l-0.372-0.728L68.878,77.573L68.878,77.573L68.878,77.573L68.878,77.573z
		 M82.076,99.858L82.076,99.858l0.618-0.146l0.492-0.146l0.492-0.146l0.369-0.436l0.372-0.438l0.122-0.438l0.246-0.729v-0.584V5.323
		l0,0V4.74l-0.246-0.728L84.42,3.576l-0.372-0.438l-0.369-0.437l-0.492-0.146L82.695,2.41l-0.618-0.145H5.104l0,0L4.488,2.409
		L3.994,2.555L3.502,2.701L3.13,3.137L2.761,3.575L2.637,4.01L2.39,4.74v0.583V96.8l0,0v0.583l0.247,0.729l0.125,0.438l0.369,0.438
		l0.372,0.436l0.493,0.146l0.495,0.146l0.617,0.146h76.97V99.858L82.076,99.858z M83.063,5.323V96.8l0,0l-0.123,0.438l-0.124,0.29
		l-0.369,0.145h-0.368H5.104l0,0H4.733l-0.369-0.145l-0.124-0.29L4.116,96.8V5.323l0,0L4.24,4.885l0.124-0.292l0.369-0.146h0.371
		h76.971l0,0h0.37l0.369,0.146l0.123,0.292L83.063,5.323L83.063,5.323L83.063,5.323L83.063,5.323z"/>
</g>
<g>
	<path fill="#999999" d="M34.717,92.04v2.219c0,0.163,0.011,0.354,0.021,0.479H34.35l-0.02-0.315h-0.017
		c-0.128,0.204-0.415,0.357-0.807,0.357c-0.58,0-1.027-0.375-1.027-0.938c-0.006-0.604,0.492-0.979,1.072-0.979
		c0.371,0,0.611,0.133,0.723,0.271h0.01v-1.098L34.717,92.04L34.717,92.04z M34.286,93.642c0-0.042-0.006-0.102-0.021-0.143
		c-0.063-0.209-0.303-0.386-0.629-0.386c-0.447,0-0.717,0.307-0.717,0.705c0,0.368,0.241,0.68,0.707,0.68
		c0.293,0,0.561-0.146,0.639-0.396c0.017-0.047,0.021-0.093,0.021-0.146V93.642z"/>
	<path fill="#999999" d="M35.445,93.392c0-0.189-0.012-0.347-0.021-0.492h0.381l0.021,0.3h0.016
		c0.134-0.175,0.355-0.337,0.756-0.337c0.32,0,0.568,0.146,0.674,0.364h0.01c0.074-0.104,0.174-0.186,0.271-0.236
		c0.146-0.083,0.297-0.129,0.523-0.129c0.319,0,0.791,0.155,0.791,0.795v1.073H38.44v-1.032c0-0.354-0.175-0.563-0.521-0.563
		c-0.252,0-0.439,0.145-0.521,0.3c-0.021,0.053-0.035,0.104-0.035,0.167v1.137h-0.425v-1.104c0-0.292-0.168-0.5-0.5-0.5
		c-0.269,0-0.472,0.166-0.539,0.333c-0.023,0.048-0.034,0.104-0.034,0.163v1.104H35.44v-1.342L35.445,93.392L35.445,93.392z"/>
	<path fill="#999999" d="M39.674,92.896l0.47,1.023c0.079,0.172,0.145,0.319,0.192,0.477h0.017c0.055-0.148,0.122-0.306,0.202-0.477
		l0.464-1.023h0.454l-0.938,1.833h-0.417l-0.91-1.833H39.674z"/>
	<path fill="#999999" d="M43.898,92.04v2.219c0,0.163,0.012,0.354,0.021,0.479h-0.388l-0.021-0.315h-0.016
		c-0.129,0.204-0.417,0.357-0.81,0.357c-0.577,0-1.025-0.375-1.025-0.938c-0.007-0.604,0.493-0.979,1.071-0.979
		c0.37,0,0.612,0.133,0.725,0.271h0.012v-1.098L43.898,92.04L43.898,92.04z M43.465,93.642c0-0.042-0.004-0.102-0.021-0.143
		c-0.063-0.209-0.306-0.386-0.629-0.386c-0.448,0-0.718,0.307-0.718,0.705c0,0.368,0.238,0.68,0.707,0.68
		c0.291,0,0.562-0.146,0.64-0.396c0.018-0.047,0.021-0.093,0.021-0.146V93.642z"/>
	<path fill="#999999" d="M46.305,94.29c0,0.158,0.016,0.313,0.033,0.438h-0.395l-0.031-0.229h-0.019
		c-0.135,0.146-0.396,0.271-0.729,0.271c-0.479,0-0.729-0.265-0.729-0.524c0-0.438,0.52-0.688,1.438-0.686v-0.037
		c0-0.146-0.059-0.425-0.543-0.42c-0.229,0-0.461,0.052-0.629,0.139L44.6,93.015c0.192-0.099,0.483-0.156,0.79-0.156
		c0.729,0,0.91,0.383,0.91,0.744L46.305,94.29L46.305,94.29z M45.885,93.794c-0.478-0.012-1.014,0.061-1.014,0.41
		c0,0.224,0.188,0.316,0.4,0.316c0.313,0,0.521-0.149,0.589-0.31c0.021-0.038,0.021-0.076,0.021-0.104L45.885,93.794L45.885,93.794z
		"/>
	<path fill="#999999" d="M46.906,94.533c0-0.14,0.125-0.236,0.297-0.236c0.174,0,0.293,0.101,0.293,0.236
		c0,0.137-0.119,0.235-0.303,0.235C47.025,94.771,46.906,94.669,46.906,94.533z"/>
	<path fill="#999999" d="M49.74,94.665c-0.113,0.042-0.365,0.104-0.688,0.104c-0.726,0-1.189-0.375-1.189-0.938
		c0-0.563,0.505-0.979,1.285-0.979c0.258,0,0.482,0.052,0.604,0.103l-0.104,0.253c-0.104-0.042-0.27-0.086-0.505-0.086
		c-0.55,0-0.849,0.313-0.849,0.688c0,0.429,0.354,0.688,0.832,0.688c0.246,0,0.407-0.045,0.53-0.087L49.74,94.665z"/>
	<path fill="#999999" d="M52.385,93.798c0,0.682-0.618,0.977-1.189,0.977c-0.645,0-1.146-0.36-1.146-0.938
		c0-0.606,0.524-0.972,1.188-0.972C51.92,92.856,52.385,93.24,52.385,93.798z M50.491,93.815c0,0.398,0.297,0.704,0.725,0.704
		c0.416,0,0.729-0.302,0.729-0.714c0-0.313-0.196-0.699-0.717-0.699C50.713,93.109,50.491,93.472,50.491,93.815z"/>
	<path fill="#999999" d="M52.933,93.392c0-0.189-0.011-0.347-0.021-0.492h0.381l0.021,0.3h0.019
		c0.135-0.175,0.354-0.337,0.756-0.337c0.32,0,0.565,0.146,0.676,0.364h0.011c0.073-0.104,0.172-0.186,0.271-0.236
		c0.146-0.083,0.297-0.129,0.521-0.129c0.318,0,0.789,0.155,0.789,0.795v1.073h-0.428v-1.032c0-0.354-0.172-0.563-0.518-0.563
		c-0.258,0-0.441,0.145-0.521,0.3c-0.021,0.053-0.033,0.104-0.033,0.167v1.137H54.43v-1.104c0-0.292-0.168-0.5-0.497-0.5
		c-0.271,0-0.474,0.166-0.538,0.333c-0.022,0.048-0.033,0.104-0.033,0.163v1.104h-0.429V93.392L52.933,93.392z"/>
</g>
</svg>
