<?xml version="1.0" encoding="utf-8"?>
<!-- Generator: Adobe Illustrator 15.0.0, SVG Export Plug-In . SVG Version: 6.00 Build 0)  -->
<!DOCTYPE svg PUBLIC "-//W3C//DTD SVG 1.1//EN" "http://www.w3.org/Graphics/SVG/1.1/DTD/svg11.dtd">
<svg version="1.1" id="Layer_1" xmlns="http://www.w3.org/2000/svg" xmlns:xlink="http://www.w3.org/1999/xlink" x="0px" y="0px"
	 width="119.25px" height="118.98px" viewBox="0 0 119.25 118.98" enable-background="new 0 0 119.25 118.98" xml:space="preserve">
<g>
	<g>
		<polygon fill="#FFFFFF" points="108.282,113.881 108.282,113.881 109.672,113.881 110.755,113.572 111.682,113.107 
			112.61,112.336 113.228,111.563 113.688,110.636 113.999,109.555 114.154,108.164 114.154,10.816 114.154,10.816 113.999,9.426 
			113.688,8.344 113.228,7.417 112.61,6.644 111.682,5.871 110.755,5.408 109.672,5.099 108.282,5.099 11.244,5.099 11.244,5.099 
			9.854,5.099 8.772,5.408 7.845,5.871 6.917,6.644 6.299,7.417 5.835,8.344 5.527,9.426 5.373,10.816 5.373,108.164 5.373,108.164 
			5.527,109.555 5.835,110.636 6.299,111.563 6.917,112.336 7.845,113.107 8.772,113.572 9.854,113.881 11.244,113.881 		"/>
		<path fill="none" stroke="#020200" stroke-miterlimit="10" d="M111.682,10.816L111.682,10.816l-0.155-0.773l-0.154-0.617
			l-0.309-0.619l-0.309-0.463l-0.464-0.309l-0.619-0.311l-0.617-0.154h-0.774H11.244l0,0h-0.772L9.854,7.724L9.235,8.035
			L8.772,8.344l-0.31,0.464L8.153,9.426l-0.155,0.617l-0.153,0.773v97.348l0,0l0.154,0.772l0.155,0.62l0.309,0.617l0.309,0.464
			l0.463,0.309l0.618,0.309l0.617,0.155h0.772h97.038l0,0l0,0h0.774l0.617-0.155l0.618-0.309l0.464-0.309l0.309-0.464l0.309-0.617
			l0.155-0.62l0.155-0.772"/>
		<path fill="#E03127" d="M59.763,105.073L59.763,105.073h2.318l2.317-0.154l2.317-0.31l2.317-0.464l2.164-0.463l2.163-0.618
			l2.163-0.773l2.011-0.772l2.009-0.927l2.01-0.928l1.853-1.082l1.855-1.236l1.855-1.235l1.699-1.392l1.7-1.391l1.546-1.546
			l1.546-1.547l1.391-1.699l1.392-1.7l1.235-1.854l1.237-1.854l1.08-1.854l0.929-2.01l0.927-2.01l0.771-2.01l0.775-2.163
			l0.617-2.163l0.463-2.164l0.463-2.317l0.311-2.318l0.154-2.316v-2.318l0,0v-2.317l-0.154-2.318l-0.311-2.317l-0.463-2.318
			l-0.463-2.163l-0.617-2.164l-0.775-2.163l-0.771-2.01l-0.927-2.008l-0.929-2.01l-1.08-1.854l-1.237-1.855l-1.235-1.854l-1.392-1.7
			l-1.391-1.7l-1.546-1.544l-1.546-1.545l-1.7-1.391l-1.699-1.39l-1.855-1.238l-1.855-1.236l-1.853-1.082l-2.01-0.927l-2.009-0.928
			l-2.011-0.772l-2.163-0.772l-2.163-0.618l-2.164-0.463l-2.317-0.463l-2.317-0.309l-2.317-0.155h-2.318l0,0h-2.318l-2.318,0.155
			l-2.318,0.309l-2.318,0.463l-2.164,0.463l-2.164,0.618l-2.163,0.772l-2.009,0.772l-2.008,0.928l-2.009,0.927l-1.854,1.082
			l-1.855,1.236l-1.854,1.238l-1.7,1.39l-1.7,1.391l-1.544,1.545l-1.545,1.544l-1.391,1.7l-1.391,1.7l-1.237,1.854l-1.236,1.855
			l-1.082,1.854l-0.927,2.01l-0.928,2.008l-0.771,2.01l-0.772,2.163l-0.619,2.164l-0.463,2.163l-0.463,2.318l-0.309,2.317
			l-0.154,2.318v2.317l0,0v2.318l0.154,2.316l0.309,2.318l0.463,2.317l0.463,2.164l0.619,2.163l0.772,2.163l0.771,2.01l0.928,2.01
			l0.927,2.01l1.082,1.854l1.236,1.854l1.237,1.854l1.391,1.7l1.391,1.699l1.545,1.547l1.544,1.546l1.7,1.391l1.7,1.392l1.854,1.235
			l1.855,1.236l1.854,1.082l2.009,0.928l2.008,0.927l2.009,0.772l2.163,0.773l2.164,0.618l2.164,0.463l2.318,0.464l2.318,0.31
			l2.318,0.154H59.763L59.763,105.073L59.763,105.073z M59.763,20.86L59.763,20.86h2.009l1.854,0.155l2.008,0.309l1.855,0.309
			l1.855,0.463l1.854,0.463l1.854,0.618l1.701,0.619l3.398,1.7l3.089,1.854l3.092,2.316l2.626,2.473l2.626,2.781l2.164,2.936
			l1.854,3.091l1.698,3.399l0.619,1.854l0.617,1.7l0.619,1.854l0.464,1.854l0.31,1.854l0.153,2.009l0.156,1.855l0.154,2.009l0,0
			l-0.154,3.708l-0.464,3.399l-0.772,3.245l-0.929,3.09l-1.236,2.936l-1.545,2.781l-1.7,2.626l-1.854,2.472L35.659,29.358l0,0
			l2.472-1.853l2.782-1.7l2.781-1.546l3.091-1.236l3.089-0.927l3.246-0.772l3.245-0.309L59.763,20.86L59.763,20.86L59.763,20.86z
			 M29.631,35.385L29.631,35.385l27.041,27.04l27.041,27.195l0,0l-2.472,1.855l-2.781,1.546l-2.78,1.544l-2.937,1.238l-3.089,0.927
			l-3.245,0.617l-3.245,0.464l-3.399,0.155l0,0h-2.009l-1.854-0.155l-2.008-0.31l-1.854-0.309l-1.855-0.463l-1.854-0.464
			l-1.854-0.617l-1.7-0.774l-3.399-1.544l-3.09-2.01l-3.091-2.164l-2.626-2.474l-2.627-2.779l-2.163-2.937l-1.855-3.243l-1.7-3.4
			l-0.617-1.699l-0.618-1.854l-0.619-1.702l-0.463-2.009l-0.309-1.854l-0.154-1.855l-0.154-2.009l-0.156-2.008l0,0l0.154-3.554
			l0.463-3.399l0.772-3.245l0.926-2.936l1.236-2.936l1.391-2.782l1.7-2.627L29.631,35.385L29.631,35.385L29.631,35.385z"/>
		<polygon points="41.375,34.922 50.028,43.729 50.028,43.729 50.956,42.647 51.883,41.566 52.965,40.793 54.046,40.02 
			55.437,39.403 56.672,38.939 58.064,38.784 59.609,38.63 59.609,38.63 60.689,38.63 61.926,38.784 63.007,39.093 64.09,39.557 
			65.018,40.02 66.099,40.638 66.871,41.257 67.798,42.029 68.417,42.802 69.189,43.729 69.652,44.656 70.27,45.583 70.579,46.665 
			70.889,47.747 71.044,48.983 71.044,50.219 71.044,64.588 83.403,76.95 83.403,50.219 83.403,50.219 83.249,47.747 82.94,45.428 
			82.323,43.111 81.552,40.947 80.469,38.784 79.388,36.93 77.997,35.076 76.452,33.376 74.752,31.83 72.897,30.44 70.889,29.203 
			68.881,28.276 66.717,27.349 64.398,26.886 62.081,26.423 59.609,26.269 59.609,26.269 56.827,26.423 54.2,26.886 51.728,27.659 
			49.41,28.74 47.093,29.976 44.93,31.367 43.075,33.066 41.375,34.922 		"/>
		<polygon points="81.858,87.613 70.732,76.487 70.732,87.613 		"/>
		<polygon points="47.711,53.309 36.585,42.183 36.585,42.183 35.967,44.038 35.659,45.892 35.504,47.747 35.349,49.755 
			35.349,63.507 28.859,61.5 28.859,61.5 28.395,61.344 27.932,61.344 27.005,61.5 26.232,61.963 25.614,62.58 25.614,62.58 
			25.306,63.198 25.306,63.97 25.46,64.898 25.923,65.825 41.53,88.076 56.982,65.825 56.982,65.825 57.445,65.208 57.601,64.588 
			57.754,63.97 57.754,63.507 55.592,61.344 55.592,61.344 54.973,61.344 54.2,61.5 47.711,63.507 		"/>
	</g>
	<line fill="none" stroke="#020200" stroke-miterlimit="10" x1="111.682" y1="10.816" x2="111.682" y2="108.164"/>
</g>
<g enable-background="new    ">
	<path fill="#999999" d="M51.543,106.48v2.729c0,0.201,0.01,0.432,0.02,0.582h-0.386l-0.02-0.394h-0.013
		c-0.128,0.255-0.415,0.441-0.806,0.441c-0.579,0-1.028-0.462-1.028-1.146c-0.005-0.752,0.494-1.207,1.073-1.207
		c0.371,0,0.613,0.164,0.722,0.34h0.01v-1.35L51.543,106.48L51.543,106.48z M51.112,108.454c0-0.052-0.005-0.121-0.02-0.173
		c-0.064-0.258-0.302-0.473-0.628-0.473c-0.45,0-0.717,0.374-0.717,0.866c0,0.455,0.242,0.839,0.707,0.839
		c0.292,0,0.559-0.188,0.638-0.491c0.015-0.062,0.02-0.11,0.02-0.181V108.454z"/>
	<path fill="#999999" d="M52.271,108.147c0-0.239-0.01-0.425-0.02-0.609h0.38l0.02,0.368h0.015c0.133-0.215,0.356-0.413,0.756-0.413
		c0.321,0,0.569,0.188,0.671,0.45h0.01c0.074-0.131,0.174-0.225,0.271-0.295c0.145-0.104,0.297-0.157,0.524-0.157
		c0.321,0,0.791,0.195,0.791,0.979v1.323h-0.425v-1.271c0-0.438-0.174-0.694-0.52-0.694c-0.252,0-0.439,0.174-0.52,0.369
		c-0.02,0.061-0.034,0.132-0.034,0.206v1.396h-0.425v-1.354c0-0.358-0.168-0.615-0.5-0.615c-0.267,0-0.47,0.207-0.539,0.412
		c-0.025,0.058-0.035,0.133-0.035,0.201v1.354h-0.425v-1.646h0.003v-0.005L52.271,108.147L52.271,108.147z"/>
	<path fill="#999999" d="M56.501,107.535l0.471,1.267c0.078,0.21,0.144,0.396,0.192,0.582h0.015
		c0.055-0.188,0.125-0.374,0.203-0.582l0.465-1.267h0.455l-0.939,2.26h-0.415l-0.91-2.26H56.501z"/>
	<path fill="#999999" d="M60.727,106.48v2.729c0,0.201,0.01,0.432,0.021,0.582H60.36l-0.021-0.394h-0.016
		c-0.129,0.255-0.416,0.441-0.806,0.441c-0.579,0-1.027-0.462-1.027-1.146c-0.005-0.752,0.494-1.207,1.072-1.207
		c0.371,0,0.612,0.164,0.722,0.34h0.013v-1.35L60.727,106.48L60.727,106.48z M60.293,108.454c0-0.052-0.004-0.121-0.021-0.173
		c-0.063-0.258-0.303-0.473-0.629-0.473c-0.449,0-0.717,0.374-0.717,0.866c0,0.455,0.242,0.839,0.707,0.839
		c0.294,0,0.561-0.188,0.641-0.491c0.016-0.062,0.02-0.11,0.02-0.181L60.293,108.454L60.293,108.454z"/>
	<path fill="#999999" d="M63.133,109.253c0,0.194,0.012,0.39,0.035,0.54h-0.395l-0.031-0.284h-0.018
		c-0.138,0.181-0.396,0.336-0.73,0.336c-0.482,0-0.73-0.322-0.73-0.647c0-0.546,0.516-0.846,1.438-0.841v-0.047
		c0-0.186-0.059-0.524-0.543-0.521c-0.229,0-0.461,0.063-0.629,0.17l-0.1-0.272c0.195-0.116,0.486-0.194,0.791-0.194
		c0.73,0,0.906,0.472,0.906,0.921v0.849h0.004v-0.005h0.002V109.253z M62.713,108.641c-0.479-0.015-1.018,0.066-1.018,0.508
		c0,0.271,0.188,0.395,0.406,0.395c0.313,0,0.521-0.188,0.588-0.378c0.02-0.048,0.021-0.096,0.021-0.131v-0.394H62.713z"/>
	<path fill="#999999" d="M63.732,109.552c0-0.17,0.125-0.296,0.297-0.296c0.175,0,0.293,0.121,0.293,0.296
		c0,0.168-0.118,0.299-0.305,0.299C63.852,109.844,63.732,109.719,63.732,109.552z"/>
	<path fill="#999999" d="M66.566,109.715c-0.112,0.058-0.365,0.137-0.688,0.137c-0.727,0-1.191-0.465-1.191-1.155
		c0-0.692,0.506-1.201,1.285-1.201c0.258,0,0.484,0.06,0.604,0.122l-0.1,0.313c-0.104-0.054-0.268-0.104-0.506-0.104
		c-0.549,0-0.846,0.388-0.846,0.854c0,0.523,0.354,0.849,0.832,0.849c0.246,0,0.404-0.058,0.527-0.104L66.566,109.715z"/>
	<path fill="#999999" d="M69.213,108.646c0,0.835-0.617,1.197-1.189,1.197c-0.645,0-1.145-0.446-1.145-1.158
		c0-0.752,0.527-1.196,1.188-1.196C68.748,107.488,69.213,107.959,69.213,108.646z M67.318,108.669c0,0.494,0.297,0.87,0.723,0.87
		c0.416,0,0.729-0.372,0.729-0.879c0-0.384-0.201-0.864-0.717-0.864C67.541,107.797,67.318,108.244,67.318,108.669z"/>
	<path fill="#999999" d="M69.764,108.147c0-0.239-0.012-0.425-0.021-0.609h0.382l0.021,0.368h0.019
		c0.137-0.215,0.354-0.413,0.756-0.413c0.321,0,0.567,0.188,0.676,0.45h0.013c0.071-0.131,0.174-0.225,0.271-0.295
		c0.146-0.104,0.297-0.157,0.521-0.157c0.321,0,0.791,0.195,0.791,0.979v1.323h-0.427v-1.271c0-0.438-0.172-0.694-0.521-0.694
		c-0.254,0-0.438,0.174-0.521,0.369c-0.021,0.061-0.032,0.132-0.032,0.206v1.396h-0.427v-1.354c0-0.358-0.168-0.615-0.498-0.615
		c-0.27,0-0.471,0.207-0.538,0.412c-0.021,0.058-0.035,0.133-0.035,0.201v1.354h-0.427v-1.646l0,0L69.764,108.147L69.764,108.147z"
		/>
</g>
</svg>
