<?xml version="1.0" encoding="utf-8"?>
<!-- Generator: Adobe Illustrator 15.0.0, SVG Export Plug-In . SVG Version: 6.00 Build 0)  -->
<!DOCTYPE svg PUBLIC "-//W3C//DTD SVG 1.1//EN" "http://www.w3.org/Graphics/SVG/1.1/DTD/svg11.dtd">
<svg version="1.1" id="Layer_1" xmlns="http://www.w3.org/2000/svg" xmlns:xlink="http://www.w3.org/1999/xlink" x="0px" y="0px"
	 width="82.779px" height="102.189px" viewBox="0 0 82.779 102.189" enable-background="new 0 0 82.779 102.189"
	 xml:space="preserve">
<polygon fill="#FFFFFF" points="1.26,101.081 1.26,101.081 2.235,101.635 3.209,102.052 3.209,102.052 4.186,102.19 5.022,102.19 
	77.482,102.19 77.482,102.19 78.459,102.19 79.574,101.913 80.551,101.498 81.385,100.804 81.385,100.804 82.082,99.973 
	82.501,99.006 82.639,98.034 82.779,97.066 82.779,5.123 82.779,5.123 82.639,4.015 82.362,3.045 81.944,1.938 81.247,1.107 
	81.247,1.107 80.41,0.553 79.434,0.275 78.459,0 77.482,0 5.022,0 5.022,0 4.046,0 2.932,0.275 1.955,0.692 0.981,1.385 
	0.981,1.385 0.423,2.215 0.006,3.185 -0.135,4.153 -0.274,5.123 -0.274,97.066 -0.274,97.066 -0.135,98.174 0.144,99.281 
	0.144,99.281 0.561,100.25 "/>
<path d="M77.482,100.113H5.022l0,0H4.464l-0.696-0.276l-0.558-0.141l-0.417-0.415l-0.417-0.415l-0.279-0.554l-0.14-0.553v-0.693
	V5.123l0,0V4.43l0.14-0.554l0.279-0.554l0.417-0.416l0.417-0.415l0.558-0.14l0.696-0.276h0.557h72.461l0,0h0.56l0.697,0.276
	l0.557,0.14l0.419,0.415l0.418,0.416l0.277,0.554l0.141,0.554v0.693v91.943l0,0v0.695l-0.141,0.551l-0.277,0.554l-0.418,0.417
	l-0.419,0.414l-0.557,0.14l-0.697,0.277L77.482,100.113L77.482,100.113L77.482,100.113z M78.459,5.123L78.459,5.123V4.707
	L78.181,4.43l-0.277-0.139l-0.42-0.139H5.022l0,0L4.604,4.292L4.326,4.43l-0.28,0.277v0.415v91.944l0,0v0.415l0.28,0.278
	l0.278,0.137l0.418,0.137h72.462l0,0l0.419-0.137l0.277-0.137l0.278-0.278v-0.415V5.123L78.459,5.123z"/>
<path d="M29.999,25.045l1.551,5.166c0.047,0.15,0.072,0.311,0.072,0.478c0,0.891-0.726,1.611-1.623,1.611
	c-0.292,0-0.568-0.077-0.805-0.213L11.337,20.745L29.195,9.402c0.237-0.136,0.512-0.213,0.805-0.213
	c0.896,0,1.623,0.722,1.623,1.613c0,0.165-0.024,0.326-0.072,0.478l-1.551,5.166H51.91c10.157,0,18.389,8.182,18.389,18.276v30.102
	h-8.655V34.721c0-5.343-4.359-9.674-9.737-9.674c-5.376,0-9.733,4.332-9.733,9.674L42.17,46.278l5.201-1.54
	c0.15-0.047,0.313-0.072,0.479-0.072c0.895,0,1.623,0.722,1.623,1.612c0,0.292-0.079,0.563-0.215,0.801L37.843,64.821L26.427,47.078
	c-0.135-0.236-0.214-0.509-0.214-0.801c0-0.891,0.725-1.612,1.623-1.612c0.166,0,0.329,0.024,0.479,0.072l5.2,1.54l0.001-11.557
	c0-3.553,1.019-6.869,2.784-9.674L29.999,25.045"/>
<g enable-background="new    ">
	<path d="M29.57,76.419c0,2.426-1.69,3.729-3.754,3.729c-2.146,0-3.634-1.46-3.634-3.603c0-2.248,1.583-3.718,3.742-3.718
		C28.143,72.827,29.57,74.308,29.57,76.419z M23.285,76.523c0,1.523,0.936,2.879,2.591,2.879c1.656,0,2.591-1.334,2.591-2.941
		c0-1.419-0.839-2.89-2.578-2.89C24.149,73.571,23.285,74.98,23.285,76.523z"/>
	<path d="M30.923,80.032v-7.079h1.151l2.58,3.582c0.588,0.83,1.068,1.575,1.439,2.3l0.037-0.01c-0.096-0.947-0.12-1.808-0.12-2.91
		v-2.962h0.983v7.079h-1.056L33.37,76.44c-0.563-0.787-1.104-1.599-1.5-2.363l-0.036,0.01c0.061,0.892,0.073,1.744,0.073,2.919
		v3.026H30.923L30.923,80.032z"/>
	<path d="M41.343,72.953h1.056v6.312h3.455v0.768h-4.511V72.953z"/>
	<path d="M51.189,76.713h-3.13v2.552h3.502v0.768h-4.559v-7.079h4.379v0.767h-3.322v2.236h3.13V76.713z"/>
	<path d="M52.903,72.953h4.354v0.767h-3.298v2.354h3.047v0.755h-3.047v3.204h-1.056V72.953z"/>
	<path d="M60.289,73.729h-2.458v-0.776h5.985v0.776h-2.471v6.303h-1.057V73.729z"/>
</g>
<path fill="none" stroke="#000000" stroke-width="0.75" stroke-miterlimit="10" d="M29.268,76.414c0,2.426-1.69,3.729-3.754,3.729
	c-2.147,0-3.635-1.46-3.635-3.604c0-2.247,1.583-3.719,3.742-3.719C27.84,72.82,29.268,74.302,29.268,76.414z M22.983,76.518
	c0,1.521,0.935,2.877,2.59,2.877s2.592-1.335,2.592-2.941c0-1.417-0.839-2.889-2.579-2.889
	C23.846,73.565,22.983,74.973,22.983,76.518z"/>
<path fill="none" stroke="#000000" stroke-width="0.75" stroke-miterlimit="10" d="M30.621,80.026v-7.079h1.151l2.58,3.581
	c0.588,0.83,1.068,1.577,1.44,2.302l0.037-0.012c-0.096-0.945-0.12-1.808-0.12-2.91v-2.961h0.983v7.079h-1.057l-2.566-3.593
	c-0.564-0.787-1.104-1.597-1.5-2.363l-0.036,0.01c0.06,0.894,0.072,1.745,0.072,2.921v3.023h-0.983V80.026z"/>
<path fill="none" stroke="#000000" stroke-width="0.75" stroke-miterlimit="10" d="M41.041,72.947h1.056v6.313h3.454v0.767h-4.51
	V72.947z"/>
<path fill="none" stroke="#000000" stroke-width="0.75" stroke-miterlimit="10" d="M50.886,76.708h-3.131v2.552h3.503v0.767H46.7
	v-7.079h4.378v0.768h-3.322v2.236h3.131V76.708z"/>
<path fill="none" stroke="#000000" stroke-width="0.75" stroke-miterlimit="10" d="M52.599,72.947h4.354v0.768h-3.299v2.352h3.048
	v0.757h-3.048v3.203h-1.056V72.947z"/>
<path fill="none" stroke="#000000" stroke-width="0.75" stroke-miterlimit="10" d="M60.629,73.724h-2.458v-0.777h5.984v0.777h-2.471
	v6.302h-1.056V73.724z"/>
<g enable-background="new    ">
	<path d="M9.949,90.398L9.11,92.626H8.03l2.759-7.08h1.248l2.758,7.08h-1.114l-0.864-2.228H9.949z M12.612,89.683l-0.803-2.037
		c-0.18-0.462-0.3-0.884-0.419-1.292h-0.025c-0.12,0.41-0.24,0.85-0.408,1.282l-0.791,2.047H12.612z"/>
	<path d="M15.98,85.64c0.528-0.083,1.295-0.147,2.003-0.147c1.115,0,1.846,0.189,2.339,0.577c0.396,0.317,0.636,0.8,0.636,1.356
		c0,0.923-0.671,1.542-1.511,1.795v0.031c0.612,0.19,0.983,0.693,1.175,1.429c0.265,0.986,0.456,1.67,0.624,1.944h-1.079
		c-0.132-0.211-0.312-0.811-0.527-1.693c-0.24-0.977-0.685-1.344-1.632-1.376h-0.983v3.069h-1.042V85.64H15.98z M17.022,88.865
		h1.069c1.116,0,1.823-0.536,1.823-1.346c0-0.914-0.756-1.312-1.859-1.312c-0.505,0-0.853,0.03-1.033,0.072V88.865z"/>
	<path d="M22.43,85.64c0.529-0.083,1.296-0.147,2.003-0.147c1.116,0,1.847,0.189,2.34,0.577c0.396,0.317,0.636,0.8,0.636,1.356
		c0,0.923-0.671,1.542-1.512,1.795v0.031c0.612,0.19,0.983,0.693,1.176,1.429c0.265,0.986,0.455,1.67,0.624,1.944h-1.079
		c-0.132-0.211-0.312-0.811-0.527-1.693c-0.24-0.977-0.685-1.344-1.632-1.376h-0.983v3.069h-1.042V85.64H22.43z M23.474,88.865
		h1.069c1.115,0,1.823-0.536,1.823-1.346c0-0.914-0.757-1.312-1.859-1.312c-0.505,0-0.853,0.03-1.033,0.072V88.865z"/>
	<path d="M35.827,89.011c0,2.427-1.691,3.729-3.754,3.729c-2.147,0-3.635-1.46-3.635-3.602c0-2.249,1.583-3.719,3.742-3.719
		C34.399,85.42,35.827,86.901,35.827,89.011z M29.541,89.116c0,1.524,0.935,2.879,2.591,2.879c1.654,0,2.592-1.335,2.592-2.941
		c0-1.419-0.84-2.889-2.58-2.889S29.541,87.573,29.541,89.116z"/>
	<path d="M38.499,92.626l-2.051-7.08h1.104l0.959,3.582c0.24,0.883,0.456,1.765,0.601,2.447h0.024
		c0.132-0.704,0.384-1.544,0.659-2.459l1.08-3.57h1.09l0.983,3.593c0.229,0.84,0.445,1.68,0.564,2.426h0.023
		c0.167-0.776,0.396-1.566,0.647-2.446l1.067-3.57h1.068l-2.29,7.079h-1.093l-1.02-3.688c-0.252-0.902-0.42-1.597-0.527-2.31h-0.025
		c-0.131,0.703-0.324,1.396-0.624,2.31l-1.151,3.688L38.499,92.626L38.499,92.626z"/>
	<path d="M56.775,89.011c0,2.427-1.69,3.729-3.757,3.729c-2.145,0-3.633-1.46-3.633-3.602c0-2.249,1.583-3.719,3.742-3.719
		C55.346,85.42,56.775,86.901,56.775,89.011z M50.489,89.116c0,1.524,0.936,2.879,2.592,2.879s2.592-1.335,2.592-2.941
		c0-1.419-0.84-2.889-2.58-2.889C51.354,86.165,50.489,87.573,50.489,89.116z"/>
	<path d="M58.128,92.626v-7.08h1.151l2.579,3.582c0.588,0.83,1.067,1.575,1.439,2.3l0.036-0.01c-0.096-0.945-0.12-1.808-0.12-2.91
		v-2.96h0.983v7.079h-1.055l-2.567-3.594c-0.563-0.787-1.104-1.597-1.5-2.363l-0.035,0.01c0.06,0.894,0.071,1.745,0.071,2.921v3.025
		H58.128z"/>
	<path d="M66.006,85.546h1.056v6.312h3.454v0.769h-4.51V85.546z"/>
	<path d="M72.469,92.626v-3.005l-2.565-4.075h1.199l1.14,1.954c0.3,0.534,0.551,0.965,0.803,1.459h0.024
		c0.216-0.463,0.503-0.923,0.816-1.459l1.162-1.954h1.177l-2.698,4.063v3.017H72.469z"/>
</g>
<g enable-background="new    ">
	<path fill="none" stroke="#000000" stroke-width="0.75" stroke-miterlimit="10" d="M9.949,90.398L9.11,92.626H8.03l2.759-7.08
		h1.248l2.758,7.08h-1.114l-0.864-2.228H9.949z M12.612,89.683l-0.803-2.037c-0.18-0.462-0.3-0.884-0.419-1.292h-0.025
		c-0.12,0.41-0.24,0.85-0.408,1.282l-0.791,2.047H12.612z"/>
	<path fill="none" stroke="#000000" stroke-width="0.75" stroke-miterlimit="10" d="M15.98,85.64
		c0.528-0.083,1.295-0.147,2.003-0.147c1.115,0,1.846,0.189,2.339,0.577c0.396,0.317,0.636,0.8,0.636,1.356
		c0,0.923-0.671,1.542-1.511,1.795v0.031c0.612,0.19,0.983,0.693,1.175,1.429c0.265,0.986,0.456,1.67,0.624,1.944h-1.079
		c-0.132-0.211-0.312-0.811-0.527-1.693c-0.24-0.977-0.685-1.344-1.632-1.376h-0.983v3.069h-1.042V85.64H15.98z M17.022,88.865
		h1.069c1.116,0,1.823-0.536,1.823-1.346c0-0.914-0.756-1.312-1.859-1.312c-0.505,0-0.853,0.03-1.033,0.072V88.865z"/>
	<path fill="none" stroke="#000000" stroke-width="0.75" stroke-miterlimit="10" d="M22.43,85.64
		c0.529-0.083,1.296-0.147,2.003-0.147c1.116,0,1.847,0.189,2.34,0.577c0.396,0.317,0.636,0.8,0.636,1.356
		c0,0.923-0.671,1.542-1.512,1.795v0.031c0.612,0.19,0.983,0.693,1.176,1.429c0.265,0.986,0.455,1.67,0.624,1.944h-1.079
		c-0.132-0.211-0.312-0.811-0.527-1.693c-0.24-0.977-0.685-1.344-1.632-1.376h-0.983v3.069h-1.042V85.64H22.43z M23.474,88.865
		h1.069c1.115,0,1.823-0.536,1.823-1.346c0-0.914-0.757-1.312-1.859-1.312c-0.505,0-0.853,0.03-1.033,0.072V88.865z"/>
	<path fill="none" stroke="#000000" stroke-width="0.75" stroke-miterlimit="10" d="M35.827,89.011c0,2.427-1.691,3.729-3.754,3.729
		c-2.147,0-3.635-1.46-3.635-3.602c0-2.249,1.583-3.719,3.742-3.719C34.399,85.42,35.827,86.901,35.827,89.011z M29.541,89.116
		c0,1.524,0.935,2.879,2.591,2.879c1.654,0,2.592-1.335,2.592-2.941c0-1.419-0.84-2.889-2.58-2.889S29.541,87.573,29.541,89.116z"/>
	<path fill="none" stroke="#000000" stroke-width="0.75" stroke-miterlimit="10" d="M38.499,92.626l-2.051-7.08h1.104l0.959,3.582
		c0.24,0.883,0.456,1.765,0.601,2.447h0.024c0.132-0.704,0.384-1.544,0.659-2.459l1.08-3.57h1.09l0.983,3.593
		c0.229,0.84,0.445,1.68,0.564,2.426h0.023c0.167-0.776,0.396-1.566,0.647-2.446l1.067-3.57h1.068l-2.29,7.079h-1.093l-1.02-3.688
		c-0.252-0.902-0.42-1.597-0.527-2.31h-0.025c-0.131,0.703-0.324,1.396-0.624,2.31l-1.151,3.688L38.499,92.626L38.499,92.626z"/>
	<path fill="none" stroke="#000000" stroke-width="0.75" stroke-miterlimit="10" d="M56.775,89.011c0,2.427-1.69,3.729-3.757,3.729
		c-2.145,0-3.633-1.46-3.633-3.602c0-2.249,1.583-3.719,3.742-3.719C55.346,85.42,56.775,86.901,56.775,89.011z M50.489,89.116
		c0,1.524,0.936,2.879,2.592,2.879s2.592-1.335,2.592-2.941c0-1.419-0.84-2.889-2.58-2.889
		C51.354,86.165,50.489,87.573,50.489,89.116z"/>
	<path fill="none" stroke="#000000" stroke-width="0.75" stroke-miterlimit="10" d="M58.128,92.626v-7.08h1.151l2.579,3.582
		c0.588,0.83,1.067,1.575,1.439,2.3l0.036-0.01c-0.096-0.945-0.12-1.808-0.12-2.91v-2.96h0.983v7.079h-1.055l-2.567-3.594
		c-0.563-0.787-1.104-1.597-1.5-2.363l-0.035,0.01c0.06,0.894,0.071,1.745,0.071,2.921v3.025H58.128z"/>
	<path fill="none" stroke="#000000" stroke-width="0.75" stroke-miterlimit="10" d="M66.006,85.546h1.056v6.312h3.454v0.769h-4.51
		V85.546z"/>
	<path fill="none" stroke="#000000" stroke-width="0.75" stroke-miterlimit="10" d="M72.469,92.626v-3.005l-2.565-4.075h1.199
		l1.14,1.954c0.3,0.534,0.551,0.965,0.803,1.459h0.024c0.216-0.463,0.503-0.923,0.816-1.459l1.162-1.954h1.177l-2.698,4.063v3.017
		H72.469z"/>
</g>
<g>
	<path fill="#999999" d="M31.687,94.591v2.218c0,0.163,0.01,0.353,0.02,0.478H31.32l-0.02-0.316h-0.017
		c-0.128,0.205-0.415,0.358-0.806,0.358c-0.58,0-1.028-0.375-1.028-0.937c-0.005-0.605,0.493-0.979,1.073-0.979
		c0.371,0,0.612,0.133,0.722,0.272h0.012v-1.097L31.687,94.591L31.687,94.591z M31.257,96.192c0-0.042-0.009-0.1-0.021-0.141
		c-0.063-0.209-0.304-0.386-0.629-0.386c-0.449,0-0.718,0.306-0.718,0.705c0,0.37,0.239,0.68,0.707,0.68
		c0.293,0,0.56-0.147,0.64-0.396c0.015-0.049,0.021-0.094,0.021-0.146V96.192z"/>
	<path fill="#999999" d="M32.414,95.942c0-0.189-0.011-0.346-0.021-0.491h0.381l0.021,0.299h0.019
		c0.133-0.174,0.354-0.337,0.756-0.337c0.32,0,0.568,0.147,0.672,0.365h0.01c0.074-0.104,0.177-0.185,0.271-0.237
		c0.145-0.083,0.297-0.129,0.521-0.129c0.319,0,0.791,0.157,0.791,0.795v1.075h-0.426v-1.033c0-0.354-0.173-0.563-0.52-0.563
		c-0.252,0-0.44,0.144-0.521,0.299c-0.02,0.053-0.035,0.104-0.035,0.167v1.137h-0.425v-1.103c0-0.292-0.168-0.5-0.5-0.5
		c-0.267,0-0.47,0.166-0.539,0.333c-0.021,0.047-0.034,0.104-0.034,0.163v1.104h-0.426v-1.341L32.414,95.942L32.414,95.942z"/>
	<path fill="#999999" d="M36.644,95.447l0.469,1.022c0.08,0.172,0.146,0.32,0.193,0.478h0.016c0.055-0.15,0.123-0.307,0.203-0.478
		l0.463-1.022h0.455l-0.938,1.833h-0.415l-0.91-1.833H36.644z"/>
	<path fill="#999999" d="M40.868,94.591v2.218c0,0.163,0.014,0.353,0.021,0.478h-0.391l-0.021-0.316h-0.014
		c-0.132,0.205-0.416,0.358-0.81,0.358c-0.578,0-1.027-0.375-1.027-0.937c-0.006-0.605,0.494-0.979,1.072-0.979
		c0.371,0,0.613,0.133,0.726,0.272h0.012v-1.097L40.868,94.591L40.868,94.591z M40.434,96.192c0-0.042-0.004-0.1-0.021-0.141
		c-0.063-0.209-0.304-0.386-0.629-0.386c-0.449,0-0.717,0.306-0.717,0.705c0,0.37,0.24,0.68,0.707,0.68
		c0.292,0,0.559-0.147,0.639-0.396c0.019-0.049,0.021-0.094,0.021-0.146V96.192z"/>
	<path fill="#999999" d="M43.275,96.841c0,0.158,0.014,0.313,0.034,0.438h-0.396l-0.03-0.229h-0.02
		c-0.133,0.146-0.394,0.271-0.729,0.271c-0.481,0-0.729-0.265-0.729-0.525c0-0.439,0.52-0.688,1.438-0.685v-0.036
		c0-0.146-0.061-0.427-0.543-0.421c-0.229,0-0.461,0.051-0.629,0.138l-0.103-0.227c0.193-0.097,0.484-0.155,0.79-0.155
		c0.729,0,0.91,0.382,0.91,0.744L43.275,96.841L43.275,96.841z M42.854,96.344c-0.479-0.011-1.014,0.061-1.014,0.411
		c0,0.223,0.188,0.318,0.4,0.318c0.313,0,0.521-0.151,0.589-0.311c0.021-0.038,0.021-0.076,0.021-0.104L42.854,96.344L42.854,96.344
		z"/>
	<path fill="#999999" d="M43.875,97.084c0-0.139,0.125-0.237,0.301-0.237c0.174,0,0.293,0.101,0.293,0.237s-0.119,0.236-0.307,0.236
		C43.995,97.322,43.875,97.219,43.875,97.084z"/>
	<path fill="#999999" d="M46.709,97.216c-0.109,0.042-0.361,0.104-0.688,0.104c-0.723,0-1.19-0.375-1.19-0.938
		s0.504-0.979,1.285-0.979c0.258,0,0.483,0.051,0.604,0.102l-0.104,0.253c-0.104-0.042-0.267-0.086-0.504-0.086
		c-0.55,0-0.847,0.313-0.847,0.688c0,0.43,0.354,0.688,0.832,0.688c0.246,0,0.408-0.045,0.528-0.087L46.709,97.216z"/>
	<path fill="#999999" d="M49.354,96.348c0,0.682-0.618,0.978-1.19,0.978c-0.644,0-1.146-0.362-1.146-0.941
		c0-0.606,0.524-0.971,1.187-0.971C48.89,95.409,49.354,95.791,49.354,96.348z M47.461,96.368c0,0.397,0.301,0.704,0.727,0.704
		c0.416,0,0.728-0.303,0.728-0.716c0-0.313-0.198-0.697-0.717-0.697C47.683,95.66,47.461,96.023,47.461,96.368z"/>
	<path fill="#999999" d="M49.905,95.942c0-0.189-0.012-0.346-0.021-0.491h0.381l0.021,0.299h0.021
		c0.135-0.174,0.354-0.337,0.756-0.337c0.319,0,0.565,0.147,0.674,0.365h0.01c0.074-0.104,0.172-0.185,0.271-0.237
		c0.145-0.083,0.297-0.129,0.521-0.129c0.32,0,0.791,0.157,0.791,0.795v1.075h-0.426v-1.033c0-0.354-0.174-0.563-0.52-0.563
		c-0.257,0-0.439,0.144-0.521,0.299c-0.021,0.053-0.035,0.104-0.035,0.167v1.137h-0.423v-1.103c0-0.292-0.168-0.5-0.498-0.5
		c-0.271,0-0.475,0.166-0.539,0.333c-0.022,0.047-0.035,0.104-0.035,0.163v1.104h-0.426L49.905,95.942L49.905,95.942z"/>
</g>
</svg>
