<?xml version="1.0" encoding="utf-8"?>
<!-- Generator: Adobe Illustrator 15.0.0, SVG Export Plug-In . SVG Version: 6.00 Build 0)  -->
<!DOCTYPE svg PUBLIC "-//W3C//DTD SVG 1.1//EN" "http://www.w3.org/Graphics/SVG/1.1/DTD/svg11.dtd">
<svg version="1.1" id="Layer_1" xmlns="http://www.w3.org/2000/svg" xmlns:xlink="http://www.w3.org/1999/xlink" x="0px" y="0px"
	 width="131.01px" height="102.189px" viewBox="0 0 131.01 102.189" enable-background="new 0 0 131.01 102.189"
	 xml:space="preserve">
<g>
	<polygon fill="#FFFFFF" points="118.468,86.594 11.56,86.594 11.56,86.594 10.137,86.448 8.872,86.302 7.765,85.86 6.815,85.419 
		6.025,84.686 5.551,83.95 5.235,83.067 5.077,82.038 5.077,5.011 5.077,5.011 5.235,3.983 5.551,3.099 6.025,2.365 6.815,1.629 
		7.765,1.19 8.872,0.748 10.137,0.602 11.56,0.454 118.468,0.454 118.468,0.454 120.051,0.602 121.316,0.748 122.423,1.19 
		123.214,1.629 124.004,2.365 124.479,3.099 124.794,3.983 124.954,5.011 124.954,82.038 124.954,82.038 124.794,83.067 
		124.479,83.95 124.004,84.686 123.214,85.419 122.423,85.86 121.316,86.302 120.051,86.448 	"/>
	<path d="M118.468,84.686H11.56l0,0l-0.79-0.148H9.98l-0.632-0.293L8.872,83.95l-0.475-0.295l-0.315-0.439l-0.158-0.59v-0.59V5.011
		l0,0V4.424l0.158-0.587l0.315-0.442l0.475-0.291l0.476-0.296L9.98,2.514h0.79l0.79-0.147h106.908l0,0l0.95,0.147h0.633l0.629,0.294
		l0.478,0.296l0.474,0.291l0.318,0.442l0.157,0.587l0.158,0.591V82.04l0,0l-0.158,0.59l-0.157,0.59l-0.318,0.438l-0.474,0.295
		l-0.478,0.293l-0.629,0.295h-0.633L118.468,84.686L118.468,84.686L118.468,84.686z M119.732,5.011L119.732,5.011V4.57l-0.314-0.146
		L119.1,4.277l-0.632-0.147H11.56l0,0l-0.474,0.147l-0.473,0.146L10.454,4.57l-0.158,0.441v77.026l0,0l0.158,0.441l0.159,0.146
		l0.474,0.146l0.474,0.148h106.908l0,0l0.633-0.148l0.317-0.146l0.315-0.146v-0.441V5.011H119.732z"/>
</g>
<g>
	<path fill="#999999" d="M55.3,78.817v2.22c0,0.163,0.01,0.351,0.02,0.476h-0.387l-0.02-0.313h-0.017
		c-0.128,0.204-0.415,0.355-0.806,0.355c-0.58,0-1.028-0.375-1.028-0.935c-0.005-0.607,0.493-0.979,1.073-0.979
		c0.371,0,0.612,0.135,0.722,0.274h0.01v-1.099L55.3,78.817L55.3,78.817z M54.869,80.421c0-0.042-0.007-0.102-0.021-0.143
		c-0.063-0.209-0.304-0.387-0.629-0.387c-0.449,0-0.718,0.309-0.718,0.705c0,0.369,0.241,0.681,0.707,0.681
		c0.293,0,0.56-0.147,0.64-0.396c0.015-0.047,0.021-0.092,0.021-0.146V80.421z"/>
	<path fill="#999999" d="M56.026,80.171c0-0.189-0.011-0.346-0.021-0.493h0.381l0.021,0.3h0.017
		c0.133-0.175,0.354-0.337,0.756-0.337c0.32,0,0.568,0.148,0.672,0.364h0.01c0.074-0.104,0.175-0.183,0.271-0.236
		c0.145-0.083,0.297-0.13,0.522-0.13c0.319,0,0.791,0.157,0.791,0.796v1.074H59.02v-1.032c0-0.354-0.173-0.563-0.52-0.563
		c-0.252,0-0.44,0.142-0.521,0.299c-0.02,0.051-0.035,0.104-0.035,0.167v1.135h-0.425v-1.101c0-0.292-0.168-0.5-0.5-0.5
		c-0.267,0-0.47,0.166-0.539,0.333c-0.023,0.047-0.034,0.104-0.034,0.163v1.104H56.02v-1.341L56.026,80.171L56.026,80.171z"/>
	<path fill="#999999" d="M60.257,79.674l0.469,1.024c0.08,0.172,0.146,0.317,0.193,0.476h0.016c0.055-0.148,0.123-0.305,0.203-0.476
		l0.463-1.024h0.455l-0.938,1.833h-0.415l-0.91-1.833H60.257z"/>
	<path fill="#999999" d="M64.479,78.817v2.22c0,0.163,0.014,0.351,0.021,0.476h-0.39l-0.021-0.313h-0.018
		c-0.129,0.204-0.416,0.355-0.807,0.355c-0.578,0-1.029-0.375-1.029-0.935c-0.006-0.607,0.496-0.979,1.074-0.979
		c0.371,0,0.611,0.135,0.724,0.274h0.013v-1.099L64.479,78.817L64.479,78.817z M64.047,80.421c0-0.042-0.005-0.102-0.021-0.143
		c-0.063-0.209-0.305-0.387-0.629-0.387c-0.449,0-0.717,0.309-0.717,0.705c0,0.369,0.239,0.681,0.706,0.681
		c0.292,0,0.56-0.147,0.64-0.396c0.018-0.047,0.021-0.092,0.021-0.146V80.421z"/>
	<path fill="#999999" d="M66.888,81.067c0,0.157,0.014,0.313,0.033,0.438h-0.395l-0.031-0.229h-0.021
		c-0.133,0.146-0.396,0.271-0.729,0.271c-0.479,0-0.729-0.263-0.729-0.523c0-0.438,0.521-0.688,1.438-0.687v-0.035
		c0-0.146-0.061-0.425-0.543-0.421c-0.229,0-0.461,0.052-0.629,0.139l-0.104-0.226c0.193-0.097,0.484-0.157,0.789-0.157
		c0.73,0,0.91,0.383,0.91,0.744L66.888,81.067L66.888,81.067z M66.466,80.57c-0.479-0.012-1.014,0.061-1.014,0.411
		c0,0.225,0.188,0.316,0.399,0.316c0.313,0,0.521-0.149,0.591-0.309c0.02-0.038,0.021-0.076,0.021-0.104L66.466,80.57L66.466,80.57z
		"/>
	<path fill="#999999" d="M67.485,81.31c0-0.14,0.125-0.234,0.301-0.234c0.175,0,0.293,0.099,0.293,0.234
		c0,0.141-0.118,0.235-0.307,0.235C67.604,81.549,67.485,81.445,67.485,81.31z"/>
	<path fill="#999999" d="M70.319,81.442c-0.108,0.042-0.361,0.104-0.688,0.104c-0.725,0-1.189-0.375-1.189-0.938
		c0-0.563,0.504-0.979,1.285-0.979c0.258,0,0.482,0.051,0.604,0.104l-0.104,0.253c-0.104-0.042-0.268-0.086-0.504-0.086
		c-0.551,0-0.85,0.313-0.85,0.688c0,0.429,0.354,0.688,0.832,0.688c0.246,0,0.408-0.045,0.529-0.087L70.319,81.442z"/>
	<path fill="#999999" d="M72.966,80.575c0,0.68-0.617,0.976-1.189,0.976c-0.645,0-1.145-0.36-1.145-0.939
		c0-0.605,0.523-0.973,1.188-0.973C72.503,79.635,72.966,80.017,72.966,80.575z M71.071,80.594c0,0.399,0.301,0.704,0.728,0.704
		c0.416,0,0.729-0.301,0.729-0.714c0-0.313-0.201-0.699-0.72-0.699C71.296,79.886,71.071,80.25,71.071,80.594z"/>
	<path fill="#999999" d="M73.517,80.171c0-0.189-0.012-0.346-0.02-0.493h0.381l0.02,0.3h0.02c0.138-0.175,0.354-0.337,0.759-0.337
		c0.317,0,0.565,0.148,0.674,0.364h0.013c0.071-0.104,0.172-0.183,0.271-0.236c0.146-0.083,0.297-0.13,0.521-0.13
		c0.319,0,0.791,0.157,0.791,0.796v1.074h-0.429v-1.032c0-0.354-0.174-0.563-0.521-0.563c-0.256,0-0.438,0.142-0.521,0.299
		c-0.021,0.051-0.034,0.104-0.034,0.167v1.135h-0.425v-1.101c0-0.292-0.168-0.5-0.498-0.5c-0.271,0-0.476,0.166-0.539,0.333
		c-0.021,0.047-0.032,0.104-0.032,0.163v1.104h-0.429L73.517,80.171L73.517,80.171z"/>
</g>
<g>
	<path d="M19.42,12.773c1.114-0.182,2.573-0.337,4.43-0.337c2.281,0,3.953,0.519,5.014,1.454c0.954,0.83,1.564,2.103,1.564,3.661
		c0,1.583-0.478,2.829-1.378,3.738c-1.248,1.272-3.21,1.921-5.466,1.921c-0.689,0-1.326-0.026-1.857-0.156v7.01h-2.308L19.42,12.773
		L19.42,12.773z M21.728,21.211c0.504,0.13,1.141,0.181,1.91,0.181c2.785,0,4.482-1.35,4.482-3.712c0-2.336-1.697-3.454-4.217-3.454
		c-1.008,0-1.777,0.078-2.175,0.183V21.211z"/>
	<path d="M34.198,24.559l-1.857,5.504h-2.387l6.102-17.499h2.759l6.102,17.499h-2.467l-1.91-5.504H34.198z M40.087,22.794
		l-1.778-5.037c-0.398-1.142-0.663-2.181-0.928-3.193h-0.053c-0.266,1.012-0.531,2.103-0.902,3.167l-1.751,5.063H40.087z"/>
	<path d="M47.252,27.311c1.035,0.649,2.521,1.142,4.112,1.142c2.361,0,3.74-1.22,3.74-2.985c0-1.61-0.955-2.57-3.369-3.453
		c-2.918-1.039-4.723-2.545-4.723-4.985c0-2.727,2.308-4.751,5.783-4.751c1.804,0,3.157,0.416,3.926,0.857l-0.637,1.843
		c-0.557-0.337-1.75-0.83-3.369-0.83c-2.44,0-3.369,1.427-3.369,2.622c0,1.636,1.087,2.44,3.555,3.375
		c3.024,1.143,4.537,2.57,4.537,5.141c0,2.701-2.016,5.063-6.234,5.063c-1.724,0-3.608-0.519-4.563-1.142L47.252,27.311z"/>
	<path d="M60.333,27.311c1.035,0.649,2.52,1.142,4.112,1.142c2.36,0,3.741-1.22,3.741-2.985c0-1.61-0.955-2.57-3.37-3.453
		c-2.917-1.039-4.722-2.545-4.722-4.985c0-2.727,2.308-4.751,5.783-4.751c1.805,0,3.156,0.416,3.926,0.857l-0.637,1.843
		c-0.557-0.337-1.75-0.83-3.369-0.83c-2.44,0-3.369,1.427-3.369,2.622c0,1.636,1.087,2.44,3.554,3.375
		c3.024,1.143,4.535,2.57,4.535,5.141c0,2.701-2.016,5.063-6.233,5.063c-1.725,0-3.608-0.519-4.563-1.142L60.333,27.311z"/>
	<path d="M76.012,12.565v17.499h-2.334V12.565H76.012z"/>
	<path d="M80.045,30.064V12.565h2.547l5.703,8.854c1.301,2.051,2.36,3.894,3.184,5.686l0.08-0.027
		c-0.213-2.336-0.265-4.465-0.265-7.192v-7.321h2.175v17.499h-2.334l-5.678-8.878c-1.246-1.947-2.439-3.946-3.315-5.842l-0.08,0.026
		c0.134,2.207,0.161,4.31,0.161,7.217v7.477L80.045,30.064L80.045,30.064z"/>
	<path d="M111.139,29.284c-1.034,0.389-3.104,0.961-5.518,0.961c-2.705,0-4.935-0.675-6.686-2.311
		c-1.539-1.454-2.493-3.79-2.493-6.517c0-5.218,3.687-9.035,9.683-9.035c2.068,0,3.714,0.441,4.482,0.804l-0.584,1.843
		c-0.955-0.441-2.148-0.752-3.953-0.752c-4.35,0-7.188,2.648-7.188,7.035c0,4.439,2.706,7.062,6.898,7.062
		c1.511,0,2.546-0.208,3.077-0.467v-5.218h-3.607v-1.817h5.889V29.284z"/>
</g>
<g>
	<path d="M40.687,35.344h2.334v14.589h7.641v1.771h-9.975V35.344z"/>
	<path d="M56.128,46.56l-1.857,5.146h-2.387l6.102-16.361h2.759l6.101,16.361h-2.467l-1.91-5.146H56.128z M62.017,44.908
		l-1.778-4.709c-0.397-1.068-0.663-2.039-0.928-2.985h-0.053c-0.266,0.946-0.531,1.966-0.902,2.961l-1.751,4.733H62.017
		L62.017,44.908z"/>
	<path d="M69.474,51.706V35.344h2.546l5.704,8.278c1.3,1.917,2.36,3.641,3.184,5.316l0.079-0.024
		c-0.212-2.184-0.266-4.175-0.266-6.723v-6.846h2.175v16.361h-2.333l-5.677-8.301c-1.247-1.821-2.441-3.69-3.315-5.462l-0.08,0.025
		c0.133,2.063,0.159,4.03,0.159,6.748v6.991H69.474L69.474,51.706z"/>
	<path d="M96.164,44.035H89.24v5.899h7.745v1.771h-10.08V35.344h9.682v1.773H89.24v5.17h6.924V44.035z"/>
</g>
<g>
	<path d="M30.774,69.379l-1.856,5.496H26.53l6.102-17.474h2.759l6.101,17.474h-2.466l-1.91-5.496H30.774z M36.664,67.616
		l-1.777-5.029c-0.398-1.141-0.663-2.177-0.929-3.189h-0.053c-0.265,1.011-0.531,2.102-0.902,3.164l-1.751,5.055H36.664
		L36.664,67.616z"/>
	<path d="M46.428,57.401v7.312h8.648v-7.312h2.334v17.474h-2.334v-8.192h-8.648v8.192h-2.334V57.401H46.428z"/>
	<path d="M70.651,66.682h-6.924v6.301h7.747v1.892H61.393V57.401h9.682v1.894h-7.348v5.521h6.924V66.682z"/>
	<path d="M77.364,69.379l-1.855,5.496h-2.387l6.1-17.474h2.76l6.102,17.474h-2.467l-1.908-5.496H77.364z M83.253,67.616
		l-1.775-5.029c-0.398-1.141-0.664-2.177-0.93-3.189h-0.055c-0.264,1.011-0.527,2.102-0.9,3.164l-1.75,5.055H83.253L83.253,67.616z"
		/>
	<path d="M90.712,57.661c1.406-0.233,3.076-0.389,4.906-0.389c3.316,0,5.678,0.778,7.242,2.178c1.619,1.426,2.547,3.446,2.547,6.272
		c0,2.852-0.928,5.185-2.574,6.793c-1.697,1.632-4.455,2.515-7.932,2.515c-1.672,0-3.025-0.078-4.191-0.209v-17.16H90.712z
		 M93.019,73.11c0.584,0.079,1.432,0.105,2.336,0.105c4.959,0,7.613-2.696,7.613-7.414c0.027-4.122-2.361-6.741-7.244-6.741
		c-1.193,0-2.094,0.104-2.705,0.234V73.11z"/>
</g>
</svg>
