<?xml version="1.0" encoding="utf-8"?>
<!-- Generator: Adobe Illustrator 15.0.0, SVG Export Plug-In . SVG Version: 6.00 Build 0)  -->
<!DOCTYPE svg PUBLIC "-//W3C//DTD SVG 1.1//EN" "http://www.w3.org/Graphics/SVG/1.1/DTD/svg11.dtd">
<svg version="1.1" id="Layer_1" xmlns="http://www.w3.org/2000/svg" xmlns:xlink="http://www.w3.org/1999/xlink" x="0px" y="0px"
	 width="107.5px" height="107.875px" viewBox="0 0 107.5 107.875" enable-background="new 0 0 107.5 107.875" xml:space="preserve">
<g>
	<g>
		<circle fill="#FFD520" cx="51.3" cy="54.17" r="49.892"/>
		<circle fill="none" stroke="#000000" stroke-width="3" stroke-miterlimit="10" cx="51.075" cy="54.171" r="47.191"/>
		<g>
			<path d="M30.519,49.16c0,0.657-0.114,1.293-0.338,1.907c-0.224,0.614-0.571,1.178-1.038,1.689
				c-0.467,0.511-1.06,0.953-1.774,1.328c-0.716,0.375-1.561,0.653-2.54,0.832l6.698,8.747h-4.323l-6.052-8.411h-4.618v8.411h-3.826
				V43.211h9.155c1.408,0,2.65,0.136,3.727,0.414c1.077,0.278,1.982,0.671,2.712,1.182c0.732,0.513,1.286,1.135,1.659,1.871
				C30.331,47.413,30.519,48.242,30.519,49.16z M26.658,49.187c0-1.173-0.451-2.066-1.353-2.68c-0.903-0.614-2.161-0.92-3.778-0.92
				H16.53v7.314h5.13c0.87,0,1.62-0.096,2.251-0.29c0.633-0.193,1.152-0.453,1.559-0.789c0.408-0.332,0.708-0.724,0.9-1.175
				C26.563,50.202,26.658,49.716,26.658,49.187z"/>
		</g>
		<g>
			<path d="M91.664,49.16c0,0.657-0.111,1.293-0.338,1.907c-0.226,0.614-0.57,1.178-1.039,1.689
				c-0.468,0.511-1.059,0.953-1.771,1.328c-0.717,0.375-1.563,0.653-2.537,0.832l6.694,8.747h-4.321l-6.059-8.411h-4.618v8.411
				h-3.826V43.211h9.157c1.409,0,2.65,0.136,3.729,0.414c1.078,0.278,1.982,0.671,2.715,1.182c0.73,0.513,1.282,1.135,1.657,1.871
				C91.478,47.413,91.664,48.242,91.664,49.16z M87.803,49.187c0-1.173-0.449-2.066-1.353-2.68c-0.901-0.614-2.16-0.92-3.776-0.92
				h-4.999v7.314h5.13c0.869,0,1.619-0.096,2.252-0.29c0.633-0.193,1.151-0.453,1.56-0.789c0.406-0.332,0.705-0.724,0.897-1.175
				C87.708,50.202,87.803,49.716,87.803,49.187z"/>
		</g>
		<line fill="none" stroke="#000000" stroke-width="12" stroke-miterlimit="10" x1="85.372" y1="21.757" x2="16.778" y2="86.585"/>
		<line fill="none" stroke="#000000" stroke-width="12" stroke-miterlimit="10" x1="18.661" y1="19.872" x2="83.49" y2="88.469"/>
	</g>
</g>
<g enable-background="new    ">
	<path fill="#999999" d="M40.663,93.362v2.893c0,0.215,0.01,0.455,0.02,0.619h-0.386l-0.02-0.416h-0.015
		c-0.128,0.269-0.415,0.472-0.806,0.472c-0.579,0-1.028-0.49-1.028-1.218c-0.005-0.797,0.494-1.279,1.073-1.279
		c0.371,0,0.613,0.173,0.722,0.359h0.01v-1.43H40.663z M40.233,95.454c0-0.056-0.005-0.129-0.02-0.184
		c-0.064-0.271-0.302-0.5-0.628-0.5c-0.45,0-0.717,0.396-0.717,0.92c0,0.484,0.242,0.887,0.707,0.887
		c0.292,0,0.559-0.197,0.638-0.521c0.015-0.062,0.02-0.119,0.02-0.188V95.454z"/>
	<path fill="#999999" d="M41.392,95.126c0-0.252-0.01-0.449-0.02-0.646h0.38l0.02,0.393h0.015c0.133-0.229,0.356-0.439,0.756-0.439
		c0.321,0,0.569,0.197,0.672,0.479h0.01c0.074-0.141,0.173-0.238,0.271-0.313c0.144-0.107,0.297-0.168,0.524-0.168
		c0.321,0,0.791,0.208,0.791,1.038v1.401h-0.425v-1.35c0-0.465-0.173-0.736-0.519-0.736c-0.252,0-0.44,0.186-0.519,0.394
		c-0.02,0.063-0.035,0.138-0.035,0.217v1.479h-0.425v-1.437c0-0.381-0.168-0.651-0.5-0.651c-0.267,0-0.47,0.217-0.539,0.437
		c-0.025,0.06-0.035,0.139-0.035,0.213v1.438h-0.425v-1.746h0.003V95.126z"/>
	<path fill="#999999" d="M45.621,94.479l0.469,1.34c0.08,0.225,0.145,0.42,0.193,0.617h0.016c0.053-0.197,0.123-0.396,0.201-0.617
		l0.465-1.34h0.455l-0.939,2.395h-0.414l-0.91-2.395H45.621z"/>
	<path fill="#999999" d="M49.844,93.362v2.893c0,0.215,0.01,0.455,0.02,0.619h-0.385l-0.02-0.416h-0.016
		c-0.129,0.269-0.416,0.472-0.807,0.472c-0.578,0-1.027-0.49-1.027-1.218c-0.006-0.797,0.494-1.279,1.072-1.279
		c0.371,0,0.613,0.173,0.723,0.359h0.01v-1.43H49.844z M49.414,95.454c0-0.056-0.006-0.129-0.02-0.184
		c-0.064-0.271-0.303-0.5-0.629-0.5c-0.449,0-0.717,0.396-0.717,0.92c0,0.484,0.242,0.887,0.707,0.887
		c0.291,0,0.559-0.197,0.639-0.521c0.014-0.062,0.02-0.119,0.02-0.188V95.454z"/>
	<path fill="#999999" d="M52.255,96.298c0,0.207,0.01,0.41,0.033,0.572h-0.391l-0.033-0.303h-0.016
		c-0.133,0.188-0.393,0.355-0.732,0.355c-0.485,0-0.731-0.342-0.731-0.688c0-0.576,0.514-0.895,1.438-0.89v-0.052
		c0-0.19-0.055-0.553-0.543-0.549c-0.229,0-0.461,0.063-0.629,0.18l-0.098-0.291c0.197-0.124,0.489-0.208,0.792-0.208
		c0.73,0,0.91,0.499,0.91,0.974V96.298z M51.833,95.651c-0.475-0.011-1.014,0.074-1.014,0.538c0,0.287,0.189,0.416,0.406,0.416
		c0.315,0,0.521-0.196,0.589-0.399c0.016-0.051,0.02-0.101,0.02-0.14L51.833,95.651L51.833,95.651z"/>
	<path fill="#999999" d="M52.854,96.616c0-0.18,0.123-0.313,0.295-0.313c0.174,0,0.293,0.128,0.293,0.313
		c0,0.178-0.119,0.313-0.303,0.313C52.972,96.927,52.854,96.792,52.854,96.616z"/>
	<path fill="#999999" d="M55.687,96.79c-0.113,0.056-0.365,0.14-0.688,0.14c-0.721,0-1.19-0.49-1.19-1.224
		c0-0.734,0.508-1.273,1.285-1.273c0.258,0,0.485,0.063,0.604,0.129l-0.099,0.331c-0.104-0.056-0.27-0.113-0.506-0.113
		c-0.551,0-0.846,0.41-0.846,0.904c0,0.554,0.354,0.896,0.83,0.896c0.246,0,0.41-0.06,0.533-0.113L55.687,96.79z"/>
	<path fill="#999999" d="M58.333,95.657c0,0.885-0.617,1.271-1.191,1.271c-0.643,0-1.146-0.477-1.146-1.231
		c0-0.796,0.529-1.266,1.187-1.266C57.868,94.43,58.333,94.929,58.333,95.657z M56.44,95.681c0,0.523,0.297,0.92,0.721,0.92
		c0.416,0,0.727-0.393,0.727-0.932c0-0.403-0.201-0.914-0.717-0.914C56.663,94.755,56.44,95.23,56.44,95.681z"/>
	<path fill="#999999" d="M58.884,95.126c0-0.252-0.01-0.449-0.02-0.646h0.379l0.021,0.393h0.014
		c0.135-0.229,0.355-0.439,0.756-0.439c0.322,0,0.57,0.197,0.674,0.479h0.01c0.074-0.141,0.172-0.238,0.271-0.313
		c0.143-0.107,0.297-0.168,0.523-0.168c0.319,0,0.791,0.208,0.791,1.038v1.401H61.88v-1.35c0-0.465-0.177-0.736-0.521-0.736
		c-0.252,0-0.438,0.186-0.521,0.394c-0.02,0.063-0.035,0.138-0.035,0.217v1.479h-0.424v-1.437c0-0.381-0.168-0.651-0.5-0.651
		c-0.268,0-0.469,0.217-0.539,0.437c-0.022,0.06-0.035,0.139-0.035,0.213v1.438H58.88v-1.746h0.004V95.126z"/>
</g>
</svg>
