<?xml version="1.0" encoding="utf-8"?>
<!-- Generator: Adobe Illustrator 15.0.0, SVG Export Plug-In . SVG Version: 6.00 Build 0)  -->
<!DOCTYPE svg PUBLIC "-//W3C//DTD SVG 1.1//EN" "http://www.w3.org/Graphics/SVG/1.1/DTD/svg11.dtd">
<svg version="1.1" id="Layer_1" xmlns="http://www.w3.org/2000/svg" xmlns:xlink="http://www.w3.org/1999/xlink" x="0px" y="0px"
	 width="79.125px" height="78.324px" viewBox="0 0 79.125 78.324" enable-background="new 0 0 79.125 78.324" xml:space="preserve">
<g>
	<polygon fill="#FFD520" points="39.586,77.15 39.586,77.15 40.271,77.052 40.955,76.759 40.955,76.759 41.539,76.371 42.027,75.88 
		76.486,41.518 76.486,41.518 76.975,41.031 77.27,40.445 77.563,39.858 77.66,39.078 77.66,39.078 77.563,38.394 77.27,37.711 
		77.27,37.711 76.878,37.124 76.486,36.636 42.126,2.273 42.126,2.273 41.539,1.784 40.857,1.395 40.857,1.395 40.271,1.102 
		39.586,1.005 39.586,1.005 38.904,1.102 38.22,1.395 37.635,1.784 37.048,2.273 2.686,36.636 2.686,36.636 2.198,37.124 
		1.807,37.808 1.807,37.808 1.612,38.394 1.514,39.078 1.514,39.078 1.612,39.858 1.905,40.541 1.905,40.541 2.295,41.031 
		2.686,41.518 37.048,75.88 37.048,75.88 37.635,76.371 38.317,76.759 38.317,76.759 38.904,77.052 	"/>
	<path d="M75.709,40.932L75.709,40.932l0.391-0.487l0.291-0.39l0.195-0.486v-0.49l0,0v-0.391L76.391,38.2L76.1,37.809l-0.391-0.488
		L41.344,2.958l0,0l-0.391-0.39l-0.488-0.294l-0.39-0.096L39.586,2.08l0,0l-0.487,0.097l-0.391,0.096L38.22,2.567l-0.39,0.391
		L3.466,37.32l0,0l-0.39,0.488l-0.292,0.391l-0.195,0.488v0.391l0,0v0.49l0.195,0.486l0.293,0.39l0.39,0.488l34.364,34.362l0,0
		l0.391,0.392l0.487,0.194l0.391,0.195l0.487,0.098l0,0l0.489-0.098l0.391-0.195l0.488-0.194l0.391-0.392L75.709,40.932
		L75.709,40.932z M74.829,38.297L74.829,38.297l0.291,0.39l0.101,0.195l0.096,0.195l0,0l-0.096,0.293l-0.101,0.196l-0.291,0.391
		L40.466,74.32l0,0l-0.488,0.393l-0.195,0.097h-0.195l0,0h-0.195l-0.195-0.097L38.71,74.32L4.345,39.957l0,0l-0.292-0.39
		L3.955,39.37l-0.098-0.292l0,0l0.098-0.195l0.097-0.195l0.292-0.39L38.708,3.934l0,0l0.488-0.39l0.195-0.097h0.195l0,0h0.196
		l0.195,0.097l0.488,0.39L74.829,38.297L74.829,38.297z"/>
	<polygon points="47.831,41.324 47.831,41.324 47.555,41.518 47.279,41.617 46.909,41.712 46.632,41.712 46.264,41.617 
		45.984,41.518 45.709,41.324 45.434,41.031 45.434,41.031 45.156,40.638 45.064,40.152 45.064,39.664 45.156,39.174 46.355,35.465 
		35.564,35.465 35.564,35.465 35.103,35.465 34.734,35.564 34.366,35.759 34.18,36.052 33.996,36.344 33.903,36.735 33.811,37.711 
		33.811,57.235 25.695,57.235 25.695,33.121 25.695,33.121 25.695,32.439 25.787,31.756 25.88,31.17 26.063,30.487 26.341,29.999 
		26.617,29.413 26.895,28.925 27.263,28.535 27.724,28.143 28.186,27.753 28.648,27.46 29.199,27.264 29.753,27.071 30.4,26.972 
		30.953,26.875 31.691,26.875 46.355,26.875 45.156,23.067 45.156,23.067 45.064,22.58 45.064,22.091 45.156,21.603 45.434,21.212 
		45.434,21.212 45.709,20.919 45.984,20.724 46.264,20.627 46.632,20.53 46.909,20.627 47.279,20.627 47.555,20.822 47.831,20.919 
		62.496,31.17 	"/>
</g>
<g enable-background="new    ">
	<path fill="#999999" d="M29.679,59.49v2.264c0,0.168,0.01,0.357,0.021,0.486h-0.395l-0.021-0.324h-0.015
		c-0.131,0.209-0.424,0.365-0.824,0.365c-0.593,0-1.05-0.383-1.05-0.953c-0.005-0.619,0.504-1,1.096-1
		c0.378,0,0.626,0.137,0.737,0.282h0.011v-1.12H29.679L29.679,59.49z M29.237,61.128c0-0.043-0.006-0.104-0.021-0.146
		c-0.065-0.214-0.31-0.393-0.643-0.393c-0.459,0-0.732,0.311-0.732,0.721c0,0.378,0.248,0.691,0.722,0.691
		c0.299,0,0.571-0.15,0.653-0.403c0.015-0.046,0.021-0.093,0.021-0.147V61.128z"/>
	<path fill="#999999" d="M30.421,60.873c0-0.197-0.011-0.354-0.021-0.506h0.389l0.021,0.305h0.017
		c0.136-0.178,0.363-0.344,0.772-0.344c0.327,0,0.581,0.154,0.687,0.375h0.01c0.076-0.107,0.177-0.188,0.277-0.244
		c0.147-0.084,0.303-0.133,0.534-0.133c0.327,0,0.808,0.164,0.808,0.813v1.101h-0.434v-1.058c0-0.36-0.176-0.574-0.53-0.574
		c-0.257,0-0.45,0.144-0.531,0.306c-0.021,0.051-0.036,0.106-0.036,0.172v1.156h-0.436v-1.123c0-0.298-0.172-0.511-0.511-0.511
		c-0.272,0-0.48,0.169-0.55,0.341c-0.025,0.049-0.036,0.107-0.036,0.164v1.129h-0.434v-1.367L30.421,60.873L30.421,60.873z"/>
	<path fill="#999999" d="M34.742,60.367l0.479,1.045c0.082,0.178,0.148,0.33,0.197,0.485h0.017c0.054-0.153,0.125-0.31,0.207-0.485
		l0.473-1.045h0.465l-0.958,1.871h-0.423l-0.93-1.871H34.742z"/>
	<path fill="#999999" d="M39.056,59.49v2.264c0,0.168,0.01,0.357,0.021,0.486h-0.395l-0.021-0.324h-0.015
		c-0.132,0.209-0.425,0.365-0.823,0.365c-0.592,0-1.05-0.383-1.05-0.953c-0.005-0.619,0.504-1,1.095-1
		c0.379,0,0.626,0.137,0.738,0.282h0.011v-1.12H39.056L39.056,59.49z M38.614,61.128c0-0.043-0.004-0.104-0.02-0.146
		c-0.065-0.214-0.31-0.393-0.642-0.393c-0.459,0-0.732,0.311-0.732,0.721c0,0.378,0.247,0.691,0.722,0.691
		c0.298,0,0.571-0.15,0.651-0.403c0.016-0.046,0.02-0.093,0.02-0.147L38.614,61.128L38.614,61.128z"/>
	<path fill="#999999" d="M41.516,61.787c0,0.162,0.012,0.321,0.034,0.448H41.15l-0.034-0.233H41.1
		c-0.137,0.146-0.401,0.275-0.746,0.275c-0.494,0-0.748-0.268-0.748-0.537c0-0.449,0.525-0.699,1.471-0.697v-0.037
		c0-0.148-0.06-0.435-0.558-0.43c-0.233,0-0.471,0.051-0.643,0.139l-0.102-0.228c0.201-0.101,0.499-0.163,0.809-0.163
		c0.744,0,0.93,0.391,0.93,0.764v0.699H41.516z M41.087,61.281c-0.485-0.009-1.037,0.063-1.037,0.422
		c0,0.229,0.191,0.325,0.414,0.325c0.32,0,0.531-0.153,0.601-0.313c0.02-0.039,0.021-0.078,0.021-0.108L41.087,61.281L41.087,61.281
		z"/>
	<path fill="#999999" d="M42.128,62.037c0-0.141,0.127-0.244,0.302-0.244c0.18,0,0.301,0.103,0.301,0.244
		c0,0.141-0.121,0.242-0.312,0.242C42.249,62.279,42.128,62.175,42.128,62.037z"/>
	<path fill="#999999" d="M45.021,62.171c-0.117,0.043-0.373,0.106-0.703,0.106c-0.737,0-1.215-0.383-1.215-0.956
		c0-0.574,0.515-0.998,1.312-0.998c0.265,0,0.494,0.051,0.617,0.104l-0.103,0.258c-0.104-0.044-0.272-0.088-0.516-0.088
		c-0.563,0-0.865,0.318-0.865,0.705c0,0.436,0.363,0.701,0.852,0.701c0.25,0,0.418-0.045,0.543-0.088L45.021,62.171z"/>
	<path fill="#999999" d="M47.725,61.285c0,0.695-0.632,0.996-1.218,0.996c-0.653,0-1.168-0.371-1.168-0.962
		c0-0.622,0.539-0.991,1.209-0.991C47.251,60.326,47.725,60.716,47.725,61.285z M45.79,61.305c0,0.409,0.303,0.72,0.737,0.72
		c0.427,0,0.742-0.307,0.742-0.729c0-0.318-0.207-0.717-0.731-0.717C46.018,60.582,45.79,60.953,45.79,61.305z"/>
	<path fill="#999999" d="M48.286,60.873c0-0.197-0.011-0.354-0.021-0.506h0.389l0.021,0.305h0.017
		c0.139-0.178,0.363-0.344,0.772-0.344c0.328,0,0.58,0.154,0.688,0.375h0.012c0.074-0.107,0.176-0.188,0.275-0.244
		c0.147-0.084,0.305-0.133,0.533-0.133c0.327,0,0.809,0.164,0.809,0.813v1.101h-0.436v-1.058c0-0.36-0.177-0.574-0.529-0.574
		c-0.258,0-0.449,0.144-0.531,0.306c-0.021,0.051-0.035,0.106-0.035,0.172v1.156h-0.436v-1.123c0-0.298-0.17-0.511-0.508-0.511
		c-0.275,0-0.482,0.169-0.552,0.341c-0.024,0.049-0.034,0.107-0.034,0.164v1.129h-0.437v-1.367h0.002V60.873z"/>
</g>
</svg>
