<?xml version="1.0" encoding="utf-8"?>
<!-- Generator: Adobe Illustrator 15.0.0, SVG Export Plug-In . SVG Version: 6.00 Build 0)  -->
<!DOCTYPE svg PUBLIC "-//W3C//DTD SVG 1.1//EN" "http://www.w3.org/Graphics/SVG/1.1/DTD/svg11.dtd">
<svg version="1.1" id="Layer_1" xmlns="http://www.w3.org/2000/svg" xmlns:xlink="http://www.w3.org/1999/xlink" x="0px" y="0px"
	 width="119.25px" height="118.98px" viewBox="0 0 119.25 118.98" enable-background="new 0 0 119.25 118.98" xml:space="preserve">
<polygon fill="#FFD520" points="59.625,117.328 59.625,117.328 60.664,117.179 61.701,116.735 61.701,116.735 62.59,116.142 
	63.334,115.4 115.684,63.198 115.684,63.198 116.426,62.456 116.869,61.566 117.314,60.677 117.463,59.491 117.463,59.491 
	117.314,58.451 116.869,57.414 116.869,57.414 116.277,56.524 115.684,55.783 63.48,3.581 63.48,3.581 62.59,2.839 61.553,2.246 
	61.553,2.246 60.664,1.801 59.625,1.653 59.625,1.653 58.586,1.801 57.548,2.246 56.659,2.839 55.77,3.581 3.567,55.783 
	3.567,55.783 2.826,56.524 2.232,57.563 2.232,57.563 1.937,58.451 1.788,59.491 1.788,59.491 1.937,60.677 2.38,61.716 
	2.38,61.716 2.975,62.456 3.567,63.198 55.77,115.4 55.77,115.4 56.659,116.142 57.696,116.735 57.696,116.735 58.586,117.179 
	59.625,117.328 "/>
<path d="M114.498,62.308L114.498,62.308l0.593-0.742l0.444-0.593l0.296-0.742v-0.74l0,0v-0.594l-0.296-0.742l-0.444-0.593
	l-0.593-0.742L62.295,4.619l0,0l-0.593-0.593l-0.741-0.445l-0.595-0.146l-0.74-0.148l0,0l-0.742,0.148l-0.592,0.146L57.55,4.026
	l-0.593,0.593L4.754,56.821l0,0L4.16,57.563l-0.445,0.593l-0.296,0.742v0.594l0,0v0.74l0.296,0.742l0.445,0.593l0.594,0.742
	l52.202,52.2l0,0l0.593,0.595l0.742,0.297l0.592,0.296l0.742,0.146l0,0l0.74-0.146l0.595-0.296l0.741-0.297l0.593-0.595
	L114.498,62.308L114.498,62.308L114.498,62.308z M113.163,58.302L113.163,58.302l0.444,0.596l0.146,0.296l0.146,0.298l0,0
	l-0.146,0.444l-0.146,0.296l-0.444,0.594l-52.202,52.202l0,0l-0.742,0.594l-0.297,0.147h-0.296l0,0H59.33l-0.297-0.147l-0.741-0.594
	L6.089,60.825l0,0l-0.444-0.594l-0.149-0.296l-0.147-0.444l0,0l0.147-0.298l0.149-0.296l0.444-0.596l52.203-52.2l0,0l0.741-0.595
	L59.33,5.36h0.296l0,0h0.296l0.297,0.146l0.742,0.595L113.163,58.302L113.163,58.302L113.163,58.302z"/>
<g enable-background="new    ">
	<path fill="#999999" d="M49.48,96.937v2.73c0,0.201,0.01,0.43,0.02,0.582h-0.386l-0.02-0.393H49.08
		c-0.128,0.255-0.415,0.443-0.806,0.443c-0.579,0-1.028-0.462-1.028-1.148c-0.005-0.752,0.494-1.207,1.073-1.207
		c0.371,0,0.613,0.164,0.722,0.339h0.01v-1.349L49.48,96.937L49.48,96.937z M49.05,98.911c0-0.051-0.005-0.121-0.02-0.172
		c-0.064-0.258-0.302-0.473-0.628-0.473c-0.45,0-0.717,0.374-0.717,0.867c0,0.456,0.242,0.838,0.707,0.838
		c0.292,0,0.559-0.187,0.638-0.491c0.015-0.06,0.02-0.111,0.02-0.18V98.911z"/>
	<path fill="#999999" d="M50.208,98.604c0-0.24-0.01-0.425-0.02-0.61h0.38l0.02,0.369h0.015c0.133-0.215,0.356-0.414,0.756-0.414
		c0.321,0,0.569,0.187,0.671,0.451h0.01c0.074-0.131,0.174-0.224,0.271-0.295c0.145-0.104,0.297-0.158,0.524-0.158
		c0.321,0,0.791,0.196,0.791,0.979v1.324h-0.425v-1.272c0-0.439-0.174-0.695-0.52-0.695c-0.252,0-0.439,0.174-0.52,0.37
		c-0.02,0.06-0.034,0.131-0.034,0.206v1.396h-0.425V98.9c0-0.359-0.168-0.616-0.5-0.616c-0.267,0-0.47,0.207-0.539,0.412
		c-0.025,0.058-0.035,0.133-0.035,0.202v1.355h-0.425v-1.646h0.003v-0.005L50.208,98.604L50.208,98.604z"/>
	<path fill="#999999" d="M54.438,97.992l0.471,1.266c0.078,0.21,0.144,0.396,0.192,0.582h0.015c0.055-0.186,0.125-0.374,0.203-0.582
		l0.465-1.266h0.455l-0.939,2.26h-0.415l-0.91-2.26H54.438z"/>
	<path fill="#999999" d="M58.662,96.937v2.73c0,0.201,0.01,0.43,0.02,0.582h-0.386l-0.021-0.393H58.26
		c-0.129,0.255-0.416,0.443-0.807,0.443c-0.578,0-1.027-0.462-1.027-1.148c-0.005-0.752,0.494-1.207,1.072-1.207
		c0.371,0,0.613,0.164,0.723,0.339h0.012v-1.349L58.662,96.937L58.662,96.937z M58.23,98.911c0-0.051-0.004-0.121-0.02-0.172
		c-0.064-0.258-0.303-0.473-0.629-0.473c-0.449,0-0.717,0.374-0.717,0.867c0,0.456,0.242,0.838,0.707,0.838
		c0.293,0,0.56-0.187,0.639-0.491c0.016-0.06,0.02-0.111,0.02-0.18V98.911z"/>
	<path fill="#999999" d="M61.07,99.71c0,0.195,0.011,0.388,0.035,0.54h-0.394l-0.032-0.285h-0.017
		c-0.136,0.18-0.396,0.336-0.731,0.336c-0.483,0-0.732-0.323-0.732-0.648c0-0.546,0.517-0.846,1.438-0.841v-0.047
		c0-0.184-0.057-0.525-0.543-0.521c-0.229,0-0.461,0.061-0.629,0.17l-0.099-0.274c0.196-0.116,0.487-0.195,0.792-0.195
		c0.729,0,0.907,0.472,0.907,0.921v0.848h0.004V99.71z M60.65,99.098c-0.478-0.013-1.017,0.068-1.017,0.508
		c0,0.271,0.188,0.394,0.406,0.394c0.313,0,0.521-0.188,0.588-0.378c0.019-0.048,0.021-0.095,0.021-0.131v-0.393H60.65z"/>
	<path fill="#999999" d="M61.671,100.009c0-0.169,0.124-0.295,0.296-0.295c0.174,0,0.292,0.121,0.292,0.295
		c0,0.168-0.118,0.298-0.303,0.298C61.788,100.302,61.671,100.176,61.671,100.009z"/>
	<path fill="#999999" d="M64.504,100.172c-0.113,0.056-0.365,0.135-0.688,0.135c-0.724,0-1.191-0.464-1.191-1.155
		c0-0.693,0.507-1.202,1.285-1.202c0.258,0,0.484,0.059,0.604,0.122l-0.099,0.312c-0.104-0.053-0.269-0.104-0.506-0.104
		c-0.55,0-0.847,0.388-0.847,0.853c0,0.524,0.354,0.848,0.832,0.848c0.246,0,0.407-0.057,0.53-0.104L64.504,100.172z"/>
	<path fill="#999999" d="M67.15,99.103c0,0.835-0.618,1.198-1.189,1.198c-0.645,0-1.146-0.447-1.146-1.159
		c0-0.752,0.528-1.196,1.188-1.196C66.686,97.945,67.15,98.416,67.15,99.103z M65.256,99.126c0,0.494,0.297,0.87,0.723,0.87
		c0.416,0,0.729-0.372,0.729-0.879c0-0.383-0.201-0.864-0.717-0.864C65.479,98.254,65.256,98.701,65.256,99.126z"/>
	<path fill="#999999" d="M67.7,98.604c0-0.24-0.011-0.425-0.021-0.61h0.381l0.021,0.369h0.017c0.137-0.215,0.354-0.414,0.756-0.414
		c0.322,0,0.569,0.187,0.676,0.451h0.011c0.073-0.131,0.174-0.224,0.271-0.295c0.145-0.104,0.297-0.158,0.521-0.158
		c0.322,0,0.791,0.196,0.791,0.979v1.324h-0.426v-1.272c0-0.439-0.172-0.695-0.521-0.695c-0.253,0-0.438,0.174-0.521,0.37
		c-0.02,0.06-0.032,0.131-0.032,0.206v1.396h-0.427V98.9c0-0.359-0.168-0.616-0.498-0.616c-0.27,0-0.471,0.207-0.538,0.412
		c-0.023,0.058-0.035,0.133-0.035,0.202v1.355h-0.427v-1.646H67.7V98.604z"/>
</g>
<g>
	<path stroke="#000000" stroke-width="0.5" stroke-miterlimit="10" d="M23.19,55.132V44.755h4.025c0.84,0,1.461,0.097,1.861,0.29
		s0.729,0.515,0.985,0.965c0.257,0.451,0.385,0.973,0.385,1.567c0,0.783-0.218,1.417-0.653,1.903
		c-0.436,0.486-1.068,0.795-1.899,0.927c0.337,0.19,0.594,0.382,0.77,0.577c0.357,0.396,0.672,0.837,0.944,1.324l1.586,2.824h-1.51
		l-1.21-2.158c-0.469-0.844-0.823-1.413-1.062-1.706c-0.239-0.293-0.47-0.49-0.694-0.592c-0.224-0.102-0.537-0.152-0.939-0.152
		h-1.388v4.608H23.19z M24.391,49.334h2.583c0.563,0,0.992-0.063,1.284-0.191s0.523-0.328,0.695-0.602
		c0.171-0.273,0.257-0.592,0.257-0.956c0-0.523-0.164-0.935-0.491-1.235s-0.813-0.45-1.457-0.45h-2.87V49.334z"/>
	<path stroke="#000000" stroke-width="0.5" stroke-miterlimit="10" d="M32.576,55.132V44.755h1.201v10.377H32.576z"/>
	<path stroke="#000000" stroke-width="0.5" stroke-miterlimit="10" d="M40.15,51.061v-1.225l3.843-0.007v3.858
		c-0.589,0.538-1.198,0.942-1.827,1.214c-0.629,0.271-1.276,0.407-1.941,0.407c-0.886,0-1.676-0.208-2.371-0.623
		s-1.245-1.022-1.65-1.82c-0.405-0.798-0.608-1.757-0.608-2.876c0-1.133,0.204-2.12,0.612-2.96c0.408-0.841,0.941-1.46,1.601-1.859
		c0.66-0.399,1.44-0.599,2.341-0.599c0.665,0,1.246,0.116,1.744,0.347c0.499,0.231,0.909,0.559,1.231,0.984
		c0.322,0.425,0.563,1.008,0.725,1.749l-1.08,0.34c-0.146-0.585-0.33-1.023-0.551-1.313c-0.222-0.291-0.514-0.518-0.876-0.683
		c-0.362-0.166-0.77-0.248-1.223-0.248c-0.66,0-1.227,0.15-1.703,0.45c-0.476,0.3-0.858,0.766-1.147,1.399
		c-0.29,0.633-0.435,1.405-0.435,2.317c0,1.388,0.31,2.429,0.929,3.121s1.424,1.038,2.416,1.038c0.473,0,0.958-0.106,1.454-0.318
		c0.496-0.212,0.89-0.465,1.182-0.757v-1.933H40.15z"/>
	<path stroke="#000000" stroke-width="0.5" stroke-miterlimit="10" d="M45.738,55.132V44.755h1.201v4.261h4.72v-4.261h1.2v10.377
		h-1.2V50.24h-4.72v4.891H45.738z"/>
	<path stroke="#000000" stroke-width="0.5" stroke-miterlimit="10" d="M57.224,55.132v-9.152h-2.99v-1.225h7.196v1.225h-3.005v9.152
		H57.224z"/>
	<path stroke="#000000" stroke-width="0.5" stroke-miterlimit="10" d="M65.877,55.132V44.755h1.2v9.152h4.471v1.225H65.877z"/>
	<path stroke="#000000" stroke-width="0.5" stroke-miterlimit="10" d="M72.009,55.132l3.501-10.377h1.284l3.717,10.377h-1.374
		l-1.056-3.143h-3.819l-0.986,3.143H72.009z M74.613,50.87h3.092l-0.943-2.874c-0.292-0.882-0.506-1.6-0.642-2.152
		c-0.117,0.666-0.283,1.326-0.497,1.982L74.613,50.87z"/>
	<path stroke="#000000" stroke-width="0.5" stroke-miterlimit="10" d="M81.426,55.132V44.755h1.23l4.772,8.164v-8.164h1.147v10.377
		h-1.23l-4.765-8.165v8.165H81.426z"/>
	<path stroke="#000000" stroke-width="0.5" stroke-miterlimit="10" d="M90.638,55.132V44.755H97.2v1.225h-5.361v3.171h5.021v1.225
		h-5.021v3.532h5.572v1.225H90.638z"/>
	<path stroke="#000000" stroke-width="0.5" stroke-miterlimit="10" d="M41.505,68.889l1.208,0.347
		c-0.267,1.166-0.733,2.035-1.4,2.609c-0.667,0.573-1.479,0.859-2.436,0.859c-0.841,0-1.559-0.192-2.156-0.577
		s-1.085-1.002-1.465-1.853c-0.38-0.85-0.57-1.854-0.57-3.01c0-1.143,0.19-2.109,0.571-2.9s0.896-1.389,1.545-1.792
		c0.65-0.404,1.376-0.606,2.177-0.606c0.876,0,1.63,0.256,2.26,0.767s1.071,1.261,1.323,2.249l-1.178,0.318
		c-0.403-1.438-1.212-2.158-2.427-2.158c-0.605,0-1.129,0.145-1.573,0.436c-0.443,0.29-0.798,0.742-1.063,1.356
		s-0.397,1.391-0.397,2.331c0,1.421,0.267,2.487,0.801,3.198c0.533,0.711,1.243,1.066,2.129,1.066c0.654,0,1.219-0.218,1.695-0.655
		C41.026,70.439,41.344,69.777,41.505,68.889z"/>
	<path stroke="#000000" stroke-width="0.5" stroke-miterlimit="10" d="M44.141,72.528V62.151h1.201v9.152h4.47v1.225H44.141z"/>
	<path stroke="#000000" stroke-width="0.5" stroke-miterlimit="10" d="M50.93,67.474c0-1.77,0.415-3.13,1.246-4.081
		s1.865-1.427,3.104-1.427c0.801,0,1.53,0.213,2.19,0.638s1.182,1.041,1.567,1.851c0.385,0.81,0.577,1.773,0.577,2.892
		c0,1.539-0.372,2.792-1.118,3.759c-0.82,1.066-1.895,1.6-3.224,1.6c-1.339,0-2.417-0.547-3.232-1.642
		C51.299,70.072,50.93,68.876,50.93,67.474z M52.168,67.492c0,1.28,0.301,2.272,0.902,2.979s1.333,1.06,2.193,1.06
		c0.881,0,1.62-0.356,2.216-1.069c0.597-0.714,0.895-1.762,0.895-3.146c0-0.893-0.154-1.691-0.46-2.395
		c-0.237-0.539-0.593-0.97-1.069-1.293c-0.476-0.324-0.996-0.485-1.559-0.485c-0.906,0-1.653,0.354-2.239,1.063
		C52.461,64.913,52.168,66.009,52.168,67.492z"/>
	<path stroke="#000000" stroke-width="0.5" stroke-miterlimit="10" d="M60.731,69.187l1.133-0.113
		c0.06,0.571,0.197,1.016,0.411,1.334s0.52,0.574,0.917,0.769c0.398,0.193,0.846,0.29,1.345,0.29c0.715,0,1.27-0.164,1.665-0.491
		c0.395-0.327,0.593-0.752,0.593-1.275c0-0.306-0.072-0.573-0.216-0.801c-0.143-0.229-0.359-0.416-0.649-0.563
		c-0.289-0.146-0.914-0.352-1.876-0.619C63.198,67.48,62.589,67.24,62.227,67s-0.645-0.546-0.846-0.917
		c-0.202-0.37-0.303-0.789-0.303-1.256c0-0.84,0.29-1.526,0.869-2.061c0.578-0.533,1.358-0.8,2.341-0.8
		c0.674,0,1.265,0.125,1.771,0.376c0.506,0.25,0.898,0.608,1.178,1.075c0.279,0.468,0.43,1.018,0.449,1.649l-1.155,0.1
		c-0.061-0.675-0.275-1.176-0.646-1.501s-0.89-0.488-1.56-0.488c-0.68,0-1.198,0.143-1.556,0.428
		c-0.357,0.286-0.536,0.655-0.536,1.108c0,0.42,0.131,0.745,0.394,0.977c0.262,0.231,0.851,0.465,1.766,0.702
		c0.896,0.232,1.525,0.434,1.888,0.604c0.553,0.266,0.971,0.613,1.254,1.045c0.282,0.432,0.424,0.946,0.424,1.545
		c0,0.594-0.148,1.135-0.446,1.623c-0.297,0.487-0.7,0.859-1.212,1.113c-0.511,0.255-1.126,0.382-1.846,0.382
		c-1.123,0-2.018-0.315-2.685-0.948S60.756,70.267,60.731,69.187z"/>
	<path stroke="#000000" stroke-width="0.5" stroke-miterlimit="10" d="M69.618,72.528V62.151h6.563v1.225h-5.361v3.171h5.021v1.225
		h-5.021v3.532h5.572v1.225H69.618z"/>
	<path stroke="#000000" stroke-width="0.5" stroke-miterlimit="10" d="M78.022,72.528V62.151h3.134c0.775,0,1.364,0.063,1.768,0.191
		c0.528,0.165,0.986,0.467,1.374,0.905c0.388,0.439,0.689,0.992,0.906,1.66c0.216,0.668,0.324,1.46,0.324,2.375
		c0,1.175-0.184,2.172-0.551,2.99c-0.367,0.819-0.84,1.399-1.416,1.741c-0.576,0.343-1.33,0.514-2.262,0.514H78.022z M79.224,71.303
		h1.933c0.78,0,1.372-0.119,1.774-0.357c0.403-0.238,0.713-0.622,0.93-1.15c0.286-0.703,0.43-1.545,0.43-2.527
		c0-1.052-0.152-1.879-0.457-2.48s-0.695-1.004-1.174-1.207c-0.322-0.137-0.833-0.205-1.533-0.205h-1.902V71.303z"/>
	<path stroke="#000000" stroke-width="0.5" stroke-miterlimit="10" d="M38.3,89.924l3.501-10.377h1.284l3.718,10.377h-1.375
		l-1.056-3.143h-3.819l-0.987,3.143H38.3z M40.904,85.662h3.092l-0.943-2.873c-0.292-0.883-0.506-1.601-0.642-2.152
		c-0.117,0.665-0.283,1.326-0.498,1.982L40.904,85.662z"/>
	<path stroke="#000000" stroke-width="0.5" stroke-miterlimit="10" d="M47.747,89.924V79.547h1.201v4.261h4.72v-4.261h1.2v10.377
		h-1.2v-4.892h-4.72v4.892H47.747z"/>
	<path stroke="#000000" stroke-width="0.5" stroke-miterlimit="10" d="M56.929,89.924V79.547h6.562v1.225h-5.361v3.171h5.021v1.225
		h-5.021v3.532h5.573v1.225H56.929z"/>
	<path stroke="#000000" stroke-width="0.5" stroke-miterlimit="10" d="M64.367,89.924l3.501-10.377h1.284l3.717,10.377h-1.374
		l-1.056-3.143H66.62l-0.986,3.143H64.367z M66.972,85.662h3.092l-0.943-2.873c-0.292-0.883-0.506-1.601-0.642-2.152
		c-0.117,0.665-0.283,1.326-0.497,1.982L66.972,85.662z"/>
	<path stroke="#000000" stroke-width="0.5" stroke-miterlimit="10" d="M73.79,89.924V79.547h3.134c0.775,0,1.364,0.063,1.768,0.191
		c0.528,0.165,0.986,0.467,1.374,0.905c0.388,0.439,0.689,0.992,0.906,1.66c0.216,0.668,0.324,1.46,0.324,2.375
		c0,1.175-0.184,2.172-0.551,2.99c-0.367,0.819-0.84,1.399-1.416,1.741c-0.576,0.343-1.33,0.514-2.262,0.514H73.79z M74.991,88.699
		h1.933c0.78,0,1.372-0.119,1.774-0.357c0.403-0.238,0.713-0.622,0.93-1.15c0.286-0.703,0.43-1.545,0.43-2.527
		c0-1.052-0.152-1.879-0.457-2.48s-0.695-1.004-1.174-1.207c-0.322-0.137-0.833-0.205-1.533-0.205h-1.902V88.699z"/>
</g>
</svg>
