<?xml version="1.0" encoding="utf-8"?>
<!-- Generator: Adobe Illustrator 15.0.0, SVG Export Plug-In . SVG Version: 6.00 Build 0)  -->
<!DOCTYPE svg PUBLIC "-//W3C//DTD SVG 1.1//EN" "http://www.w3.org/Graphics/SVG/1.1/DTD/svg11.dtd">
<svg version="1.1" id="Layer_1" xmlns="http://www.w3.org/2000/svg" xmlns:xlink="http://www.w3.org/1999/xlink" x="0px" y="0px"
	 width="82.779px" height="102.189px" viewBox="0 0 82.779 102.189" enable-background="new 0 0 82.779 102.189"
	 xml:space="preserve">
<g>
	<polygon fill="#FFFFFF" points="1.76,101.083 1.76,101.083 2.727,101.637 3.693,102.05 3.693,102.05 4.658,102.189 5.488,102.189 
		77.29,102.189 77.29,102.189 78.257,102.189 79.364,101.913 80.329,101.498 81.155,100.807 81.155,100.807 81.846,99.979 
		82.26,99.013 82.399,98.047 82.538,97.078 82.538,5.392 82.538,5.392 82.399,4.287 82.124,3.32 81.712,2.217 81.02,1.388 
		81.02,1.388 80.19,0.834 79.223,0.559 78.257,0.282 77.29,0.282 5.488,0.282 5.488,0.282 4.519,0.282 3.416,0.559 2.451,0.973 
		1.484,1.663 1.484,1.663 0.93,2.492 0.517,3.459 0.378,4.426 0.24,5.392 0.24,97.078 0.24,97.078 0.378,98.185 0.654,99.288 
		0.654,99.288 1.071,100.255 	"/>
	<path d="M77.456,100.116H5.652l0,0H5.1L4.41,99.84l-0.554-0.136l-0.414-0.417l-0.416-0.414l-0.275-0.551l-0.138-0.556v-0.69V5.39
		l0,0V4.701l0.138-0.554l0.275-0.553l0.416-0.412l0.414-0.416L4.41,2.631L5.1,2.354h0.552h71.804l0,0h0.553l0.689,0.275l0.555,0.138
		l0.412,0.416l0.416,0.413l0.273,0.552l0.141,0.554V5.39v91.686l0,0v0.69l-0.141,0.557l-0.273,0.552l-0.416,0.413l-0.412,0.416
		l-0.555,0.138l-0.689,0.276h-0.553V100.116L77.456,100.116z M78.423,5.39L78.423,5.39V4.976l-0.274-0.275l-0.275-0.138
		l-0.416-0.139H5.652l0,0L5.239,4.563L4.962,4.701L4.685,4.976V5.39v91.686l0,0v0.418l0.275,0.272l0.277,0.141l0.413,0.138h71.804
		l0,0l0.416-0.138l0.275-0.141l0.274-0.272v-0.418V5.39H78.423z"/>
	<path stroke="#000000" stroke-width="0.5" stroke-linecap="square" stroke-miterlimit="10" d="M13.439,15.223L13.439,15.223
		l1.771-0.273l2.183-0.137l0,0l1.499,0.137l1.227,0.137l0.954,0.409l0.819,0.682l0,0l0.545,0.547l0.41,0.678l0.137,0.82l0.135,0.953
		l0,0v0.683l-0.272,0.679l-0.273,0.545l-0.273,0.545l-0.407,0.545l-0.546,0.411L20.8,22.856l-0.68,0.272l0,0l0,0l0.818,0.546
		l0.682,0.68l0.545,0.818l0.274,1.226l0,0l0.68,2.727l0.273,0.954l0.272,0.545h-2.044l0,0L21.073,29.4l-0.545-2.456l0,0L20.12,25.58
		l-0.272-0.545l-0.409-0.409l-0.411-0.409l-0.408-0.137l-0.546-0.136l-0.681-0.137h-1.908v6.815h-2.045V15.223L13.439,15.223
		L13.439,15.223z M15.483,22.31h2.045l0,0h0.818l0.681-0.273l0.545-0.136l0.546-0.41l0.408-0.412l0.273-0.545l0.272-0.545v-0.678
		l0,0v-0.683L20.8,18.084l-0.273-0.545l-0.408-0.409l-0.546-0.273l-0.681-0.271l-0.681-0.136h-0.683l0,0h-1.227l-0.817,0.136v5.728
		h-0.001V22.31z"/>
	<polygon stroke="#000000" stroke-width="0.5" stroke-linecap="square" stroke-miterlimit="10" points="28.024,14.949 
		28.024,30.626 25.98,30.626 25.98,14.949 	"/>
	<polygon stroke="#000000" stroke-width="0.5" stroke-linecap="square" stroke-miterlimit="10" points="43.563,29.944 
		43.563,29.944 42.747,30.217 41.52,30.49 40.156,30.76 38.656,30.76 38.656,30.76 37.021,30.76 35.385,30.354 34.704,30.08 
		34.022,29.671 33.341,29.262 32.796,28.717 32.796,28.717 32.386,28.172 31.841,27.626 31.16,26.265 30.751,24.629 30.615,22.856 
		30.615,22.856 30.751,21.219 31.16,19.719 31.978,18.222 32.386,17.677 32.93,17.131 33.477,16.586 34.16,16.177 34.84,15.768 
		35.521,15.358 36.34,15.087 37.295,14.949 38.112,14.813 39.066,14.813 39.066,14.813 40.43,14.813 41.52,15.087 42.475,15.223 
		43.018,15.495 42.61,17.131 42.61,17.131 41.93,16.857 41.11,16.723 40.156,16.586 39.066,16.449 39.066,16.449 37.701,16.586 
		36.476,16.857 35.385,17.403 34.432,18.222 33.749,19.039 33.204,20.129 32.93,21.357 32.796,22.856 32.796,22.856 32.93,24.219 
		33.204,25.446 33.749,26.536 34.432,27.49 35.249,28.172 36.34,28.717 37.567,28.99 38.792,29.126 38.792,29.126 40.43,28.99 
		41.52,28.717 41.52,24.083 38.386,24.083 38.386,22.448 43.563,22.448 	"/>
	<polygon stroke="#000000" stroke-width="0.5" stroke-linecap="square" stroke-miterlimit="10" points="48.608,14.949 
		48.608,21.493 56.243,21.493 56.243,14.949 58.288,14.949 58.288,30.626 56.243,30.626 56.243,23.264 48.608,23.264 48.608,30.626 
		46.563,30.626 46.563,14.949 	"/>
	<polygon stroke="#000000" stroke-width="0.5" stroke-linecap="square" stroke-miterlimit="10" points="64.831,16.723 
		60.057,16.723 60.057,14.949 71.645,14.949 71.645,16.723 66.874,16.723 66.874,30.626 64.831,30.626 	"/>
	<polygon stroke="#000000" stroke-width="0.5" stroke-linecap="square" stroke-miterlimit="10" points="19.163,44.667 
		14.392,44.667 14.392,42.894 25.98,42.894 25.98,44.667 21.209,44.667 21.209,58.571 19.163,58.571 	"/>
	<polygon stroke="#000000" stroke-width="0.5" stroke-linecap="square" stroke-miterlimit="10" points="29.796,42.894 
		29.796,52.164 29.796,52.164 29.796,53.39 30.07,54.482 30.342,55.298 30.751,55.979 31.295,56.526 31.978,56.933 32.66,57.072 
		33.477,57.207 33.477,57.207 34.296,57.072 34.977,56.933 35.659,56.526 36.204,55.979 36.612,55.298 37.021,54.482 37.156,53.39 
		37.295,52.164 37.295,42.894 39.339,42.894 39.339,52.029 39.339,52.029 39.203,53.799 38.792,55.163 38.247,56.389 37.567,57.344 
		36.75,58.026 35.659,58.434 34.566,58.706 33.341,58.843 33.341,58.843 32.114,58.843 31.16,58.571 30.206,58.026 29.251,57.344 
		28.704,56.389 28.16,55.298 27.752,53.799 27.752,52.164 27.752,42.894 	"/>
	<path stroke="#000000" stroke-width="0.5" stroke-linecap="square" stroke-miterlimit="10" d="M42.747,43.166L42.747,43.166
		l1.908-0.272l2.043-0.138l0,0l1.502,0.138l1.227,0.272l0.953,0.274l0.82,0.682l0,0l0.547,0.545l0.408,0.682l0.273,0.818v0.955l0,0
		v0.683l-0.134,0.68L52.02,49.03l-0.41,0.546L51.2,50.12l-0.545,0.411l-0.543,0.271l-0.547,0.274l0,0l0,0l0.817,0.545l0.548,0.68
		l0.545,0.82l0.409,1.228l0,0l0.546,2.725l0.409,0.958l0.136,0.544H50.93l0,0l-0.41-1.228l-0.547-2.454l0,0l-0.543-1.365
		l-0.273-0.545l-0.273-0.409l-0.407-0.41l-0.545-0.134l-0.545-0.139l-0.685-0.134h-1.906v6.815h-2.049V43.166L42.747,43.166z
		 M44.792,50.256h2.045l0,0h0.818l0.682-0.135l0.683-0.272l0.407-0.41l0.408-0.409l0.412-0.546l0.133-0.545v-0.683l0,0v-0.681
		l-0.133-0.545l-0.412-0.546l-0.408-0.409l-0.545-0.273l-0.545-0.272l-0.682-0.138h-0.818l0,0H45.61l-0.818,0.138V50.256
		L44.792,50.256z"/>
	<polygon stroke="#000000" stroke-width="0.5" stroke-linecap="square" stroke-miterlimit="10" points="55.288,58.571 
		55.288,42.894 57.604,42.894 62.512,50.801 62.512,50.801 64.149,53.527 65.376,55.979 65.376,55.979 65.376,55.979 65.239,52.844 
		65.239,49.438 65.239,42.894 67.147,42.894 67.147,58.571 65.102,58.571 60.057,50.665 60.057,50.665 58.557,47.939 57.196,45.349 
		57.057,45.484 57.057,45.484 57.196,48.484 57.196,51.89 57.196,58.571 	"/>
	<path stroke="#000000" stroke-width="0.5" stroke-linecap="square" stroke-miterlimit="10" d="M30.342,78.609L30.342,78.609
		l-0.136,1.771l-0.409,1.772l-0.682,1.362l-0.954,1.228l-1.091,0.819l-1.226,0.679l-1.364,0.408l-1.5,0.137l0,0l-1.499-0.137
		l-1.364-0.408l-1.226-0.679l-0.954-0.957l-0.819-1.224l-0.681-1.365l-0.408-1.499V78.88l0,0l0.137-1.771l0.408-1.636l0.546-1.502
		l0.953-1.092l0.955-0.952l1.364-0.819l1.362-0.408l1.5-0.136l0,0l1.499,0.136l1.365,0.408l1.227,0.819l1.09,0.819l0.817,1.225
		l0.546,1.365l0.408,1.501L30.342,78.609L30.342,78.609L30.342,78.609z M18.072,78.745L18.072,78.745l0.138,1.229l0.273,1.226
		l0.409,1.09l0.545,0.956l0.681,0.817l0.818,0.545l1.091,0.412l1.09,0.133l0,0l1.226-0.133l0.954-0.412l0.819-0.545l0.681-0.817
		l0.683-0.956l0.409-1.09l0.135-1.226l0.138-1.365l0,0V77.52l-0.272-1.229l-0.409-1.091l-0.544-0.955l-0.684-0.819l-0.817-0.681
		l-1.092-0.408l-1.226-0.136l0,0l-1.091,0.136l-1.09,0.408l-0.819,0.681L19.3,74.246l-0.546,0.955l-0.271,1.091l-0.274,1.229
		L18.072,78.745L18.072,78.745L18.072,78.745z"/>
	<polygon stroke="#000000" stroke-width="0.5" stroke-linecap="square" stroke-miterlimit="10" points="32.93,86.515 32.93,70.84 
		35.249,70.84 40.156,78.745 40.156,78.745 41.793,81.472 43.018,83.926 43.018,83.926 43.018,83.926 42.884,80.791 42.884,77.383 
		42.884,70.84 44.792,70.84 44.792,86.515 42.747,86.515 37.701,78.609 37.701,78.609 36.065,76.02 34.84,73.293 34.704,73.427 
		34.704,73.427 34.84,76.427 34.84,79.837 34.84,86.515 	"/>
	<polygon stroke="#000000" stroke-width="0.5" stroke-linecap="square" stroke-miterlimit="10" points="48.2,70.84 50.245,70.84 
		50.245,84.881 57.057,84.881 57.057,86.515 48.2,86.515 	"/>
	<polygon stroke="#000000" stroke-width="0.5" stroke-linecap="square" stroke-miterlimit="10" points="60.739,86.515 
		60.739,79.837 55.835,70.84 58.151,70.84 60.331,75.201 60.331,75.201 61.966,78.473 61.966,78.473 61.966,78.473 62.649,76.838 
		63.602,75.201 65.786,70.84 68.1,70.84 62.923,79.837 62.923,86.515 	"/>
</g>
<g>
	<path fill="#999999" d="M33.862,93.434v2.218c0,0.163,0.01,0.352,0.02,0.477h-0.387l-0.02-0.315h-0.018
		c-0.128,0.205-0.415,0.357-0.806,0.357c-0.58,0-1.028-0.375-1.028-0.936c-0.005-0.606,0.493-0.979,1.073-0.979
		c0.371,0,0.612,0.134,0.722,0.273h0.012v-1.098L33.862,93.434L33.862,93.434z M33.431,95.037c0-0.042-0.009-0.1-0.021-0.141
		c-0.063-0.209-0.304-0.387-0.629-0.387c-0.449,0-0.718,0.307-0.718,0.705c0,0.37,0.24,0.681,0.707,0.681
		c0.293,0,0.56-0.148,0.64-0.396c0.015-0.048,0.021-0.093,0.021-0.146V95.037z"/>
	<path fill="#999999" d="M34.589,94.787c0-0.189-0.011-0.346-0.021-0.492h0.381l0.021,0.299h0.018
		c0.133-0.174,0.354-0.337,0.756-0.337c0.32,0,0.568,0.148,0.672,0.365h0.01c0.074-0.104,0.177-0.184,0.271-0.237
		c0.145-0.083,0.297-0.129,0.521-0.129c0.319,0,0.791,0.157,0.791,0.795v1.075h-0.426v-1.033c0-0.354-0.173-0.563-0.52-0.563
		c-0.252,0-0.44,0.143-0.521,0.299c-0.02,0.052-0.035,0.104-0.035,0.167v1.136h-0.425V95.03c0-0.292-0.168-0.5-0.5-0.5
		c-0.267,0-0.47,0.166-0.539,0.333c-0.021,0.047-0.034,0.104-0.034,0.163v1.104h-0.426v-1.341L34.589,94.787L34.589,94.787z"/>
	<path fill="#999999" d="M38.819,94.291l0.469,1.023c0.08,0.172,0.146,0.319,0.193,0.477h0.016c0.055-0.149,0.123-0.306,0.203-0.477
		l0.463-1.023h0.455l-0.938,1.833h-0.415l-0.91-1.833H38.819z"/>
	<path fill="#999999" d="M43.043,93.434v2.218c0,0.163,0.014,0.352,0.021,0.477h-0.391l-0.021-0.315h-0.015
		c-0.132,0.205-0.416,0.357-0.81,0.357c-0.578,0-1.027-0.375-1.027-0.936c-0.006-0.606,0.494-0.979,1.072-0.979
		c0.371,0,0.613,0.134,0.726,0.273h0.012v-1.098L43.043,93.434L43.043,93.434z M42.609,95.037c0-0.042-0.004-0.1-0.021-0.141
		c-0.063-0.209-0.304-0.387-0.629-0.387c-0.449,0-0.717,0.307-0.717,0.705c0,0.37,0.24,0.681,0.707,0.681
		c0.292,0,0.559-0.148,0.639-0.396c0.019-0.048,0.021-0.093,0.021-0.146V95.037z"/>
	<path fill="#999999" d="M45.45,95.684c0,0.157,0.014,0.313,0.034,0.438H45.09l-0.03-0.229h-0.02
		c-0.133,0.146-0.394,0.271-0.729,0.271c-0.481,0-0.729-0.264-0.729-0.524c0-0.439,0.52-0.688,1.438-0.686v-0.036
		c0-0.146-0.061-0.426-0.543-0.421c-0.229,0-0.461,0.051-0.629,0.138l-0.103-0.226c0.193-0.097,0.484-0.156,0.79-0.156
		c0.729,0,0.91,0.382,0.91,0.744L45.45,95.684L45.45,95.684z M45.029,95.188c-0.479-0.012-1.014,0.06-1.014,0.411
		c0,0.223,0.188,0.317,0.4,0.317c0.313,0,0.521-0.15,0.589-0.31c0.021-0.038,0.021-0.076,0.021-0.104L45.029,95.188L45.029,95.188z"
		/>
	<path fill="#999999" d="M46.05,95.927c0-0.139,0.125-0.236,0.301-0.236c0.174,0,0.293,0.1,0.293,0.236
		c0,0.138-0.119,0.236-0.307,0.236C46.17,96.166,46.05,96.063,46.05,95.927z"/>
	<path fill="#999999" d="M48.884,96.059c-0.109,0.042-0.361,0.104-0.688,0.104c-0.723,0-1.19-0.375-1.19-0.938
		c0-0.563,0.504-0.979,1.285-0.979c0.258,0,0.483,0.051,0.604,0.103l-0.104,0.253c-0.104-0.042-0.267-0.086-0.504-0.086
		c-0.55,0-0.847,0.313-0.847,0.688c0,0.429,0.354,0.688,0.832,0.688c0.246,0,0.408-0.045,0.528-0.087L48.884,96.059z"/>
	<path fill="#999999" d="M51.528,95.192c0,0.681-0.617,0.977-1.189,0.977c-0.645,0-1.146-0.361-1.146-0.94
		c0-0.607,0.523-0.972,1.187-0.972C51.065,94.253,51.528,94.635,51.528,95.192z M49.635,95.212c0,0.398,0.3,0.704,0.726,0.704
		c0.416,0,0.729-0.302,0.729-0.715c0-0.313-0.198-0.698-0.717-0.698C49.858,94.504,49.635,94.867,49.635,95.212z"/>
	<path fill="#999999" d="M52.079,94.787c0-0.189-0.012-0.346-0.02-0.492h0.381l0.02,0.299h0.021
		c0.135-0.174,0.354-0.337,0.756-0.337c0.32,0,0.565,0.148,0.674,0.365h0.01c0.074-0.104,0.172-0.184,0.271-0.237
		c0.145-0.083,0.297-0.129,0.521-0.129c0.32,0,0.791,0.157,0.791,0.795v1.075h-0.426v-1.033c0-0.354-0.174-0.563-0.52-0.563
		c-0.257,0-0.439,0.143-0.521,0.299c-0.021,0.052-0.035,0.104-0.035,0.167v1.136h-0.422V95.03c0-0.292-0.168-0.5-0.498-0.5
		c-0.271,0-0.475,0.166-0.539,0.333c-0.022,0.047-0.035,0.104-0.035,0.163v1.104h-0.426v-1.343H52.079z"/>
</g>
</svg>
