<?xml version="1.0" encoding="utf-8"?>
<!-- Generator: Adobe Illustrator 15.0.0, SVG Export Plug-In . SVG Version: 6.00 Build 0)  -->
<!DOCTYPE svg PUBLIC "-//W3C//DTD SVG 1.1//EN" "http://www.w3.org/Graphics/SVG/1.1/DTD/svg11.dtd">
<svg version="1.1" id="Layer_1" xmlns="http://www.w3.org/2000/svg" xmlns:xlink="http://www.w3.org/1999/xlink" x="0px" y="0px"
	 width="131.01px" height="102.189px" viewBox="0 0 131.01 102.189" enable-background="new 0 0 131.01 102.189"
	 xml:space="preserve">
<g>
	<polygon fill="#FFFFFF" points="119.801,85.14 14.134,85.14 14.134,85.14 12.728,84.995 11.477,84.849 10.382,84.414 9.444,83.978 
		8.664,83.252 8.195,82.525 7.882,81.653 7.726,80.636 7.726,4.504 7.726,4.504 7.882,3.488 8.195,2.614 8.664,1.888 9.444,1.161 
		10.382,0.726 11.477,0.29 12.728,0.145 14.134,0 119.801,0 119.801,0 121.365,0.145 122.617,0.29 123.71,0.726 124.492,1.161 
		125.272,1.888 125.741,2.614 126.053,3.488 126.212,4.504 126.212,80.636 126.212,80.636 126.053,81.653 125.741,82.525 
		125.272,83.252 124.492,83.978 123.71,84.414 122.617,84.849 121.365,84.995 	"/>
	<path d="M119.801,83.252H14.134l0,0l-0.78-0.145h-0.782l-0.625-0.291l-0.47-0.291l-0.469-0.291l-0.311-0.434l-0.156-0.581v-0.584
		V4.504l0,0V3.923l0.156-0.581l0.312-0.437l0.47-0.289l0.47-0.292l0.625-0.291h0.781l0.78-0.146h105.667l0,0l0.938,0.146h0.624
		l0.623,0.291l0.471,0.292l0.469,0.287l0.315,0.438l0.155,0.58l0.158,0.584v76.131l0,0l-0.158,0.585l-0.155,0.581l-0.315,0.433
		l-0.469,0.291l-0.471,0.291l-0.623,0.291h-0.624L119.801,83.252L119.801,83.252L119.801,83.252z M121.051,4.504L121.051,4.504
		V4.068l-0.312-0.145l-0.314-0.145l-0.624-0.144H14.134l0,0l-0.469,0.144l-0.467,0.145l-0.157,0.145l-0.156,0.437v76.132l0,0
		l0.156,0.437l0.158,0.145l0.468,0.144l0.468,0.146h105.667l0,0l0.626-0.146l0.313-0.144l0.313-0.145v-0.437V4.504H121.051z"/>
</g>
<g>
	<path fill="#999999" d="M60.056,76.059v2.219c0,0.163,0.01,0.353,0.02,0.478h-0.387l-0.02-0.315h-0.017
		c-0.128,0.205-0.415,0.357-0.806,0.357c-0.58,0-1.028-0.375-1.028-0.937c-0.005-0.605,0.493-0.979,1.073-0.979
		c0.371,0,0.612,0.134,0.722,0.272h0.01v-1.098L60.056,76.059L60.056,76.059z M59.626,77.662c0-0.042-0.007-0.101-0.021-0.142
		c-0.063-0.209-0.304-0.386-0.629-0.386c-0.449,0-0.718,0.307-0.718,0.705c0,0.369,0.241,0.68,0.707,0.68
		c0.293,0,0.56-0.148,0.64-0.396c0.015-0.049,0.021-0.094,0.021-0.146V77.662z"/>
	<path fill="#999999" d="M60.782,77.412c0-0.188-0.011-0.346-0.021-0.491h0.381l0.021,0.3h0.017
		c0.133-0.175,0.354-0.337,0.756-0.337c0.32,0,0.568,0.146,0.672,0.362h0.01c0.074-0.104,0.175-0.183,0.271-0.234
		c0.145-0.083,0.297-0.13,0.522-0.13c0.319,0,0.791,0.155,0.791,0.796v1.074h-0.426v-1.032c0-0.354-0.173-0.563-0.521-0.563
		c-0.251,0-0.439,0.144-0.521,0.299c-0.02,0.053-0.035,0.104-0.035,0.168v1.136h-0.425v-1.103c0-0.292-0.168-0.5-0.5-0.5
		c-0.267,0-0.47,0.166-0.539,0.333c-0.023,0.047-0.034,0.104-0.034,0.163v1.104h-0.426v-1.341L60.782,77.412L60.782,77.412z"/>
	<path fill="#999999" d="M65.014,76.916l0.469,1.022c0.08,0.172,0.146,0.319,0.193,0.478h0.016c0.055-0.149,0.123-0.307,0.203-0.478
		l0.463-1.022h0.455l-0.938,1.833h-0.415l-0.91-1.833H65.014z"/>
	<path fill="#999999" d="M69.237,76.059v2.219c0,0.163,0.013,0.353,0.021,0.478h-0.392l-0.021-0.315h-0.019
		c-0.129,0.205-0.416,0.357-0.807,0.357c-0.578,0-1.028-0.375-1.028-0.937c-0.006-0.605,0.495-0.979,1.073-0.979
		c0.37,0,0.61,0.134,0.724,0.272h0.014v-1.098L69.237,76.059L69.237,76.059z M68.804,77.662c0-0.042-0.006-0.101-0.021-0.142
		c-0.063-0.209-0.305-0.386-0.629-0.386c-0.449,0-0.717,0.307-0.717,0.705c0,0.369,0.238,0.68,0.705,0.68
		c0.293,0,0.561-0.148,0.641-0.396c0.018-0.049,0.021-0.094,0.021-0.146V77.662z"/>
	<path fill="#999999" d="M71.646,78.309c0,0.158,0.014,0.313,0.033,0.438h-0.396l-0.032-0.229h-0.019
		c-0.135,0.146-0.396,0.271-0.729,0.271c-0.479,0-0.729-0.265-0.729-0.524c0-0.438,0.521-0.688,1.438-0.688v-0.034
		c0-0.146-0.06-0.427-0.543-0.421c-0.229,0-0.462,0.052-0.63,0.139l-0.103-0.228c0.191-0.097,0.482-0.155,0.789-0.155
		c0.729,0,0.91,0.383,0.91,0.744L71.646,78.309L71.646,78.309z M71.224,77.812c-0.479-0.011-1.017,0.06-1.017,0.411
		c0,0.224,0.188,0.317,0.401,0.317c0.313,0,0.521-0.15,0.59-0.311c0.021-0.038,0.021-0.076,0.021-0.104L71.224,77.812L71.224,77.812
		z"/>
	<path fill="#999999" d="M72.243,78.552c0-0.142,0.125-0.236,0.301-0.236c0.174,0,0.293,0.101,0.293,0.236
		c0,0.139-0.119,0.233-0.307,0.233C72.362,78.791,72.243,78.687,72.243,78.552z"/>
	<path fill="#999999" d="M75.077,78.684c-0.109,0.042-0.361,0.104-0.688,0.104c-0.726,0-1.189-0.375-1.189-0.938
		c0-0.563,0.504-0.979,1.285-0.979c0.258,0,0.482,0.053,0.604,0.104l-0.104,0.252c-0.104-0.042-0.268-0.086-0.504-0.086
		c-0.551,0-0.85,0.313-0.85,0.688c0,0.431,0.354,0.688,0.832,0.688c0.246,0,0.407-0.045,0.529-0.087L75.077,78.684z"/>
	<path fill="#999999" d="M77.724,77.817c0,0.68-0.617,0.978-1.189,0.978c-0.645,0-1.146-0.361-1.146-0.94
		c0-0.605,0.525-0.972,1.188-0.972C77.261,76.878,77.724,77.26,77.724,77.817z M75.829,77.837c0,0.397,0.301,0.704,0.727,0.704
		c0.416,0,0.729-0.303,0.729-0.716c0-0.313-0.201-0.697-0.719-0.697C76.054,77.129,75.829,77.492,75.829,77.837z"/>
	<path fill="#999999" d="M78.274,77.412c0-0.188-0.012-0.346-0.021-0.491h0.381l0.021,0.3h0.02c0.135-0.175,0.354-0.337,0.756-0.337
		c0.319,0,0.567,0.146,0.676,0.362h0.012c0.072-0.104,0.172-0.183,0.271-0.234c0.146-0.083,0.297-0.13,0.521-0.13
		c0.32,0,0.791,0.155,0.791,0.796v1.074h-0.426v-1.032c0-0.354-0.175-0.563-0.521-0.563c-0.257,0-0.438,0.144-0.521,0.299
		c-0.021,0.053-0.035,0.104-0.035,0.168v1.136h-0.424v-1.103c0-0.292-0.168-0.5-0.498-0.5c-0.271,0-0.478,0.166-0.539,0.333
		c-0.022,0.047-0.033,0.104-0.033,0.163v1.104h-0.428v-1.345H78.274z"/>
</g>
<g>
	<path stroke="#000000" stroke-width="0.75" stroke-miterlimit="10" d="M16.257,24.768V12.105h5.521c1.153,0,2.004,0.12,2.554,0.355
		c0.549,0.236,0.999,0.627,1.352,1.178c0.353,0.549,0.528,1.188,0.528,1.913c0,0.956-0.299,1.73-0.896,2.321
		c-0.597,0.593-1.466,0.97-2.606,1.13c0.463,0.233,0.815,0.468,1.057,0.704c0.49,0.484,0.923,1.022,1.295,1.616l2.175,3.446h-2.072
		l-1.661-2.632c-0.643-1.032-1.129-1.724-1.457-2.083c-0.327-0.358-0.645-0.599-0.952-0.723s-0.736-0.186-1.289-0.186h-1.903v5.623
		L16.257,24.768L16.257,24.768z M17.904,17.694h3.542c0.773,0,1.36-0.078,1.762-0.233c0.4-0.157,0.718-0.4,0.953-0.736
		c0.234-0.334,0.352-0.722,0.352-1.166c0-0.64-0.225-1.142-0.673-1.508s-1.115-0.547-2-0.547h-3.937V17.694z"/>
	<path stroke="#000000" stroke-width="0.75" stroke-miterlimit="10" d="M29.135,24.768V12.105h1.647v12.665L29.135,24.768
		L29.135,24.768z"/>
	<path stroke="#000000" stroke-width="0.75" stroke-miterlimit="10" d="M39.526,19.802v-1.495l5.273-0.008v4.708
		c-0.809,0.656-1.644,1.149-2.507,1.481c-0.863,0.333-1.751,0.497-2.663,0.497c-1.215,0-2.3-0.253-3.253-0.76
		c-0.953-0.507-1.708-1.248-2.263-2.222c-0.557-0.974-0.834-2.145-0.834-3.51c0-1.383,0.28-2.588,0.839-3.613
		c0.56-1.025,1.292-1.782,2.196-2.269s1.975-0.732,3.212-0.732c0.911,0,1.709,0.142,2.393,0.425
		c0.684,0.282,1.246,0.682,1.688,1.201c0.441,0.517,0.773,1.228,0.995,2.132l-1.481,0.414c-0.201-0.714-0.452-1.248-0.756-1.601
		c-0.304-0.356-0.705-0.632-1.202-0.835c-0.498-0.202-1.056-0.302-1.677-0.302c-0.905,0-1.684,0.184-2.336,0.549
		s-1.178,0.936-1.575,1.708c-0.397,0.772-0.596,1.715-0.596,2.827c0,1.695,0.425,2.964,1.274,3.808
		c0.849,0.846,1.955,1.268,3.316,1.268c0.648,0,1.314-0.13,1.994-0.389c0.68-0.26,1.221-0.567,1.622-0.925v-2.356L39.526,19.802
		L39.526,19.802z"/>
	<path stroke="#000000" stroke-width="0.75" stroke-miterlimit="10" d="M47.191,24.768V12.105h1.647v5.201h6.475v-5.201h1.647
		v12.665h-1.647V18.8h-6.475v5.97L47.191,24.768L47.191,24.768z"/>
	<path stroke="#000000" stroke-width="0.75" stroke-miterlimit="10" d="M62.948,24.768V13.599h-4.103v-1.495h9.874v1.495h-4.124
		v11.17L62.948,24.768L62.948,24.768z"/>
	<path stroke="#000000" stroke-width="0.75" stroke-miterlimit="10" d="M74.82,24.768V12.105h1.647v11.172h6.133v1.493L74.82,24.768
		L74.82,24.768z"/>
	<path stroke="#000000" stroke-width="0.75" stroke-miterlimit="10" d="M83.233,24.768l4.805-12.664h1.759l5.103,12.664h-1.886
		l-1.45-3.834h-5.239l-1.353,3.834H83.233z M86.806,19.568h4.242l-1.295-3.507c-0.399-1.075-0.695-1.951-0.882-2.625
		c-0.162,0.811-0.388,1.619-0.682,2.419L86.806,19.568z"/>
	<path stroke="#000000" stroke-width="0.75" stroke-miterlimit="10" d="M96.15,24.768V12.105h1.689l6.546,9.964v-9.964h1.576v12.665
		h-1.689l-6.538-9.964v9.964L96.15,24.768L96.15,24.768z"/>
	<path stroke="#000000" stroke-width="0.75" stroke-miterlimit="10" d="M108.789,24.768V12.105h9.004v1.495h-7.357v3.87h6.89v1.493
		h-6.89v4.313h7.646v1.493L108.789,24.768L108.789,24.768z"/>
</g>
<g>
	<path stroke="#000000" stroke-width="0.5" stroke-miterlimit="10" d="M51.712,42.371c-0.143-2.088-0.315-4.619-0.315-6.462H51.34
		c-0.688,1.732-1.46,3.619-2.433,5.684L45.5,48.854h-1.889l-3.148-7.127c-0.917-2.131-1.66-4.042-2.204-5.818h-0.057
		c-0.057,1.866-0.201,4.353-0.373,6.617l-0.515,6.416h-2.376l1.345-14.966h3.177l3.291,7.239c0.802,1.842,1.432,3.485,1.946,5.041
		h0.057c0.515-1.509,1.202-3.153,2.061-5.041l3.435-7.239h3.177l1.202,14.966h-2.462L51.712,42.371z"/>
	<path stroke="#000000" stroke-width="0.5" stroke-miterlimit="10" d="M60.951,33.977v8.881c0,3.332,1.918,4.752,4.495,4.752
		c2.833,0,4.693-1.466,4.693-4.752v-8.881h2.517v8.748c0,4.597-3.117,6.462-7.296,6.462c-3.951,0-6.927-1.731-6.927-6.395v-8.815
		H60.951z"/>
	<path stroke="#000000" stroke-width="0.5" stroke-miterlimit="10" d="M76.66,46.59c1.116,0.555,2.72,0.976,4.436,0.976
		c2.548,0,4.036-1.042,4.036-2.552c0-1.377-1.029-2.199-3.635-2.954c-3.148-0.887-5.095-2.175-5.095-4.263
		c0-2.332,2.49-4.063,6.239-4.063c1.946,0,3.406,0.356,4.235,0.734l-0.686,1.577c-0.602-0.289-1.89-0.711-3.637-0.711
		c-2.632,0-3.634,1.221-3.634,2.242c0,1.399,1.173,2.088,3.834,2.887c3.262,0.977,4.895,2.197,4.895,4.396
		c0,2.31-2.175,4.33-6.727,4.33c-1.86,0-3.894-0.443-4.923-0.978L76.66,46.59z"/>
	<path stroke="#000000" stroke-width="0.5" stroke-miterlimit="10" d="M94.746,35.62H88.88v-1.643h14.281v1.643h-5.896v13.323h-2.52
		V35.62z"/>
</g>
<g>
	<path stroke="#000000" stroke-width="0.5" stroke-miterlimit="10" d="M55.356,66.364h-7.47v5.395h8.357v1.621H45.368V58.414h10.446
		v1.621h-7.928v4.729h7.47V66.364z"/>
	<path stroke="#000000" stroke-width="0.5" stroke-miterlimit="10" d="M70.036,73.38l-2.489-3.308
		c-1.001-1.266-1.603-2.088-2.204-2.954h-0.057c-0.544,0.866-1.116,1.666-2.09,2.976l-2.318,3.286h-2.862l5.896-7.57l-5.667-7.396
		h2.891l2.547,3.508c0.715,0.978,1.26,1.732,1.774,2.532h0.087c0.543-0.888,1.03-1.576,1.745-2.532l2.605-3.508h2.891l-5.867,7.284
		l6.011,7.682H70.036z"/>
	<path stroke="#000000" stroke-width="0.5" stroke-miterlimit="10" d="M78.305,58.414V73.38h-2.519V58.414H78.305z"/>
	<path stroke="#000000" stroke-width="0.5" stroke-miterlimit="10" d="M86.317,60.057h-5.866v-1.644h14.281v1.644h-5.896v13.321
		h-2.519V60.057z"/>
</g>
</svg>
