<?xml version="1.0" encoding="utf-8"?>
<!-- Generator: Adobe Illustrator 15.0.0, SVG Export Plug-In . SVG Version: 6.00 Build 0)  -->
<!DOCTYPE svg PUBLIC "-//W3C//DTD SVG 1.1//EN" "http://www.w3.org/Graphics/SVG/1.1/DTD/svg11.dtd">
<svg version="1.1" id="Layer_1" xmlns="http://www.w3.org/2000/svg" xmlns:xlink="http://www.w3.org/1999/xlink" x="0px" y="0px"
	 width="119.25px" height="118.98px" viewBox="0 0 119.25 118.98" enable-background="new 0 0 119.25 118.98" xml:space="preserve">
<polygon fill="#FFD520" points="59.626,117.328 59.626,117.328 60.664,117.179 61.702,116.735 61.702,116.735 62.591,116.142 
	63.334,115.4 115.684,63.198 115.684,63.198 116.426,62.456 116.87,61.566 117.314,60.677 117.463,59.491 117.463,59.491 
	117.314,58.451 116.87,57.414 116.87,57.414 116.277,56.524 115.684,55.783 63.48,3.581 63.48,3.581 62.591,2.839 61.553,2.246 
	61.553,2.246 60.664,1.801 59.626,1.653 59.626,1.653 58.587,1.801 57.549,2.246 56.659,2.839 55.77,3.581 3.568,55.783 
	3.568,55.783 2.826,56.524 2.233,57.563 2.233,57.563 1.937,58.451 1.788,59.491 1.788,59.491 1.937,60.677 2.381,61.716 
	2.381,61.716 2.975,62.456 3.568,63.198 55.77,115.4 55.77,115.4 56.659,116.142 57.697,116.735 57.697,116.735 58.587,117.179 "/>
<path d="M114.498,62.308L114.498,62.308l0.593-0.742l0.444-0.593l0.296-0.742v-0.74l0,0v-0.594l-0.296-0.742l-0.444-0.593
	l-0.593-0.742L62.295,4.619l0,0l-0.593-0.593l-0.741-0.445l-0.595-0.146l-0.74-0.148l0,0l-0.742,0.148l-0.592,0.146L57.55,4.026
	l-0.593,0.593L4.754,56.821l0,0L4.16,57.563l-0.445,0.593l-0.296,0.742v0.594l0,0v0.74l0.296,0.742l0.445,0.593l0.594,0.742
	l52.202,52.198l0,0l0.593,0.597l0.742,0.297l0.592,0.296l0.742,0.146l0,0l0.74-0.146l0.595-0.296l0.741-0.297l0.593-0.597
	L114.498,62.308L114.498,62.308L114.498,62.308z M113.163,58.302L113.163,58.302l0.444,0.598l0.146,0.296l0.146,0.298l0,0
	l-0.146,0.444l-0.146,0.296l-0.444,0.594l-52.202,52.202l0,0l-0.742,0.594l-0.297,0.147h-0.296l0,0H59.33l-0.297-0.147l-0.741-0.594
	L6.089,60.825l0,0l-0.444-0.594l-0.149-0.296l-0.147-0.444l0,0l0.147-0.298l0.149-0.296L6.089,58.3L58.292,6.101l0,0l0.741-0.597
	L59.33,5.36h0.296l0,0h0.296l0.297,0.146l0.742,0.597L113.163,58.302L113.163,58.302L113.163,58.302z"/>
<g enable-background="new    ">
	<path fill="#999999" d="M49.48,96.937v2.729c0,0.201,0.01,0.432,0.02,0.582h-0.386l-0.02-0.393H49.08
		c-0.128,0.255-0.415,0.441-0.806,0.441c-0.579,0-1.028-0.462-1.028-1.146c-0.005-0.752,0.494-1.207,1.073-1.207
		c0.371,0,0.613,0.164,0.722,0.339h0.01v-1.349L49.48,96.937L49.48,96.937z M49.05,98.911c0-0.051-0.005-0.121-0.02-0.172
		c-0.064-0.258-0.302-0.473-0.628-0.473c-0.45,0-0.717,0.374-0.717,0.865c0,0.456,0.242,0.84,0.707,0.84
		c0.292,0,0.559-0.188,0.638-0.491c0.015-0.062,0.02-0.111,0.02-0.182V98.911z"/>
	<path fill="#999999" d="M50.208,98.604c0-0.24-0.01-0.425-0.02-0.61h0.38l0.02,0.369h0.015c0.133-0.215,0.356-0.414,0.756-0.414
		c0.321,0,0.569,0.187,0.671,0.451h0.01c0.074-0.131,0.174-0.226,0.271-0.295c0.145-0.104,0.297-0.158,0.524-0.158
		c0.321,0,0.791,0.196,0.791,0.979v1.324h-0.425v-1.271c0-0.439-0.174-0.695-0.52-0.695c-0.252,0-0.439,0.174-0.52,0.37
		c-0.02,0.06-0.034,0.131-0.034,0.206v1.396h-0.425V98.9c0-0.359-0.168-0.616-0.5-0.616c-0.267,0-0.47,0.207-0.539,0.412
		c-0.025,0.058-0.035,0.133-0.035,0.202v1.354h-0.425v-1.646h0.003v-0.005L50.208,98.604L50.208,98.604z"/>
	<path fill="#999999" d="M54.438,97.992l0.471,1.266c0.078,0.21,0.144,0.396,0.192,0.582h0.015c0.055-0.186,0.125-0.374,0.203-0.582
		l0.465-1.266h0.455l-0.939,2.26h-0.415l-0.91-2.26H54.438z"/>
	<path fill="#999999" d="M58.662,96.937v2.729c0,0.201,0.01,0.432,0.02,0.582h-0.386l-0.021-0.393H58.26
		c-0.129,0.255-0.416,0.441-0.807,0.441c-0.578,0-1.027-0.462-1.027-1.146c-0.005-0.752,0.494-1.207,1.072-1.207
		c0.371,0,0.613,0.164,0.723,0.339h0.012v-1.349L58.662,96.937L58.662,96.937z M58.23,98.911c0-0.051-0.004-0.121-0.02-0.172
		c-0.064-0.258-0.303-0.473-0.629-0.473c-0.449,0-0.717,0.374-0.717,0.865c0,0.456,0.242,0.84,0.707,0.84
		c0.293,0,0.56-0.188,0.639-0.491c0.016-0.062,0.02-0.111,0.02-0.182V98.911z"/>
	<path fill="#999999" d="M61.07,99.71c0,0.195,0.011,0.39,0.035,0.54H60.71l-0.03-0.285h-0.019
		c-0.138,0.182-0.396,0.336-0.731,0.336c-0.483,0-0.732-0.321-0.732-0.646c0-0.546,0.517-0.846,1.438-0.841v-0.047
		c0-0.186-0.058-0.525-0.542-0.521c-0.229,0-0.461,0.063-0.629,0.17l-0.099-0.272c0.196-0.116,0.487-0.195,0.792-0.195
		c0.729,0,0.906,0.472,0.906,0.921v0.848h0.004V99.71H61.07z M60.65,99.098c-0.479-0.015-1.019,0.066-1.019,0.508
		c0,0.271,0.188,0.394,0.406,0.394c0.313,0,0.521-0.188,0.588-0.378c0.021-0.048,0.021-0.095,0.021-0.131v-0.393H60.65z"/>
	<path fill="#999999" d="M61.671,100.009c0-0.169,0.124-0.295,0.296-0.295c0.174,0,0.292,0.121,0.292,0.295
		c0,0.168-0.118,0.3-0.303,0.3C61.788,100.302,61.671,100.176,61.671,100.009z"/>
	<path fill="#999999" d="M64.504,100.172c-0.113,0.058-0.365,0.137-0.688,0.137c-0.726,0-1.191-0.466-1.191-1.155
		c0-0.693,0.507-1.202,1.285-1.202c0.258,0,0.484,0.059,0.604,0.122l-0.099,0.312c-0.104-0.053-0.269-0.104-0.506-0.104
		c-0.55,0-0.847,0.388-0.847,0.853c0,0.524,0.354,0.85,0.832,0.85c0.246,0,0.405-0.059,0.528-0.104L64.504,100.172z"/>
	<path fill="#999999" d="M67.15,99.103c0,0.835-0.618,1.196-1.189,1.196c-0.645,0-1.146-0.445-1.146-1.157
		c0-0.752,0.528-1.196,1.188-1.196C66.686,97.945,67.15,98.416,67.15,99.103z M65.256,99.126c0,0.494,0.297,0.87,0.723,0.87
		c0.416,0,0.729-0.372,0.729-0.879c0-0.383-0.201-0.864-0.717-0.864C65.479,98.254,65.256,98.701,65.256,99.126z"/>
	<path fill="#999999" d="M67.7,98.604c0-0.24-0.011-0.425-0.021-0.61h0.381l0.021,0.369h0.017c0.137-0.215,0.354-0.414,0.756-0.414
		c0.322,0,0.569,0.187,0.676,0.451h0.013c0.071-0.131,0.174-0.226,0.271-0.295c0.146-0.104,0.297-0.158,0.521-0.158
		c0.32,0,0.791,0.196,0.791,0.979v1.324h-0.426v-1.271c0-0.439-0.174-0.695-0.521-0.695c-0.253,0-0.438,0.174-0.521,0.37
		c-0.021,0.06-0.032,0.131-0.032,0.206v1.396h-0.428V98.9c0-0.359-0.168-0.616-0.497-0.616c-0.271,0-0.472,0.207-0.538,0.412
		c-0.021,0.058-0.035,0.133-0.035,0.202v1.354H67.7v-1.646l0,0V98.604z"/>
</g>
<g>
	<path stroke="#000000" stroke-width="0.4" stroke-miterlimit="10" d="M41.34,36.573c0.67-0.122,1.646-0.214,2.545-0.214
		c1.418,0,2.348,0.274,2.973,0.839c0.503,0.457,0.808,1.158,0.808,1.966c0,1.341-0.854,2.241-1.92,2.606v0.046
		c0.777,0.274,1.25,1.006,1.494,2.073c0.335,1.433,0.58,2.423,0.793,2.82H46.66c-0.167-0.305-0.396-1.174-0.671-2.454
		c-0.305-1.418-0.869-1.951-2.073-1.997h-1.25v4.451H41.34V36.573z M42.667,41.253h1.356c1.417,0,2.317-0.777,2.317-1.951
		c0-1.326-0.96-1.906-2.363-1.906c-0.64,0-1.082,0.046-1.311,0.107V41.253z"/>
	<path stroke="#000000" stroke-width="0.4" stroke-miterlimit="10" d="M58.37,41.467c0,3.521-2.149,5.411-4.771,5.411
		c-2.729,0-4.619-2.119-4.619-5.229c0-3.262,2.012-5.396,4.756-5.396C56.557,36.253,58.37,38.403,58.37,41.467z M50.383,41.619
		c0,2.21,1.189,4.177,3.292,4.177c2.104,0,3.292-1.936,3.292-4.268c0-2.058-1.066-4.192-3.277-4.192
		C51.48,37.335,50.383,39.378,50.383,41.619z"/>
	<path stroke="#000000" stroke-width="0.4" stroke-miterlimit="10" d="M61.546,43.479l-1.067,3.231h-1.372l3.506-10.274h1.586
		l3.506,10.274h-1.418l-1.098-3.231H61.546z M64.93,42.442l-1.021-2.958c-0.229-0.67-0.381-1.28-0.533-1.875h-0.03
		c-0.152,0.595-0.306,1.235-0.519,1.86l-1.006,2.973H64.93z"/>
	<path stroke="#000000" stroke-width="0.4" stroke-miterlimit="10" d="M69.217,36.589c0.809-0.137,1.769-0.229,2.82-0.229
		c1.905,0,3.262,0.458,4.161,1.281c0.931,0.838,1.464,2.027,1.464,3.689c0,1.677-0.533,3.049-1.479,3.994
		c-0.976,0.96-2.562,1.479-4.558,1.479c-0.961,0-1.738-0.045-2.409-0.122V36.589z M70.543,45.674
		c0.336,0.046,0.823,0.061,1.342,0.061c2.851,0,4.375-1.585,4.375-4.36c0.015-2.423-1.356-3.963-4.162-3.963
		c-0.686,0-1.204,0.061-1.555,0.137V45.674z"/>
	<path stroke="#000000" stroke-width="0.4" stroke-miterlimit="10" d="M41.955,64.689c-0.472,0.244-1.463,0.488-2.713,0.488
		c-2.896,0-5.061-1.829-5.061-5.213c0-3.231,2.18-5.396,5.366-5.396c1.265,0,2.088,0.274,2.439,0.458l-0.335,1.082
		c-0.488-0.244-1.204-0.427-2.058-0.427c-2.409,0-4.009,1.54-4.009,4.237c0,2.531,1.448,4.131,3.933,4.131
		c0.823,0,1.646-0.168,2.18-0.427L41.955,64.689z"/>
	<path stroke="#000000" stroke-width="0.4" stroke-miterlimit="10" d="M43.62,54.736h1.342v9.161h4.39v1.112H43.62V54.736z"/>
	<path stroke="#000000" stroke-width="0.4" stroke-miterlimit="10" d="M59.019,59.766c0,3.521-2.149,5.412-4.771,5.412
		c-2.729,0-4.619-2.119-4.619-5.228c0-3.262,2.012-5.396,4.756-5.396C57.205,54.553,59.019,56.702,59.019,59.766z M51.031,59.918
		c0,2.21,1.189,4.176,3.293,4.176c2.104,0,3.292-1.936,3.292-4.267c0-2.058-1.066-4.192-3.277-4.192
		C52.129,55.635,51.031,57.678,51.031,59.918z"/>
	<path stroke="#000000" stroke-width="0.4" stroke-miterlimit="10" d="M60.578,63.393c0.594,0.382,1.448,0.671,2.362,0.671
		c1.356,0,2.149-0.716,2.149-1.753c0-0.945-0.549-1.509-1.936-2.027c-1.677-0.609-2.714-1.494-2.714-2.926
		c0-1.601,1.326-2.79,3.323-2.79c1.036,0,1.813,0.244,2.256,0.503l-0.365,1.083c-0.32-0.198-1.007-0.488-1.937-0.488
		c-1.402,0-1.936,0.838-1.936,1.54c0,0.96,0.625,1.433,2.042,1.981c1.738,0.671,2.607,1.509,2.607,3.018
		c0,1.585-1.159,2.973-3.583,2.973c-0.99,0-2.072-0.305-2.621-0.671L60.578,63.393z"/>
	<path stroke="#000000" stroke-width="0.4" stroke-miterlimit="10" d="M73.568,60.192H69.59v3.705h4.451v1.112h-5.792V54.736h5.563
		v1.113H69.59v3.247h3.979V60.192z"/>
	<path stroke="#000000" stroke-width="0.4" stroke-miterlimit="10" d="M75.767,54.888c0.809-0.137,1.769-0.229,2.82-0.229
		c1.905,0,3.262,0.458,4.161,1.281c0.931,0.838,1.464,2.027,1.464,3.689c0,1.676-0.533,3.048-1.479,3.994
		c-0.976,0.96-2.562,1.479-4.558,1.479c-0.961,0-1.738-0.046-2.409-0.122V54.888z M77.093,63.973
		c0.336,0.045,0.823,0.061,1.342,0.061c2.851,0,4.375-1.585,4.375-4.359c0.015-2.424-1.356-3.963-4.162-3.963
		c-0.686,0-1.204,0.061-1.555,0.137V63.973z"/>
	<path stroke="#000000" stroke-width="0.4" stroke-miterlimit="10" d="M38.884,80.079l-1.067,3.231h-1.372l3.506-10.274h1.585
		l3.506,10.274h-1.417l-1.098-3.231H38.884z M42.268,79.042l-1.021-2.957c-0.229-0.671-0.381-1.28-0.533-1.875h-0.031
		c-0.152,0.595-0.305,1.235-0.518,1.86l-1.006,2.972H42.268z"/>
	<path stroke="#000000" stroke-width="0.4" stroke-miterlimit="10" d="M47.882,73.036v4.299h4.969v-4.299h1.341V83.31h-1.341v-4.817
		h-4.969v4.817H46.54V73.036H47.882z"/>
	<path stroke="#000000" stroke-width="0.4" stroke-miterlimit="10" d="M61.803,78.493h-3.979v3.705h4.451v1.112h-5.792V73.036h5.563
		v1.113h-4.223v3.247h3.979V78.493z"/>
	<path stroke="#000000" stroke-width="0.4" stroke-miterlimit="10" d="M65.663,80.079l-1.067,3.231h-1.372l3.506-10.274h1.586
		l3.506,10.274h-1.418l-1.098-3.231H65.663z M69.047,79.042l-1.021-2.957c-0.229-0.671-0.381-1.28-0.533-1.875h-0.03
		c-0.152,0.595-0.306,1.235-0.519,1.86l-1.006,2.972H69.047z"/>
	<path stroke="#000000" stroke-width="0.4" stroke-miterlimit="10" d="M73.334,73.188c0.809-0.137,1.769-0.229,2.82-0.229
		c1.905,0,3.262,0.458,4.161,1.28c0.931,0.839,1.464,2.027,1.464,3.689c0,1.677-0.533,3.049-1.479,3.994
		c-0.976,0.96-2.562,1.479-4.558,1.479c-0.961,0-1.738-0.046-2.409-0.122V73.188z M74.66,82.274
		c0.336,0.045,0.823,0.061,1.342,0.061c2.851,0,4.375-1.585,4.375-4.359c0.015-2.424-1.356-3.964-4.162-3.964
		c-0.686,0-1.204,0.062-1.555,0.138V82.274z"/>
</g>
</svg>
