<?xml version="1.0" encoding="utf-8"?>
<!-- Generator: Adobe Illustrator 15.0.0, SVG Export Plug-In . SVG Version: 6.00 Build 0)  -->
<!DOCTYPE svg PUBLIC "-//W3C//DTD SVG 1.1//EN" "http://www.w3.org/Graphics/SVG/1.1/DTD/svg11.dtd">
<svg version="1.1" id="Layer_1" xmlns="http://www.w3.org/2000/svg" xmlns:xlink="http://www.w3.org/1999/xlink" x="0px" y="0px"
	 width="119.25px" height="118.98px" viewBox="0 0 119.25 118.98" enable-background="new 0 0 119.25 118.98" xml:space="preserve">
<polygon fill="#FFD520" points="59.626,117.328 59.626,117.328 60.664,117.179 61.702,116.735 61.702,116.735 62.591,116.142 
	63.334,115.4 115.684,63.198 115.684,63.198 116.426,62.456 116.87,61.566 117.314,60.677 117.463,59.491 117.463,59.491 
	117.314,58.451 116.87,57.414 116.87,57.414 116.277,56.524 115.684,55.783 63.48,3.581 63.48,3.581 62.591,2.839 61.553,2.246 
	61.553,2.246 60.664,1.801 59.626,1.653 59.626,1.653 58.587,1.801 57.549,2.246 56.659,2.839 55.77,3.581 3.568,55.783 
	3.568,55.783 2.826,56.524 2.233,57.563 2.233,57.563 1.937,58.451 1.788,59.491 1.788,59.491 1.937,60.677 2.381,61.716 
	2.381,61.716 2.975,62.456 3.568,63.198 55.77,115.4 55.77,115.4 56.659,116.142 57.697,116.735 57.697,116.735 58.587,117.179 
	59.626,117.328 59.626,117.328 "/>
<path d="M114.498,62.308L114.498,62.308l0.593-0.742l0.444-0.593l0.296-0.742v-0.74l0,0v-0.594l-0.296-0.742l-0.444-0.593
	l-0.593-0.742L62.295,4.619l0,0l-0.593-0.593l-0.741-0.445l-0.595-0.147l-0.74-0.148l0,0l-0.742,0.148l-0.592,0.147L57.55,4.026
	l-0.593,0.593L4.754,56.821l0,0L4.16,57.563l-0.445,0.593l-0.296,0.742v0.594l0,0v0.74l0.296,0.742l0.445,0.593l0.594,0.742
	l52.202,52.201l0,0l0.593,0.594l0.742,0.297l0.592,0.296l0.742,0.147l0,0l0.74-0.147l0.595-0.296l0.741-0.297l0.593-0.594
	L114.498,62.308L114.498,62.308L114.498,62.308z M113.163,58.302L113.163,58.302l0.444,0.595l0.147,0.296l0.147,0.298l0,0
	l-0.147,0.444l-0.147,0.296l-0.444,0.594l-52.202,52.202l0,0l-0.742,0.594l-0.297,0.147h-0.296l0,0H59.33l-0.297-0.147l-0.741-0.594
	L6.089,60.825l0,0l-0.444-0.594l-0.149-0.296l-0.147-0.444l0,0l0.147-0.298l0.149-0.296l0.444-0.595L58.292,6.101l0,0l0.741-0.594
	L59.33,5.36h0.296l0,0h0.296l0.297,0.147l0.742,0.594L113.163,58.302L113.163,58.302L113.163,58.302z"/>
<g enable-background="new    ">
	<path fill="#999999" d="M49.48,96.937v2.731c0,0.201,0.01,0.429,0.02,0.582h-0.386l-0.02-0.393H49.08
		c-0.128,0.255-0.415,0.444-0.806,0.444c-0.579,0-1.028-0.462-1.028-1.149c-0.005-0.752,0.494-1.207,1.073-1.207
		c0.371,0,0.613,0.164,0.722,0.339h0.01v-1.349L49.48,96.937L49.48,96.937z M49.05,98.911c0-0.051-0.005-0.121-0.02-0.172
		c-0.064-0.258-0.302-0.473-0.628-0.473c-0.45,0-0.717,0.374-0.717,0.868c0,0.456,0.242,0.837,0.707,0.837
		c0.292,0,0.559-0.186,0.638-0.491c0.015-0.059,0.02-0.111,0.02-0.179V98.911z"/>
	<path fill="#999999" d="M50.208,98.604c0-0.24-0.01-0.425-0.02-0.61h0.38l0.02,0.369h0.015c0.133-0.215,0.356-0.414,0.756-0.414
		c0.321,0,0.569,0.187,0.671,0.451h0.01c0.074-0.131,0.174-0.223,0.271-0.295c0.145-0.103,0.297-0.158,0.524-0.158
		c0.321,0,0.791,0.196,0.791,0.979v1.324h-0.425v-1.273c0-0.439-0.174-0.695-0.52-0.695c-0.252,0-0.439,0.174-0.52,0.37
		c-0.02,0.06-0.034,0.131-0.034,0.206v1.396h-0.425V98.9c0-0.359-0.168-0.616-0.5-0.616c-0.267,0-0.47,0.207-0.539,0.412
		c-0.025,0.058-0.035,0.133-0.035,0.202v1.356h-0.425v-1.646h0.003v-0.005H50.208z"/>
	<path fill="#999999" d="M54.438,97.992l0.471,1.266c0.078,0.21,0.144,0.396,0.192,0.582h0.015c0.055-0.186,0.125-0.374,0.203-0.582
		l0.465-1.266h0.455l-0.939,2.26h-0.415l-0.91-2.26H54.438z"/>
	<path fill="#999999" d="M58.662,96.937v2.731c0,0.201,0.01,0.429,0.02,0.582h-0.386l-0.021-0.393H58.26
		c-0.129,0.255-0.416,0.444-0.807,0.444c-0.578,0-1.027-0.462-1.027-1.149c-0.005-0.752,0.494-1.207,1.072-1.207
		c0.371,0,0.613,0.164,0.723,0.339h0.012v-1.349L58.662,96.937L58.662,96.937z M58.23,98.911c0-0.051-0.004-0.121-0.02-0.172
		c-0.064-0.258-0.303-0.473-0.629-0.473c-0.449,0-0.717,0.374-0.717,0.868c0,0.456,0.242,0.837,0.707,0.837
		c0.293,0,0.56-0.186,0.639-0.491c0.016-0.059,0.02-0.111,0.02-0.179V98.911z"/>
	<path fill="#999999" d="M61.07,99.71c0,0.195,0.011,0.387,0.035,0.54h-0.393l-0.033-0.285h-0.016
		c-0.135,0.179-0.395,0.336-0.731,0.336c-0.483,0-0.732-0.324-0.732-0.649c0-0.546,0.517-0.846,1.439-0.841v-0.047
		c0-0.183-0.057-0.525-0.544-0.521c-0.229,0-0.461,0.061-0.629,0.17l-0.099-0.275c0.196-0.116,0.487-0.195,0.792-0.195
		c0.729,0,0.908,0.472,0.908,0.921v0.848H61.07L61.07,99.71z M60.65,99.098c-0.477-0.012-1.016,0.069-1.016,0.508
		c0,0.271,0.188,0.394,0.406,0.394c0.313,0,0.521-0.188,0.588-0.378c0.018-0.048,0.021-0.095,0.021-0.131V99.098L60.65,99.098z"/>
	<path fill="#999999" d="M61.671,100.009c0-0.169,0.124-0.295,0.296-0.295c0.174,0,0.292,0.121,0.292,0.295
		c0,0.168-0.118,0.297-0.303,0.297C61.788,100.302,61.671,100.176,61.671,100.009z"/>
	<path fill="#999999" d="M64.504,100.172c-0.113,0.055-0.365,0.134-0.688,0.134c-0.723,0-1.191-0.463-1.191-1.155
		c0-0.693,0.507-1.202,1.285-1.202c0.258,0,0.484,0.059,0.604,0.122l-0.099,0.312c-0.104-0.053-0.269-0.104-0.506-0.104
		c-0.55,0-0.847,0.388-0.847,0.853c0,0.524,0.355,0.847,0.832,0.847c0.246,0,0.408-0.056,0.531-0.104L64.504,100.172z"/>
	<path fill="#999999" d="M67.15,99.103c0,0.835-0.618,1.199-1.189,1.199c-0.645,0-1.146-0.448-1.146-1.16
		c0-0.752,0.528-1.196,1.188-1.196C66.686,97.945,67.15,98.416,67.15,99.103z M65.256,99.126c0,0.494,0.297,0.87,0.723,0.87
		c0.416,0,0.729-0.372,0.729-0.879c0-0.383-0.201-0.864-0.717-0.864C65.479,98.254,65.256,98.701,65.256,99.126z"/>
	<path fill="#999999" d="M67.7,98.604c0-0.24-0.011-0.425-0.021-0.61h0.381l0.021,0.369h0.017c0.137-0.215,0.354-0.414,0.756-0.414
		c0.322,0,0.569,0.187,0.676,0.451h0.01c0.074-0.131,0.174-0.223,0.271-0.295c0.144-0.103,0.297-0.158,0.521-0.158
		c0.322,0,0.791,0.196,0.791,0.979v1.324h-0.426v-1.273c0-0.439-0.172-0.695-0.521-0.695c-0.253,0-0.438,0.174-0.521,0.37
		c-0.02,0.06-0.033,0.131-0.033,0.206v1.396h-0.426V98.9c0-0.359-0.168-0.616-0.498-0.616c-0.27,0-0.471,0.207-0.539,0.412
		c-0.023,0.058-0.035,0.133-0.035,0.202v1.356h-0.426v-1.647H67.7V98.604z"/>
</g>
<g>
	<path stroke="#000000" stroke-width="0.5" stroke-miterlimit="10" d="M38.546,39.038c0.792-0.144,1.945-0.252,3.007-0.252
		c1.674,0,2.772,0.324,3.511,0.99c0.594,0.54,0.955,1.368,0.955,2.323c0,1.584-1.008,2.646-2.269,3.078v0.055
		c0.918,0.324,1.477,1.188,1.765,2.449c0.396,1.691,0.684,2.862,0.937,3.331H44.83c-0.198-0.36-0.468-1.387-0.792-2.899
		c-0.36-1.674-1.026-2.305-2.449-2.359h-1.476v5.259h-1.567V39.038z M40.113,44.566h1.602c1.675,0,2.737-0.918,2.737-2.306
		c0-1.565-1.135-2.251-2.791-2.251c-0.756,0-1.278,0.055-1.548,0.126V44.566z"/>
	<path stroke="#000000" stroke-width="0.5" stroke-miterlimit="10" d="M58.655,44.818c0,4.159-2.539,6.392-5.635,6.392
		c-3.223,0-5.456-2.503-5.456-6.176c0-3.854,2.376-6.374,5.617-6.374C56.513,38.66,58.655,41.199,58.655,44.818z M49.221,44.998
		c0,2.611,1.404,4.935,3.889,4.935c2.485,0,3.889-2.287,3.889-5.042c0-2.432-1.26-4.951-3.871-4.951S49.221,42.351,49.221,44.998z"
		/>
	<path stroke="#000000" stroke-width="0.5" stroke-miterlimit="10" d="M62.398,47.195l-1.262,3.817h-1.62l4.142-12.137h1.872
		l4.142,12.137h-1.675l-1.296-3.817H62.398z M66.396,45.969l-1.207-3.492c-0.271-0.792-0.449-1.513-0.631-2.214h-0.035
		c-0.181,0.701-0.359,1.458-0.611,2.195l-1.188,3.511H66.396z"/>
	<path stroke="#000000" stroke-width="0.5" stroke-miterlimit="10" d="M71.452,39.056c0.954-0.162,2.089-0.271,3.331-0.271
		c2.251,0,3.854,0.54,4.916,1.512c1.098,0.991,1.729,2.396,1.729,4.357c0,1.979-0.631,3.601-1.746,4.717
		c-1.152,1.135-3.024,1.747-5.385,1.747c-1.134,0-2.052-0.054-2.845-0.144V39.056z M73.02,49.787
		c0.396,0.054,0.973,0.072,1.584,0.072c3.367,0,5.168-1.873,5.168-5.149c0.019-2.862-1.604-4.682-4.916-4.682
		c-0.811,0-1.422,0.072-1.836,0.162V49.787z"/>
	<path stroke="#000000" stroke-width="0.5" stroke-miterlimit="10" d="M22.678,72.614V60.478h1.729l3.872,6.14
		c0.882,1.423,1.602,2.701,2.161,3.943l0.054-0.019c-0.144-1.621-0.18-3.098-0.18-4.986v-5.078h1.476v12.136h-1.584l-3.853-6.158
		c-0.846-1.35-1.657-2.735-2.25-4.051l-0.054,0.018c0.09,1.531,0.108,2.989,0.108,5.007v5.186L22.678,72.614L22.678,72.614z"/>
	<path stroke="#000000" stroke-width="0.5" stroke-miterlimit="10" d="M40.789,66.925H36.09V71.3h5.257v1.314h-6.842V60.478h6.572
		v1.313H36.09v3.835h4.699V66.925z"/>
	<path stroke="#000000" stroke-width="0.5" stroke-miterlimit="10" d="M43.379,60.64c0.792-0.145,1.945-0.252,3.007-0.252
		c1.674,0,2.772,0.323,3.511,0.989c0.594,0.54,0.955,1.368,0.955,2.322c0,1.585-1.008,2.647-2.269,3.079v0.055
		c0.918,0.323,1.477,1.188,1.765,2.448c0.396,1.692,0.684,2.863,0.937,3.331h-1.621c-0.198-0.36-0.468-1.387-0.792-2.898
		c-0.36-1.675-1.026-2.305-2.449-2.358h-1.476v5.258H43.38L43.379,60.64L43.379,60.64z M44.946,66.168h1.602
		c1.675,0,2.737-0.918,2.737-2.305c0-1.566-1.135-2.25-2.791-2.25c-0.756,0-1.278,0.054-1.548,0.126V66.168z"/>
	<path stroke="#000000" stroke-width="0.5" stroke-miterlimit="10" d="M53.063,60.64c0.792-0.145,1.945-0.252,3.007-0.252
		c1.674,0,2.773,0.323,3.511,0.989c0.594,0.54,0.954,1.368,0.954,2.322c0,1.585-1.009,2.647-2.269,3.079v0.055
		c0.918,0.323,1.477,1.188,1.765,2.448c0.396,1.692,0.684,2.863,0.936,3.331h-1.62c-0.198-0.36-0.468-1.387-0.792-2.898
		c-0.36-1.675-1.026-2.305-2.449-2.358H54.63v5.258h-1.567V60.64z M54.63,66.168h1.602c1.675,0,2.737-0.918,2.737-2.305
		c0-1.566-1.135-2.25-2.791-2.25c-0.756,0-1.278,0.054-1.548,0.126V66.168z"/>
	<path stroke="#000000" stroke-width="0.5" stroke-miterlimit="10" d="M73.173,66.42c0,4.16-2.538,6.394-5.636,6.394
		c-3.223,0-5.455-2.503-5.455-6.177c0-3.854,2.376-6.373,5.617-6.373C71.029,60.262,73.173,62.802,73.173,66.42z M63.738,66.6
		c0,2.609,1.404,4.934,3.89,4.934c2.483,0,3.89-2.287,3.89-5.042c0-2.431-1.262-4.951-3.871-4.951
		C65.034,61.541,63.738,63.954,63.738,66.6z"/>
	<path stroke="#000000" stroke-width="0.5" stroke-miterlimit="10" d="M77.186,72.614l-3.078-12.136h1.656l1.44,6.14
		c0.36,1.513,0.685,3.025,0.899,4.195h0.037c0.196-1.206,0.575-2.646,0.989-4.213l1.62-6.122h1.639l1.478,6.157
		c0.342,1.44,0.666,2.882,0.846,4.159h0.036c0.252-1.333,0.595-2.683,0.973-4.194l1.604-6.122h1.603l-3.438,12.136H83.85
		l-1.531-6.32c-0.377-1.548-0.629-2.735-0.791-3.961h-0.036c-0.198,1.206-0.486,2.396-0.937,3.961l-1.729,6.32H77.186z"/>
	<path stroke="#000000" stroke-width="0.5" stroke-miterlimit="10" d="M90.234,70.706c0.703,0.45,1.711,0.792,2.791,0.792
		c1.604,0,2.539-0.847,2.539-2.07c0-1.116-0.647-1.782-2.287-2.396c-1.979-0.72-3.204-1.765-3.204-3.457
		c0-1.891,1.567-3.295,3.926-3.295c1.226,0,2.144,0.288,2.665,0.595l-0.434,1.278c-0.377-0.234-1.188-0.576-2.285-0.576
		c-1.657,0-2.287,0.99-2.287,1.818c0,1.135,0.738,1.691,2.412,2.341c2.054,0.792,3.078,1.782,3.078,3.563
		c0,1.873-1.367,3.513-4.229,3.513c-1.171,0-2.448-0.36-3.099-0.792L90.234,70.706z"/>
</g>
</svg>
