<?xml version="1.0" encoding="utf-8"?>
<!-- Generator: Adobe Illustrator 15.0.0, SVG Export Plug-In . SVG Version: 6.00 Build 0)  -->
<!DOCTYPE svg PUBLIC "-//W3C//DTD SVG 1.1//EN" "http://www.w3.org/Graphics/SVG/1.1/DTD/svg11.dtd">
<svg version="1.1" id="Layer_1" xmlns="http://www.w3.org/2000/svg" xmlns:xlink="http://www.w3.org/1999/xlink" x="0px" y="0px"
	 width="105.855px" height="111.77px" viewBox="0 0 105.855 111.77" enable-background="new 0 0 105.855 111.77"
	 xml:space="preserve">
<g>
	<polygon fill="#FFD520" points="0,53.42 0,53.42 0,52.041 0.197,50.463 0.788,49.083 1.183,48.493 1.577,47.901 47.31,2.168 
		47.31,2.168 48.492,1.183 49.872,0.591 51.252,0.197 52.829,0 54.406,0.197 55.786,0.591 57.166,1.183 58.349,2.168 
		104.081,47.901 104.081,47.901 104.673,48.493 105.067,49.083 105.461,50.463 105.658,52.041 105.855,53.42 105.855,104.673 
		105.855,104.673 105.658,106.052 105.265,107.432 104.475,108.615 103.687,109.798 102.701,110.586 101.519,111.177 
		100.139,111.572 98.759,111.769 7.097,111.769 7.097,111.769 5.716,111.572 4.337,111.177 3.154,110.586 2.168,109.798 
		1.183,108.615 0.591,107.432 0.197,106.052 0,104.673 	"/>
	<polygon fill="#FFD520" stroke="#000000" stroke-width="2" stroke-miterlimit="10" points="3.154,53.618 3.154,53.618 
		3.351,52.435 3.746,51.054 4.337,49.872 5.125,48.885 48.098,5.914 48.098,5.914 49.281,4.927 50.464,4.337 51.646,3.943 
		52.829,3.943 54.209,3.943 55.392,4.337 56.574,4.927 57.56,5.914 100.73,48.885 100.73,48.885 101.519,49.872 102.11,51.054 
		102.504,52.435 102.504,53.618 102.504,101.716 102.504,101.716 102.504,103.094 102.11,104.476 101.519,105.461 100.73,106.447 
		99.745,107.235 98.562,107.827 97.379,108.219 95.999,108.417 9.856,108.417 9.856,108.417 8.476,108.219 7.293,107.827 
		6.11,107.235 5.125,106.447 4.337,105.461 3.746,104.476 3.351,103.094 3.154,101.716 	"/>
	<path fill="#231F20" d="M72.147,68.402l8.081-2.365l-2.168-7.688l-1.972,0.196l0.593-4.14l-6.507-12.418l-3.548-1.381l-0.591-1.379
		l0,0l-0.591,0.394l-0.788,0.396l0,0l-0.789,0.196L63.08,40.41l0,0h-1.183L61.7,41.594l-2.759,2.365l-3.548,11.63l-4.929,1.973
		l-2.76-6.309l-4.337-2.365l0,0l-0.986,0.592l0,0l-1.183,0.196l0,0l-1.577-0.395l0,0l-3.154,3.352l-2.956,9.659l-5.718,5.322
		l1.577,1.576l6.9-4.534l0.788-3.547l1.183,3.351l-4.337,13.404l1.38,0.591l-4.534,17.15l2.563,0.984l6.505-17.347l2.563,0.197
		l7.097,16.756l2.563-0.789l-5.125-16.164l0,0l1.577-0.395l0,0l1.38-0.396l-2.563-8.082l6.505-1.576l-1.379-6.505h-1.577
		l0.985-1.774l-0.197-0.395l5.717-1.577l1.379-2.562l2.168,9.065l-4.14,13.208l-1.184,20.106l4.534,0.394l1.774-16.755l2.76-6.109
		l2.168,8.476l7.884,14.784l4.142-1.971l-7.491-15.376L72.147,68.402L72.147,68.402z M46.915,62.882L45.93,63.08l0.984-4.337
		l0.789,1.773L46.915,62.882L46.915,62.882z M69.585,50.859l3.548,5.321l-0.787,3.351l-1.184,0.395L69.585,50.859L69.585,50.859z"/>
</g>
<g enable-background="new    ">
	<path fill="#999999" d="M43.907,101.427v2.892c0,0.213,0.01,0.455,0.02,0.618h-0.386l-0.02-0.415h-0.015
		c-0.128,0.267-0.415,0.47-0.806,0.47c-0.579,0-1.028-0.49-1.028-1.217c-0.005-0.796,0.494-1.28,1.073-1.28
		c0.371,0,0.613,0.173,0.722,0.361h0.01v-1.429H43.907z M43.477,103.518c0-0.055-0.005-0.129-0.02-0.183
		c-0.064-0.272-0.302-0.5-0.628-0.5c-0.45,0-0.717,0.396-0.717,0.92c0,0.484,0.242,0.885,0.707,0.885
		c0.292,0,0.559-0.197,0.638-0.519c0.015-0.06,0.02-0.119,0.02-0.188V103.518z"/>
	<path fill="#999999" d="M44.635,103.192c0-0.252-0.01-0.45-0.02-0.647h0.38l0.02,0.391h0.015c0.133-0.228,0.356-0.44,0.756-0.44
		c0.321,0,0.569,0.198,0.672,0.479h0.01c0.074-0.139,0.173-0.237,0.271-0.312c0.144-0.108,0.297-0.168,0.524-0.168
		c0.321,0,0.791,0.208,0.791,1.038v1.404h-0.425v-1.35c0-0.465-0.173-0.736-0.519-0.736c-0.252,0-0.44,0.183-0.519,0.391
		c-0.02,0.063-0.035,0.138-0.035,0.217v1.479h-0.425v-1.434c0-0.381-0.168-0.652-0.5-0.652c-0.267,0-0.47,0.217-0.539,0.435
		c-0.025,0.06-0.035,0.139-0.035,0.213v1.438h-0.425V103.192z"/>
	<path fill="#999999" d="M48.865,102.545l0.47,1.34c0.079,0.223,0.144,0.42,0.193,0.617h0.015c0.054-0.197,0.124-0.395,0.202-0.617
		l0.465-1.34h0.455l-0.939,2.393H49.31l-0.91-2.393H48.865z"/>
	<path fill="#999999" d="M53.088,101.427v2.892c0,0.213,0.01,0.455,0.02,0.618h-0.386l-0.02-0.415h-0.015
		c-0.129,0.267-0.416,0.47-0.807,0.47c-0.578,0-1.027-0.49-1.027-1.217c-0.006-0.796,0.494-1.28,1.072-1.28
		c0.371,0,0.613,0.173,0.722,0.361h0.01v-1.429H53.088z M52.657,103.518c0-0.055-0.005-0.129-0.02-0.183
		c-0.064-0.272-0.302-0.5-0.628-0.5c-0.449,0-0.717,0.396-0.717,0.92c0,0.484,0.242,0.885,0.707,0.885
		c0.291,0,0.559-0.197,0.638-0.519c0.015-0.06,0.02-0.119,0.02-0.188V103.518z"/>
	<path fill="#999999" d="M55.498,104.364c0,0.207,0.01,0.41,0.033,0.573H55.14l-0.033-0.302h-0.016
		c-0.133,0.188-0.391,0.356-0.732,0.356c-0.484,0-0.73-0.342-0.73-0.688c0-0.578,0.514-0.895,1.438-0.89v-0.05
		c0-0.192-0.055-0.554-0.543-0.549c-0.229,0-0.461,0.064-0.629,0.178l-0.098-0.291c0.197-0.124,0.488-0.208,0.791-0.208
		c0.73,0,0.91,0.499,0.91,0.974V104.364z M55.076,103.717c-0.475-0.011-1.014,0.074-1.014,0.538c0,0.287,0.189,0.416,0.406,0.416
		c0.316,0,0.52-0.198,0.588-0.4c0.016-0.05,0.02-0.1,0.02-0.139V103.717z"/>
	<path fill="#999999" d="M56.097,104.68c0-0.179,0.123-0.312,0.295-0.312c0.174,0,0.293,0.128,0.293,0.312
		c0,0.178-0.119,0.312-0.303,0.312C56.215,104.992,56.097,104.858,56.097,104.68z"/>
	<path fill="#999999" d="M58.929,104.853c-0.113,0.055-0.365,0.139-0.688,0.139c-0.721,0-1.191-0.49-1.191-1.222
		c0-0.736,0.506-1.275,1.285-1.275c0.258,0,0.486,0.064,0.604,0.129l-0.098,0.331c-0.105-0.055-0.268-0.113-0.506-0.113
		c-0.549,0-0.844,0.41-0.844,0.904c0,0.554,0.355,0.895,0.83,0.895c0.246,0,0.41-0.059,0.533-0.113L58.929,104.853z"/>
	<path fill="#999999" d="M61.576,103.721c0,0.885-0.617,1.271-1.191,1.271c-0.643,0-1.146-0.475-1.146-1.231
		c0-0.796,0.529-1.266,1.186-1.266C61.111,102.495,61.576,102.994,61.576,103.721z M59.683,103.746c0,0.524,0.297,0.92,0.721,0.92
		c0.416,0,0.727-0.391,0.727-0.93c0-0.405-0.201-0.915-0.717-0.915C59.906,102.821,59.683,103.296,59.683,103.746z"/>
	<path fill="#999999" d="M62.127,103.192c0-0.252-0.01-0.45-0.02-0.647h0.379l0.021,0.391h0.014c0.135-0.228,0.355-0.44,0.756-0.44
		c0.322,0,0.57,0.198,0.674,0.479h0.01c0.074-0.139,0.172-0.237,0.271-0.312c0.143-0.108,0.297-0.168,0.523-0.168
		c0.322,0,0.791,0.208,0.791,1.038v1.404h-0.424v-1.35c0-0.465-0.174-0.736-0.52-0.736c-0.252,0-0.439,0.183-0.52,0.391
		c-0.02,0.063-0.035,0.138-0.035,0.217v1.479h-0.424v-1.434c0-0.381-0.168-0.652-0.5-0.652c-0.268,0-0.469,0.217-0.539,0.435
		c-0.025,0.06-0.035,0.139-0.035,0.213v1.438h-0.424V103.192z"/>
</g>
<circle cx="40.923" cy="43.679" r="5.167"/>
<circle cx="62.298" cy="34.679" r="5.167"/>
</svg>
