<?xml version="1.0" encoding="utf-8"?>
<!-- Generator: Adobe Illustrator 15.0.0, SVG Export Plug-In . SVG Version: 6.00 Build 0)  -->
<!DOCTYPE svg PUBLIC "-//W3C//DTD SVG 1.1//EN" "http://www.w3.org/Graphics/SVG/1.1/DTD/svg11.dtd">
<svg version="1.1" id="Layer_1" xmlns="http://www.w3.org/2000/svg" xmlns:xlink="http://www.w3.org/1999/xlink" x="0px" y="0px"
	 width="79.125px" height="78.324px" viewBox="0 0 79.125 78.324" enable-background="new 0 0 79.125 78.324" xml:space="preserve">
<polygon fill="#F58220" points="39.563,77.104 39.563,77.104 40.242,77.005 40.925,76.716 40.925,76.716 41.507,76.326 
	41.994,75.839 76.338,41.593 76.338,41.593 76.825,41.107 77.117,40.523 77.407,39.939 77.504,39.162 77.504,39.162 77.407,38.479 
	77.117,37.8 77.117,37.8 76.727,37.216 76.338,36.729 42.091,2.484 42.091,2.484 41.507,1.998 40.826,1.608 40.826,1.608 
	40.242,1.316 39.563,1.22 39.563,1.22 38.882,1.316 38.201,1.608 37.617,1.998 37.034,2.484 2.789,36.729 2.789,36.729 
	2.302,37.216 1.913,37.897 1.913,37.897 1.718,38.479 1.621,39.162 1.621,39.162 1.718,39.939 2.009,40.621 2.009,40.621 
	2.399,41.107 2.789,41.593 37.034,75.839 37.034,75.839 37.617,76.326 38.297,76.716 38.297,76.716 38.882,77.005 "/>
<path d="M75.561,41.011L75.561,41.011l0.388-0.487l0.292-0.39l0.195-0.487v-0.485l0,0v-0.39l-0.195-0.486l-0.292-0.39l-0.388-0.487
	L41.313,3.165l0,0l-0.389-0.389l-0.484-0.292l-0.392-0.095l-0.485-0.098l0,0l-0.487,0.098l-0.388,0.095l-0.487,0.292l-0.389,0.389
	L3.566,37.411l0,0l-0.389,0.486l-0.293,0.389l-0.193,0.486v0.39l0,0v0.485l0.193,0.489l0.293,0.388l0.389,0.487l34.246,34.24l0,0
	l0.389,0.396l0.485,0.192l0.39,0.193l0.485,0.098l0,0l0.485-0.098l0.394-0.193l0.484-0.192l0.389-0.396L75.561,41.011L75.561,41.011
	L75.561,41.011z M74.686,38.381L74.686,38.381l0.289,0.394l0.098,0.194l0.095,0.196l0,0l-0.095,0.292l-0.098,0.193l-0.289,0.391
	L40.439,74.287l0,0l-0.489,0.385l-0.194,0.098h-0.193l0,0h-0.195l-0.194-0.098l-0.486-0.385L4.442,40.039l0,0L4.15,39.647
	l-0.096-0.193l-0.097-0.292l0,0l0.097-0.195l0.096-0.194l0.292-0.392L38.688,4.138l0,0l0.486-0.394l0.194-0.093h0.195l0,0h0.193
	l0.194,0.095l0.489,0.394L74.686,38.381L74.686,38.381L74.686,38.381z"/>
<g enable-background="new    ">
	<path d="M16.824,32.13c0.393,0.257,0.957,0.453,1.561,0.453c0.896,0,1.42-0.483,1.42-1.183c0-0.638-0.363-1.018-1.279-1.368
		c-1.108-0.412-1.792-1.008-1.792-1.975c0-1.08,0.876-1.882,2.195-1.882c0.685,0,1.199,0.165,1.491,0.339l-0.242,0.73
		c-0.211-0.134-0.665-0.329-1.279-0.329c-0.926,0-1.279,0.565-1.279,1.039c0,0.648,0.413,0.967,1.35,1.337
		c1.148,0.453,1.722,1.018,1.722,2.036c0,1.07-0.766,2.006-2.367,2.006c-0.655,0-1.37-0.206-1.732-0.453L16.824,32.13z"/>
	<path d="M22.773,26.289v2.9h3.283v-2.9h0.886v6.932h-0.886v-3.25h-3.283v3.25h-0.886v-6.932H22.773z"/>
	<path d="M34.259,29.683c0,2.376-1.42,3.651-3.152,3.651c-1.803,0-3.051-1.43-3.051-3.528c0-2.201,1.329-3.641,3.142-3.641
		C33.061,26.166,34.259,27.616,34.259,29.683z M28.982,29.786c0,1.491,0.786,2.818,2.175,2.818s2.175-1.306,2.175-2.879
		c0-1.389-0.705-2.828-2.165-2.828C29.707,26.896,28.982,28.274,28.982,29.786z"/>
	<path d="M36.269,26.289v4.114c0,1.542,0.675,2.201,1.581,2.201c0.997,0,1.652-0.679,1.652-2.201v-4.114h0.886v4.052
		c0,2.129-1.098,2.993-2.568,2.993c-1.39,0-2.437-0.802-2.437-2.962v-4.083H36.269z"/>
	<path d="M41.895,26.289h0.886v6.181h2.9v0.751h-3.786V26.289z"/>
	<path d="M46.654,26.392c0.534-0.092,1.168-0.154,1.863-0.154c1.259,0,2.155,0.308,2.75,0.864c0.613,0.565,0.967,1.368,0.967,2.489
		c0,1.131-0.354,2.057-0.978,2.694c-0.645,0.648-1.692,0.998-3.011,0.998c-0.635,0-1.148-0.031-1.592-0.082V26.392z M47.531,32.521
		c0.221,0.031,0.543,0.041,0.886,0.041c1.884,0,2.89-1.069,2.89-2.941c0.011-1.635-0.896-2.674-2.748-2.674
		c-0.454,0-0.797,0.041-1.027,0.092V32.521z"/>
	<path d="M56.861,29.971h-2.628v2.499h2.94v0.751h-3.826v-6.932h3.676v0.75h-2.79v2.191h2.628V29.971z"/>
	<path d="M58.309,26.381c0.443-0.082,1.088-0.144,1.682-0.144c0.938,0,1.551,0.185,1.965,0.565c0.332,0.309,0.533,0.782,0.533,1.327
		c0,0.905-0.564,1.512-1.27,1.759v0.031c0.514,0.185,0.826,0.679,0.987,1.398c0.222,0.967,0.383,1.635,0.524,1.903h-0.906
		c-0.111-0.206-0.263-0.792-0.443-1.656c-0.201-0.957-0.574-1.316-1.37-1.347h-0.825v3.003h-0.877V26.381z M59.186,29.539h0.896
		c0.937,0,1.531-0.525,1.531-1.316c0-0.895-0.635-1.286-1.562-1.286c-0.423,0-0.715,0.031-0.865,0.072V29.539z"/>
</g>
<g enable-background="new    ">
	<path fill="none" stroke="#000000" stroke-width="0.25" stroke-miterlimit="10" d="M16.824,32.13
		c0.393,0.257,0.957,0.453,1.561,0.453c0.896,0,1.42-0.483,1.42-1.183c0-0.638-0.363-1.018-1.279-1.368
		c-1.108-0.412-1.792-1.008-1.792-1.975c0-1.08,0.876-1.882,2.195-1.882c0.685,0,1.199,0.165,1.491,0.339l-0.242,0.73
		c-0.211-0.134-0.665-0.329-1.279-0.329c-0.926,0-1.279,0.565-1.279,1.039c0,0.648,0.413,0.967,1.35,1.337
		c1.148,0.453,1.722,1.018,1.722,2.036c0,1.07-0.766,2.006-2.367,2.006c-0.655,0-1.37-0.206-1.732-0.453L16.824,32.13z"/>
	<path fill="none" stroke="#000000" stroke-width="0.25" stroke-miterlimit="10" d="M22.773,26.289v2.9h3.283v-2.9h0.886v6.932
		h-0.886v-3.25h-3.283v3.25h-0.886v-6.932H22.773z"/>
	<path fill="none" stroke="#000000" stroke-width="0.25" stroke-miterlimit="10" d="M34.259,29.683c0,2.376-1.42,3.651-3.152,3.651
		c-1.803,0-3.051-1.43-3.051-3.528c0-2.201,1.329-3.641,3.142-3.641C33.061,26.166,34.259,27.616,34.259,29.683z M28.982,29.786
		c0,1.491,0.786,2.818,2.175,2.818s2.175-1.306,2.175-2.879c0-1.389-0.705-2.828-2.165-2.828
		C29.707,26.896,28.982,28.274,28.982,29.786z"/>
	<path fill="none" stroke="#000000" stroke-width="0.25" stroke-miterlimit="10" d="M36.269,26.289v4.114
		c0,1.542,0.675,2.201,1.581,2.201c0.997,0,1.652-0.679,1.652-2.201v-4.114h0.886v4.052c0,2.129-1.098,2.993-2.568,2.993
		c-1.39,0-2.437-0.802-2.437-2.962v-4.083H36.269z"/>
	<path fill="none" stroke="#000000" stroke-width="0.25" stroke-miterlimit="10" d="M41.895,26.289h0.886v6.181h2.9v0.751h-3.786
		V26.289z"/>
	<path fill="none" stroke="#000000" stroke-width="0.25" stroke-miterlimit="10" d="M46.654,26.392
		c0.534-0.092,1.168-0.154,1.863-0.154c1.259,0,2.155,0.308,2.75,0.864c0.613,0.565,0.967,1.368,0.967,2.489
		c0,1.131-0.354,2.057-0.978,2.694c-0.645,0.648-1.692,0.998-3.011,0.998c-0.635,0-1.148-0.031-1.592-0.082V26.392z M47.531,32.521
		c0.221,0.031,0.543,0.041,0.886,0.041c1.884,0,2.89-1.069,2.89-2.941c0.011-1.635-0.896-2.674-2.748-2.674
		c-0.454,0-0.797,0.041-1.027,0.092V32.521z"/>
	<path fill="none" stroke="#000000" stroke-width="0.25" stroke-miterlimit="10" d="M56.861,29.971h-2.628v2.499h2.94v0.751h-3.826
		v-6.932h3.676v0.75h-2.79v2.191h2.628V29.971z"/>
	<path fill="none" stroke="#000000" stroke-width="0.25" stroke-miterlimit="10" d="M58.309,26.381
		c0.443-0.082,1.088-0.144,1.682-0.144c0.938,0,1.551,0.185,1.965,0.565c0.332,0.309,0.533,0.782,0.533,1.327
		c0,0.905-0.564,1.512-1.27,1.759v0.031c0.514,0.185,0.826,0.679,0.987,1.398c0.222,0.967,0.383,1.635,0.524,1.903h-0.906
		c-0.111-0.206-0.263-0.792-0.443-1.656c-0.201-0.957-0.574-1.316-1.37-1.347h-0.825v3.003h-0.877V26.381z M59.186,29.539h0.896
		c0.937,0,1.531-0.525,1.531-1.316c0-0.895-0.635-1.286-1.562-1.286c-0.423,0-0.715,0.031-0.865,0.072V29.539z"/>
</g>
<g enable-background="new    ">
	<path d="M28.278,45.557l-1.722-6.932h0.927l0.806,3.507c0.201,0.864,0.383,1.728,0.503,2.396h0.02
		c0.111-0.688,0.322-1.512,0.554-2.407l0.906-3.496h0.917l0.826,3.518c0.191,0.822,0.373,1.645,0.473,2.375h0.021
		c0.141-0.761,0.332-1.532,0.544-2.396l0.896-3.496h0.896l-1.924,6.932h-0.917l-0.856-3.609c-0.211-0.885-0.352-1.563-0.443-2.264
		h-0.02c-0.111,0.689-0.272,1.369-0.524,2.264l-0.967,3.609H28.278z"/>
	<path d="M41.485,42.019c0,2.376-1.421,3.651-3.152,3.651c-1.803,0-3.052-1.43-3.052-3.527c0-2.201,1.33-3.641,3.143-3.641
		C40.287,38.501,41.485,39.951,41.485,42.019z M36.208,42.121c0,1.492,0.786,2.818,2.175,2.818s2.175-1.307,2.175-2.879
		c0-1.389-0.705-2.829-2.165-2.829C36.933,39.232,36.208,40.609,36.208,42.121z"/>
	<path d="M42.619,38.717c0.443-0.082,1.088-0.144,1.682-0.144c0.937,0,1.551,0.185,1.964,0.565c0.332,0.309,0.534,0.782,0.534,1.327
		c0,0.905-0.564,1.512-1.27,1.759v0.031c0.514,0.185,0.826,0.678,0.986,1.398c0.223,0.967,0.383,1.635,0.524,1.902h-0.906
		c-0.11-0.205-0.263-0.792-0.443-1.656c-0.201-0.956-0.574-1.316-1.37-1.347h-0.825v3.003h-0.876V38.717z M43.495,41.875h0.896
		c0.937,0,1.53-0.525,1.53-1.316c0-0.895-0.635-1.286-1.561-1.286c-0.424,0-0.715,0.031-0.866,0.072V41.875z"/>
	<path d="M48.033,38.625h0.877v3.342h0.029c0.182-0.267,0.363-0.514,0.534-0.74l2.075-2.602h1.087l-2.457,2.941l2.648,3.99H51.79
		l-2.226-3.404l-0.654,0.762v2.643h-0.877V38.625z"/>
</g>
<g enable-background="new    ">
	<path fill="none" stroke="#000000" stroke-width="0.25" stroke-miterlimit="10" d="M28.278,45.557l-1.722-6.932h0.927l0.806,3.507
		c0.201,0.864,0.383,1.728,0.503,2.396h0.02c0.111-0.688,0.322-1.512,0.554-2.407l0.906-3.496h0.917l0.826,3.518
		c0.191,0.822,0.373,1.645,0.473,2.375h0.021c0.141-0.761,0.332-1.532,0.544-2.396l0.896-3.496h0.896l-1.924,6.932h-0.917
		l-0.856-3.609c-0.211-0.885-0.352-1.563-0.443-2.264h-0.02c-0.111,0.689-0.272,1.369-0.524,2.264l-0.967,3.609H28.278z"/>
	<path fill="none" stroke="#000000" stroke-width="0.25" stroke-miterlimit="10" d="M41.485,42.019c0,2.376-1.421,3.651-3.152,3.651
		c-1.803,0-3.052-1.43-3.052-3.527c0-2.201,1.33-3.641,3.143-3.641C40.287,38.501,41.485,39.951,41.485,42.019z M36.208,42.121
		c0,1.492,0.786,2.818,2.175,2.818s2.175-1.307,2.175-2.879c0-1.389-0.705-2.829-2.165-2.829
		C36.933,39.232,36.208,40.609,36.208,42.121z"/>
	<path fill="none" stroke="#000000" stroke-width="0.25" stroke-miterlimit="10" d="M42.619,38.717
		c0.443-0.082,1.088-0.144,1.682-0.144c0.937,0,1.551,0.185,1.964,0.565c0.332,0.309,0.534,0.782,0.534,1.327
		c0,0.905-0.564,1.512-1.27,1.759v0.031c0.514,0.185,0.826,0.678,0.986,1.398c0.223,0.967,0.383,1.635,0.524,1.902h-0.906
		c-0.11-0.205-0.263-0.792-0.443-1.656c-0.201-0.956-0.574-1.316-1.37-1.347h-0.825v3.003h-0.876V38.717z M43.495,41.875h0.896
		c0.937,0,1.53-0.525,1.53-1.316c0-0.895-0.635-1.286-1.561-1.286c-0.424,0-0.715,0.031-0.866,0.072V41.875z"/>
	<path fill="none" stroke="#000000" stroke-width="0.25" stroke-miterlimit="10" d="M48.033,38.625h0.877v3.342h0.029
		c0.182-0.267,0.363-0.514,0.534-0.74l2.075-2.602h1.087l-2.457,2.941l2.648,3.99H51.79l-2.226-3.404l-0.654,0.762v2.643h-0.877
		V38.625z"/>
</g>
<g enable-background="new    ">
	<path d="M26.159,55.711l-0.705,2.181h-0.906l2.316-6.932h1.047l2.316,6.932h-0.937l-0.725-2.181H26.159z M28.395,55.012
		l-0.675-1.995c-0.151-0.452-0.251-0.864-0.352-1.265h-0.021c-0.101,0.4-0.201,0.833-0.342,1.254l-0.665,2.006H28.395z"/>
	<path d="M32.097,50.96v2.9h3.283v-2.9h0.886v6.932H35.38v-3.25h-3.283v3.25H31.21V50.96H32.097z"/>
	<path d="M41.287,54.642h-2.628v2.499H41.6v0.751h-3.827V50.96h3.676v0.751h-2.79v2.19h2.628V54.642z"/>
	<path d="M43.832,55.711l-0.705,2.181h-0.906l2.316-6.932h1.047l2.316,6.932h-0.937l-0.726-2.181H43.832z M46.067,55.012
		l-0.675-1.995c-0.15-0.452-0.252-0.864-0.352-1.265H45.02c-0.1,0.4-0.201,0.833-0.342,1.254l-0.664,2.006H46.067z"/>
	<path d="M48.894,51.063c0.534-0.092,1.168-0.154,1.862-0.154c1.26,0,2.156,0.309,2.75,0.864c0.614,0.565,0.967,1.368,0.967,2.489
		c0,1.131-0.353,2.057-0.977,2.693c-0.645,0.648-1.692,0.998-3.012,0.998c-0.635,0-1.148-0.031-1.591-0.082V51.063z M49.77,57.192
		c0.222,0.03,0.544,0.041,0.887,0.041c1.883,0,2.89-1.069,2.89-2.941c0.011-1.636-0.896-2.674-2.749-2.674
		c-0.453,0-0.796,0.041-1.027,0.093V57.192z"/>
</g>
<g enable-background="new    ">
	<path fill="none" stroke="#000000" stroke-width="0.25" stroke-miterlimit="10" d="M26.159,55.711l-0.705,2.181h-0.906l2.316-6.932
		h1.047l2.316,6.932h-0.937l-0.725-2.181H26.159z M28.395,55.012l-0.675-1.995c-0.151-0.452-0.251-0.864-0.352-1.265h-0.021
		c-0.101,0.4-0.201,0.833-0.342,1.254l-0.665,2.006H28.395z"/>
	<path fill="none" stroke="#000000" stroke-width="0.25" stroke-miterlimit="10" d="M32.097,50.96v2.9h3.283v-2.9h0.886v6.932H35.38
		v-3.25h-3.283v3.25H31.21V50.96H32.097z"/>
	<path fill="none" stroke="#000000" stroke-width="0.25" stroke-miterlimit="10" d="M41.287,54.642h-2.628v2.499H41.6v0.751h-3.827
		V50.96h3.676v0.751h-2.79v2.19h2.628V54.642z"/>
	<path fill="none" stroke="#000000" stroke-width="0.25" stroke-miterlimit="10" d="M43.832,55.711l-0.705,2.181h-0.906l2.316-6.932
		h1.047l2.316,6.932h-0.937l-0.726-2.181H43.832z M46.067,55.012l-0.675-1.995c-0.15-0.452-0.252-0.864-0.352-1.265H45.02
		c-0.1,0.4-0.201,0.833-0.342,1.254l-0.664,2.006H46.067z"/>
	<path fill="none" stroke="#000000" stroke-width="0.25" stroke-miterlimit="10" d="M48.894,51.063
		c0.534-0.092,1.168-0.154,1.862-0.154c1.26,0,2.156,0.309,2.75,0.864c0.614,0.565,0.967,1.368,0.967,2.489
		c0,1.131-0.353,2.057-0.977,2.693c-0.645,0.648-1.692,0.998-3.012,0.998c-0.635,0-1.148-0.031-1.591-0.082V51.063z M49.77,57.192
		c0.222,0.03,0.544,0.041,0.887,0.041c1.883,0,2.89-1.069,2.89-2.941c0.011-1.636-0.896-2.674-2.749-2.674
		c-0.453,0-0.796,0.041-1.027,0.093V57.192z"/>
</g>
<g enable-background="new    ">
	<path fill="#999999" d="M29.653,59.529v2.264c0,0.168,0.01,0.357,0.021,0.486h-0.395l-0.021-0.324h-0.015
		c-0.131,0.209-0.424,0.365-0.824,0.365c-0.593,0-1.05-0.383-1.05-0.953c-0.005-0.619,0.504-1,1.096-1
		c0.378,0,0.626,0.137,0.737,0.281h0.011v-1.119H29.653L29.653,59.529z M29.211,61.167c0-0.043-0.006-0.104-0.021-0.146
		c-0.065-0.215-0.31-0.394-0.643-0.394c-0.459,0-0.732,0.312-0.732,0.722c0,0.377,0.248,0.69,0.722,0.69
		c0.299,0,0.571-0.149,0.653-0.403c0.015-0.046,0.021-0.093,0.021-0.146V61.167z"/>
	<path fill="#999999" d="M30.395,60.912c0-0.197-0.011-0.354-0.021-0.506h0.389l0.021,0.305h0.017
		c0.136-0.178,0.363-0.344,0.772-0.344c0.327,0,0.581,0.154,0.687,0.375h0.01c0.076-0.107,0.177-0.188,0.277-0.244
		c0.147-0.084,0.303-0.133,0.534-0.133c0.327,0,0.808,0.164,0.808,0.813v1.102h-0.434v-1.059c0-0.359-0.176-0.574-0.53-0.574
		c-0.257,0-0.45,0.145-0.531,0.307c-0.021,0.051-0.036,0.105-0.036,0.172v1.156h-0.436v-1.123c0-0.299-0.172-0.512-0.511-0.512
		c-0.272,0-0.48,0.17-0.55,0.342c-0.025,0.049-0.036,0.106-0.036,0.164v1.129h-0.434v-1.367L30.395,60.912L30.395,60.912z"/>
	<path fill="#999999" d="M34.716,60.406l0.479,1.045c0.082,0.178,0.148,0.33,0.197,0.484h0.017c0.054-0.152,0.125-0.31,0.207-0.484
		l0.473-1.045h0.465l-0.958,1.871h-0.423l-0.93-1.871H34.716z"/>
	<path fill="#999999" d="M39.03,59.529v2.264c0,0.168,0.01,0.357,0.021,0.486h-0.395l-0.021-0.324H38.62
		c-0.132,0.209-0.425,0.365-0.823,0.365c-0.592,0-1.05-0.383-1.05-0.953c-0.005-0.619,0.504-1,1.095-1
		c0.379,0,0.626,0.137,0.738,0.281h0.011v-1.119H39.03L39.03,59.529z M38.588,61.167c0-0.043-0.004-0.104-0.02-0.146
		c-0.065-0.215-0.31-0.394-0.642-0.394c-0.459,0-0.732,0.312-0.732,0.722c0,0.377,0.247,0.69,0.722,0.69
		c0.298,0,0.571-0.149,0.651-0.403c0.016-0.046,0.02-0.093,0.02-0.146L38.588,61.167L38.588,61.167z"/>
	<path fill="#999999" d="M41.49,61.826c0,0.162,0.012,0.32,0.033,0.447h-0.398l-0.035-0.232h-0.016
		c-0.137,0.146-0.402,0.275-0.746,0.275c-0.494,0-0.748-0.269-0.748-0.537c0-0.449,0.525-0.699,1.471-0.697v-0.037
		c0-0.148-0.059-0.436-0.557-0.43c-0.234,0-0.471,0.051-0.643,0.139l-0.103-0.229c0.201-0.101,0.499-0.162,0.811-0.162
		c0.744,0,0.93,0.391,0.93,0.764v0.699H41.49z M41.061,61.32c-0.483-0.01-1.037,0.063-1.037,0.422c0,0.229,0.191,0.324,0.414,0.324
		c0.32,0,0.531-0.152,0.603-0.313c0.021-0.039,0.021-0.078,0.021-0.107V61.32L41.061,61.32z"/>
	<path fill="#999999" d="M42.102,62.076c0-0.141,0.127-0.244,0.303-0.244c0.181,0,0.302,0.104,0.302,0.244s-0.121,0.242-0.313,0.242
		C42.223,62.318,42.102,62.214,42.102,62.076z"/>
	<path fill="#999999" d="M44.996,62.21c-0.117,0.043-0.373,0.106-0.703,0.106c-0.738,0-1.215-0.383-1.215-0.957
		c0-0.573,0.514-0.998,1.311-0.998c0.266,0,0.494,0.052,0.617,0.104l-0.102,0.259c-0.105-0.045-0.273-0.089-0.516-0.089
		c-0.563,0-0.865,0.318-0.865,0.705c0,0.437,0.363,0.701,0.852,0.701c0.25,0,0.418-0.045,0.543-0.088L44.996,62.21z"/>
	<path fill="#999999" d="M47.699,61.324c0,0.695-0.633,0.996-1.219,0.996c-0.652,0-1.168-0.371-1.168-0.963
		c0-0.621,0.539-0.99,1.209-0.99C47.225,60.365,47.699,60.755,47.699,61.324z M45.764,61.344c0,0.409,0.303,0.721,0.738,0.721
		c0.426,0,0.742-0.308,0.742-0.729c0-0.317-0.207-0.717-0.732-0.717C45.992,60.621,45.764,60.992,45.764,61.344z"/>
	<path fill="#999999" d="M48.26,60.912c0-0.197-0.01-0.354-0.02-0.506h0.389l0.02,0.305h0.019c0.14-0.178,0.362-0.344,0.771-0.344
		c0.328,0,0.58,0.154,0.689,0.375h0.012c0.074-0.107,0.176-0.188,0.275-0.244c0.146-0.084,0.305-0.133,0.533-0.133
		c0.326,0,0.809,0.164,0.809,0.813v1.102H51.32v-1.059c0-0.359-0.178-0.574-0.529-0.574c-0.258,0-0.449,0.145-0.531,0.307
		c-0.021,0.051-0.035,0.105-0.035,0.172v1.156h-0.436v-1.123c0-0.299-0.17-0.512-0.508-0.512c-0.275,0-0.482,0.17-0.553,0.342
		c-0.023,0.049-0.033,0.106-0.033,0.164v1.129h-0.438v-1.367h0.002L48.26,60.912L48.26,60.912z"/>
</g>
</svg>
