<?xml version="1.0" encoding="utf-8"?>
<!-- Generator: Adobe Illustrator 15.0.0, SVG Export Plug-In . SVG Version: 6.00 Build 0)  -->
<!DOCTYPE svg PUBLIC "-//W3C//DTD SVG 1.1//EN" "http://www.w3.org/Graphics/SVG/1.1/DTD/svg11.dtd">
<svg version="1.1" id="Layer_1" xmlns="http://www.w3.org/2000/svg" xmlns:xlink="http://www.w3.org/1999/xlink" x="0px" y="0px"
	 width="119.25px" height="118.98px" viewBox="0 0 119.25 118.98" enable-background="new 0 0 119.25 118.98" xml:space="preserve">
<g>
	<polygon fill="#FFD520" points="59.611,117.877 59.611,117.877 60.654,117.726 61.695,117.278 61.695,117.278 62.59,116.68 
		63.338,115.933 115.936,63.293 115.936,63.293 116.68,62.545 117.125,61.648 117.573,60.751 117.723,59.554 117.723,59.554 
		117.573,58.508 117.125,57.462 117.125,57.462 116.531,56.565 115.936,55.817 63.484,3.177 63.484,3.177 62.59,2.429 61.549,1.831 
		61.549,1.831 60.654,1.383 59.611,1.232 59.611,1.232 58.569,1.383 57.526,1.831 56.631,2.429 55.737,3.177 3.289,55.817 
		3.289,55.817 2.544,56.565 1.948,57.61 1.948,57.61 1.649,58.508 1.5,59.554 1.5,59.554 1.649,60.751 2.096,61.799 2.096,61.799 
		2.694,62.545 3.289,63.293 55.737,115.933 55.737,115.933 56.631,116.68 57.674,117.278 57.674,117.278 58.569,117.726 	"/>
	<path d="M114.743,62.395L114.743,62.395l0.595-0.747l0.447-0.601l0.298-0.743v-0.749l0,0v-0.601l-0.298-0.747l-0.447-0.599
		l-0.595-0.747L62.294,4.224l0,0l-0.599-0.601l-0.742-0.447l-0.598-0.147l-0.745-0.15l0,0l-0.746,0.15L58.27,3.177l-0.744,0.447
		L56.93,4.224L4.479,56.863l0,0L3.883,57.61l-0.446,0.599L3.14,58.956v0.601l0,0v0.746l0.298,0.746l0.446,0.601l0.596,0.747
		l52.45,52.641l0,0l0.596,0.598l0.744,0.303l0.596,0.299l0.746,0.147l0,0l0.746-0.147l0.596-0.299l0.742-0.303l0.599-0.598
		L114.743,62.395L114.743,62.395L114.743,62.395z M113.4,58.358L113.4,58.358l0.447,0.598l0.146,0.298l0.146,0.299l0,0l-0.146,0.449
		l-0.146,0.301L113.4,60.9l-52.447,52.64l0,0l-0.745,0.6l-0.297,0.146h-0.298l0,0h-0.299l-0.297-0.146l-0.746-0.6L5.822,60.9l0,0
		l-0.447-0.596l-0.148-0.303l-0.149-0.446l0,0l0.149-0.302l0.148-0.298l0.447-0.598L58.27,5.719l0,0l0.746-0.598l0.297-0.147h0.299
		l0,0h0.298l0.296,0.147l0.744,0.598L113.4,58.358L113.4,58.358L113.4,58.358z"/>
</g>
<g enable-background="new    ">
	<path fill="#999999" d="M49.908,97.109v2.893c0,0.213,0.01,0.454,0.02,0.617h-0.386l-0.02-0.415h-0.015
		c-0.128,0.271-0.415,0.471-0.806,0.471c-0.579,0-1.028-0.486-1.028-1.218c-0.005-0.796,0.494-1.279,1.073-1.279
		c0.371,0,0.613,0.177,0.722,0.36h0.01v-1.429H49.908L49.908,97.109z M49.478,99.2c0-0.055-0.005-0.129-0.02-0.183
		c-0.064-0.272-0.302-0.5-0.628-0.5c-0.45,0-0.717,0.396-0.717,0.92c0,0.48,0.242,0.885,0.707,0.885
		c0.292,0,0.559-0.196,0.638-0.521c0.015-0.061,0.02-0.115,0.02-0.188V99.2z"/>
	<path fill="#999999" d="M50.636,98.875c0-0.253-0.01-0.45-0.02-0.646h0.38l0.02,0.391h0.015c0.133-0.228,0.356-0.438,0.756-0.438
		c0.321,0,0.569,0.195,0.672,0.479h0.01c0.074-0.139,0.173-0.236,0.271-0.313c0.144-0.107,0.297-0.171,0.524-0.171
		c0.321,0,0.791,0.208,0.791,1.038v1.403H53.63v-1.35c0-0.465-0.173-0.736-0.519-0.736c-0.252,0-0.44,0.184-0.519,0.392
		c-0.02,0.063-0.035,0.142-0.035,0.221v1.479h-0.425V99.19c0-0.381-0.168-0.652-0.5-0.652c-0.267,0-0.47,0.218-0.539,0.438
		c-0.025,0.061-0.035,0.14-0.035,0.214v1.438h-0.425V98.88h0.003V98.875z"/>
	<path fill="#999999" d="M54.865,98.226l0.47,1.34c0.079,0.223,0.144,0.42,0.193,0.617h0.015c0.054-0.197,0.124-0.396,0.203-0.617
		l0.464-1.34h0.455l-0.939,2.393h-0.415l-0.91-2.393H54.865z"/>
	<path fill="#999999" d="M59.089,97.109v2.893c0,0.213,0.01,0.454,0.02,0.617h-0.386l-0.021-0.415h-0.015
		c-0.129,0.271-0.416,0.471-0.806,0.471c-0.579,0-1.028-0.486-1.028-1.218c-0.005-0.796,0.494-1.279,1.073-1.279
		c0.371,0,0.613,0.177,0.722,0.36h0.011v-1.429H59.089L59.089,97.109z M58.658,99.2c0-0.055-0.004-0.129-0.02-0.183
		c-0.064-0.272-0.303-0.5-0.628-0.5c-0.45,0-0.717,0.396-0.717,0.92c0,0.48,0.242,0.885,0.707,0.885
		c0.292,0,0.559-0.196,0.638-0.521c0.016-0.061,0.02-0.115,0.02-0.188V99.2z"/>
	<path fill="#999999" d="M61.499,100.046c0,0.207,0.01,0.409,0.034,0.572h-0.393l-0.033-0.302H61.09
		c-0.135,0.188-0.393,0.354-0.729,0.354c-0.483,0-0.732-0.343-0.732-0.688c0-0.578,0.516-0.896,1.439-0.894v-0.05
		c0-0.188-0.057-0.555-0.545-0.55c-0.229,0-0.46,0.063-0.628,0.179l-0.098-0.291c0.196-0.124,0.487-0.208,0.792-0.208
		c0.729,0,0.908,0.499,0.908,0.978v0.896L61.499,100.046L61.499,100.046z M61.079,99.398c-0.478-0.015-1.016,0.074-1.016,0.538
		c0,0.287,0.188,0.416,0.406,0.416c0.314,0,0.521-0.198,0.588-0.4c0.02-0.05,0.021-0.1,0.021-0.139L61.079,99.398L61.079,99.398z"/>
	<path fill="#999999" d="M62.1,100.362c0-0.179,0.123-0.313,0.295-0.313c0.174,0,0.293,0.128,0.293,0.313
		c0,0.178-0.119,0.313-0.304,0.313C62.216,100.674,62.1,100.54,62.1,100.362z"/>
	<path fill="#999999" d="M64.932,100.535c-0.113,0.056-0.365,0.14-0.688,0.14c-0.723,0-1.191-0.486-1.191-1.223
		s0.506-1.274,1.285-1.274c0.258,0,0.484,0.063,0.604,0.133l-0.099,0.33c-0.104-0.059-0.268-0.112-0.506-0.112
		c-0.549,0-0.846,0.41-0.846,0.903c0,0.555,0.356,0.896,0.832,0.896c0.245,0,0.409-0.059,0.532-0.112L64.932,100.535z"/>
	<path fill="#999999" d="M67.579,99.403c0,0.885-0.619,1.271-1.19,1.271c-0.644,0-1.146-0.476-1.146-1.229
		c0-0.796,0.526-1.27,1.188-1.27C67.113,98.177,67.579,98.676,67.579,99.403z M65.684,99.427c0,0.523,0.297,0.924,0.726,0.924
		c0.416,0,0.729-0.396,0.729-0.934c0-0.402-0.201-0.915-0.719-0.915C65.906,98.504,65.684,98.977,65.684,99.427z"/>
	<path fill="#999999" d="M68.128,98.875c0-0.253-0.011-0.45-0.021-0.646h0.381l0.021,0.391h0.017
		c0.137-0.228,0.354-0.438,0.758-0.438c0.32,0,0.566,0.195,0.674,0.479h0.01c0.074-0.139,0.176-0.236,0.271-0.313
		c0.144-0.107,0.298-0.171,0.521-0.171c0.322,0,0.791,0.208,0.791,1.038v1.403h-0.426v-1.35c0-0.465-0.172-0.736-0.521-0.736
		c-0.252,0-0.438,0.184-0.521,0.392c-0.021,0.063-0.033,0.142-0.033,0.221v1.479h-0.426V99.19c0-0.381-0.168-0.652-0.498-0.652
		c-0.271,0-0.474,0.218-0.539,0.438c-0.022,0.061-0.035,0.14-0.035,0.214v1.438h-0.426V98.88h0.002V98.875L68.128,98.875z"/>
</g>
<g>
	<path stroke="#000000" stroke-width="0.5" stroke-miterlimit="10" d="M34.888,51.766c0.866,0.541,2.109,0.951,3.441,0.951
		c1.976,0,3.13-1.017,3.13-2.487c0-1.342-0.799-2.143-2.819-2.878c-2.442-0.865-3.952-2.121-3.952-4.154
		c0-2.272,1.932-3.959,4.84-3.959c1.51,0,2.642,0.346,3.286,0.714l-0.533,1.536c-0.466-0.281-1.465-0.692-2.82-0.692
		c-2.042,0-2.819,1.19-2.819,2.187c0,1.363,0.91,2.034,2.975,2.813c2.531,0.952,3.796,2.143,3.796,4.284
		c0,2.25-1.687,4.219-5.217,4.219c-1.443,0-3.019-0.433-3.818-0.951L34.888,51.766z"/>
	<path stroke="#000000" stroke-width="0.5" stroke-miterlimit="10" d="M46.055,39.476h1.954V52.48h6.394v1.58h-8.348V39.476z"/>
	<path stroke="#000000" stroke-width="0.5" stroke-miterlimit="10" d="M58.487,39.476V54.06h-1.954V39.476H58.487z"/>
	<path stroke="#000000" stroke-width="0.5" stroke-miterlimit="10" d="M61.861,39.693c1.177-0.194,2.574-0.324,4.106-0.324
		c2.774,0,4.751,0.649,6.062,1.817c1.354,1.189,2.132,2.878,2.132,5.235c0,2.38-0.777,4.327-2.154,5.669
		c-1.421,1.363-3.729,2.1-6.638,2.1c-1.398,0-2.531-0.065-3.508-0.173V39.693z M63.793,52.589c0.488,0.065,1.198,0.086,1.953,0.086
		c4.152,0,6.372-2.25,6.372-6.188c0.022-3.44-1.976-5.626-6.062-5.626c-0.998,0-1.754,0.087-2.265,0.195L63.793,52.589
		L63.793,52.589z"/>
	<path stroke="#000000" stroke-width="0.5" stroke-miterlimit="10" d="M84.372,47.222h-5.794v5.258h6.482v1.58h-8.438V39.476h8.104
		v1.58h-6.148v4.608h5.794V47.222z"/>
	<path stroke="#000000" stroke-width="0.5" stroke-miterlimit="10" d="M38.751,75.435l-1.554,4.588h-1.998l5.106-14.584h2.309
		l5.106,14.584h-2.064l-1.599-4.588H38.751z M43.68,73.965l-1.488-4.196c-0.333-0.953-0.555-1.818-0.777-2.662h-0.044
		c-0.222,0.844-0.444,1.752-0.755,2.641l-1.465,4.219L43.68,73.965L43.68,73.965z"/>
	<path stroke="#000000" stroke-width="0.5" stroke-miterlimit="10" d="M49.918,65.635c0.977-0.174,2.397-0.303,3.708-0.303
		c2.065,0,3.419,0.39,4.329,1.189c0.733,0.647,1.177,1.645,1.177,2.791c0,1.903-1.243,3.182-2.797,3.698v0.066
		c1.132,0.389,1.821,1.428,2.176,2.941c0.488,2.034,0.844,3.44,1.154,4.004h-1.998c-0.244-0.435-0.577-1.666-0.977-3.484
		c-0.444-2.012-1.266-2.77-3.02-2.834h-1.821v6.318h-1.931V65.635z M51.849,72.277h1.976c2.065,0,3.375-1.104,3.375-2.771
		c0-1.883-1.398-2.705-3.441-2.705c-0.933,0-1.577,0.064-1.91,0.152V72.277z"/>
	<path stroke="#000000" stroke-width="0.5" stroke-miterlimit="10" d="M69.587,73.185h-5.794v5.258h6.482v1.58h-8.438V65.439h8.104
		v1.58h-6.148v4.606h5.794V73.185z"/>
	<path stroke="#000000" stroke-width="0.5" stroke-miterlimit="10" d="M75.203,75.435l-1.555,4.588H71.65l5.105-14.584h2.311
		l5.105,14.584h-2.064l-1.6-4.588H75.203z M80.132,73.965l-1.487-4.196c-0.332-0.953-0.556-1.818-0.776-2.662h-0.044
		c-0.223,0.844-0.444,1.752-0.756,2.641l-1.465,4.219L80.132,73.965L80.132,73.965z"/>
</g>
</svg>
