<?xml version="1.0" encoding="utf-8"?>
<!-- Generator: Adobe Illustrator 15.0.0, SVG Export Plug-In . SVG Version: 6.00 Build 0)  -->
<!DOCTYPE svg PUBLIC "-//W3C//DTD SVG 1.1//EN" "http://www.w3.org/Graphics/SVG/1.1/DTD/svg11.dtd">
<svg version="1.1" id="Layer_1" xmlns="http://www.w3.org/2000/svg" xmlns:xlink="http://www.w3.org/1999/xlink" x="0px" y="0px"
	 width="83.236px" height="102.189px" viewBox="0 0 83.236 102.189" enable-background="new 0 0 83.236 102.189"
	 xml:space="preserve">
<polygon fill="#FFFFFF" points="1.7,101.08 1.7,101.08 2.67,101.635 3.637,102.049 3.637,102.049 4.607,102.189 5.438,102.189 
	77.442,102.189 77.442,102.189 78.41,102.189 79.52,101.912 80.488,101.496 81.319,100.804 81.319,100.804 82.01,99.973 
	82.424,99.005 82.563,98.035 82.703,97.063 82.703,5.123 82.703,5.123 82.563,4.015 82.287,3.046 81.873,1.939 81.18,1.108 
	81.18,1.108 80.347,0.552 79.38,0.277 78.41,0 77.442,0 5.438,0 5.438,0 4.468,0 3.362,0.277 2.392,0.692 1.423,1.384 1.423,1.384 
	0.869,2.215 0.453,3.184 0.314,4.154 0.177,5.123 0.177,97.063 0.177,97.063 0.314,98.174 0.592,99.28 0.592,99.28 1.008,100.249 
	"/>
<path d="M77.442,100.112H5.438l0,0H4.885l-0.692-0.277l-0.556-0.137L3.221,99.28l-0.417-0.414l-0.275-0.554l-0.14-0.559v-0.69V5.123
	l0,0V4.431l0.14-0.557l0.275-0.553l0.417-0.414l0.415-0.417l0.556-0.137l0.692-0.276h0.554H77.44l0,0h0.555l0.692,0.276l0.557,0.137
	l0.414,0.417l0.416,0.414l0.274,0.553l0.142,0.557v0.69v91.941l0,0v0.691l-0.142,0.559l-0.274,0.554l-0.416,0.414l-0.414,0.418
	l-0.557,0.137l-0.692,0.277L77.442,100.112L77.442,100.112L77.442,100.112z M78.41,5.123L78.41,5.123V4.707l-0.277-0.274
	l-0.274-0.14L77.44,4.154H5.438l0,0L5.024,4.292l-0.278,0.14L4.469,4.707v0.416v91.941l0,0v0.418l0.277,0.273l0.278,0.141
	l0.414,0.139H77.44l0,0l0.418-0.139l0.274-0.141l0.277-0.273v-0.418V5.123L78.41,5.123z M16.793,76.572h4.43H21.5l0,0h0.832
	l0.83,0.277l0.553,0.276l0.693,0.412l0.416,0.558l0.416,0.69l0.138,0.692l0.139,0.83l0,0l-0.139,0.968l-0.415,0.833l-0.553,0.83
	l-0.97,0.691l2.354,6.229h-2.215l-2.217-5.814H18.87v5.814h-2.077V76.572L16.793,76.572z M21.637,81.972h0.278l0,0l0.553-0.141
	l0.554-0.413l0.276-0.557l0.14-0.689l0,0l-0.14-0.555l-0.276-0.554l-0.554-0.418h-0.553h-0.139H18.87v3.323L21.637,81.972
	L21.637,81.972z M54.594,55.248h4.986h0.274l0,0h0.832l0.688,0.276l0.557,0.274l0.554,0.556l0.418,0.553l0.273,0.556l0.277,0.691
	v0.832l0,0v0.69l-0.276,0.832l-0.273,0.554l-0.418,0.555l-0.554,0.555l-0.557,0.275l-0.688,0.276h-0.832h-0.14H56.67v5.815h-2.075
	V55.248L54.594,55.248z M59.717,60.648L59.717,60.648l0.83-0.14l0.417-0.276l0.415-0.553l0.139-0.83l0,0l-0.139-0.556l-0.415-0.555
	l-0.417-0.276l-0.69-0.137h-0.14H56.67v3.323L59.717,60.648L59.717,60.648z M27.455,47.355l4.568-13.432H34.1l4.569,13.432h-2.215
	l-1.247-3.879h-4.153l-1.385,3.879H27.455L27.455,47.355z M33.133,37.385l-1.384,4.017h2.768L33.133,37.385L33.133,37.385z
	 M17.068,33.924H21.5h0.276l0,0l0.831,0.14L23.3,34.2l0.692,0.417l0.553,0.415l0.555,0.555l0.276,0.692l0.277,0.692l0.139,0.831l0,0
	l-0.139,0.97l-0.416,0.83l-0.556,0.832l-0.97,0.691l2.216,6.23h-2.216l-2.077-5.953l-2.491,0.136v5.817h-2.076L17.068,33.924
	L17.068,33.924z M21.916,39.324h0.277l0,0l0.555-0.139l0.414-0.276l0.417-0.555v-0.692l0,0v-0.693l-0.417-0.416l-0.414-0.414
	l-0.555-0.14h-0.277h-2.77v3.323L21.916,39.324L21.916,39.324z M65.949,12.601h4.43h0.275l0,0l0.83,0.139l0.694,0.276l0.691,0.275
	l0.692,0.416l0.413,0.556l0.417,0.691l0.141,0.693l0.135,0.83l0,0l-0.135,0.969l-0.418,0.831l-0.553,0.83l-0.969,0.692l2.354,6.231
	h-2.216l-2.214-5.815h-2.493v5.815h-2.076L65.949,12.601L65.949,12.601z M70.795,18.001h0.276l0,0h0.555l0.556-0.416l0.273-0.555
	l0.141-0.693l0,0l-0.141-0.554l-0.416-0.552l-0.415-0.416l-0.555-0.14h-0.137h-2.908v3.463L70.795,18.001L70.795,18.001z
	 M29.392,24.785L29.392,24.785L28.7,23.677l-0.415-1.385l0,0l-0.277-1.384v-1.522l0,0v-1.662l0.277-1.386l0.415-1.106l0.416-1.108
	l0.692-0.691l0.831-0.554l0.831-0.417l1.108-0.137l0,0l0.968,0.137l0.969,0.277l0.831,0.553l0.554,0.693l0,0l0.555,0.97l0.416,1.247
	l0.275,1.384l0.139,1.521l0,0l-0.139,1.663l-0.14,1.385l-0.414,1.248l-0.553,0.967l0,0l-0.555,0.832l-0.831,0.554l-0.97,0.418
	l-1.106,0.138l0,0l-0.97-0.138l-0.832-0.277l-0.831-0.554L29.392,24.785L29.392,24.785L29.392,24.785z M35.208,19.385L35.208,19.385
	v-1.107L35.07,17.17l-0.276-0.833l-0.276-0.69l-0.275-0.556l-0.418-0.416l-0.553-0.138l-0.555-0.138l0,0l-0.692,0.139l-0.554,0.138
	l-0.416,0.416l-0.416,0.556l0,0l-0.276,0.69l-0.138,0.833l-0.139,0.969v1.106l0,0l0.139,1.801L30.5,22.71l0,0l0.277,0.554
	l0.416,0.555l0.691,0.276l0.693,0.14l0,0l0.554-0.14l0.553-0.139l0.554-0.415l0.275-0.556l0.277-0.693l0.275-0.83l0.139-0.968
	v-1.107L35.208,19.385L35.208,19.385z M8.899,22.016L8.899,22.016l0.554,0.968l0.694,0.691l0.831,0.417l0.83,0.14l0,0l0.832-0.14
	l0.554-0.417l0.553-0.691v-0.275l0.139-0.415l0,0l-0.139-0.416v-0.416l-0.553-0.692L12.5,20.353l-0.968-0.416l-1.384-0.14l0,0
	L9.594,19.66l-0.416-0.276l-0.416-0.417l-0.414-0.415l-0.276-0.416l-0.277-0.553l-0.138-0.554l-0.14-0.694l0,0l0.14-0.691
	l0.275-0.692l0.417-0.692l0.414-0.691l0.693-0.418l0.693-0.415l0.691-0.277h0.831l0,0h0.692l0.553,0.141l0.693,0.276l0.415,0.275
	l0.555,0.418l0.415,0.553l0.277,0.553l0.275,0.693l-1.938,0.553l0,0l-0.416-0.692l-0.416-0.416l-0.554-0.14l-0.553-0.138l0,0
	l-0.831,0.138l-0.555,0.415L9.87,15.64l-0.139,0.691l0,0v0.558l0.278,0.415l0.415,0.275l0.692,0.276l0.969,0.139l0,0l0.832,0.275
	l0.831,0.276l0.555,0.415l0.554,0.557l0.554,0.553l0.277,0.693l0.139,0.691l0.139,0.693l0,0l-0.139,0.83l-0.276,0.832l-0.276,0.691
	l-0.556,0.554l-0.553,0.553l-0.691,0.276l-0.831,0.278l-0.692,0.137l0,0l-1.108-0.137l-1.108-0.278l-0.831-0.553L8.072,24.64l0,0
	l-0.554-0.831l-0.417-0.969l-0.139-0.139L8.899,22.016L8.899,22.016z M18.315,12.601h2.076v11.492h6.095v1.938h-8.171V12.601
	L18.315,12.601z M39.502,12.601h2.074l0.969,7.338l1.94-7.338h1.799l1.801,7.338l1.108-7.338h2.075l-1.938,13.431h-1.938
	l-2.075-8.446l-2.079,8.446H41.3L39.502,12.601L39.502,12.601z M54.871,12.601h7.615v2.215h-5.537v3.323h3.877v2.077h-3.877v3.738
	h6.092v2.078h-8.17V12.601L54.871,12.601z M9.317,35.862H6.408v-1.938h8.03v1.938h-2.907v11.493H9.317V35.862L9.317,35.862z
	 M40.884,33.924h8.171v2.078h-6.094v3.324h3.876v2.078h-3.876v5.953h-2.077V33.924L40.884,33.924z M51.131,33.924h8.171v2.078
	h-5.953v3.324h3.876v2.078h-3.876v5.953h-2.218V33.924L51.131,33.924z M61.517,33.924h2.079v13.432h-2.079V33.924L61.517,33.924z
	 M75.505,44.863L75.505,44.863l-0.276,0.83l-0.416,0.418l0,0l-0.693,0.689l-0.832,0.418l-0.83,0.275l-0.969,0.139l0,0l-1.108-0.139
	l-0.969-0.416l-0.968-0.555l-0.692-0.83l0,0l-0.554-1.107l-0.274-1.108l-0.275-1.383l-0.142-1.386l0,0l0.142-1.522l0.275-1.385
	l0.415-1.107l0.556-1.109l0.691-0.829l0.968-0.557l0.971-0.416l0.967-0.139l0,0l0.693,0.139l0.691,0.139l0.553,0.14l0.556,0.415
	l0.556,0.415l0.415,0.556l0.416,0.554l0.277,0.692l-1.94,0.691l0,0l-0.415-0.691l-0.555-0.554l-0.554-0.278l-0.693-0.139l0,0
	l-0.693,0.139l-0.415,0.278l-0.554,0.415l-0.417,0.555l-0.276,0.692l-0.275,0.831l-0.14,0.969l-0.136,1.107l0,0l0.136,1.108
	l0.14,0.969l0.275,0.829l0.276,0.693l0.416,0.554l0.418,0.417l0.551,0.275h0.693l0,0h0.552l0.691-0.275l0.417-0.555l0.554-0.556
	L75.505,44.863L75.505,44.863z M20.532,55.248h2.076v5.4l4.43-5.4h2.492l-4.016,5.123l4.292,8.17h-2.354l-3.323-6.37l-1.522,1.803
	v4.567h-2.076L20.532,55.248L20.532,55.248z M32.3,55.248h7.755v2.077h-5.678v3.323h3.876v2.076h-3.876v3.74h6.092v2.075H32.3
	V55.248L32.3,55.248z M43.379,55.248h7.752v2.077h-5.676v3.323h3.877v2.076h-3.877v3.74h6.091v2.075h-8.167V55.248L43.379,55.248z
	 M28.7,76.572h2.078v13.292H28.7V76.572L28.7,76.572z M43.101,83.356v2.356v0.136l0,0l-0.14,0.832l-0.273,0.83l-0.277,0.83
	l-0.554,0.554l-0.692,0.554l-0.693,0.416l-0.831,0.277h-0.831l0,0l-1.105-0.139l-0.97-0.417l-0.832-0.554l-0.691-0.83l0,0
	l-0.416-0.969l-0.416-1.108L34.24,84.74v-1.522l0,0v-1.661l0.275-1.523l0.417-1.245l0.554-0.967l0,0l0.693-0.692l0.83-0.419
	l0.83-0.415h0.968l0,0h0.693l0.694,0.14l0.553,0.273l0.553,0.42l0.557,0.412l0.415,0.558l0.417,0.553l0.138,0.554l-1.94,0.693l0,0
	l-0.275-0.693l-0.554-0.415l-0.554-0.416l-0.692-0.139l0,0l-0.691,0.139l-0.416,0.275l-0.555,0.277l-0.277,0.554l-0.276,0.692
	l-0.275,0.829l-0.138,0.97v1.108l0,0v1.108l0.138,1.104l0.275,0.832l0.276,0.692l0.277,0.555l0.415,0.415l0.555,0.276l0.554,0.139
	l0,0l0.553-0.139l0.416-0.14l0.277-0.137l0.416-0.276l0.275-0.276l0.14-0.416l0.138-0.414v-0.557v-0.414h-2.215v-2.079h4.431v0.003
	H43.101z M46.839,76.572h2.077v5.4h4.847v-5.4h2.075v13.292h-2.075v-5.815h-4.847v5.815h-2.077V76.572L46.839,76.572z
	 M62.209,78.372h-3.047v-1.801h8.169v1.801h-3.045v11.491h-2.078L62.209,78.372L62.209,78.372z"/>
<g>
	<path fill="#999999" d="M32.834,92.838v2.219c0,0.162,0.01,0.35,0.021,0.475h-0.388l-0.02-0.316H32.43
		c-0.128,0.205-0.415,0.358-0.806,0.358c-0.58,0-1.028-0.375-1.028-0.934c-0.005-0.608,0.493-0.979,1.073-0.979
		c0.371,0,0.612,0.133,0.722,0.275h0.011v-1.099L32.834,92.838L32.834,92.838z M32.403,94.441c0-0.042-0.006-0.101-0.021-0.142
		c-0.063-0.209-0.304-0.386-0.629-0.386c-0.449,0-0.718,0.307-0.718,0.705c0,0.37,0.242,0.68,0.707,0.68
		c0.293,0,0.56-0.148,0.64-0.396c0.016-0.046,0.021-0.091,0.021-0.146V94.441z"/>
	<path fill="#999999" d="M33.561,94.191c0-0.192-0.012-0.346-0.021-0.494h0.381l0.021,0.299h0.016
		c0.133-0.174,0.355-0.337,0.756-0.337c0.32,0,0.568,0.15,0.672,0.366h0.011c0.073-0.105,0.174-0.184,0.271-0.238
		c0.146-0.083,0.297-0.129,0.523-0.129c0.318,0,0.791,0.158,0.791,0.795v1.075h-0.427v-1.033c0-0.354-0.173-0.563-0.52-0.563
		c-0.252,0-0.44,0.141-0.521,0.299c-0.02,0.05-0.034,0.104-0.034,0.167v1.134h-0.426v-1.1c0-0.292-0.168-0.5-0.5-0.5
		c-0.267,0-0.47,0.166-0.539,0.333c-0.023,0.047-0.033,0.104-0.033,0.163v1.104h-0.427v-1.34L33.561,94.191L33.561,94.191z"/>
	<path fill="#999999" d="M37.791,93.694l0.469,1.024c0.08,0.173,0.146,0.32,0.193,0.476h0.016c0.056-0.15,0.123-0.304,0.203-0.476
		l0.463-1.024h0.455l-0.938,1.833h-0.416l-0.91-1.833H37.791z"/>
	<path fill="#999999" d="M42.014,92.838v2.219c0,0.162,0.013,0.35,0.021,0.475h-0.388l-0.021-0.316h-0.016
		c-0.129,0.205-0.416,0.358-0.808,0.358c-0.578,0-1.026-0.375-1.026-0.934c-0.006-0.608,0.494-0.979,1.071-0.979
		c0.371,0,0.613,0.133,0.724,0.275h0.012v-1.099L42.014,92.838L42.014,92.838z M41.581,94.441c0-0.042-0.004-0.101-0.021-0.142
		c-0.063-0.209-0.304-0.386-0.629-0.386c-0.448,0-0.717,0.307-0.717,0.705c0,0.37,0.24,0.68,0.707,0.68
		c0.292,0,0.56-0.148,0.639-0.396c0.017-0.046,0.021-0.091,0.021-0.146V94.441z"/>
	<path fill="#999999" d="M44.422,95.088c0,0.158,0.015,0.313,0.034,0.438h-0.393l-0.033-0.229h-0.018
		c-0.133,0.146-0.394,0.271-0.729,0.271c-0.481,0-0.729-0.263-0.729-0.526c0-0.438,0.518-0.687,1.438-0.684v-0.037
		c0-0.146-0.059-0.424-0.543-0.42c-0.229,0-0.461,0.05-0.629,0.137l-0.101-0.224c0.193-0.098,0.484-0.158,0.79-0.158
		c0.729,0,0.91,0.382,0.91,0.745L44.422,95.088L44.422,95.088z M44.001,94.592c-0.477-0.011-1.014,0.06-1.014,0.411
		c0,0.224,0.188,0.318,0.402,0.318c0.313,0,0.521-0.151,0.59-0.308C43.997,94.975,44,94.937,44,94.908L44.001,94.592L44.001,94.592z
		"/>
	<path fill="#999999" d="M45.022,95.331c0-0.138,0.125-0.237,0.298-0.237c0.174,0,0.293,0.1,0.293,0.237s-0.119,0.237-0.305,0.237
		C45.141,95.569,45.022,95.467,45.022,95.331z"/>
	<path fill="#999999" d="M47.856,95.463c-0.112,0.042-0.364,0.105-0.688,0.105c-0.723,0-1.189-0.375-1.189-0.938
		c0-0.563,0.504-0.979,1.284-0.979c0.259,0,0.483,0.05,0.604,0.101l-0.104,0.253c-0.104-0.042-0.267-0.086-0.504-0.086
		c-0.55,0-0.847,0.313-0.847,0.69c0,0.427,0.354,0.688,0.832,0.688c0.246,0,0.408-0.045,0.531-0.087L47.856,95.463z"/>
	<path fill="#999999" d="M50.501,94.595c0,0.68-0.618,0.975-1.189,0.975c-0.645,0-1.146-0.362-1.146-0.941
		c0-0.606,0.527-0.971,1.187-0.971C50.036,93.656,50.501,94.038,50.501,94.595z M48.608,94.615c0,0.4,0.298,0.704,0.724,0.704
		c0.416,0,0.728-0.3,0.728-0.713c0-0.313-0.199-0.7-0.717-0.7C48.829,93.907,48.608,94.27,48.608,94.615z"/>
	<path fill="#999999" d="M51.051,94.191c0-0.192-0.011-0.346-0.021-0.494h0.381l0.021,0.299h0.019
		c0.135-0.174,0.354-0.337,0.756-0.337c0.32,0,0.567,0.15,0.674,0.366h0.01c0.074-0.105,0.173-0.184,0.271-0.238
		c0.145-0.083,0.297-0.129,0.521-0.129c0.321,0,0.791,0.158,0.791,0.795v1.075h-0.426v-1.033c0-0.354-0.173-0.563-0.519-0.563
		c-0.255,0-0.44,0.141-0.521,0.299c-0.021,0.05-0.035,0.104-0.035,0.167v1.134h-0.423v-1.1c0-0.292-0.168-0.5-0.498-0.5
		c-0.271,0-0.474,0.166-0.539,0.333c-0.023,0.047-0.035,0.104-0.035,0.163v1.104h-0.426V94.191L51.051,94.191z"/>
</g>
</svg>
