<?xml version="1.0" encoding="utf-8"?>
<!-- Generator: Adobe Illustrator 15.0.0, SVG Export Plug-In . SVG Version: 6.00 Build 0)  -->
<!DOCTYPE svg PUBLIC "-//W3C//DTD SVG 1.1//EN" "http://www.w3.org/Graphics/SVG/1.1/DTD/svg11.dtd">
<svg version="1.1" id="Layer_1" xmlns="http://www.w3.org/2000/svg" xmlns:xlink="http://www.w3.org/1999/xlink" x="0px" y="0px"
	 width="83.09px" height="72.6px" viewBox="0 0 83.09 72.6" enable-background="new 0 0 83.09 72.6" xml:space="preserve">
<g>
	<path fill="#ED1C24" stroke="#000000" stroke-width="0.25" stroke-miterlimit="10" d="M83.09,53.348L71.688,73.1l-60.285-0.001
		L0,53.348L30.142,1.146h22.836L83.09,53.348z"/>
	<path fill="#F57A26" stroke="#000000" stroke-width="0.25" stroke-miterlimit="10" d="M41.561,1.855l35.22,61.001H6.341
		L41.561,1.855z"/>
</g>
<g>
	<path fill="#999999" d="M31.86,68.751v2.218c0,0.164,0.01,0.353,0.02,0.478h-0.387l-0.02-0.314h-0.018
		c-0.128,0.205-0.414,0.356-0.806,0.356c-0.58,0-1.028-0.375-1.028-0.936c-0.005-0.606,0.493-0.979,1.073-0.979
		c0.371,0,0.612,0.134,0.722,0.274h0.01V68.75L31.86,68.751L31.86,68.751z M31.428,70.356c0-0.042-0.008-0.101-0.021-0.142
		c-0.063-0.209-0.305-0.387-0.629-0.387c-0.449,0-0.719,0.307-0.719,0.705c0,0.369,0.242,0.68,0.707,0.68
		c0.293,0,0.561-0.147,0.641-0.396c0.016-0.047,0.021-0.093,0.021-0.146V70.356z"/>
	<path fill="#999999" d="M32.586,70.106c0-0.19-0.012-0.347-0.021-0.493h0.381l0.021,0.3h0.017c0.133-0.175,0.354-0.337,0.756-0.337
		c0.319,0,0.567,0.147,0.672,0.364h0.011c0.073-0.104,0.174-0.185,0.271-0.236c0.146-0.083,0.297-0.13,0.522-0.13
		c0.318,0,0.791,0.157,0.791,0.796v1.074H35.58v-1.032c0-0.354-0.173-0.563-0.521-0.563c-0.252,0-0.439,0.143-0.521,0.3
		c-0.021,0.051-0.034,0.104-0.034,0.167v1.135h-0.426v-1.102c0-0.291-0.168-0.5-0.5-0.5c-0.267,0-0.47,0.166-0.539,0.334
		c-0.023,0.047-0.033,0.104-0.033,0.161v1.104H32.58v-1.342L32.586,70.106L32.586,70.106z"/>
	<path fill="#999999" d="M36.817,69.609l0.469,1.023c0.08,0.173,0.146,0.319,0.193,0.477h0.016c0.057-0.149,0.123-0.307,0.203-0.477
		l0.463-1.023h0.455l-0.938,1.833h-0.416l-0.91-1.833H36.817z"/>
	<path fill="#999999" d="M41.04,68.751v2.218c0,0.164,0.014,0.353,0.021,0.478H40.67l-0.021-0.314h-0.017
		c-0.129,0.205-0.416,0.356-0.809,0.356c-0.578,0-1.027-0.375-1.027-0.936c-0.006-0.606,0.494-0.979,1.072-0.979
		c0.371,0,0.613,0.134,0.725,0.274h0.013V68.75L41.04,68.751L41.04,68.751z M40.607,70.356c0-0.042-0.005-0.101-0.021-0.142
		c-0.063-0.209-0.306-0.387-0.631-0.387c-0.449,0-0.717,0.307-0.717,0.705c0,0.369,0.24,0.68,0.707,0.68
		c0.292,0,0.561-0.147,0.641-0.396c0.016-0.047,0.021-0.093,0.021-0.146V70.356z"/>
	<path fill="#999999" d="M43.447,71.001c0,0.158,0.015,0.313,0.033,0.438h-0.395l-0.033-0.229h-0.018
		c-0.133,0.146-0.395,0.271-0.729,0.271c-0.481,0-0.729-0.264-0.729-0.524c0-0.438,0.519-0.688,1.438-0.686v-0.036
		c0-0.146-0.061-0.425-0.543-0.421c-0.229,0-0.461,0.052-0.63,0.139l-0.103-0.226c0.192-0.098,0.482-0.157,0.789-0.157
		c0.729,0,0.91,0.383,0.91,0.744L43.447,71.001L43.447,71.001z M43.027,70.506c-0.479-0.012-1.015,0.06-1.015,0.41
		c0,0.224,0.188,0.317,0.401,0.317c0.313,0,0.521-0.15,0.591-0.311c0.02-0.037,0.021-0.075,0.021-0.104L43.027,70.506L43.027,70.506
		z"/>
	<path fill="#999999" d="M44.047,71.245c0-0.14,0.125-0.237,0.299-0.237s0.293,0.101,0.293,0.237s-0.119,0.235-0.305,0.235
		C44.167,71.484,44.047,71.381,44.047,71.245z"/>
	<path fill="#999999" d="M46.881,71.376c-0.111,0.042-0.363,0.104-0.688,0.104c-0.725,0-1.19-0.375-1.19-0.938
		c0-0.563,0.504-0.979,1.285-0.979c0.258,0,0.483,0.051,0.604,0.103l-0.104,0.254c-0.104-0.043-0.267-0.087-0.504-0.087
		c-0.55,0-0.849,0.313-0.849,0.688c0,0.429,0.354,0.688,0.832,0.688c0.246,0,0.408-0.045,0.531-0.087L46.881,71.376z"/>
	<path fill="#999999" d="M49.527,70.51c0,0.681-0.618,0.977-1.19,0.977c-0.644,0-1.146-0.361-1.146-0.94
		c0-0.605,0.525-0.972,1.187-0.972C49.063,69.571,49.527,69.952,49.527,70.51z M47.633,70.53c0,0.397,0.299,0.704,0.725,0.704
		c0.416,0,0.729-0.302,0.729-0.714c0-0.313-0.2-0.699-0.718-0.699C47.855,69.822,47.633,70.184,47.633,70.53z"/>
	<path fill="#999999" d="M50.077,70.106c0-0.19-0.013-0.347-0.021-0.493h0.381l0.021,0.3h0.019c0.137-0.175,0.354-0.337,0.758-0.337
		c0.317,0,0.565,0.147,0.674,0.364h0.012c0.072-0.104,0.172-0.185,0.271-0.236c0.146-0.083,0.297-0.13,0.521-0.13
		c0.32,0,0.791,0.157,0.791,0.796v1.074h-0.426v-1.032c0-0.354-0.175-0.563-0.521-0.563c-0.256,0-0.438,0.143-0.521,0.3
		c-0.021,0.051-0.035,0.104-0.035,0.167v1.135h-0.423v-1.102c0-0.291-0.168-0.5-0.498-0.5c-0.271,0-0.477,0.166-0.539,0.334
		c-0.023,0.047-0.034,0.104-0.034,0.161v1.104H50.08L50.077,70.106L50.077,70.106z"/>
</g>
</svg>
