<?xml version="1.0" encoding="utf-8"?>
<!-- Generator: Adobe Illustrator 15.0.0, SVG Export Plug-In . SVG Version: 6.00 Build 0)  -->
<!DOCTYPE svg PUBLIC "-//W3C//DTD SVG 1.1//EN" "http://www.w3.org/Graphics/SVG/1.1/DTD/svg11.dtd">
<svg version="1.1" id="Layer_1" xmlns="http://www.w3.org/2000/svg" xmlns:xlink="http://www.w3.org/1999/xlink" x="0px" y="0px"
	 width="119.25px" height="118.98px" viewBox="0 0 119.25 118.98" enable-background="new 0 0 119.25 118.98" xml:space="preserve">
<polygon fill="#FFD520" points="63.749,115.952 116.453,63.248 116.453,63.248 116.802,62.849 117.102,62.452 117.398,62.003 
	117.598,61.556 117.798,61.058 117.896,60.561 117.996,60.013 117.996,59.516 117.996,59.516 117.996,58.969 117.896,58.472 
	117.798,57.972 117.598,57.475 117.398,56.977 117.102,56.53 116.802,56.132 116.453,55.733 63.749,3.028 63.749,3.028 63.352,2.68 
	62.952,2.381 62.503,2.082 62.007,1.884 61.509,1.684 61.012,1.585 60.516,1.487 59.966,1.487 59.966,1.487 59.47,1.487 
	58.921,1.585 58.423,1.684 57.925,1.884 57.478,2.082 57.029,2.381 56.582,2.68 56.234,3.028 3.529,55.733 3.529,55.733 
	3.18,56.132 2.833,56.53 2.584,56.977 2.383,57.475 2.184,57.972 2.035,58.472 1.987,58.969 1.936,59.516 1.936,59.516 
	1.987,60.013 2.035,60.51 2.184,61.058 2.383,61.556 2.584,62.003 2.833,62.452 3.18,62.849 3.529,63.248 56.234,115.952 
	56.234,115.952 56.732,116.399 57.279,116.797 57.876,117.098 58.522,117.296 59.169,117.446 59.817,117.495 60.516,117.495 
	61.16,117.395 61.16,117.395 61.559,117.296 61.908,117.146 62.555,116.85 63.15,116.451 "/>
<polygon fill="none" points="63.749,115.952 116.453,63.248 116.453,63.248 116.802,62.849 117.102,62.452 117.398,62.003 
	117.598,61.556 117.798,61.058 117.896,60.561 117.996,60.013 117.996,59.516 117.996,59.516 117.996,58.969 117.896,58.472 
	117.798,57.972 117.598,57.475 117.398,56.977 117.102,56.53 116.802,56.132 116.453,55.733 63.749,3.028 63.749,3.028 63.352,2.68 
	62.952,2.381 62.503,2.082 62.007,1.884 61.509,1.684 61.012,1.585 60.516,1.487 59.966,1.487 59.966,1.487 59.47,1.487 
	58.921,1.585 58.423,1.684 57.925,1.884 57.478,2.082 57.029,2.381 56.582,2.68 56.234,3.028 3.529,55.733 3.529,55.733 
	3.18,56.132 2.833,56.53 2.584,56.977 2.383,57.475 2.184,57.972 2.035,58.472 1.987,58.969 1.936,59.516 1.936,59.516 
	1.987,60.013 2.035,60.51 2.184,61.058 2.383,61.556 2.584,62.003 2.833,62.452 3.18,62.849 3.529,63.248 56.234,115.952 
	56.234,115.952 56.732,116.399 57.279,116.797 57.876,117.098 58.522,117.296 59.169,117.446 59.817,117.495 60.516,117.495 
	61.16,117.395 61.16,117.395 61.559,117.296 61.908,117.146 62.555,116.85 63.15,116.451 "/>
<polygon stroke="#000000" stroke-width="0.5" stroke-miterlimit="10" points="57.279,114.906 4.574,62.202 4.574,62.202 
	4.326,61.905 4.076,61.606 3.878,61.307 3.727,60.959 3.628,60.611 3.529,60.262 3.48,59.863 3.429,59.516 3.429,59.516 
	3.48,59.118 3.529,58.768 3.628,58.37 3.727,58.021 3.878,57.675 4.076,57.375 4.326,57.076 4.574,56.78 57.279,4.073 57.279,4.073 
	57.527,3.825 57.826,3.625 58.175,3.426 58.522,3.278 58.87,3.127 59.22,3.028 59.617,2.979 59.966,2.979 59.966,2.979 
	60.365,2.979 60.712,3.028 61.109,3.127 61.459,3.278 61.759,3.426 62.105,3.625 62.404,3.825 62.704,4.073 115.408,56.78 
	115.408,56.78 115.657,57.076 115.854,57.375 116.057,57.675 116.205,58.021 116.354,58.37 116.453,58.768 116.503,59.118 
	116.503,59.516 116.503,59.516 116.503,59.863 116.453,60.262 116.354,60.611 116.205,60.959 116.057,61.307 115.854,61.606 
	115.657,61.905 115.408,62.202 62.704,114.906 62.704,114.906 62.404,115.156 62.105,115.406 61.759,115.556 61.459,115.754 
	61.109,115.853 60.712,115.952 60.365,116.003 59.966,116.052 59.966,116.052 59.617,116.003 59.22,115.952 58.87,115.853 
	58.522,115.754 58.175,115.556 57.826,115.406 57.527,115.156 "/>
<polygon fill="#FFD520" points="58.722,113.464 58.722,113.464 59.021,113.663 59.319,113.811 59.617,113.913 59.966,113.963 
	59.966,113.963 60.316,113.913 60.663,113.811 60.962,113.663 61.209,113.464 113.914,60.708 113.914,60.708 114.113,60.462 
	114.313,60.162 114.413,59.813 114.413,59.516 114.413,59.516 114.413,59.167 114.313,58.817 114.113,58.52 113.914,58.272 
	61.209,5.566 61.209,5.566 60.962,5.319 60.663,5.169 60.316,5.07 59.966,5.07 59.966,5.07 59.617,5.07 59.319,5.169 59.021,5.319 
	58.722,5.566 6.017,58.272 6.017,58.272 5.819,58.52 5.669,58.817 5.57,59.167 5.521,59.516 5.521,59.516 5.57,59.813 5.669,60.162 
	5.819,60.462 6.017,60.708 "/>
<g>
	<polygon fill="#FFFFFF" points="37.496,61.969 50.636,48.832 69.249,48.832 82.438,61.969 82.438,80.634 69.249,93.771 
		50.636,93.771 37.496,80.634 	"/>
	<polygon fill="none" stroke="#BF2F38" stroke-width="0.5" stroke-linecap="square" stroke-miterlimit="10" points="37.497,61.969 
		50.636,48.832 69.249,48.832 82.438,61.969 82.438,80.634 69.249,93.771 50.636,93.771 37.497,80.634 	"/>
	<polygon fill="#BF2F38" points="39.467,62.828 39.467,79.822 51.494,91.802 68.439,91.802 80.468,79.822 80.468,62.828 
		68.439,50.801 51.494,50.801 	"/>
</g>
<polygon points="66.984,45.317 52.8,45.365 52.8,32.226 40.307,34.813 40.307,34.813 39.859,34.914 39.611,34.963 39.611,34.963 
	39.312,34.914 39.014,34.813 38.765,34.665 38.515,34.467 38.317,34.217 38.168,33.919 38.068,33.62 38.018,33.322 38.018,33.322 
	38.018,33.073 38.068,32.824 38.168,32.625 38.417,32.375 59.867,13.264 81.27,32.427 81.27,32.427 81.466,32.625 81.616,32.873 
	81.616,33.122 81.664,33.372 81.664,33.372 81.616,33.669 81.516,33.969 81.367,34.268 81.168,34.515 80.921,34.714 80.62,34.865 
	80.322,34.963 80.023,34.963 80.023,34.963 79.824,34.963 79.525,34.865 66.984,32.028 "/>
<g enable-background="new    ">
	<path fill="#999999" d="M50.264,97.256v2.895c0,0.213,0.01,0.453,0.02,0.616h-0.386l-0.02-0.415h-0.015
		c-0.128,0.27-0.415,0.472-0.806,0.472c-0.579,0-1.028-0.489-1.028-1.219c-0.005-0.796,0.494-1.278,1.073-1.278
		c0.371,0,0.613,0.174,0.722,0.359h0.01v-1.43H50.264L50.264,97.256z M49.833,99.346c0-0.056-0.005-0.13-0.02-0.184
		c-0.064-0.271-0.302-0.5-0.628-0.5c-0.45,0-0.717,0.396-0.717,0.92c0,0.483,0.242,0.885,0.707,0.885
		c0.292,0,0.559-0.194,0.638-0.52c0.015-0.063,0.02-0.118,0.02-0.188V99.346z"/>
	<path fill="#999999" d="M50.992,99.021c0-0.254-0.01-0.45-0.02-0.646h0.38l0.02,0.392h0.015c0.133-0.229,0.356-0.438,0.756-0.438
		c0.321,0,0.569,0.198,0.672,0.479h0.01c0.074-0.14,0.173-0.235,0.271-0.313c0.144-0.107,0.297-0.168,0.524-0.168
		c0.321,0,0.791,0.208,0.791,1.038v1.402h-0.425v-1.351c0-0.465-0.173-0.735-0.519-0.735c-0.252,0-0.44,0.185-0.519,0.393
		c-0.02,0.063-0.035,0.139-0.035,0.218v1.479h-0.425v-1.435c0-0.381-0.168-0.651-0.5-0.651c-0.267,0-0.47,0.219-0.539,0.437
		c-0.025,0.062-0.035,0.14-0.035,0.214v1.438h-0.425v-1.744h0.003V99.021z"/>
	<path fill="#999999" d="M55.221,98.373l0.47,1.34c0.079,0.224,0.144,0.42,0.193,0.617h0.015c0.054-0.197,0.124-0.396,0.203-0.617
		l0.464-1.34h0.455l-0.939,2.394h-0.415l-0.91-2.394H55.221z"/>
	<path fill="#999999" d="M59.445,97.256v2.895c0,0.213,0.01,0.453,0.02,0.616h-0.386l-0.021-0.415h-0.015
		c-0.129,0.27-0.416,0.472-0.806,0.472c-0.579,0-1.028-0.489-1.028-1.219c-0.005-0.796,0.494-1.278,1.073-1.278
		c0.371,0,0.613,0.174,0.722,0.359h0.011v-1.43H59.445L59.445,97.256z M59.014,99.346c0-0.056-0.004-0.13-0.02-0.184
		c-0.064-0.271-0.303-0.5-0.628-0.5c-0.45,0-0.717,0.396-0.717,0.92c0,0.483,0.242,0.885,0.707,0.885
		c0.292,0,0.559-0.194,0.638-0.52c0.016-0.063,0.02-0.118,0.02-0.188V99.346z"/>
	<path fill="#999999" d="M61.854,100.192c0,0.207,0.01,0.408,0.035,0.571h-0.393l-0.034-0.303h-0.015
		c-0.135,0.188-0.395,0.355-0.731,0.355c-0.483,0-0.732-0.344-0.732-0.688c0-0.578,0.516-0.896,1.439-0.891v-0.05
		c0-0.191-0.056-0.557-0.544-0.552c-0.229,0-0.461,0.064-0.629,0.181l-0.1-0.291c0.197-0.124,0.488-0.208,0.793-0.208
		c0.729,0,0.908,0.499,0.908,0.975v0.898L61.854,100.192L61.854,100.192z M61.436,99.545c-0.478-0.012-1.017,0.074-1.017,0.538
		c0,0.287,0.188,0.416,0.406,0.416c0.313,0,0.521-0.198,0.588-0.399c0.017-0.051,0.021-0.101,0.021-0.14v-0.415H61.436z"/>
	<path fill="#999999" d="M62.454,100.509c0-0.179,0.124-0.313,0.296-0.313c0.174,0,0.292,0.128,0.292,0.313
		c0,0.179-0.118,0.313-0.304,0.313C62.57,100.82,62.454,100.685,62.454,100.509z"/>
	<path fill="#999999" d="M65.287,100.681c-0.113,0.057-0.365,0.141-0.688,0.141c-0.723,0-1.191-0.489-1.191-1.224
		c0-0.735,0.507-1.273,1.285-1.273c0.258,0,0.483,0.063,0.604,0.13l-0.099,0.33c-0.104-0.057-0.269-0.112-0.507-0.112
		c-0.549,0-0.846,0.41-0.846,0.903c0,0.555,0.355,0.896,0.831,0.896c0.246,0,0.409-0.06,0.532-0.111L65.287,100.681z"/>
	<path fill="#999999" d="M67.936,99.55c0,0.886-0.619,1.271-1.19,1.271c-0.644,0-1.146-0.478-1.146-1.23
		c0-0.796,0.527-1.267,1.188-1.267C67.469,98.323,67.936,98.822,67.936,99.55z M66.039,99.574c0,0.522,0.297,0.921,0.723,0.921
		c0.416,0,0.729-0.394,0.729-0.931c0-0.405-0.201-0.915-0.717-0.915C66.262,98.65,66.039,99.124,66.039,99.574z"/>
	<path fill="#999999" d="M68.482,99.021c0-0.254-0.01-0.45-0.021-0.646h0.381l0.021,0.392h0.018
		c0.137-0.229,0.354-0.438,0.756-0.438c0.322,0,0.569,0.198,0.676,0.479h0.01c0.074-0.14,0.174-0.235,0.271-0.313
		c0.144-0.107,0.298-0.168,0.522-0.168c0.322,0,0.791,0.208,0.791,1.038v1.402H71.48v-1.351c0-0.465-0.172-0.735-0.521-0.735
		c-0.253,0-0.438,0.185-0.521,0.393c-0.021,0.063-0.033,0.139-0.033,0.218v1.479H69.98v-1.435c0-0.381-0.168-0.651-0.498-0.651
		c-0.27,0-0.471,0.219-0.539,0.437c-0.023,0.062-0.035,0.14-0.035,0.214v1.438h-0.426v-1.746h0.002v-0.006H68.482z"/>
</g>
</svg>
