<?xml version="1.0" encoding="utf-8"?>
<!-- Generator: Adobe Illustrator 15.0.0, SVG Export Plug-In . SVG Version: 6.00 Build 0)  -->
<!DOCTYPE svg PUBLIC "-//W3C//DTD SVG 1.1//EN" "http://www.w3.org/Graphics/SVG/1.1/DTD/svg11.dtd">
<svg version="1.1" id="Layer_1" xmlns="http://www.w3.org/2000/svg" xmlns:xlink="http://www.w3.org/1999/xlink" x="0px" y="0px"
	 width="61.148px" height="75.421px" viewBox="0 0 61.148 75.421" enable-background="new 0 0 61.148 75.421" xml:space="preserve">
<rect x="0" y="3.21" stroke="#000000" stroke-miterlimit="10" width="61.148" height="69.667"/>
<line fill="none" stroke="#F9EC03" stroke-width="3" stroke-miterlimit="10" x1="9.074" y1="3.21" x2="9.074" y2="72.877"/>
<line fill="none" stroke="#F9EC03" stroke-width="3" stroke-miterlimit="10" x1="53.407" y1="3.21" x2="53.407" y2="72.877"/>
<g>
	<g>
		<line fill="none" stroke="#F9EC03" stroke-width="3" stroke-miterlimit="10" x1="15.407" y1="3.21" x2="15.407" y2="6.71"/>
		
			<line fill="none" stroke="#F9EC03" stroke-width="3" stroke-miterlimit="10" stroke-dasharray="6.963,6.963" x1="15.407" y1="13.673" x2="15.407" y2="65.896"/>
		<line fill="none" stroke="#F9EC03" stroke-width="3" stroke-miterlimit="10" x1="15.407" y1="69.377" x2="15.407" y2="72.877"/>
	</g>
</g>
<g>
	<g>
		<line fill="none" stroke="#F9EC03" stroke-width="3" stroke-miterlimit="10" x1="46.407" y1="3.21" x2="46.407" y2="6.71"/>
		
			<line fill="none" stroke="#F9EC03" stroke-width="3" stroke-miterlimit="10" stroke-dasharray="6.963,6.963" x1="46.407" y1="13.673" x2="46.407" y2="65.896"/>
		<line fill="none" stroke="#F9EC03" stroke-width="3" stroke-miterlimit="10" x1="46.407" y1="69.377" x2="46.407" y2="72.877"/>
	</g>
</g>
<g>
	<path fill="#605F5F" d="M22.023,69.134v2.219c0,0.164,0.01,0.352,0.021,0.477h-0.388l-0.021-0.314h-0.017
		c-0.128,0.205-0.415,0.357-0.806,0.357c-0.58,0-1.028-0.375-1.028-0.936c-0.005-0.607,0.493-0.979,1.073-0.979
		c0.371,0,0.611,0.133,0.723,0.273h0.01v-1.098H22.023L22.023,69.134z M21.591,70.74c0-0.042-0.006-0.1-0.021-0.141
		c-0.063-0.209-0.304-0.387-0.629-0.387c-0.449,0-0.718,0.307-0.718,0.705c0,0.368,0.24,0.68,0.707,0.68
		c0.293,0,0.56-0.148,0.64-0.396c0.015-0.047,0.021-0.093,0.021-0.146V70.74z"/>
	<path fill="#605F5F" d="M22.749,70.49c0-0.189-0.011-0.346-0.021-0.492h0.381l0.021,0.299h0.018
		c0.133-0.174,0.354-0.336,0.756-0.336c0.32,0,0.568,0.146,0.672,0.363h0.01c0.074-0.104,0.176-0.184,0.271-0.236
		c0.145-0.082,0.297-0.129,0.521-0.129c0.319,0,0.791,0.156,0.791,0.795v1.074h-0.426v-1.031c0-0.354-0.173-0.563-0.52-0.563
		c-0.252,0-0.44,0.144-0.521,0.3c-0.02,0.051-0.035,0.104-0.035,0.167v1.136h-0.425v-1.103c0-0.291-0.168-0.5-0.5-0.5
		c-0.267,0-0.47,0.166-0.539,0.334c-0.022,0.047-0.034,0.104-0.034,0.162v1.104h-0.426v-1.343L22.749,70.49L22.749,70.49z"/>
	<path fill="#605F5F" d="M26.98,69.993l0.469,1.024c0.08,0.172,0.146,0.318,0.193,0.476h0.016c0.056-0.149,0.123-0.306,0.203-0.476
		l0.463-1.024h0.455l-0.938,1.833h-0.414l-0.91-1.833H26.98z"/>
	<path fill="#605F5F" d="M31.203,69.134v2.219c0,0.164,0.015,0.352,0.021,0.477h-0.391l-0.021-0.314h-0.017
		c-0.129,0.205-0.416,0.357-0.81,0.357c-0.578,0-1.026-0.375-1.026-0.936c-0.007-0.607,0.493-0.979,1.071-0.979
		c0.371,0,0.613,0.133,0.726,0.273h0.013v-1.098H31.203L31.203,69.134z M30.77,70.74c0-0.042-0.006-0.1-0.021-0.141
		c-0.063-0.209-0.306-0.387-0.631-0.387c-0.449,0-0.717,0.307-0.717,0.705c0,0.368,0.24,0.68,0.707,0.68
		c0.292,0,0.561-0.148,0.641-0.396c0.016-0.047,0.021-0.093,0.021-0.146V70.74z"/>
	<path fill="#605F5F" d="M33.61,71.384c0,0.158,0.016,0.313,0.034,0.438h-0.396l-0.033-0.229h-0.018
		c-0.133,0.146-0.395,0.271-0.729,0.271c-0.481,0-0.729-0.263-0.729-0.523c0-0.439,0.519-0.688,1.438-0.687v-0.036
		c0-0.146-0.061-0.425-0.543-0.421c-0.229,0-0.461,0.052-0.629,0.14l-0.104-0.227c0.191-0.098,0.482-0.156,0.79-0.156
		c0.729,0,0.91,0.383,0.91,0.743L33.61,71.384L33.61,71.384z M33.19,70.89c-0.479-0.012-1.016,0.059-1.016,0.41
		c0,0.223,0.188,0.316,0.401,0.316c0.313,0,0.521-0.15,0.591-0.311c0.02-0.036,0.021-0.075,0.021-0.104L33.19,70.89L33.19,70.89z"/>
	<path fill="#605F5F" d="M34.212,71.63c0-0.141,0.125-0.238,0.299-0.238s0.293,0.101,0.293,0.238c0,0.137-0.12,0.234-0.305,0.234
		C34.331,71.868,34.212,71.765,34.212,71.63z"/>
	<path fill="#605F5F" d="M37.046,71.759c-0.111,0.043-0.363,0.104-0.688,0.104c-0.724,0-1.19-0.375-1.19-0.938
		c0-0.563,0.504-0.979,1.285-0.979c0.258,0,0.483,0.051,0.604,0.104l-0.104,0.254c-0.104-0.043-0.267-0.088-0.504-0.088
		c-0.55,0-0.848,0.313-0.848,0.688c0,0.429,0.354,0.688,0.832,0.688c0.246,0,0.408-0.045,0.531-0.088L37.046,71.759z"/>
	<path fill="#605F5F" d="M39.69,70.894c0,0.68-0.618,0.977-1.189,0.977c-0.645,0-1.146-0.361-1.146-0.941
		c0-0.605,0.525-0.971,1.188-0.971C39.226,69.955,39.69,70.337,39.69,70.894z M37.798,70.914c0,0.398,0.299,0.704,0.725,0.704
		c0.416,0,0.729-0.302,0.729-0.714c0-0.313-0.201-0.699-0.718-0.699C38.019,70.207,37.798,70.568,37.798,70.914z"/>
	<path fill="#605F5F" d="M40.24,70.49c0-0.189-0.012-0.346-0.021-0.492H40.6l0.021,0.299h0.018c0.137-0.174,0.354-0.336,0.758-0.336
		c0.318,0,0.566,0.146,0.674,0.363h0.012c0.072-0.104,0.172-0.184,0.271-0.236c0.146-0.082,0.297-0.129,0.521-0.129
		c0.319,0,0.791,0.156,0.791,0.795v1.074H43.24v-1.031c0-0.354-0.174-0.563-0.521-0.563c-0.256,0-0.438,0.144-0.521,0.3
		c-0.021,0.051-0.034,0.104-0.034,0.167v1.136h-0.424v-1.103c0-0.291-0.168-0.5-0.498-0.5c-0.271,0-0.476,0.166-0.539,0.334
		c-0.023,0.047-0.033,0.104-0.033,0.162v1.104h-0.428L40.24,70.49L40.24,70.49z"/>
</g>
</svg>
