<?xml version="1.0" encoding="utf-8"?>
<!-- Generator: Adobe Illustrator 15.0.0, SVG Export Plug-In . SVG Version: 6.00 Build 0)  -->
<!DOCTYPE svg PUBLIC "-//W3C//DTD SVG 1.1//EN" "http://www.w3.org/Graphics/SVG/1.1/DTD/svg11.dtd">
<svg version="1.1" id="Layer_1" xmlns="http://www.w3.org/2000/svg" xmlns:xlink="http://www.w3.org/1999/xlink" x="0px" y="0px"
	 width="82.779px" height="102.189px" viewBox="0 0 82.779 102.189" enable-background="new 0 0 82.779 102.189"
	 xml:space="preserve">
<polygon fill="#FFFFFF" points="78.639,102.189 4.514,102.189 4.514,102.189 3.445,102.189 2.614,101.898 1.901,101.461 
	1.189,100.73 0.713,100.001 0.355,99.125 0.119,98.102 0,96.934 0,5.255 0,5.255 0.119,4.087 0.355,3.066 0.713,2.19 1.189,1.46 
	1.901,0.73 2.614,0.292 3.445,0 4.514,0 78.639,0 78.639,0 79.71,0 80.539,0.292 81.254,0.73 81.965,1.46 82.44,2.19 82.797,3.066 
	83.035,4.087 83.152,5.255 83.152,96.934 83.152,96.934 83.035,98.102 82.797,99.125 82.44,100.001 81.965,100.73 81.254,101.461 
	80.539,101.898 79.71,102.189 "/>
<path d="M78.639,99.855H4.514l0,0H3.92l-0.475-0.147l-0.476-0.293l-0.356-0.29l-0.238-0.438l-0.236-0.584L2.02,97.518l-0.119-0.584
	V5.255l0,0L2.02,4.672l0.118-0.584l0.236-0.584l0.238-0.438l0.356-0.292l0.476-0.292L3.92,2.336h0.596H78.64l0,0h0.594l0.477,0.146
	l0.476,0.292l0.355,0.292l0.238,0.438l0.239,0.584l0.117,0.584l0.118,0.583v91.682l0,0l-0.118,0.582l-0.117,0.586l-0.239,0.582
	l-0.238,0.438l-0.355,0.292L79.71,99.71l-0.477,0.146L78.639,99.855L78.639,99.855L78.639,99.855z M79.47,5.255L79.47,5.255V4.963
	l-0.239-0.291L78.996,4.38H78.64H4.514l0,0H4.156L3.92,4.672L3.682,4.963v0.292v91.682l0,0v0.29l0.236,0.292l0.237,0.293h0.356
	h74.125l0,0h0.355l0.237-0.293l0.239-0.292v-0.29L79.47,5.255L79.47,5.255z"/>
<g>
	<path fill="#999999" d="M30.214,93.899v2.218c0,0.163,0.011,0.353,0.021,0.478h-0.387l-0.021-0.315H29.81
		c-0.128,0.205-0.415,0.358-0.807,0.358c-0.58,0-1.027-0.375-1.027-0.938c-0.005-0.605,0.493-0.979,1.072-0.979
		c0.371,0,0.611,0.133,0.723,0.271h0.011v-1.098L30.214,93.899L30.214,93.899z M29.782,95.502c0-0.042-0.006-0.1-0.021-0.141
		c-0.063-0.209-0.305-0.386-0.63-0.386c-0.448,0-0.718,0.306-0.718,0.705c0,0.367,0.242,0.68,0.707,0.68
		c0.293,0,0.561-0.148,0.641-0.396c0.015-0.047,0.021-0.092,0.021-0.146V95.502z"/>
	<path fill="#999999" d="M30.94,95.252c0-0.188-0.011-0.346-0.021-0.492h0.382l0.021,0.301h0.016
		c0.135-0.176,0.355-0.337,0.758-0.337c0.318,0,0.566,0.146,0.672,0.363h0.01c0.074-0.104,0.175-0.184,0.271-0.235
		c0.146-0.083,0.299-0.129,0.523-0.129c0.319,0,0.791,0.154,0.791,0.795v1.072h-0.426v-1.031c0-0.354-0.173-0.563-0.521-0.563
		c-0.252,0-0.439,0.145-0.521,0.299c-0.021,0.054-0.035,0.104-0.035,0.167v1.138h-0.425v-1.104c0-0.292-0.168-0.5-0.5-0.5
		c-0.269,0-0.472,0.166-0.539,0.333c-0.023,0.047-0.033,0.104-0.033,0.163v1.104h-0.427v-1.343L30.94,95.252L30.94,95.252z"/>
	<path fill="#999999" d="M35.171,94.756l0.47,1.024c0.08,0.172,0.145,0.32,0.192,0.476h0.017c0.055-0.147,0.123-0.305,0.202-0.476
		l0.464-1.024h0.455l-0.938,1.833h-0.418l-0.91-1.833H35.171z"/>
	<path fill="#999999" d="M39.393,93.899v2.218c0,0.163,0.012,0.353,0.021,0.478h-0.388l-0.021-0.315h-0.016
		c-0.129,0.205-0.416,0.358-0.809,0.358c-0.578,0-1.025-0.375-1.025-0.938c-0.008-0.605,0.492-0.979,1.07-0.979
		c0.371,0,0.612,0.133,0.725,0.271h0.012v-1.098L39.393,93.899L39.393,93.899z M38.962,95.502c0-0.042-0.004-0.1-0.021-0.141
		c-0.063-0.209-0.304-0.386-0.629-0.386c-0.447,0-0.717,0.306-0.717,0.705c0,0.367,0.237,0.68,0.706,0.68
		c0.293,0,0.562-0.148,0.64-0.396c0.018-0.047,0.021-0.092,0.021-0.146V95.502z"/>
	<path fill="#999999" d="M41.802,96.149c0,0.158,0.016,0.313,0.033,0.438h-0.394l-0.032-0.229h-0.018
		c-0.134,0.146-0.396,0.271-0.729,0.271c-0.479,0-0.729-0.264-0.729-0.523c0-0.439,0.519-0.688,1.438-0.687v-0.037
		c0-0.146-0.059-0.425-0.543-0.42c-0.229,0-0.461,0.053-0.629,0.14l-0.101-0.228c0.191-0.097,0.482-0.156,0.79-0.156
		c0.729,0,0.909,0.384,0.909,0.744L41.802,96.149L41.802,96.149z M41.382,95.653c-0.477-0.011-1.014,0.06-1.014,0.411
		c0,0.223,0.188,0.315,0.401,0.315c0.313,0,0.521-0.148,0.589-0.309c0.02-0.038,0.021-0.076,0.021-0.104L41.382,95.653
		L41.382,95.653z"/>
	<path fill="#999999" d="M42.401,96.392c0-0.141,0.125-0.237,0.297-0.237c0.174,0,0.293,0.1,0.293,0.237
		c0,0.137-0.119,0.234-0.303,0.234C42.52,96.631,42.401,96.528,42.401,96.392z"/>
	<path fill="#999999" d="M45.235,96.524c-0.113,0.042-0.365,0.104-0.688,0.104c-0.725,0-1.189-0.375-1.189-0.938
		c0-0.563,0.505-0.979,1.285-0.979c0.258,0,0.482,0.053,0.604,0.104l-0.104,0.253c-0.104-0.042-0.27-0.086-0.504-0.086
		c-0.551,0-0.85,0.313-0.85,0.688c0,0.43,0.354,0.688,0.832,0.688c0.246,0,0.408-0.045,0.531-0.087L45.235,96.524z"/>
	<path fill="#999999" d="M47.882,95.657c0,0.681-0.617,0.976-1.189,0.976c-0.645,0-1.146-0.359-1.146-0.938
		c0-0.607,0.525-0.971,1.188-0.971C47.417,94.716,47.882,95.099,47.882,95.657z M45.987,95.675c0,0.399,0.297,0.704,0.725,0.704
		c0.416,0,0.729-0.301,0.729-0.714c0-0.313-0.197-0.699-0.717-0.699C46.21,94.969,45.987,95.332,45.987,95.675z"/>
	<path fill="#999999" d="M48.429,95.252c0-0.188-0.012-0.346-0.021-0.492h0.381l0.021,0.301h0.019
		c0.135-0.176,0.354-0.337,0.756-0.337c0.32,0,0.565,0.146,0.675,0.363h0.011c0.074-0.104,0.172-0.184,0.271-0.235
		c0.146-0.083,0.297-0.129,0.521-0.129c0.319,0,0.789,0.154,0.789,0.795v1.072h-0.427v-1.031c0-0.354-0.172-0.563-0.518-0.563
		c-0.258,0-0.441,0.145-0.521,0.299c-0.021,0.054-0.035,0.104-0.035,0.167v1.138h-0.425v-1.104c0-0.292-0.168-0.5-0.497-0.5
		c-0.271,0-0.474,0.166-0.539,0.333c-0.023,0.047-0.033,0.104-0.033,0.163v1.104h-0.428V95.252L48.429,95.252z"/>
</g>
<g>
	<path stroke="#000000" stroke-width="0.5" stroke-miterlimit="10" d="M9.045,22.552c0.739,0.461,1.8,0.813,2.938,0.813
		c1.687,0,2.672-0.868,2.672-2.124c0-1.145-0.682-1.828-2.407-2.456c-2.084-0.738-3.374-1.809-3.374-3.545
		c0-1.938,1.649-3.379,4.132-3.379c1.289,0,2.255,0.295,2.805,0.609l-0.455,1.311c-0.398-0.24-1.25-0.591-2.407-0.591
		c-1.744,0-2.407,1.016-2.407,1.865c0,1.163,0.777,1.735,2.54,2.4c2.161,0.812,3.241,1.828,3.241,3.656c0,1.92-1.44,3.6-4.454,3.6
		c-1.232,0-2.578-0.369-3.26-0.813L9.045,22.552z"/>
	<path stroke="#000000" stroke-width="0.5" stroke-miterlimit="10" d="M18.575,12.065h1.667v11.097H25.7v1.348h-7.125V12.065z"/>
	<path stroke="#000000" stroke-width="0.5" stroke-miterlimit="10" d="M37.714,18.158c0,4.265-2.672,6.554-5.932,6.554
		c-3.392,0-5.742-2.566-5.742-6.333c0-3.951,2.502-6.536,5.913-6.536C35.459,11.844,37.714,14.447,37.714,18.158z M27.783,18.343
		c0,2.677,1.478,5.059,4.093,5.059c2.616,0,4.094-2.345,4.094-5.169c0-2.493-1.327-5.078-4.075-5.078
		C29.148,13.154,27.783,15.628,27.783,18.343z"/>
	<path stroke="#000000" stroke-width="0.5" stroke-miterlimit="10" d="M41.937,24.509l-3.241-12.444h1.744l1.516,6.296
		c0.38,1.551,0.721,3.102,0.948,4.302h0.038c0.208-1.237,0.606-2.714,1.042-4.32l1.706-6.278h1.724l1.555,6.314
		c0.36,1.477,0.701,2.954,0.891,4.265h0.038c0.265-1.366,0.625-2.751,1.023-4.302l1.687-6.278h1.687l-3.62,12.444h-1.725l-1.61-6.48
		c-0.398-1.588-0.663-2.807-0.834-4.062h-0.038c-0.208,1.237-0.512,2.456-0.985,4.062l-1.819,6.48H41.937z"/>
	<path stroke="#000000" stroke-width="0.5" stroke-miterlimit="10" d="M62.476,18.675H57.53v4.487h5.534v1.348h-7.202V12.065h6.918
		v1.348h-5.25v3.933h4.946V18.675z"/>
	<path stroke="#000000" stroke-width="0.5" stroke-miterlimit="10" d="M65.204,12.231c0.834-0.148,2.047-0.259,3.165-0.259
		c1.763,0,2.918,0.333,3.695,1.016c0.625,0.554,1.004,1.403,1.004,2.382c0,1.625-1.061,2.714-2.388,3.157v0.055
		c0.967,0.333,1.555,1.219,1.857,2.511c0.417,1.735,0.721,2.936,0.985,3.416h-1.705c-0.209-0.369-0.493-1.422-0.834-2.973
		c-0.379-1.717-1.08-2.363-2.577-2.418h-1.555v5.391h-1.648V12.231z M66.852,17.899h1.687c1.763,0,2.881-0.941,2.881-2.363
		c0-1.606-1.193-2.308-2.938-2.308c-0.796,0-1.346,0.055-1.63,0.129V17.899z"/>
	<path stroke="#000000" stroke-width="0.5" stroke-miterlimit="10" d="M12.115,35.589H8.229v-1.367h9.457v1.367h-3.904v11.078
		h-1.667V35.589z"/>
	<path stroke="#000000" stroke-width="0.5" stroke-miterlimit="10" d="M19.105,34.388c0.834-0.148,2.047-0.259,3.165-0.259
		c1.763,0,2.919,0.333,3.696,1.016c0.625,0.554,1.004,1.403,1.004,2.382c0,1.625-1.062,2.714-2.388,3.157v0.055
		c0.966,0.333,1.554,1.219,1.857,2.511c0.417,1.735,0.72,2.936,0.985,3.416h-1.706c-0.208-0.369-0.493-1.422-0.833-2.973
		c-0.379-1.717-1.081-2.363-2.578-2.418h-1.554v5.391h-1.648V34.388z M20.754,40.056h1.687c1.762,0,2.88-0.941,2.88-2.363
		c0-1.606-1.194-2.308-2.938-2.308c-0.796,0-1.345,0.055-1.63,0.129V40.056z"/>
	<path stroke="#000000" stroke-width="0.5" stroke-miterlimit="10" d="M31.459,42.752l-1.327,3.914h-1.706l4.359-12.444h1.971
		l4.359,12.444h-1.763l-1.365-3.914H31.459z M35.666,41.497l-1.27-3.582c-0.284-0.813-0.474-1.551-0.663-2.271h-0.038
		c-0.189,0.72-0.379,1.496-0.644,2.252L31.8,41.497H35.666z"/>
	<path stroke="#000000" stroke-width="0.5" stroke-miterlimit="10" d="M40.97,34.222h6.879v1.348h-5.212v4.136h4.813v1.329h-4.813
		v5.631H40.97V34.222z"/>
	<path stroke="#000000" stroke-width="0.5" stroke-miterlimit="10" d="M50.197,34.222h6.88v1.348h-5.212v4.136h4.813v1.329h-4.813
		v5.631h-1.668V34.222z"/>
	<path stroke="#000000" stroke-width="0.5" stroke-miterlimit="10" d="M61.092,34.222v12.444h-1.668V34.222H61.092z"/>
	<path stroke="#000000" stroke-width="0.5" stroke-miterlimit="10" d="M72.879,46.279c-0.588,0.295-1.819,0.591-3.374,0.591
		c-3.601,0-6.291-2.216-6.291-6.314c0-3.914,2.71-6.536,6.671-6.536c1.572,0,2.596,0.333,3.032,0.554L72.5,35.884
		c-0.606-0.295-1.497-0.517-2.559-0.517c-2.994,0-4.984,1.865-4.984,5.133c0,3.064,1.801,5.003,4.89,5.003
		c1.023,0,2.047-0.203,2.71-0.517L72.879,46.279z"/>
	<path stroke="#000000" stroke-width="0.5" stroke-miterlimit="10" d="M28.513,56.379v7.386c0,2.77,1.27,3.951,2.976,3.951
		c1.876,0,3.108-1.219,3.108-3.951v-7.386h1.668v7.274c0,3.822-2.066,5.373-4.833,5.373c-2.616,0-4.586-1.44-4.586-5.317v-7.33
		H28.513z"/>
	<path stroke="#000000" stroke-width="0.5" stroke-miterlimit="10" d="M38.915,66.866c0.739,0.462,1.8,0.813,2.938,0.813
		c1.687,0,2.672-0.868,2.672-2.123c0-1.146-0.682-1.828-2.406-2.456c-2.085-0.738-3.374-1.81-3.374-3.545
		c0-1.938,1.649-3.379,4.132-3.379c1.288,0,2.255,0.296,2.805,0.609l-0.455,1.311c-0.397-0.239-1.251-0.591-2.406-0.591
		c-1.744,0-2.407,1.016-2.407,1.865c0,1.163,0.777,1.735,2.539,2.4c2.161,0.813,3.241,1.828,3.241,3.655
		c0,1.921-1.44,3.601-4.454,3.601c-1.231,0-2.577-0.369-3.259-0.813L38.915,66.866z"/>
	<path stroke="#000000" stroke-width="0.5" stroke-miterlimit="10" d="M55.058,62.989h-4.946v4.486h5.534v1.348h-7.202V56.379h6.918
		v1.348h-5.25v3.933h4.946V62.989z"/>
</g>
<g>
	<path stroke="#000000" stroke-width="0.75" stroke-miterlimit="10" d="M8.312,78.58H5.077v-1.362h7.873v1.362H9.7v11.051H8.312
		V78.58z"/>
	<path stroke="#000000" stroke-width="0.75" stroke-miterlimit="10" d="M15.503,77.218v7.367c0,2.762,1.057,3.94,2.477,3.94
		c1.562,0,2.587-1.215,2.587-3.94v-7.367h1.389v7.256c0,3.813-1.72,5.359-4.023,5.359c-2.177,0-3.818-1.437-3.818-5.304v-7.312
		H15.503z"/>
	<path stroke="#000000" stroke-width="0.75" stroke-miterlimit="10" d="M24.335,77.384c0.694-0.147,1.704-0.259,2.635-0.259
		c1.467,0,2.43,0.332,3.077,1.014c0.521,0.553,0.836,1.399,0.836,2.376c0,1.62-0.883,2.707-1.988,3.149v0.055
		c0.805,0.332,1.294,1.216,1.546,2.505c0.347,1.731,0.6,2.929,0.82,3.407h-1.42c-0.174-0.368-0.41-1.418-0.694-2.965
		c-0.315-1.713-0.899-2.357-2.146-2.413h-1.294v5.378h-1.373V77.384z M25.707,83.037h1.404c1.467,0,2.398-0.938,2.398-2.357
		c0-1.602-0.994-2.302-2.445-2.302c-0.663,0-1.12,0.055-1.357,0.129V83.037z"/>
	<path stroke="#000000" stroke-width="0.75" stroke-miterlimit="10" d="M32.82,89.631V77.218h1.515l3.392,6.28
		c0.773,1.455,1.404,2.763,1.893,4.033l0.047-0.019c-0.126-1.657-0.158-3.168-0.158-5.102v-5.193h1.294v12.413h-1.389l-3.376-6.299
		c-0.742-1.381-1.452-2.8-1.973-4.144l-0.047,0.019c0.079,1.565,0.094,3.057,0.094,5.12v5.304H32.82z"/>
	<path stroke="#000000" stroke-width="0.75" stroke-miterlimit="10" d="M52.286,83.295c0,4.255-2.225,6.538-4.938,6.538
		c-2.824,0-4.78-2.56-4.78-6.316c0-3.941,2.082-6.521,4.922-6.521C50.408,76.996,52.286,79.594,52.286,83.295z M44.018,83.479
		c0,2.671,1.23,5.046,3.408,5.046c2.177,0,3.408-2.339,3.408-5.156c0-2.486-1.104-5.065-3.393-5.065S44.018,80.772,44.018,83.479z"
		/>
	<path stroke="#000000" stroke-width="0.75" stroke-miterlimit="10" d="M55.436,77.218v7.367c0,2.762,1.058,3.94,2.478,3.94
		c1.562,0,2.588-1.215,2.588-3.94v-7.367h1.388v7.256c0,3.813-1.72,5.359-4.022,5.359c-2.178,0-3.818-1.437-3.818-5.304v-7.312
		H55.436z"/>
	<path stroke="#000000" stroke-width="0.75" stroke-miterlimit="10" d="M66.288,78.58h-3.234v-1.362h7.873v1.362h-3.25v11.051
		h-1.389V78.58z"/>
	<path stroke="#000000" stroke-width="0.75" stroke-miterlimit="10" d="M71.839,87.678c0.615,0.46,1.499,0.811,2.445,0.811
		c1.404,0,2.225-0.866,2.225-2.118c0-1.142-0.567-1.823-2.003-2.449c-1.736-0.737-2.809-1.806-2.809-3.536
		c0-1.935,1.372-3.371,3.439-3.371c1.072,0,1.877,0.295,2.335,0.608l-0.379,1.308c-0.331-0.239-1.041-0.59-2.004-0.59
		c-1.451,0-2.004,1.013-2.004,1.86c0,1.16,0.647,1.731,2.114,2.395c1.799,0.811,2.698,1.823,2.698,3.646
		c0,1.915-1.199,3.591-3.708,3.591c-1.025,0-2.146-0.368-2.713-0.81L71.839,87.678z"/>
</g>
</svg>
