<?xml version="1.0" encoding="utf-8"?>
<!-- Generator: Adobe Illustrator 15.0.0, SVG Export Plug-In . SVG Version: 6.00 Build 0)  -->
<!DOCTYPE svg PUBLIC "-//W3C//DTD SVG 1.1//EN" "http://www.w3.org/Graphics/SVG/1.1/DTD/svg11.dtd">
<svg version="1.1" id="Layer_1" xmlns="http://www.w3.org/2000/svg" xmlns:xlink="http://www.w3.org/1999/xlink" x="0px" y="0px"
	 width="102.359px" height="88.667px" viewBox="-9.785 17.594 102.359 88.667"
	 enable-background="new -9.785 17.594 102.359 88.667" xml:space="preserve">
<polygon fill="#FFFFFF" points="-9.785,78.575 -9.785,78.575 -9.646,79.553 -9.372,80.424 -8.958,81.186 -8.268,81.731 
	-7.438,82.275 -6.613,82.602 -5.509,82.82 -4.406,82.928 87.193,82.928 87.193,82.928 88.297,82.82 89.401,82.602 90.229,82.275 
	91.056,81.731 91.746,81.186 92.16,80.424 92.437,79.553 92.574,78.575 92.574,21.95 92.574,21.95 92.437,20.97 92.16,20.099 
	91.746,19.337 91.056,18.792 90.229,18.248 89.401,17.92 88.297,17.703 87.193,17.594 -4.406,17.594 -4.406,17.594 -5.509,17.703 
	-6.613,17.92 -7.438,18.248 -8.268,18.792 -8.958,19.337 -9.372,20.099 -9.646,20.97 -9.785,21.95 "/>
<path d="M-7.438,78.575V21.95l0,0v-0.546l0.271-0.542l0.139-0.435l0.414-0.327l0.413-0.327l0.555-0.111l0.552-0.215h0.688h91.601
	l0,0h0.688l0.552,0.216l0.555,0.111l0.414,0.327l0.413,0.327l0.138,0.435l0.275,0.542v0.546v56.624l0,0v0.543l-0.276,0.544
	l-0.138,0.435l-0.413,0.326l-0.414,0.327l-0.555,0.11l-0.552,0.216h-0.688H-4.406l0,0h-0.688l-0.552-0.216l-0.555-0.11l-0.413-0.327
	l-0.414-0.326l-0.139-0.435l-0.271-0.544V78.575L-7.438,78.575L-7.438,78.575z M87.193,79.444L87.193,79.444l0.414-0.109l0.273-0.11
	l0.141-0.327l0.138-0.323V21.95l0,0l-0.138-0.327l-0.139-0.327l-0.275-0.108l-0.414-0.111H-4.407l0,0l-0.414,0.112l-0.273,0.107
	l-0.14,0.327l-0.139,0.327v56.625l0,0l0.139,0.323l0.14,0.326l0.273,0.111l0.414,0.108H87.193L87.193,79.444z"/>
<g>
	<path fill="#999999" d="M31.694,73.817v2.218c0,0.163,0.01,0.353,0.02,0.478h-0.387l-0.02-0.316h-0.017
		c-0.128,0.205-0.415,0.358-0.806,0.358c-0.58,0-1.028-0.375-1.028-0.937c-0.005-0.605,0.493-0.979,1.073-0.979
		c0.371,0,0.612,0.133,0.722,0.272h0.012v-1.097L31.694,73.817L31.694,73.817z M31.263,75.419c0-0.042-0.009-0.1-0.021-0.141
		c-0.063-0.209-0.304-0.386-0.629-0.386c-0.449,0-0.718,0.306-0.718,0.705c0,0.37,0.239,0.68,0.707,0.68
		c0.293,0,0.56-0.147,0.64-0.396c0.015-0.049,0.021-0.094,0.021-0.146V75.419z"/>
	<path fill="#999999" d="M32.421,75.169c0-0.189-0.011-0.346-0.021-0.491h0.381l0.021,0.299h0.019
		c0.133-0.174,0.354-0.337,0.756-0.337c0.32,0,0.568,0.147,0.672,0.365h0.01c0.074-0.104,0.177-0.185,0.271-0.237
		c0.145-0.083,0.297-0.129,0.521-0.129c0.319,0,0.791,0.157,0.791,0.795v1.075h-0.426v-1.033c0-0.354-0.173-0.563-0.52-0.563
		c-0.252,0-0.44,0.144-0.521,0.299c-0.02,0.053-0.035,0.104-0.035,0.167v1.137h-0.425v-1.103c0-0.292-0.168-0.5-0.5-0.5
		c-0.267,0-0.47,0.166-0.539,0.333c-0.021,0.047-0.034,0.104-0.034,0.163v1.104h-0.426v-1.341L32.421,75.169L32.421,75.169z"/>
	<path fill="#999999" d="M36.651,74.674l0.469,1.022c0.08,0.172,0.146,0.32,0.193,0.478h0.016c0.055-0.15,0.123-0.307,0.203-0.478
		l0.463-1.022h0.455l-0.938,1.833h-0.415l-0.91-1.833H36.651z"/>
	<path fill="#999999" d="M40.875,73.817v2.218c0,0.163,0.014,0.353,0.021,0.478h-0.391l-0.021-0.316h-0.014
		c-0.132,0.205-0.416,0.358-0.81,0.358c-0.578,0-1.027-0.375-1.027-0.937c-0.006-0.605,0.494-0.979,1.072-0.979
		c0.371,0,0.613,0.133,0.726,0.272h0.012v-1.097L40.875,73.817L40.875,73.817z M40.441,75.419c0-0.042-0.004-0.1-0.021-0.141
		c-0.063-0.209-0.304-0.386-0.629-0.386c-0.449,0-0.717,0.306-0.717,0.705c0,0.37,0.24,0.68,0.707,0.68
		c0.292,0,0.559-0.147,0.639-0.396c0.019-0.049,0.021-0.094,0.021-0.146V75.419z"/>
	<path fill="#999999" d="M43.282,76.067c0,0.158,0.014,0.313,0.034,0.438h-0.396l-0.03-0.229h-0.02
		c-0.133,0.146-0.394,0.271-0.729,0.271c-0.481,0-0.729-0.265-0.729-0.525c0-0.439,0.52-0.688,1.438-0.685v-0.036
		c0-0.146-0.061-0.427-0.543-0.421c-0.229,0-0.461,0.051-0.629,0.138l-0.103-0.227c0.193-0.097,0.484-0.155,0.79-0.155
		c0.729,0,0.91,0.382,0.91,0.744L43.282,76.067L43.282,76.067z M42.861,75.571c-0.479-0.011-1.014,0.061-1.014,0.411
		c0,0.223,0.188,0.318,0.4,0.318c0.313,0,0.521-0.151,0.589-0.311c0.021-0.038,0.021-0.076,0.021-0.104L42.861,75.571L42.861,75.571
		z"/>
	<path fill="#999999" d="M43.882,76.31c0-0.139,0.125-0.237,0.301-0.237c0.174,0,0.293,0.101,0.293,0.237s-0.119,0.236-0.307,0.236
		C44.002,76.549,43.882,76.446,43.882,76.31z"/>
	<path fill="#999999" d="M46.716,76.442c-0.109,0.042-0.361,0.104-0.688,0.104c-0.723,0-1.19-0.375-1.19-0.938
		s0.504-0.979,1.285-0.979c0.258,0,0.483,0.051,0.604,0.102l-0.104,0.253c-0.104-0.042-0.267-0.086-0.504-0.086
		c-0.55,0-0.847,0.313-0.847,0.688c0,0.43,0.354,0.688,0.832,0.688c0.246,0,0.408-0.045,0.528-0.087L46.716,76.442z"/>
	<path fill="#999999" d="M49.361,75.575c0,0.682-0.618,0.978-1.19,0.978c-0.644,0-1.146-0.362-1.146-0.941
		c0-0.606,0.524-0.971,1.187-0.971C48.897,74.635,49.361,75.017,49.361,75.575z M47.468,75.594c0,0.397,0.301,0.704,0.727,0.704
		c0.416,0,0.728-0.303,0.728-0.716c0-0.313-0.198-0.697-0.717-0.697C47.69,74.886,47.468,75.25,47.468,75.594z"/>
	<path fill="#999999" d="M49.912,75.169c0-0.189-0.012-0.346-0.021-0.491h0.381l0.021,0.299h0.021
		c0.135-0.174,0.354-0.337,0.756-0.337c0.319,0,0.565,0.147,0.674,0.365h0.01c0.074-0.104,0.172-0.185,0.271-0.237
		c0.145-0.083,0.297-0.129,0.521-0.129c0.32,0,0.791,0.157,0.791,0.795v1.075H52.91v-1.033c0-0.354-0.174-0.563-0.52-0.563
		c-0.257,0-0.439,0.144-0.521,0.299c-0.021,0.053-0.035,0.104-0.035,0.167v1.137h-0.423v-1.103c0-0.292-0.168-0.5-0.498-0.5
		c-0.271,0-0.475,0.166-0.539,0.333c-0.022,0.047-0.035,0.104-0.035,0.163v1.104h-0.426L49.912,75.169L49.912,75.169z"/>
</g>
<g>
	<path stroke="#000000" stroke-miterlimit="10" d="M0.858,31.745h-4.342v-1.567H7.084v1.567H2.721v12.708H0.858V31.745z"/>
	<path stroke="#000000" stroke-miterlimit="10" d="M10.516,30.177v8.472c0,3.177,1.419,4.533,3.325,4.533
		c2.097,0,3.473-1.398,3.473-4.533v-8.472h1.864v8.345c0,4.384-2.309,6.163-5.401,6.163c-2.923,0-5.125-1.652-5.125-6.1v-8.408
		H10.516z"/>
	<path stroke="#000000" stroke-miterlimit="10" d="M22.378,30.368c0.932-0.169,2.287-0.297,3.537-0.297
		c1.97,0,3.262,0.381,4.13,1.165c0.699,0.635,1.123,1.609,1.123,2.732c0,1.864-1.186,3.114-2.668,3.622v0.064
		c1.08,0.381,1.737,1.397,2.076,2.88c0.466,1.991,0.805,3.367,1.101,3.918h-1.906c-0.233-0.424-0.55-1.631-0.932-3.41
		c-0.424-1.97-1.208-2.711-2.88-2.775H24.22v6.185h-1.842V30.368z M24.22,36.87h1.885c1.969,0,3.219-1.08,3.219-2.711
		c0-1.843-1.334-2.647-3.283-2.647c-0.889,0-1.503,0.063-1.821,0.148V36.87z"/>
	<path stroke="#000000" stroke-miterlimit="10" d="M33.774,44.452V30.177h2.033L40.36,37.4c1.038,1.673,1.886,3.177,2.542,4.638
		l0.063-0.021c-0.17-1.906-0.212-3.643-0.212-5.867v-5.973h1.736v14.275h-1.863l-4.533-7.243c-0.996-1.588-1.948-3.219-2.647-4.766
		l-0.063,0.021c0.106,1.8,0.127,3.516,0.127,5.888v6.1H33.774z"/>
	<path stroke="#000000" stroke-miterlimit="10" d="M59.911,37.167c0,4.893-2.986,7.519-6.63,7.519c-3.791,0-6.417-2.944-6.417-7.264
		c0-4.533,2.796-7.498,6.608-7.498C57.39,29.924,59.911,32.91,59.911,37.167z M48.812,37.379c0,3.071,1.652,5.803,4.575,5.803
		s4.574-2.69,4.574-5.931c0-2.859-1.482-5.824-4.554-5.824C50.338,31.427,48.812,34.265,48.812,37.379z"/>
	<path stroke="#000000" stroke-miterlimit="10" d="M64.148,30.177v8.472c0,3.177,1.419,4.533,3.325,4.533
		c2.097,0,3.474-1.398,3.474-4.533v-8.472h1.863v8.345c0,4.384-2.309,6.163-5.4,6.163c-2.923,0-5.126-1.652-5.126-6.1v-8.408H64.148
		z"/>
	<path stroke="#000000" stroke-miterlimit="10" d="M78.72,31.745h-4.342v-1.567h10.568v1.567h-4.362v12.708H78.72V31.745z"/>
	<path stroke="#000000" stroke-miterlimit="10" d="M7.731,57.841H7.689l-2.394,1.291l-0.36-1.419l3.007-1.609h1.588V69.87h-1.8
		V57.841z"/>
	<path stroke="#000000" stroke-miterlimit="10" d="M13.577,70.696l5.888-15.355h1.461l-5.93,15.355H13.577z"/>
	<path stroke="#000000" stroke-miterlimit="10" d="M27.577,69.87V66.1h-6.396v-1.208l6.142-8.789h2.012v8.557h1.927v1.44h-1.927
		v3.77H27.577z M27.577,64.66v-4.596c0-0.721,0.021-1.44,0.063-2.16h-0.063c-0.424,0.805-0.763,1.397-1.144,2.033l-3.368,4.681
		v0.042H27.577z"/>
	<path stroke="#000000" stroke-miterlimit="10" d="M49.86,63.6c-0.106-1.99-0.233-4.404-0.233-6.163h-0.042
		c-0.509,1.652-1.08,3.452-1.801,5.422l-2.521,6.926h-1.397l-2.33-6.798c-0.678-2.033-1.229-3.855-1.631-5.55h-0.042
		c-0.042,1.779-0.148,4.151-0.275,6.312l-0.381,6.121h-1.758l0.995-14.274h2.351L43.23,62.5c0.594,1.758,1.06,3.325,1.44,4.808
		h0.042c0.382-1.44,0.89-3.008,1.525-4.808l2.541-6.904h2.352l0.89,14.274h-1.821L49.86,63.6z"/>
	<path stroke="#000000" stroke-miterlimit="10" d="M56.702,55.595V69.87h-1.863V55.595H56.702z"/>
	<path stroke="#000000" stroke-miterlimit="10" d="M59.9,55.595h1.864v12.729h6.1v1.546H59.9V55.595z"/>
	<path stroke="#000000" stroke-miterlimit="10" d="M77.29,63.177h-5.528v5.146h6.185v1.546h-8.048V55.595h7.73v1.546h-5.867v4.511
		h5.528V63.177z"/>
</g>
</svg>
