<?xml version="1.0" encoding="utf-8"?>
<!-- Generator: Adobe Illustrator 15.0.0, SVG Export Plug-In . SVG Version: 6.00 Build 0)  -->
<!DOCTYPE svg PUBLIC "-//W3C//DTD SVG 1.1//EN" "http://www.w3.org/Graphics/SVG/1.1/DTD/svg11.dtd">
<svg version="1.1"
	 id="svg2" sodipodi:docbase="C:\Users\Paul\Desktop\stock" inkscape:version="0.45.1" sodipodi:docname="divided-road.svg" sodipodi:version="0.32" inkscape:output_extension="org.inkscape.output.svg.inkscape" xmlns:rdf="http://www.w3.org/1999/02/22-rdf-syntax-ns#" xmlns:cc="http://web.resource.org/cc/" xmlns:dc="http://purl.org/dc/elements/1.1/" xmlns:svg="http://www.w3.org/2000/svg" xmlns:inkscape="http://www.inkscape.org/namespaces/inkscape" xmlns:sodipodi="http://sodipodi.sourceforge.net/DTD/sodipodi-0.dtd"
	 xmlns="http://www.w3.org/2000/svg" xmlns:xlink="http://www.w3.org/1999/xlink" x="0px" y="0px" width="120.394px"
	 height="120.061px" viewBox="-2 0 120.394 120.061" enable-background="new -2 0 120.394 120.061" xml:space="preserve">
<sodipodi:namedview  id="base" inkscape:pageopacity="0.0" inkscape:window-x="384" inkscape:document-units="px" inkscape:current-layer="layer1" inkscape:window-y="165" inkscape:window-height="737" inkscape:pageshadow="2" inkscape:window-width="932" pagecolor="#ffffff" objecttolerance="10" inkscape:cx="57.397138" borderopacity="1.0" inkscape:zoom="1.8283764" guidetolerance="10" inkscape:cy="98.658627" gridtolerance="10000" bordercolor="#666666">
	</sodipodi:namedview>
<g id="layer1" transform="translate(-18.293278,-18.611715)" inkscape:groupmode="layer" inkscape:label="Layer 1">
	<g id="g5102" transform="matrix(0.7071068,-0.7071068,0.7071068,0.7071068,-25.405412,113.48122)">
		<path id="rect4129" fill="#FFD520" stroke="#020200" d="M56.766,3.71h79.604c1.57,0,2.843,1.273,2.842,2.842l0,79.605
			c0,1.569-1.273,2.842-2.842,2.842H56.766c-1.569,0-2.842-1.273-2.842-2.842l0-79.605C53.923,4.983,55.197,3.71,56.766,3.71z"/>
		<path id="rect5100" fill="#FFD520" stroke="#020200" d="M57.04,5.124h79.056c0.94,0,1.702,0.773,1.703,1.726l0,79.01
			c0,0.954-0.763,1.727-1.702,1.725l-79.056,0.001c-0.94,0.001-1.703-0.773-1.703-1.725V6.85C55.338,5.897,56.1,5.124,57.04,5.124z"
			/>
	</g>
</g>
<g id="layer1_1_" transform="translate(-18.293278,-18.611715)" inkscape:groupmode="layer" inkscape:label="Layer 1">
	<g id="g3173" transform="translate(3.5143228,4.2034912)">
		<path stroke="#000000" stroke-linejoin="round" d="M72.05,68.163L57.692,45.255v-0.007l-0.002,0.004l-0.001-0.004v0.008
			L43.331,68.164c-0.557,1.17,0.095,2.382,1.264,2.226c0.851-0.115,4.771-1.081,8.756-1.59v33.782h8.814V68.815
			c3.938,0.515,7.78,1.461,8.622,1.575C71.955,70.546,72.608,69.334,72.05,68.163z"/>
		<path stroke="#000000" stroke-linejoin="round" d="M99.691,77.154c-0.841,0.112-4.683,1.059-8.621,1.575V44.962h-8.813v33.783
			c-3.986-0.51-7.906-1.477-8.757-1.592c-1.169-0.156-1.821,1.055-1.265,2.225l14.357,22.909v0.008l0.002-0.004l0.003,0.004v-0.008
			l14.356-22.909C101.511,78.209,100.858,76.998,99.691,77.154z"/>
	</g>
</g>
<g enable-background="new    ">
	<path fill="#999999" d="M48.492,99.726v2.729c0,0.201,0.01,0.432,0.02,0.582h-0.387l-0.02-0.393h-0.014
		c-0.128,0.256-0.415,0.443-0.807,0.443c-0.578,0-1.027-0.463-1.027-1.148c-0.005-0.752,0.494-1.207,1.072-1.207
		c0.371,0,0.613,0.164,0.723,0.34h0.01v-1.35L48.492,99.726L48.492,99.726z M48.062,101.698c0-0.051-0.005-0.121-0.021-0.172
		c-0.063-0.258-0.301-0.473-0.627-0.473c-0.45,0-0.717,0.375-0.717,0.867c0,0.455,0.241,0.838,0.707,0.838
		c0.291,0,0.559-0.188,0.637-0.49c0.016-0.061,0.021-0.111,0.021-0.182V101.698z"/>
	<path fill="#999999" d="M49.22,101.392c0-0.24-0.01-0.424-0.021-0.609h0.381l0.02,0.369h0.016c0.133-0.215,0.355-0.414,0.756-0.414
		c0.32,0,0.568,0.186,0.67,0.451h0.011c0.073-0.131,0.174-0.225,0.271-0.295c0.146-0.105,0.297-0.158,0.524-0.158
		c0.321,0,0.791,0.195,0.791,0.979v1.324h-0.425v-1.271c0-0.439-0.174-0.695-0.52-0.695c-0.252,0-0.439,0.174-0.521,0.369
		c-0.021,0.061-0.034,0.131-0.034,0.207v1.395h-0.425v-1.354c0-0.359-0.168-0.617-0.5-0.617c-0.267,0-0.47,0.207-0.539,0.412
		c-0.024,0.059-0.035,0.133-0.035,0.203v1.354h-0.425v-1.645h0.003v-0.006L49.22,101.392L49.22,101.392z"/>
	<path fill="#999999" d="M53.449,100.78l0.472,1.266c0.077,0.209,0.144,0.396,0.192,0.582h0.015
		c0.055-0.186,0.125-0.375,0.202-0.582l0.466-1.266h0.454l-0.938,2.26h-0.415l-0.91-2.26H53.449z"/>
	<path fill="#999999" d="M57.674,99.726v2.729c0,0.201,0.01,0.432,0.02,0.582h-0.386l-0.021-0.393h-0.016
		c-0.129,0.256-0.416,0.443-0.807,0.443c-0.578,0-1.027-0.463-1.027-1.148c-0.005-0.752,0.494-1.207,1.072-1.207
		c0.371,0,0.613,0.164,0.723,0.34h0.012v-1.35L57.674,99.726L57.674,99.726z M57.242,101.698c0-0.051-0.004-0.121-0.021-0.172
		c-0.063-0.258-0.303-0.473-0.629-0.473c-0.449,0-0.718,0.375-0.718,0.867c0,0.455,0.242,0.838,0.707,0.838
		c0.293,0,0.561-0.188,0.64-0.49c0.017-0.061,0.021-0.111,0.021-0.182V101.698z"/>
	<path fill="#999999" d="M60.082,102.497c0,0.195,0.011,0.389,0.035,0.541h-0.395l-0.031-0.285h-0.018
		c-0.137,0.18-0.396,0.336-0.73,0.336c-0.483,0-0.732-0.322-0.732-0.648c0-0.545,0.517-0.846,1.438-0.84v-0.047
		c0-0.186-0.057-0.525-0.543-0.521c-0.229,0-0.461,0.061-0.629,0.17l-0.099-0.273c0.196-0.117,0.487-0.195,0.792-0.195
		c0.729,0,0.906,0.471,0.906,0.92v0.848h0.004v-0.004H60.082z M59.662,101.886c-0.479-0.014-1.018,0.068-1.018,0.508
		c0,0.271,0.188,0.395,0.406,0.395c0.313,0,0.521-0.188,0.588-0.379c0.02-0.047,0.021-0.094,0.021-0.131v-0.393H59.662z"/>
	<path fill="#999999" d="M60.683,102.796c0-0.168,0.124-0.295,0.296-0.295c0.174,0,0.292,0.121,0.292,0.295
		c0,0.168-0.118,0.299-0.303,0.299C60.8,103.089,60.683,102.964,60.683,102.796z"/>
	<path fill="#999999" d="M63.516,102.96c-0.113,0.057-0.365,0.135-0.688,0.135c-0.725,0-1.191-0.465-1.191-1.154
		c0-0.693,0.507-1.203,1.285-1.203c0.258,0,0.484,0.059,0.604,0.123l-0.099,0.311c-0.104-0.053-0.269-0.104-0.506-0.104
		c-0.55,0-0.847,0.389-0.847,0.854c0,0.523,0.354,0.848,0.832,0.848c0.246,0,0.406-0.057,0.529-0.104L63.516,102.96z"/>
	<path fill="#999999" d="M66.162,101.892c0,0.834-0.618,1.197-1.189,1.197c-0.645,0-1.146-0.447-1.146-1.158
		c0-0.752,0.528-1.197,1.188-1.197C65.697,100.733,66.162,101.204,66.162,101.892z M64.268,101.913c0,0.494,0.297,0.871,0.723,0.871
		c0.416,0,0.729-0.373,0.729-0.879c0-0.383-0.201-0.865-0.717-0.865C64.49,101.042,64.268,101.489,64.268,101.913z"/>
	<path fill="#999999" d="M66.712,101.392c0-0.24-0.011-0.424-0.021-0.609h0.381l0.021,0.369h0.017
		c0.137-0.215,0.354-0.414,0.756-0.414c0.322,0,0.569,0.186,0.676,0.451h0.012c0.072-0.131,0.174-0.225,0.271-0.295
		c0.145-0.105,0.297-0.158,0.521-0.158c0.321,0,0.791,0.195,0.791,0.979v1.324H69.71v-1.271c0-0.439-0.173-0.695-0.521-0.695
		c-0.253,0-0.438,0.174-0.521,0.369c-0.02,0.061-0.032,0.131-0.032,0.207v1.395h-0.427v-1.354c0-0.359-0.168-0.617-0.498-0.617
		c-0.27,0-0.471,0.207-0.538,0.412c-0.022,0.059-0.035,0.133-0.035,0.203v1.354h-0.427v-1.645h0.001V101.392z"/>
</g>
</svg>
