<?xml version="1.0" encoding="utf-8"?>
<!-- Generator: Adobe Illustrator 15.0.0, SVG Export Plug-In . SVG Version: 6.00 Build 0)  -->
<!DOCTYPE svg PUBLIC "-//W3C//DTD SVG 1.1//EN" "http://www.w3.org/Graphics/SVG/1.1/DTD/svg11.dtd">
<svg version="1.1" id="Layer_1" xmlns="http://www.w3.org/2000/svg" xmlns:xlink="http://www.w3.org/1999/xlink" x="0px" y="0px"
	 width="131.01px" height="102.189px" viewBox="0 0 131.01 102.189" enable-background="new 0 0 131.01 102.189"
	 xml:space="preserve">
<g>
	<polygon fill="#FFFFFF" points="117.159,85.594 11.491,85.594 11.491,85.594 10.084,85.448 8.834,85.303 7.74,84.868 6.802,84.432 
		6.021,83.706 5.552,82.979 5.24,82.106 5.083,81.091 5.083,4.958 5.083,4.958 5.24,3.941 5.552,3.068 6.021,2.342 6.802,1.615 
		7.74,1.18 8.834,0.744 10.084,0.599 11.491,0.453 117.159,0.453 117.159,0.453 118.722,0.599 119.974,0.744 121.067,1.18 
		121.849,1.615 122.63,2.342 123.099,3.068 123.411,3.941 123.569,4.958 123.569,81.091 123.569,81.091 123.411,82.106 
		123.099,82.979 122.63,83.706 121.849,84.432 121.067,84.868 119.974,85.303 118.722,85.448 	"/>
	<path d="M117.159,83.706H11.491l0,0l-0.78-0.146H9.929L9.304,83.27l-0.47-0.291l-0.469-0.291l-0.311-0.434l-0.157-0.582v-0.584
		V4.958l0,0V4.377l0.157-0.581l0.312-0.437l0.469-0.288l0.47-0.292L9.93,2.488h0.781l0.78-0.146h105.668l0,0l0.938,0.146h0.625
		l0.623,0.291l0.471,0.292l0.469,0.288l0.314,0.437l0.154,0.581l0.158,0.583v76.131l0,0l-0.158,0.584l-0.154,0.582l-0.314,0.434
		l-0.469,0.291l-0.471,0.289l-0.623,0.293h-0.625L117.159,83.706L117.159,83.706L117.159,83.706z M118.407,4.958L118.407,4.958
		V4.521l-0.311-0.145l-0.314-0.145l-0.623-0.146H11.491l0,0l-0.469,0.146l-0.467,0.145l-0.157,0.145l-0.157,0.437v76.133l0,0
		l0.157,0.436l0.157,0.146l0.468,0.143l0.469,0.146h105.667l0,0l0.625-0.146l0.314-0.143l0.311-0.146v-0.436V4.958H118.407z"/>
</g>
<g>
	<path fill="#999999" d="M56.875,75.594v2.22c0,0.163,0.01,0.351,0.02,0.476h-0.387l-0.02-0.314h-0.017
		c-0.128,0.204-0.415,0.356-0.806,0.356c-0.58,0-1.028-0.375-1.028-0.935c-0.005-0.607,0.493-0.979,1.073-0.979
		c0.371,0,0.612,0.134,0.722,0.274h0.01v-1.099L56.875,75.594L56.875,75.594z M56.444,77.198c0-0.042-0.007-0.102-0.021-0.143
		c-0.063-0.209-0.304-0.386-0.629-0.386c-0.449,0-0.718,0.308-0.718,0.705c0,0.369,0.241,0.68,0.707,0.68
		c0.293,0,0.56-0.147,0.64-0.396c0.015-0.047,0.021-0.092,0.021-0.146V77.198z"/>
	<path fill="#999999" d="M57.601,76.948c0-0.19-0.011-0.346-0.021-0.493h0.381l0.021,0.3h0.017c0.133-0.175,0.354-0.337,0.756-0.337
		c0.32,0,0.568,0.148,0.672,0.364h0.01c0.074-0.104,0.175-0.183,0.271-0.236c0.145-0.083,0.297-0.13,0.522-0.13
		c0.319,0,0.791,0.157,0.791,0.796v1.074h-0.426v-1.032c0-0.354-0.173-0.563-0.52-0.563c-0.252,0-0.44,0.142-0.521,0.299
		c-0.02,0.051-0.035,0.104-0.035,0.167v1.135h-0.425v-1.101c0-0.292-0.168-0.5-0.5-0.5c-0.267,0-0.47,0.166-0.539,0.333
		c-0.023,0.047-0.034,0.104-0.034,0.163v1.104h-0.426V76.95L57.601,76.948L57.601,76.948z"/>
	<path fill="#999999" d="M61.832,76.451l0.469,1.024c0.08,0.172,0.146,0.318,0.193,0.476h0.016c0.055-0.149,0.123-0.305,0.203-0.476
		l0.463-1.024h0.455l-0.938,1.833h-0.415l-0.91-1.833H61.832z"/>
	<path fill="#999999" d="M66.056,75.594v2.22c0,0.163,0.013,0.351,0.021,0.476h-0.39l-0.021-0.314h-0.018
		c-0.129,0.204-0.416,0.356-0.807,0.356c-0.578,0-1.029-0.375-1.029-0.935c-0.006-0.607,0.496-0.979,1.074-0.979
		c0.371,0,0.611,0.134,0.724,0.274h0.013v-1.099L66.056,75.594L66.056,75.594z M65.622,77.198c0-0.042-0.005-0.102-0.021-0.143
		c-0.063-0.209-0.305-0.386-0.629-0.386c-0.449,0-0.717,0.308-0.717,0.705c0,0.369,0.239,0.68,0.706,0.68
		c0.292,0,0.56-0.147,0.64-0.396c0.018-0.047,0.021-0.092,0.021-0.146V77.198z"/>
	<path fill="#999999" d="M68.464,77.844c0,0.158,0.014,0.313,0.033,0.438h-0.395l-0.032-0.229h-0.019
		c-0.134,0.146-0.396,0.271-0.729,0.271c-0.479,0-0.729-0.263-0.729-0.524c0-0.438,0.52-0.688,1.438-0.686v-0.036
		c0-0.146-0.06-0.425-0.543-0.421c-0.229,0-0.461,0.052-0.629,0.139l-0.103-0.226c0.192-0.097,0.483-0.157,0.789-0.157
		c0.729,0,0.91,0.383,0.91,0.744L68.464,77.844L68.464,77.844z M68.042,77.347c-0.479-0.011-1.015,0.061-1.015,0.411
		c0,0.225,0.188,0.317,0.401,0.317c0.313,0,0.521-0.15,0.59-0.309c0.02-0.038,0.021-0.076,0.021-0.104L68.042,77.347L68.042,77.347z
		"/>
	<path fill="#999999" d="M69.062,78.088c0-0.14,0.125-0.235,0.3-0.235c0.174,0,0.293,0.099,0.293,0.235
		c0,0.14-0.119,0.235-0.306,0.235C69.181,78.326,69.062,78.222,69.062,78.088z"/>
	<path fill="#999999" d="M71.896,78.219c-0.11,0.042-0.362,0.104-0.688,0.104c-0.724,0-1.188-0.375-1.188-0.938
		c0-0.563,0.504-0.979,1.285-0.979c0.258,0,0.481,0.051,0.604,0.103l-0.104,0.253c-0.104-0.042-0.269-0.086-0.504-0.086
		c-0.552,0-0.85,0.313-0.85,0.688c0,0.429,0.354,0.688,0.832,0.688c0.246,0,0.408-0.045,0.529-0.087L71.896,78.219z"/>
	<path fill="#999999" d="M74.542,77.352c0,0.68-0.617,0.976-1.189,0.976c-0.645,0-1.146-0.361-1.146-0.94
		c0-0.605,0.524-0.972,1.188-0.972C74.078,76.413,74.542,76.795,74.542,77.352z M72.647,77.372c0,0.399,0.3,0.704,0.726,0.704
		c0.416,0,0.729-0.301,0.729-0.714c0-0.313-0.201-0.699-0.719-0.699C72.871,76.664,72.647,77.027,72.647,77.372z"/>
	<path fill="#999999" d="M75.093,76.948c0-0.19-0.012-0.346-0.021-0.493h0.381l0.021,0.3h0.02c0.137-0.175,0.354-0.337,0.757-0.337
		c0.319,0,0.567,0.148,0.675,0.364h0.012c0.072-0.104,0.172-0.183,0.271-0.236c0.146-0.083,0.298-0.13,0.521-0.13
		c0.32,0,0.791,0.157,0.791,0.796v1.074h-0.428v-1.032c0-0.354-0.174-0.563-0.52-0.563c-0.256,0-0.439,0.142-0.521,0.299
		c-0.021,0.051-0.035,0.104-0.035,0.167v1.135h-0.424v-1.101c0-0.292-0.168-0.5-0.498-0.5c-0.271,0-0.476,0.166-0.539,0.333
		c-0.022,0.047-0.033,0.104-0.033,0.163v1.104h-0.428V76.948L75.093,76.948z"/>
</g>
<g>
	<path stroke="#000000" stroke-width="0.75" stroke-miterlimit="10" d="M18.509,16.384h-4.832V14.26h11.761v2.124h-4.855v17.214
		h-2.074V16.384z"/>
	<path stroke="#000000" stroke-width="0.75" stroke-miterlimit="10" d="M30.746,33.598L26.715,14.26h2.168l1.885,9.783
		c0.472,2.41,0.896,4.82,1.179,6.686h0.047c0.26-1.922,0.754-4.218,1.296-6.714l2.122-9.755h2.145l1.933,9.813
		c0.448,2.295,0.872,4.591,1.108,6.627h0.046c0.331-2.124,0.778-4.276,1.273-6.686l2.098-9.755h2.098L41.61,33.597h-2.145
		l-2.004-10.071c-0.494-2.467-0.825-4.36-1.037-6.312h-0.047c-0.26,1.922-0.637,3.815-1.226,6.312l-2.263,10.071L30.746,33.598
		L30.746,33.598z"/>
	<path stroke="#000000" stroke-width="0.75" stroke-miterlimit="10" d="M61.675,23.728c0,6.627-3.323,10.185-7.377,10.185
		c-4.219,0-7.141-3.988-7.141-9.84c0-6.14,3.111-10.157,7.354-10.157C58.87,13.916,61.675,17.962,61.675,23.728z M49.324,24.014
		c0,4.161,1.839,7.861,5.091,7.861c3.252,0,5.091-3.644,5.091-8.033c0-3.874-1.649-7.89-5.068-7.89
		C51.021,15.953,49.324,19.797,49.324,24.014z"/>
	<path stroke="#000000" stroke-width="0.75" stroke-miterlimit="10" d="M69.409,24.933v1.835h-5.821v-1.835H69.409z"/>
	<path stroke="#000000" stroke-width="0.75" stroke-miterlimit="10" d="M74.245,33.598L70.214,14.26h2.168l1.887,9.783
		c0.471,2.41,0.895,4.82,1.178,6.686h0.047c0.26-1.922,0.754-4.218,1.297-6.714l2.121-9.755h2.146l1.932,9.813
		c0.449,2.295,0.873,4.591,1.109,6.627h0.047c0.33-2.124,0.777-4.276,1.273-6.686l2.096-9.755h2.098L85.11,33.597h-2.145
		l-2.004-10.071c-0.494-2.467-0.824-4.36-1.035-6.312h-0.049c-0.26,1.922-0.637,3.815-1.227,6.312L76.39,33.597L74.245,33.598
		L74.245,33.598z"/>
	<path stroke="#000000" stroke-width="0.75" stroke-miterlimit="10" d="M92.823,27.515l-1.65,6.083h-2.121l5.42-19.337h2.453
		l5.42,19.337h-2.191l-1.697-6.083H92.823z M98.056,25.565l-1.58-5.565c-0.354-1.263-0.588-2.41-0.824-3.529h-0.047
		c-0.236,1.119-0.473,2.324-0.803,3.5l-1.555,5.594H98.056z"/>
	<path stroke="#000000" stroke-width="0.75" stroke-miterlimit="10" d="M106.356,33.598v-8.206l-5.045-11.133h2.357l2.238,5.336
		c0.59,1.463,1.084,2.639,1.578,3.988h0.049c0.424-1.263,0.99-2.525,1.604-3.988l2.285-5.336h2.311l-5.305,11.104v8.234
		L106.356,33.598L106.356,33.598z"/>
	<path stroke="#000000" stroke-width="0.75" stroke-miterlimit="10" d="M27.939,50.811h-4.831v-2.122H34.87v2.122h-4.856v17.215
		H27.94L27.939,50.811L27.939,50.811z"/>
	<path stroke="#000000" stroke-width="0.75" stroke-miterlimit="10" d="M36.641,48.947c1.037-0.229,2.545-0.402,3.936-0.402
		c2.192,0,3.63,0.517,4.596,1.578c0.778,0.86,1.249,2.181,1.249,3.7c0,2.525-1.32,4.217-2.97,4.908v0.086
		c1.202,0.516,1.933,1.893,2.31,3.9c0.518,2.697,0.895,4.561,1.225,5.309h-2.122c-0.259-0.574-0.612-2.209-1.037-4.619
		c-0.471-2.668-1.344-3.674-3.205-3.758h-1.933v8.377h-2.05V48.947z M38.691,57.755h2.098c2.191,0,3.583-1.463,3.583-3.674
		c0-2.496-1.485-3.586-3.654-3.586c-0.989,0-1.673,0.085-2.027,0.2V57.755z"/>
	<path stroke="#000000" stroke-width="0.75" stroke-miterlimit="10" d="M52.011,61.942l-1.65,6.084h-2.122l5.422-19.337h2.451
		l5.421,19.337h-2.192l-1.697-6.084H52.011z M57.244,59.991l-1.58-5.564c-0.354-1.264-0.589-2.41-0.824-3.528h-0.047
		c-0.236,1.118-0.471,2.323-0.801,3.501l-1.556,5.594h4.809V59.991z"/>
	<path stroke="#000000" stroke-width="0.75" stroke-miterlimit="10" d="M63.848,48.689h8.556v2.094h-6.48v6.425h5.986v2.066h-5.986
		v8.75h-2.074L63.848,48.689L63.848,48.689z"/>
	<path stroke="#000000" stroke-width="0.75" stroke-miterlimit="10" d="M75.329,48.689h8.557v2.094h-6.482v6.425h5.988v2.066h-5.988
		v8.75h-2.074V48.689z"/>
	<path stroke="#000000" stroke-width="0.75" stroke-miterlimit="10" d="M88.886,48.689v19.337h-2.074V48.689H88.886z"/>
	<path stroke="#000000" stroke-width="0.75" stroke-miterlimit="10" d="M103.548,67.423c-0.73,0.459-2.262,0.918-4.195,0.918
		c-4.479,0-7.824-3.443-7.824-9.811c0-6.084,3.371-10.157,8.297-10.157c1.955,0,3.229,0.516,3.771,0.861l-0.52,2.037
		c-0.754-0.46-1.863-0.804-3.182-0.804c-3.725,0-6.199,2.897-6.199,7.975c0,4.764,2.24,7.775,6.082,7.775
		c1.271,0,2.545-0.314,3.371-0.803L103.548,67.423z"/>
</g>
</svg>
