<?xml version="1.0" encoding="utf-8"?>
<!-- Generator: Adobe Illustrator 15.0.0, SVG Export Plug-In . SVG Version: 6.00 Build 0)  -->
<!DOCTYPE svg PUBLIC "-//W3C//DTD SVG 1.1//EN" "http://www.w3.org/Graphics/SVG/1.1/DTD/svg11.dtd">
<svg version="1.1" id="Layer_1" xmlns="http://www.w3.org/2000/svg" xmlns:xlink="http://www.w3.org/1999/xlink" x="0px" y="0px"
	 width="74.375px" height="48.75px" viewBox="0 0 74.375 48.75" enable-background="new 0 0 74.375 48.75" xml:space="preserve">
<g>
	<polygon fill="#FFFFFF" stroke="#F90B0B" stroke-width="0.5" stroke-miterlimit="10" points="67.266,48.5 67.266,48.5 68.936,48.5 
		70.398,48.188 71.025,47.979 71.547,47.77 72.07,47.457 72.486,47.039 72.904,46.621 73.218,46.098 73.428,45.576 73.637,44.949 
		73.949,43.486 74.055,41.711 74.055,7.04 74.055,7.04 73.949,5.264 73.637,3.802 73.428,3.174 73.218,2.652 72.904,2.129 
		72.486,1.711 72.07,1.294 71.547,0.981 71.025,0.772 70.398,0.563 68.936,0.25 67.266,0.25 7.109,0.25 7.109,0.25 5.439,0.25 
		3.977,0.563 3.35,0.772 2.828,0.981 2.305,1.294 1.888,1.711 1.47,2.129 1.157,2.652 0.948,3.174 0.739,3.802 0.426,5.264 
		0.321,7.04 0.321,41.711 0.321,41.711 0.426,43.486 0.739,44.949 0.948,45.576 1.157,46.098 1.47,46.621 1.888,47.039 
		2.305,47.457 2.828,47.77 3.35,47.979 3.977,48.188 5.439,48.5 7.109,48.5 	"/>
	<path fill="#ED1C24" d="M67.369,46.934L67.369,46.934l1.359-0.104l1.045-0.207l0.938-0.313l0.313-0.313l0.313-0.209l0.313-0.313
		l0.209-0.418l0.416-0.835l0.209-1.147v-1.359V7.038l0,0V5.68l-0.209-1.149l-0.416-0.835L71.65,3.278l-0.313-0.313l-0.313-0.21
		l-0.313-0.313l-0.938-0.313L68.729,1.92l-1.359-0.104H7.319l0,0L5.962,1.919L4.918,2.128L3.979,2.441L3.666,2.754l-0.313,0.21
		L3.04,3.277L2.831,3.695L2.414,4.531L2.205,5.68v1.358v34.673l0,0v1.357l0.209,1.147l0.417,0.834l0.209,0.418l0.313,0.314
		l0.313,0.209l0.313,0.313l0.939,0.313l1.044,0.207l1.357,0.104h60.05V46.934z M32.279,39.832l4.282-12.428h1.88l4.176,12.428
		h-1.983l-1.253-3.551h-3.865l-1.253,3.551H32.279L32.279,39.832z M37.501,30.643l-1.358,3.654h2.611L37.501,30.643L37.501,30.643z
		 M34.89,19.781L34.89,19.781l-0.417-0.523l-0.209-0.626l-0.209-0.627l-0.208-0.626l0,0l-0.208-1.253v-1.462l0,0v-1.461l0.208-1.253
		l0.417-1.148l0.418-0.941l0.626-0.73l0.732-0.523l0.835-0.313l0.939-0.105l0,0l0.939,0.105l0.835,0.313l0.835,0.523l0.521,0.522
		l0,0l0.521,0.941l0.417,1.148l0.209,1.253l0.104,1.461l0,0l-0.104,1.462l-0.209,1.358l-0.313,1.149l-0.418,0.94l0,0l-0.313,0.417
		l-0.313,0.313l-0.73,0.523l-0.939,0.313l-1.045,0.105l0,0l-0.835-0.105l-0.835-0.209l-0.73-0.417L34.89,19.781L34.89,19.781
		L34.89,19.781z M40.32,14.663L40.32,14.663v-1.044l-0.209-0.939l-0.104-0.731l-0.313-0.731L39.382,10.8l-0.417-0.418l-0.418-0.208
		l-0.626-0.105l0,0l-0.522,0.105l-0.522,0.208L36.46,10.8l-0.314,0.417l0,0l-0.313,0.626l-0.209,0.836l-0.105,0.939v1.044l0,0
		l0.105,1.567l0.313,1.462l0,0l0.314,0.626l0.417,0.522l0.522,0.209l0.626,0.105l0,0h0.627l0.521-0.209l0.418-0.418l0.313-0.417
		l0.313-0.731l0.104-0.731l0.209-0.94V14.663L40.32,14.663L40.32,14.663z M23.298,8.501h4.073h0.209l0,0h0.835l0.626,0.208
		l0.626,0.313l0.627,0.418l0.417,0.523l0.313,0.627l0.209,0.626l0.104,0.731l0,0l-0.104,0.94l-0.209,0.418l-0.104,0.417
		l-0.313,0.418l-0.313,0.313l-0.836,0.626l2.089,5.745h-2.089l-1.984-5.431l-2.297,0.104v5.327h-1.88L23.298,8.501L23.298,8.501z
		 M27.789,13.515h0.209l0,0l0.313-0.105h0.209l0.418-0.417l0.313-0.418l0.104-0.626l0,0l-0.104-0.626l-0.313-0.418l-0.418-0.417
		l-0.209-0.104h-0.313h-0.209h-2.611v3.133h2.611V13.515z M10.034,8.501h1.88l0.94,6.684l1.775-6.684H16.3l1.67,6.684l0.94-6.684
		h1.984l-1.775,12.323h-1.775l-1.88-7.833l-1.984,7.833h-1.776L10.034,8.501L10.034,8.501z M45.333,8.501h1.983l4.49,7.936V8.501
		h1.881v12.323h-1.672l-4.699-8.459v8.459h-1.983V8.501L45.333,8.501z M64.341,14.768v2.192v0.209l0,0l-0.104,0.835l-0.209,0.731
		l-0.313,0.627l-0.521,0.626l-0.627,0.522l-0.625,0.314l-0.73,0.209l-0.835,0.104l0,0h-0.522l-0.521-0.104l-0.836-0.417
		l-0.418-0.209l-0.416-0.314l-0.313-0.418l-0.313-0.417l0,0l-0.418-0.835l-0.313-1.044L56.2,16.126l-0.104-1.357l0,0l0.104-1.671
		l0.209-1.358l0.418-1.253l0.209-0.417l0.313-0.418l0,0l0.625-0.626l0.73-0.417l0.836-0.314l0.836-0.104l0,0l0.626,0.104L61.629,8.4
		l0.627,0.313l0.521,0.313l0.418,0.418l0.416,0.417l0.313,0.523l0.208,0.626l-1.773,0.626l0,0l-0.313-0.626l-0.418-0.523L61,10.173
		l-0.626-0.105l0,0l-0.627,0.105l-0.417,0.208L58.91,10.8l-0.313,0.417l-0.313,0.626l-0.209,0.835l-0.104,0.835v1.044l0,0v1.044
		l0.104,0.939l0.209,0.835l0.313,0.731l0.313,0.522l0.418,0.314l0.418,0.209l0.521,0.104l0,0h0.418l0.418-0.104l0.418-0.209
		l0.209-0.209l0.313-0.313l0.104-0.418l0.104-0.417l0.104-0.418V16.75h-2.09v-1.984h4.072v0.001L64.341,14.768L64.341,14.768z
		 M20.477,27.404h1.88l0.94,6.684l1.775-6.684h1.671l1.67,6.684l0.94-6.684h1.984l-1.775,12.428h-1.775L25.907,32l-1.984,7.832
		h-1.775L20.477,27.404L20.477,27.404z M47.527,34.4l-4.281-6.996h2.297l2.925,4.908l3.028-4.908h2.298l-4.386,7.102v5.326h-1.881
		V34.4L47.527,34.4z"/>
</g>
<g>
	<path fill="#999999" d="M27.644,43.29v2.218c0,0.164,0.01,0.352,0.02,0.477h-0.387l-0.02-0.314h-0.018
		c-0.128,0.205-0.414,0.356-0.806,0.356c-0.58,0-1.028-0.375-1.028-0.935c-0.005-0.607,0.493-0.979,1.073-0.979
		c0.371,0,0.612,0.134,0.722,0.274h0.01v-1.098L27.644,43.29L27.644,43.29z M27.212,44.895c0-0.042-0.008-0.1-0.021-0.141
		c-0.063-0.209-0.305-0.387-0.629-0.387c-0.449,0-0.719,0.307-0.719,0.705c0,0.369,0.242,0.68,0.707,0.68
		c0.293,0,0.561-0.148,0.641-0.396c0.016-0.047,0.021-0.093,0.021-0.146V44.895z"/>
	<path fill="#999999" d="M28.37,44.645c0-0.19-0.012-0.346-0.021-0.493h0.381l0.021,0.3h0.017c0.133-0.175,0.354-0.337,0.756-0.337
		c0.319,0,0.567,0.147,0.672,0.364h0.011c0.073-0.104,0.174-0.184,0.271-0.236c0.146-0.083,0.297-0.13,0.522-0.13
		c0.318,0,0.791,0.157,0.791,0.796v1.074h-0.427V44.95c0-0.354-0.173-0.563-0.521-0.563c-0.252,0-0.439,0.143-0.521,0.3
		c-0.021,0.051-0.034,0.104-0.034,0.167v1.135h-0.426v-1.102c0-0.291-0.168-0.5-0.5-0.5c-0.267,0-0.47,0.166-0.539,0.334
		c-0.023,0.047-0.033,0.104-0.033,0.162v1.104h-0.427v-1.342L28.37,44.645L28.37,44.645z"/>
	<path fill="#999999" d="M32.601,44.147l0.469,1.024c0.08,0.172,0.146,0.319,0.193,0.476h0.016c0.057-0.149,0.123-0.306,0.203-0.476
		l0.463-1.024h0.455l-0.938,1.833h-0.416l-0.91-1.833H32.601z"/>
	<path fill="#999999" d="M36.823,43.29v2.218c0,0.164,0.014,0.352,0.021,0.477h-0.391l-0.021-0.314h-0.017
		c-0.129,0.205-0.416,0.356-0.809,0.356c-0.578,0-1.027-0.375-1.027-0.935c-0.006-0.607,0.494-0.979,1.072-0.979
		c0.371,0,0.613,0.134,0.725,0.274h0.013v-1.098L36.823,43.29L36.823,43.29z M36.391,44.895c0-0.042-0.005-0.1-0.021-0.141
		c-0.063-0.209-0.306-0.387-0.631-0.387c-0.449,0-0.717,0.307-0.717,0.705c0,0.369,0.24,0.68,0.707,0.68
		c0.292,0,0.561-0.148,0.641-0.396c0.016-0.047,0.021-0.093,0.021-0.146V44.895z"/>
	<path fill="#999999" d="M39.23,45.54c0,0.158,0.015,0.313,0.034,0.438H38.87l-0.033-0.229h-0.018
		c-0.133,0.146-0.395,0.271-0.729,0.271c-0.481,0-0.729-0.263-0.729-0.524c0-0.439,0.519-0.688,1.438-0.686v-0.036
		c0-0.146-0.06-0.425-0.543-0.421c-0.229,0-0.461,0.052-0.629,0.139l-0.103-0.226c0.192-0.097,0.483-0.157,0.79-0.157
		c0.729,0,0.91,0.383,0.91,0.744L39.23,45.54L39.23,45.54z M38.811,45.045c-0.478-0.012-1.015,0.059-1.015,0.41
		c0,0.223,0.188,0.317,0.401,0.317c0.313,0,0.521-0.15,0.591-0.31c0.019-0.037,0.021-0.076,0.021-0.104L38.811,45.045L38.811,45.045
		z"/>
	<path fill="#999999" d="M39.831,45.784c0-0.14,0.125-0.237,0.299-0.237s0.293,0.1,0.293,0.237s-0.119,0.235-0.305,0.235
		C39.95,46.022,39.831,45.92,39.831,45.784z"/>
	<path fill="#999999" d="M42.665,45.915c-0.111,0.042-0.363,0.104-0.688,0.104c-0.724,0-1.19-0.375-1.19-0.938
		c0-0.563,0.504-0.979,1.285-0.979c0.258,0,0.483,0.051,0.604,0.103l-0.104,0.254c-0.104-0.043-0.267-0.087-0.504-0.087
		c-0.55,0-0.848,0.313-0.848,0.688c0,0.429,0.354,0.688,0.832,0.688c0.246,0,0.408-0.045,0.531-0.087L42.665,45.915z"/>
	<path fill="#999999" d="M45.311,45.049c0,0.68-0.618,0.976-1.19,0.976c-0.644,0-1.146-0.361-1.146-0.94
		c0-0.606,0.526-0.972,1.187-0.972C44.847,44.109,45.311,44.491,45.311,45.049z M43.417,45.068c0,0.398,0.299,0.704,0.725,0.704
		c0.416,0,0.729-0.302,0.729-0.714c0-0.313-0.201-0.699-0.718-0.699C43.64,44.36,43.417,44.723,43.417,45.068z"/>
	<path fill="#999999" d="M45.86,44.645c0-0.19-0.012-0.346-0.021-0.493h0.381l0.021,0.3h0.018c0.137-0.175,0.354-0.337,0.758-0.337
		c0.318,0,0.566,0.147,0.674,0.364h0.012c0.072-0.104,0.172-0.184,0.271-0.236c0.146-0.083,0.297-0.13,0.521-0.13
		c0.32,0,0.791,0.157,0.791,0.796v1.074h-0.426V44.95c0-0.354-0.174-0.563-0.52-0.563c-0.256,0-0.439,0.143-0.521,0.3
		c-0.021,0.051-0.035,0.104-0.035,0.167v1.135h-0.423v-1.102c0-0.291-0.168-0.5-0.498-0.5c-0.271,0-0.476,0.166-0.539,0.334
		c-0.024,0.047-0.034,0.104-0.034,0.162v1.104h-0.427L45.86,44.645L45.86,44.645z"/>
</g>
</svg>
